G04*
G04 #@! TF.GenerationSoftware,Altium Limited,Altium Designer,24.9.1 (31)*
G04*
G04 Layer_Physical_Order=1*
G04 Layer_Color=255*
%FSLAX44Y44*%
%MOMM*%
G71*
G04*
G04 #@! TF.SameCoordinates,573C6FB0-CD79-483D-94B5-B6DABAD4C9EF*
G04*
G04*
G04 #@! TF.FilePolarity,Positive*
G04*
G01*
G75*
%ADD12C,0.5080*%
%ADD16C,0.2540*%
%ADD18O,0.3000X1.8000*%
%ADD19O,1.8000X0.3000*%
%ADD20R,3.1800X1.2700*%
%ADD21R,0.9121X0.9581*%
%ADD22R,0.8500X0.9000*%
%ADD23R,0.9000X0.8500*%
%ADD24R,0.9350X0.9621*%
%ADD25R,0.8500X0.6500*%
%ADD26R,0.9906X0.7112*%
%ADD27R,2.5000X1.0000*%
%ADD28R,3.3000X1.0200*%
%ADD29R,1.3046X1.4562*%
%ADD30R,0.9581X0.9121*%
%ADD31R,1.0637X1.0621*%
%ADD32R,0.8000X0.8000*%
%ADD45C,0.5000*%
%ADD46R,2.5000X2.5000*%
%ADD47C,2.0000*%
%ADD48C,5.5000*%
%ADD49C,2.5000*%
G36*
X495751Y608857D02*
X498010D01*
X502490Y608268D01*
X506854Y607098D01*
X511028Y605369D01*
X514941Y603110D01*
X518526Y600359D01*
X521720Y597164D01*
X524471Y593580D01*
X526730Y589667D01*
X528459Y585493D01*
X529628Y581129D01*
X530218Y576649D01*
Y574390D01*
X530300D01*
X530300Y156429D01*
X530300Y156429D01*
X530300D01*
X530274Y153900D01*
X529719Y149690D01*
X528550Y145326D01*
X526821Y141152D01*
X524562Y137239D01*
X521811Y133654D01*
X518616Y130459D01*
X515032Y127709D01*
X511119Y125450D01*
X506945Y123721D01*
X502580Y122551D01*
X498101Y121962D01*
X495842D01*
Y121920D01*
X210008D01*
X205529Y122510D01*
X201164Y123679D01*
X196990Y125408D01*
X193077Y127667D01*
X189493Y130418D01*
X186298Y133613D01*
X183547Y137197D01*
X181288Y141110D01*
X179559Y145284D01*
X178390Y149649D01*
X177800Y154128D01*
Y156387D01*
X177800Y574436D01*
X177830D01*
Y576695D01*
X178420Y581175D01*
X179589Y585539D01*
X181318Y589714D01*
X183578Y593626D01*
X186328Y597211D01*
X189523Y600406D01*
X193107Y603156D01*
X197020Y605415D01*
X201195Y607145D01*
X205559Y608314D01*
X209767Y608868D01*
X212298Y608890D01*
X212298Y608890D01*
X212298Y608890D01*
X495751Y608890D01*
Y608857D01*
D02*
G37*
%LPC*%
G36*
X215068Y604065D02*
X213974D01*
Y575295D01*
X242744D01*
Y576390D01*
X242004Y581060D01*
X240543Y585557D01*
X238396Y589770D01*
X235617Y593595D01*
X232274Y596939D01*
X228448Y599718D01*
X224235Y601865D01*
X219738Y603326D01*
X215068Y604065D01*
D02*
G37*
G36*
X211434D02*
X210340D01*
X205670Y603326D01*
X201173Y601865D01*
X196960Y599718D01*
X193134Y596939D01*
X189791Y593595D01*
X187012Y589770D01*
X184865Y585557D01*
X183404Y581060D01*
X182664Y576390D01*
Y575295D01*
X211434D01*
Y604065D01*
D02*
G37*
G36*
X497826Y604029D02*
X496732D01*
Y575259D01*
X525502D01*
Y576353D01*
X524762Y581024D01*
X523301Y585521D01*
X521154Y589734D01*
X518375Y593559D01*
X515032Y596903D01*
X511206Y599682D01*
X506993Y601828D01*
X502496Y603289D01*
X497826Y604029D01*
D02*
G37*
G36*
X494192D02*
X493098D01*
X488428Y603289D01*
X483931Y601828D01*
X479717Y599682D01*
X475892Y596903D01*
X472549Y593559D01*
X469769Y589734D01*
X467623Y585521D01*
X466162Y581024D01*
X465422Y576353D01*
Y575259D01*
X494192D01*
Y604029D01*
D02*
G37*
G36*
X242744Y572755D02*
X213974D01*
Y543985D01*
X215068D01*
X219738Y544725D01*
X224235Y546186D01*
X228448Y548333D01*
X232274Y551112D01*
X235617Y554456D01*
X238396Y558281D01*
X240543Y562494D01*
X242004Y566991D01*
X242744Y571661D01*
Y572755D01*
D02*
G37*
G36*
X211434D02*
X182664D01*
Y571661D01*
X183404Y566991D01*
X184865Y562494D01*
X187012Y558281D01*
X189791Y554456D01*
X193134Y551112D01*
X196960Y548333D01*
X201173Y546186D01*
X205670Y544725D01*
X210340Y543985D01*
X211434D01*
Y572755D01*
D02*
G37*
G36*
X525502Y572719D02*
X496732D01*
Y543949D01*
X497826D01*
X502496Y544689D01*
X506993Y546150D01*
X511206Y548297D01*
X515032Y551076D01*
X518375Y554420D01*
X521154Y558245D01*
X523301Y562458D01*
X524762Y566955D01*
X525502Y571625D01*
Y572719D01*
D02*
G37*
G36*
X494192D02*
X465422D01*
Y571625D01*
X466162Y566955D01*
X467623Y562458D01*
X469769Y558245D01*
X472549Y554420D01*
X475892Y551076D01*
X479717Y548297D01*
X483931Y546150D01*
X488428Y544689D01*
X493098Y543949D01*
X494192D01*
Y572719D01*
D02*
G37*
G36*
X273372Y531378D02*
X256202D01*
Y523758D01*
X273372D01*
Y531378D01*
D02*
G37*
G36*
X253662D02*
X236492D01*
Y523758D01*
X253662D01*
Y531378D01*
D02*
G37*
G36*
X273372Y521218D02*
X256202D01*
Y513598D01*
X273372D01*
Y521218D01*
D02*
G37*
G36*
X253662D02*
X236492D01*
Y513598D01*
X253662D01*
Y521218D01*
D02*
G37*
G36*
X469632Y530820D02*
X467627D01*
X465775Y530053D01*
X464357Y528635D01*
X464227Y528320D01*
X434970D01*
Y510540D01*
X471850D01*
Y521872D01*
X472903Y522925D01*
X473670Y524777D01*
Y526782D01*
X472903Y528635D01*
X471485Y530053D01*
X469632Y530820D01*
D02*
G37*
G36*
X471850Y502920D02*
X454680D01*
Y495300D01*
X471850D01*
Y502920D01*
D02*
G37*
G36*
X452140D02*
X434970D01*
Y495300D01*
X452140D01*
Y502920D01*
D02*
G37*
G36*
X267703Y580350D02*
X265697D01*
X263845Y579583D01*
X262427Y578165D01*
X262247Y577730D01*
X256470D01*
Y566150D01*
Y557650D01*
X264556D01*
X276583Y545624D01*
X277843Y544782D01*
X279329Y544486D01*
X301861D01*
Y537479D01*
X301861D01*
X301934Y534939D01*
X289383Y522388D01*
X288541Y521128D01*
X288245Y519641D01*
Y466086D01*
X285705Y464857D01*
X284555Y465758D01*
Y473588D01*
X284259Y475075D01*
X283417Y476335D01*
X274405Y485347D01*
X274052Y485583D01*
X273562Y486896D01*
X273418Y487885D01*
X273416Y487991D01*
X273511Y488622D01*
X273540Y488700D01*
X274280Y490488D01*
Y492492D01*
X273513Y494345D01*
X273372Y494486D01*
Y505978D01*
X236492D01*
Y496703D01*
X234145Y495731D01*
X222767Y507109D01*
Y509085D01*
X223480Y510807D01*
Y512812D01*
X222713Y514665D01*
X221295Y516083D01*
X219443Y516850D01*
X217437D01*
X215585Y516083D01*
X214167Y514665D01*
X213400Y512812D01*
Y510807D01*
X214167Y508955D01*
X214997Y508125D01*
Y505500D01*
X215293Y504013D01*
X216135Y502753D01*
X235981Y482907D01*
X236492Y480578D01*
X236054Y479701D01*
X235757Y479105D01*
X235488Y478454D01*
X234990Y477253D01*
Y475247D01*
X235652Y473649D01*
X235695Y473154D01*
X235535Y472533D01*
X232713Y471763D01*
X225479Y478997D01*
X224219Y479839D01*
X222732Y480135D01*
X200093D01*
X199705Y480523D01*
X197852Y481290D01*
X195847D01*
X193995Y480523D01*
X192577Y479105D01*
X191810Y477253D01*
Y475247D01*
X192577Y473395D01*
X193995Y471977D01*
X195847Y471210D01*
X197852D01*
X199705Y471977D01*
X200093Y472365D01*
X221123D01*
X236495Y456993D01*
X237755Y456151D01*
X239242Y455855D01*
X275655D01*
X278313Y453197D01*
X277341Y450850D01*
X199390D01*
Y442553D01*
X199075Y442423D01*
X197657Y441005D01*
X196890Y439152D01*
Y437147D01*
X197657Y435295D01*
X199075Y433877D01*
X199640Y433643D01*
Y426380D01*
X237720D01*
Y436689D01*
X240070Y437147D01*
X240837Y435295D01*
X242255Y433877D01*
X242340Y433842D01*
Y426380D01*
X277805D01*
Y421660D01*
X248408D01*
X247965Y422103D01*
X246112Y422870D01*
X244107D01*
X242255Y422103D01*
X240837Y420685D01*
X240219Y419192D01*
X240070Y418833D01*
X238577Y419124D01*
X237720Y421309D01*
Y421660D01*
X206498D01*
X206055Y422103D01*
X204202Y422870D01*
X202197D01*
X200345Y422103D01*
X199902Y421660D01*
X199640D01*
Y421398D01*
X198927Y420685D01*
X198160Y418833D01*
Y416828D01*
X198927Y414975D01*
X199640Y414262D01*
Y406380D01*
X233628D01*
X234600Y404033D01*
X232226Y401660D01*
X199640D01*
Y386879D01*
X199390Y386630D01*
X199390D01*
Y378460D01*
X240146D01*
X255037Y363569D01*
Y356444D01*
X270023D01*
Y368636D01*
X260958D01*
X253480Y376113D01*
X254452Y378460D01*
X280670D01*
Y386130D01*
X280420Y386380D01*
Y392750D01*
X261380D01*
Y395290D01*
X280420D01*
Y400287D01*
X281865Y401273D01*
X284405Y400108D01*
Y380499D01*
X284701Y379013D01*
X285417Y377941D01*
X285160Y376809D01*
X284576Y375401D01*
X278419D01*
Y369570D01*
X285750D01*
Y368300D01*
X287020D01*
Y361199D01*
X296405D01*
Y346371D01*
X286144D01*
Y336550D01*
X284874D01*
Y335280D01*
X275811D01*
Y329005D01*
X259046D01*
X257560Y328709D01*
X256299Y327867D01*
X250265Y321832D01*
X249258Y321967D01*
X247725Y322723D01*
Y343569D01*
X248757Y344248D01*
X250265Y344840D01*
X251744Y344227D01*
X253749D01*
X255037Y343366D01*
Y342310D01*
X261260D01*
Y347136D01*
X258541D01*
X257787Y348264D01*
Y350269D01*
X257020Y352122D01*
X255602Y353540D01*
X253749Y354307D01*
X253201D01*
X249200Y358307D01*
X247940Y359149D01*
X246454Y359445D01*
X241226D01*
X239740Y359149D01*
X238479Y358307D01*
X234783Y354610D01*
X233941Y353350D01*
X233645Y351864D01*
Y289088D01*
X233941Y287601D01*
X234783Y286341D01*
X249511Y271613D01*
X250621Y270871D01*
X250650Y270685D01*
X249370Y268331D01*
X248600D01*
Y260791D01*
Y253251D01*
X261595D01*
X262370Y253251D01*
X264135Y251443D01*
Y244740D01*
X262370Y242931D01*
X232290D01*
Y227851D01*
X255674D01*
X255813Y227643D01*
X264103Y219354D01*
X262333Y217531D01*
X261595Y217531D01*
X232290D01*
Y213876D01*
X215333D01*
X215166Y214043D01*
X213313Y214811D01*
X211308D01*
X209456Y214043D01*
X208038Y212626D01*
X207271Y210773D01*
Y208768D01*
X208038Y206916D01*
X209456Y205498D01*
X211308Y204731D01*
X213313D01*
X215166Y205498D01*
X215774Y206107D01*
X232290D01*
Y202451D01*
X261959D01*
X263027Y202225D01*
X264592Y201685D01*
X265273Y200666D01*
X267505Y198434D01*
X268765Y197592D01*
X270252Y197297D01*
X292510D01*
X321103Y168703D01*
X322363Y167861D01*
X323850Y167565D01*
X389890D01*
X391377Y167861D01*
X392637Y168703D01*
X480947Y257013D01*
X481789Y258273D01*
X482085Y259760D01*
Y317841D01*
X487887Y323643D01*
X488729Y324903D01*
X489025Y326390D01*
Y398760D01*
X491107Y400842D01*
X491949Y402103D01*
X492245Y403589D01*
Y432071D01*
X491949Y433557D01*
X491107Y434818D01*
X489025Y436900D01*
Y477302D01*
X488729Y478789D01*
X487887Y480049D01*
X481319Y486617D01*
X480059Y487459D01*
X478572Y487755D01*
X471850D01*
Y492760D01*
X453410D01*
X434970D01*
Y487755D01*
X432018D01*
X430531Y487459D01*
X429271Y486617D01*
X425243Y482589D01*
X424401Y481329D01*
X424105Y479842D01*
Y438053D01*
X420747Y434695D01*
X408503D01*
X407719Y435650D01*
X407406Y437226D01*
X406788Y438150D01*
X407406Y439074D01*
X407719Y440650D01*
X407406Y442226D01*
X406788Y443150D01*
X407406Y444074D01*
X407719Y445650D01*
X407406Y447226D01*
X406788Y448150D01*
X407406Y449074D01*
X407719Y450650D01*
X407406Y452226D01*
X406788Y453150D01*
X407406Y454074D01*
X407719Y455650D01*
X407406Y457226D01*
X406788Y458150D01*
X407406Y459074D01*
X407467Y459380D01*
X405290D01*
X405177Y459456D01*
X403600Y459770D01*
X396100D01*
Y461530D01*
X403600D01*
X405177Y461844D01*
X405290Y461920D01*
X407467D01*
X407406Y462226D01*
X406788Y463150D01*
X407406Y464074D01*
X407719Y465650D01*
X407406Y467226D01*
X406513Y468563D01*
X405176Y469456D01*
X403600Y469769D01*
X391540D01*
X391353Y469806D01*
X391090Y469967D01*
X389716Y472385D01*
X389850Y472707D01*
Y474712D01*
X389083Y476565D01*
X387665Y477983D01*
X387219Y478167D01*
Y486150D01*
X386906Y487726D01*
X386781Y487913D01*
X387409Y490801D01*
X387553Y490981D01*
X387665Y491027D01*
X389083Y492445D01*
X389850Y494297D01*
Y496302D01*
X389083Y498155D01*
X387665Y499573D01*
X385812Y500340D01*
X383807D01*
X381955Y499573D01*
X380537Y498155D01*
X379770Y496302D01*
Y495754D01*
X378363Y494347D01*
X378154Y494207D01*
X375713Y491766D01*
X373290Y491517D01*
X371985Y492646D01*
Y506264D01*
X371689Y507751D01*
X370847Y509011D01*
X369530Y510328D01*
Y511543D01*
X368763Y513395D01*
X367345Y514813D01*
X365493Y515580D01*
X363488D01*
X361143Y517205D01*
X359725Y518623D01*
X357873Y519390D01*
X355868D01*
X354015Y518623D01*
X352597Y517205D01*
X351830Y515353D01*
Y513348D01*
X352597Y511495D01*
X354015Y510077D01*
X355868Y509310D01*
X356624D01*
X356933Y508765D01*
X357402Y506770D01*
X356407Y505775D01*
X355640Y503923D01*
X355532Y503834D01*
X354527Y504034D01*
X341142D01*
X340170Y506381D01*
X345607Y511818D01*
X346449Y513078D01*
X346744Y514565D01*
Y525705D01*
X367030D01*
X368517Y526001D01*
X369777Y526843D01*
X375258Y532325D01*
X414389D01*
X415876Y532620D01*
X417136Y533462D01*
X419368Y535694D01*
X420210Y536955D01*
X420315Y537479D01*
X429659D01*
Y552181D01*
X406415D01*
X402398Y556198D01*
X401137Y557040D01*
X399651Y557335D01*
X358448D01*
X354236Y561547D01*
X352976Y562389D01*
X351490Y562685D01*
X297519D01*
X286957Y573247D01*
X285697Y574089D01*
X284550Y574317D01*
Y577730D01*
X271153D01*
X270973Y578165D01*
X269555Y579583D01*
X267703Y580350D01*
D02*
G37*
G36*
X284480Y367030D02*
X278419D01*
Y361199D01*
X284480D01*
Y367030D01*
D02*
G37*
G36*
X270023Y347136D02*
X263800D01*
Y342310D01*
X270023D01*
Y347136D01*
D02*
G37*
G36*
X283604Y346371D02*
X275811D01*
Y337820D01*
X283604D01*
Y346371D01*
D02*
G37*
G36*
X270023Y339770D02*
X255037D01*
Y334944D01*
X257368D01*
X258765Y333547D01*
X260350Y332891D01*
Y337820D01*
X262890D01*
Y332891D01*
X264475Y333547D01*
X265872Y334944D01*
X270023D01*
Y339770D01*
D02*
G37*
G36*
X496570Y311835D02*
X491490D01*
X490499Y311638D01*
X489659Y311076D01*
X489097Y310236D01*
X488900Y309245D01*
Y295275D01*
X489097Y294284D01*
X489659Y293444D01*
X490499Y292882D01*
X491490Y292685D01*
X496570D01*
X497561Y292882D01*
X498401Y293444D01*
X498963Y294284D01*
X499160Y295275D01*
Y309245D01*
X498963Y310236D01*
X498401Y311076D01*
X497561Y311638D01*
X496570Y311835D01*
D02*
G37*
G36*
X225023Y368636D02*
X210037D01*
Y361938D01*
X206020Y357921D01*
X205178Y356661D01*
X204882Y355174D01*
Y330274D01*
X204975Y329806D01*
Y314280D01*
X205050Y313905D01*
Y304510D01*
Y291510D01*
X219130D01*
Y298708D01*
X223147Y302725D01*
X223989Y303985D01*
X224285Y305472D01*
Y334944D01*
X225023D01*
Y347136D01*
X212652D01*
Y353565D01*
X215531Y356444D01*
X225023D01*
Y368636D01*
D02*
G37*
G36*
X246060Y268331D02*
X232290D01*
Y262061D01*
X246060D01*
Y268331D01*
D02*
G37*
G36*
Y259521D02*
X232290D01*
Y253251D01*
X246060D01*
Y259521D01*
D02*
G37*
G36*
X502049Y216901D02*
X496104D01*
Y210820D01*
X502049D01*
Y216901D01*
D02*
G37*
G36*
Y208280D02*
X496104D01*
Y202199D01*
X502049D01*
Y208280D01*
D02*
G37*
G36*
X488697Y242804D02*
X486777D01*
X486157Y242804D01*
X473697D01*
Y236808D01*
X473395Y236683D01*
X471977Y235265D01*
X471210Y233412D01*
Y231408D01*
X471977Y229555D01*
X473395Y228137D01*
X475247Y227370D01*
X477253D01*
X479105Y228137D01*
X480523Y229555D01*
X480593Y229724D01*
X486329D01*
X487807Y227611D01*
X481184Y220988D01*
X480342Y219728D01*
X480047Y218241D01*
Y216901D01*
X473311D01*
Y202199D01*
X493564D01*
Y209550D01*
Y216901D01*
X491403D01*
X490431Y219247D01*
X496777Y225593D01*
X497619Y226853D01*
X497915Y228340D01*
Y229724D01*
X501777D01*
Y242804D01*
X489317D01*
X488697Y242804D01*
D02*
G37*
G36*
X215040Y186886D02*
X213946D01*
Y158116D01*
X242716D01*
Y159210D01*
X241976Y163880D01*
X240515Y168377D01*
X238369Y172590D01*
X235589Y176415D01*
X232246Y179759D01*
X228421Y182538D01*
X224207Y184685D01*
X219711Y186146D01*
X215040Y186886D01*
D02*
G37*
G36*
X211406D02*
X210312D01*
X205642Y186146D01*
X201145Y184685D01*
X196932Y182538D01*
X193106Y179759D01*
X189763Y176415D01*
X186984Y172590D01*
X184837Y168377D01*
X183376Y163880D01*
X182636Y159210D01*
Y158116D01*
X211406D01*
Y186886D01*
D02*
G37*
G36*
X497781Y186867D02*
X496687D01*
Y158097D01*
X525457D01*
Y159191D01*
X524717Y163861D01*
X523256Y168358D01*
X521109Y172571D01*
X518330Y176397D01*
X514986Y179740D01*
X511161Y182519D01*
X506948Y184666D01*
X502451Y186127D01*
X497781Y186867D01*
D02*
G37*
G36*
X494147D02*
X493052D01*
X488382Y186127D01*
X483885Y184666D01*
X479672Y182519D01*
X475847Y179740D01*
X472503Y176397D01*
X469724Y172571D01*
X467578Y168358D01*
X466116Y163861D01*
X465377Y159191D01*
Y158097D01*
X494147D01*
Y186867D01*
D02*
G37*
G36*
X342011Y162400D02*
X338709D01*
X335520Y161545D01*
X332660Y159895D01*
X330326Y157560D01*
X329073Y155391D01*
X328320Y155177D01*
X327000D01*
X326247Y155391D01*
X324995Y157560D01*
X322660Y159895D01*
X319800Y161545D01*
X316611Y162400D01*
X313309D01*
X310120Y161545D01*
X307260Y159895D01*
X304925Y157560D01*
X303673Y155391D01*
X302920Y155177D01*
X301600D01*
X300847Y155391D01*
X299594Y157560D01*
X297260Y159895D01*
X294400Y161545D01*
X291211Y162400D01*
X287909D01*
X284720Y161545D01*
X281860Y159895D01*
X279526Y157560D01*
X278273Y155391D01*
X277520Y155177D01*
X276200D01*
X275447Y155391D01*
X274195Y157560D01*
X271860Y159895D01*
X269000Y161545D01*
X265811Y162400D01*
X262509D01*
X259320Y161545D01*
X256460Y159895D01*
X254125Y157560D01*
X252475Y154700D01*
X251620Y151511D01*
Y148209D01*
X252475Y145020D01*
X254125Y142160D01*
X256460Y139825D01*
X259320Y138175D01*
X262509Y137320D01*
X265811D01*
X269000Y138175D01*
X271860Y139825D01*
X274195Y142160D01*
X275447Y144329D01*
X276200Y144543D01*
X277520D01*
X278273Y144329D01*
X279526Y142160D01*
X281860Y139825D01*
X284720Y138175D01*
X287909Y137320D01*
X291211D01*
X294400Y138175D01*
X297260Y139825D01*
X299594Y142160D01*
X300847Y144329D01*
X301600Y144543D01*
X302920D01*
X303673Y144329D01*
X304925Y142160D01*
X307260Y139825D01*
X310120Y138175D01*
X313309Y137320D01*
X316611D01*
X319800Y138175D01*
X322660Y139825D01*
X324995Y142160D01*
X326247Y144329D01*
X327000Y144543D01*
X328320D01*
X329073Y144329D01*
X330326Y142160D01*
X332660Y139825D01*
X335520Y138175D01*
X338709Y137320D01*
X342011D01*
X345200Y138175D01*
X348060Y139825D01*
X350395Y142160D01*
X352045Y145020D01*
X352900Y148209D01*
Y151511D01*
X352045Y154700D01*
X350395Y157560D01*
X348060Y159895D01*
X345200Y161545D01*
X342011Y162400D01*
D02*
G37*
G36*
X450650Y164900D02*
X436880D01*
Y151130D01*
X450650D01*
Y164900D01*
D02*
G37*
G36*
X434340D02*
X420570D01*
Y151130D01*
X434340D01*
Y164900D01*
D02*
G37*
G36*
X450650Y148590D02*
X436880D01*
Y134820D01*
X450650D01*
Y148590D01*
D02*
G37*
G36*
X434340D02*
X420570D01*
Y134820D01*
X434340D01*
Y148590D01*
D02*
G37*
G36*
X390101Y164900D02*
X387139D01*
X384233Y164322D01*
X381496Y163188D01*
X379033Y161542D01*
X376938Y159447D01*
X375292Y156984D01*
X374158Y154247D01*
X373580Y151341D01*
Y148379D01*
X374158Y145473D01*
X375292Y142736D01*
X376938Y140273D01*
X379033Y138178D01*
X381496Y136532D01*
X384233Y135398D01*
X387139Y134820D01*
X390101D01*
X393007Y135398D01*
X395744Y136532D01*
X398207Y138178D01*
X400302Y140273D01*
X401948Y142736D01*
X403082Y145473D01*
X403660Y148379D01*
Y151341D01*
X403082Y154247D01*
X401948Y156984D01*
X400302Y159447D01*
X398207Y161542D01*
X395744Y163188D01*
X393007Y164322D01*
X390101Y164900D01*
D02*
G37*
G36*
X242716Y155576D02*
X213946D01*
Y126806D01*
X215040D01*
X219711Y127545D01*
X224207Y129007D01*
X228421Y131153D01*
X232246Y133933D01*
X235589Y137276D01*
X238369Y141101D01*
X240515Y145314D01*
X241976Y149811D01*
X242716Y154481D01*
Y155576D01*
D02*
G37*
G36*
X211406D02*
X182636D01*
Y154481D01*
X183376Y149811D01*
X184837Y145314D01*
X186984Y141101D01*
X189763Y137276D01*
X193106Y133933D01*
X196932Y131153D01*
X201145Y129007D01*
X205642Y127545D01*
X210312Y126806D01*
X211406D01*
Y155576D01*
D02*
G37*
G36*
X525457Y155557D02*
X496687D01*
Y126787D01*
X497781D01*
X502451Y127527D01*
X506948Y128988D01*
X511161Y131134D01*
X514986Y133914D01*
X518330Y137257D01*
X521109Y141082D01*
X523256Y145295D01*
X524717Y149792D01*
X525457Y154463D01*
Y155557D01*
D02*
G37*
G36*
X494147D02*
X465377D01*
Y154463D01*
X466116Y149792D01*
X467578Y145295D01*
X469724Y141082D01*
X472503Y137257D01*
X475847Y133914D01*
X479672Y131134D01*
X483885Y128988D01*
X488382Y127527D01*
X493052Y126787D01*
X494147D01*
Y155557D01*
D02*
G37*
%LPD*%
G36*
X329959Y446833D02*
X331220Y445991D01*
X332706Y445695D01*
X367761D01*
X378599Y434857D01*
X378398Y433327D01*
X375728Y432406D01*
X375328Y432806D01*
X374067Y433648D01*
X373458Y433769D01*
X372425Y434803D01*
X370573Y435570D01*
X368568D01*
X366715Y434803D01*
X365297Y433385D01*
X364530Y431533D01*
Y429528D01*
X365297Y427675D01*
X366252Y426720D01*
X365297Y425765D01*
X364530Y423913D01*
Y421908D01*
X365297Y420055D01*
X365685Y419667D01*
Y417296D01*
X365353Y416964D01*
X364511Y415704D01*
X364215Y414217D01*
Y410185D01*
X363100Y409269D01*
X361524Y408956D01*
X360600Y408338D01*
X359676Y408956D01*
X358100Y409269D01*
X356524Y408956D01*
X355600Y408338D01*
X354676Y408956D01*
X353100Y409269D01*
X352420Y409134D01*
X351323Y411505D01*
X352253Y412435D01*
X353020Y414287D01*
Y416292D01*
X352253Y418145D01*
X350835Y419563D01*
X348983Y420330D01*
X346978D01*
X345125Y419563D01*
X344737Y419175D01*
X327930D01*
X326719Y420650D01*
X326406Y422226D01*
X325788Y423150D01*
X326406Y424074D01*
X326719Y425650D01*
X326406Y427226D01*
X325788Y428150D01*
X326406Y429074D01*
X326466Y429380D01*
X324290D01*
X324176Y429456D01*
X322600Y429770D01*
X315100D01*
Y431530D01*
X322600D01*
X324176Y431844D01*
X324290Y431920D01*
X326466D01*
X326406Y432226D01*
X325788Y433150D01*
X326406Y434074D01*
X326719Y435650D01*
X326406Y437226D01*
X325788Y438150D01*
X326406Y439074D01*
X326719Y440650D01*
X326406Y442226D01*
X325788Y443150D01*
X326406Y444074D01*
X326719Y445650D01*
X326513Y446688D01*
X328281Y448043D01*
X328580Y448173D01*
X328619Y448173D01*
X329959Y446833D01*
D02*
G37*
G36*
X428513Y397325D02*
X428695Y396165D01*
X419524Y386994D01*
X418682Y385734D01*
X418386Y384247D01*
Y374131D01*
X405480D01*
Y367030D01*
Y359929D01*
X414865D01*
Y347400D01*
X406250D01*
Y340360D01*
Y333320D01*
X414865D01*
Y323270D01*
X406250D01*
Y316230D01*
Y309190D01*
X414865D01*
Y299140D01*
X406250D01*
Y292100D01*
X403710D01*
Y299140D01*
X398190D01*
Y296206D01*
X395650Y295700D01*
X395433Y296225D01*
X394015Y297643D01*
X392430Y298299D01*
Y293370D01*
Y288441D01*
X394015Y289097D01*
X395433Y290515D01*
X395650Y291040D01*
X398190Y290534D01*
Y285060D01*
X396441Y283245D01*
X374610D01*
X373123Y282949D01*
X371863Y282107D01*
X356531Y266775D01*
X328898D01*
X327411Y266479D01*
X326151Y265637D01*
X317293Y256779D01*
X316451Y255519D01*
X316155Y254032D01*
Y219143D01*
X315767Y218755D01*
X315496Y218100D01*
X312663Y217353D01*
X312648Y217356D01*
X304525Y225479D01*
Y260931D01*
X307519Y263925D01*
X307621Y263993D01*
X311317Y267689D01*
X312159Y268950D01*
X312455Y270436D01*
Y275664D01*
X312159Y277150D01*
X311317Y278410D01*
X306637Y283090D01*
X305377Y283932D01*
X303890Y284228D01*
X286014D01*
X282975Y287267D01*
X281714Y288109D01*
X280228Y288405D01*
X265492D01*
X264688Y290945D01*
X266944Y293200D01*
X322336D01*
X335073Y280463D01*
X336333Y279621D01*
X337820Y279325D01*
X353060D01*
X354547Y279621D01*
X355807Y280463D01*
X364869Y289525D01*
X368772D01*
X370259Y289821D01*
X371519Y290663D01*
X381167Y300311D01*
X382009Y301571D01*
X382305Y303058D01*
Y310829D01*
X382521Y310964D01*
X384845Y311608D01*
X385765Y310687D01*
X387350Y310031D01*
Y314960D01*
X388620D01*
Y316230D01*
X393549D01*
X392893Y317815D01*
X391475Y319233D01*
X389622Y320000D01*
X389279D01*
X389203Y320035D01*
X387371Y322438D01*
X387385Y322506D01*
Y323649D01*
X387425Y323850D01*
Y327780D01*
X387129Y329267D01*
X386287Y330527D01*
X351985Y364829D01*
Y369213D01*
X354525Y370910D01*
X354598Y370880D01*
X356603D01*
X358455Y371647D01*
X359873Y373065D01*
X360640Y374917D01*
X360911Y376959D01*
X362952Y377230D01*
X364805Y377997D01*
X366223Y379415D01*
X366990Y381268D01*
Y383273D01*
X366814Y383697D01*
X367349Y384668D01*
X368547Y386120D01*
X369676Y386344D01*
X370600Y386962D01*
X371524Y386344D01*
X373100Y386031D01*
X374676Y386344D01*
X375600Y386962D01*
X376524Y386344D01*
X376830Y386283D01*
Y388460D01*
X376906Y388573D01*
X377220Y390150D01*
Y397650D01*
X378980D01*
Y390150D01*
X379294Y388573D01*
X379370Y388460D01*
Y386283D01*
X379676Y386344D01*
X380600Y386962D01*
X381524Y386344D01*
X383100Y386031D01*
X384676Y386344D01*
X386013Y387237D01*
X386906Y388574D01*
X387219Y390150D01*
Y398705D01*
X427785D01*
X428513Y397325D01*
D02*
G37*
G36*
X471095Y359077D02*
X469900Y358279D01*
Y353060D01*
X467360D01*
Y357989D01*
X465775Y357333D01*
X465312Y356870D01*
X454680D01*
Y347980D01*
Y339090D01*
X470277D01*
X470756Y336550D01*
X465676Y331470D01*
X437585D01*
Y339090D01*
X452140D01*
Y347980D01*
Y356870D01*
X437585D01*
Y364490D01*
X471095D01*
Y359077D01*
D02*
G37*
G36*
X301936Y410912D02*
X303596Y410070D01*
X303794Y409074D01*
X304687Y407737D01*
X306024Y406844D01*
X307600Y406531D01*
X311247D01*
X311957Y404815D01*
X313375Y403397D01*
X315228Y402630D01*
X317232D01*
X319085Y403397D01*
X320503Y404815D01*
X321874Y405261D01*
X323981Y403869D01*
Y392193D01*
X323775Y391160D01*
Y341630D01*
X324071Y340143D01*
X324913Y338883D01*
X341256Y322540D01*
X340204Y320000D01*
X339357D01*
X337505Y319233D01*
X336087Y317815D01*
X335431Y316230D01*
X340360D01*
Y314960D01*
X341630D01*
Y310031D01*
X342865Y310543D01*
X344323Y309978D01*
X345405Y309286D01*
Y301807D01*
X344402Y300387D01*
X343061Y299680D01*
X341898D01*
X340045Y298913D01*
X338627Y297495D01*
X336977Y297167D01*
X329137Y305007D01*
X327877Y305849D01*
X326390Y306145D01*
X309547D01*
X308749Y307340D01*
X298311D01*
X297513Y306145D01*
X265769D01*
X264120Y307794D01*
Y308342D01*
X263353Y310195D01*
X261935Y311613D01*
X260082Y312380D01*
X258078D01*
X256655Y313331D01*
Y317235D01*
X260655Y321235D01*
X308752D01*
X310239Y321531D01*
X311499Y322373D01*
X314070Y324944D01*
X314912Y326204D01*
X315208Y327691D01*
Y372006D01*
X314912Y373493D01*
X314070Y374753D01*
X297255Y391568D01*
Y407320D01*
X301005Y411070D01*
X301936Y410912D01*
D02*
G37*
G36*
X435162Y281134D02*
X434970Y280670D01*
X434970D01*
Y262890D01*
X464898D01*
X465870Y260543D01*
X385741Y180415D01*
X371159D01*
X370614Y180922D01*
X369415Y182869D01*
X369530Y183148D01*
Y183449D01*
X369669Y184150D01*
X369530Y184851D01*
Y185152D01*
X369415Y185431D01*
X369275Y186132D01*
X368878Y186727D01*
X368763Y187005D01*
X368550Y187218D01*
X368153Y187812D01*
X367558Y188210D01*
X367345Y188423D01*
X367067Y188538D01*
X366472Y188935D01*
X365771Y189075D01*
X365493Y189190D01*
X365191D01*
X364490Y189329D01*
X361862D01*
X353198Y197994D01*
Y203231D01*
X355640Y203467D01*
X355805Y203069D01*
X356407Y201615D01*
X357825Y200197D01*
X359678Y199430D01*
X361683D01*
X363535Y200197D01*
X364953Y201615D01*
X365720Y203468D01*
Y205473D01*
X364953Y207325D01*
X363535Y208743D01*
X361683Y209510D01*
X359678D01*
X357825Y208743D01*
X356407Y207325D01*
X355805Y205871D01*
X355640Y205473D01*
X353198Y205709D01*
Y214571D01*
X354494D01*
X356476Y214965D01*
X358156Y216087D01*
X363739Y221670D01*
X366279Y220618D01*
Y215269D01*
X372110D01*
Y222600D01*
X373380D01*
Y223870D01*
X380481D01*
Y230070D01*
X389607D01*
X390579Y227724D01*
X390037Y227183D01*
X388915Y225502D01*
X388521Y223520D01*
Y207010D01*
X388660Y206309D01*
Y206007D01*
X388775Y205729D01*
X388915Y205028D01*
X389312Y204433D01*
X389427Y204155D01*
X389640Y203942D01*
X390037Y203347D01*
X390632Y202950D01*
X390845Y202737D01*
X391123Y202622D01*
X391718Y202225D01*
X392419Y202085D01*
X392697Y201970D01*
X392999D01*
X393700Y201831D01*
X394401Y201970D01*
X394702D01*
X394981Y202085D01*
X395682Y202225D01*
X396277Y202622D01*
X396555Y202737D01*
X396768Y202950D01*
X397363Y203347D01*
X397760Y203942D01*
X397973Y204155D01*
X398088Y204433D01*
X398485Y205028D01*
X398625Y205729D01*
X398740Y206007D01*
Y206309D01*
X398880Y207010D01*
Y219578D01*
X399360Y219899D01*
X401900Y218542D01*
Y215460D01*
X407670D01*
Y222250D01*
X408940D01*
Y223520D01*
X415980D01*
Y228460D01*
Y242040D01*
X401900D01*
Y240429D01*
X380481D01*
Y244471D01*
X380481D01*
X379972Y245697D01*
X388855Y254580D01*
X400050D01*
Y261620D01*
X401320D01*
Y262890D01*
X408110D01*
Y268660D01*
X410441Y269165D01*
X423477D01*
X423865Y268777D01*
X425718Y268010D01*
X427723D01*
X429575Y268777D01*
X430993Y270195D01*
X431760Y272048D01*
Y274053D01*
X430993Y275905D01*
X430038Y276860D01*
X430993Y277815D01*
X431760Y279667D01*
Y280928D01*
X433979Y282151D01*
X434107Y282179D01*
X435162Y281134D01*
D02*
G37*
G36*
X381530Y267066D02*
Y261905D01*
X369717Y250093D01*
X368595Y248412D01*
X368200Y246430D01*
Y244471D01*
X366279D01*
Y237564D01*
X364733Y237256D01*
X363053Y236133D01*
X363053Y236133D01*
X358247Y231328D01*
X357242Y229823D01*
X355418Y227999D01*
X353523Y229555D01*
X354179Y231140D01*
X344321D01*
X344977Y229555D01*
X346395Y228137D01*
X348247Y227370D01*
X349809D01*
X350060Y224830D01*
X348578Y224535D01*
X346898Y223412D01*
X344356Y220871D01*
X343233Y219191D01*
X342839Y217208D01*
Y211168D01*
X342732Y211098D01*
X340299Y210389D01*
X339405Y211283D01*
X337820Y211939D01*
Y207010D01*
Y202081D01*
X339405Y202737D01*
X340299Y203631D01*
X342732Y202922D01*
X342839Y202852D01*
Y195848D01*
X343233Y193866D01*
X344356Y192186D01*
X353587Y182955D01*
X352535Y180415D01*
X340699D01*
X338055Y183059D01*
X337987Y183160D01*
X334291Y186857D01*
X333030Y187699D01*
X331544Y187995D01*
X320385D01*
X314378Y194002D01*
X314795Y197177D01*
X315423Y197805D01*
X316190Y199657D01*
Y201663D01*
X315423Y203515D01*
X316147Y206383D01*
X316545Y206547D01*
X317963Y207965D01*
X318730Y209818D01*
Y210009D01*
X319037Y210860D01*
X321043D01*
X322895Y211627D01*
X324313Y213045D01*
X325080Y214897D01*
Y216903D01*
X324704Y217810D01*
X326621Y219765D01*
X326657Y219750D01*
X328662D01*
X330515Y220517D01*
X331933Y221935D01*
X332700Y223787D01*
Y225023D01*
X332812Y225877D01*
X334796Y227370D01*
X335013D01*
X336865Y228137D01*
X338283Y229555D01*
X339050Y231408D01*
Y232648D01*
X339839Y233829D01*
X340135Y235316D01*
Y241880D01*
X347980D01*
Y248920D01*
X349250D01*
Y250190D01*
X356040D01*
Y253925D01*
X363220D01*
X364707Y254221D01*
X365967Y255063D01*
X377927Y267023D01*
X377992Y267121D01*
X378990Y268119D01*
X381530Y267066D01*
D02*
G37*
%LPC*%
G36*
X402940Y374131D02*
X396879D01*
Y368300D01*
X402940D01*
Y374131D01*
D02*
G37*
G36*
X374650Y369419D02*
Y365760D01*
X378309D01*
X377653Y367345D01*
X376235Y368763D01*
X374650Y369419D01*
D02*
G37*
G36*
X372110D02*
X370525Y368763D01*
X369107Y367345D01*
X368451Y365760D01*
X372110D01*
Y369419D01*
D02*
G37*
G36*
X402940Y365760D02*
X396879D01*
Y359929D01*
X402940D01*
Y365760D01*
D02*
G37*
G36*
X378309Y363220D02*
X374650D01*
Y359561D01*
X376235Y360217D01*
X377653Y361635D01*
X378309Y363220D01*
D02*
G37*
G36*
X372110D02*
X368451D01*
X369107Y361635D01*
X370525Y360217D01*
X372110Y359561D01*
Y363220D01*
D02*
G37*
G36*
X403710Y347400D02*
X398190D01*
Y341630D01*
X403710D01*
Y347400D01*
D02*
G37*
G36*
Y339090D02*
X398190D01*
Y333320D01*
X403710D01*
Y339090D01*
D02*
G37*
G36*
Y323270D02*
X398190D01*
Y317500D01*
X403710D01*
Y323270D01*
D02*
G37*
G36*
X393549Y313690D02*
X389890D01*
Y310031D01*
X391475Y310687D01*
X392893Y312105D01*
X393549Y313690D01*
D02*
G37*
G36*
X403710Y314960D02*
X398190D01*
Y309190D01*
X403710D01*
Y314960D01*
D02*
G37*
G36*
X389890Y298299D02*
X388305Y297643D01*
X386887Y296225D01*
X386231Y294640D01*
X389890D01*
Y298299D01*
D02*
G37*
G36*
Y292100D02*
X386231D01*
X386887Y290515D01*
X388305Y289097D01*
X389890Y288441D01*
Y292100D01*
D02*
G37*
G36*
X339090Y313690D02*
X335431D01*
X336087Y312105D01*
X337505Y310687D01*
X339090Y310031D01*
Y313690D01*
D02*
G37*
G36*
X304800Y313539D02*
Y309880D01*
X308459D01*
X307803Y311465D01*
X306385Y312883D01*
X304800Y313539D01*
D02*
G37*
G36*
X302260D02*
X300675Y312883D01*
X299257Y311465D01*
X298601Y309880D01*
X302260D01*
Y313539D01*
D02*
G37*
G36*
X408110Y260350D02*
X402590D01*
Y254580D01*
X408110D01*
Y260350D01*
D02*
G37*
G36*
X415980Y220980D02*
X410210D01*
Y215460D01*
X415980D01*
Y220980D01*
D02*
G37*
G36*
X380481Y221330D02*
X374650D01*
Y215269D01*
X380481D01*
Y221330D01*
D02*
G37*
G36*
X379730Y206859D02*
Y203200D01*
X383389D01*
X382733Y204785D01*
X381315Y206203D01*
X379730Y206859D01*
D02*
G37*
G36*
X377190D02*
X375605Y206203D01*
X374187Y204785D01*
X373531Y203200D01*
X377190D01*
Y206859D01*
D02*
G37*
G36*
X383389Y200660D02*
X379730D01*
Y197001D01*
X381315Y197657D01*
X382733Y199075D01*
X383389Y200660D01*
D02*
G37*
G36*
X377190D02*
X373531D01*
X374187Y199075D01*
X375605Y197657D01*
X377190Y197001D01*
Y200660D01*
D02*
G37*
G36*
X356040Y247650D02*
X350520D01*
Y241880D01*
X356040D01*
Y247650D01*
D02*
G37*
G36*
X350520Y237339D02*
Y233680D01*
X354179D01*
X353523Y235265D01*
X352105Y236683D01*
X350520Y237339D01*
D02*
G37*
G36*
X347980D02*
X346395Y236683D01*
X344977Y235265D01*
X344321Y233680D01*
X347980D01*
Y237339D01*
D02*
G37*
G36*
X335280Y211939D02*
X333695Y211283D01*
X332277Y209865D01*
X331621Y208280D01*
X335280D01*
Y211939D01*
D02*
G37*
G36*
Y205740D02*
X331621D01*
X332277Y204155D01*
X333695Y202737D01*
X335280Y202081D01*
Y205740D01*
D02*
G37*
%LPD*%
D12*
X361910Y227166D02*
Y227666D01*
X348018Y217208D02*
X350560Y219750D01*
X368941Y232471D02*
X373380Y236910D01*
X366715Y232471D02*
X368941D01*
X350560Y219750D02*
X354494D01*
X361910Y227166D01*
Y227666D02*
X366715Y232471D01*
X348018Y195848D02*
Y217208D01*
X373380Y236910D02*
Y237140D01*
X359717Y184150D02*
X364490D01*
X348018Y195848D02*
X359717Y184150D01*
X375270Y235250D02*
X408690D01*
X388320Y261370D02*
Y261620D01*
X405710Y232270D02*
X408690Y235250D01*
X402450Y232270D02*
X405710D01*
X408690Y235250D02*
X408940D01*
X393700Y207010D02*
Y223520D01*
X402450Y232270D01*
X373380Y246430D02*
X388320Y261370D01*
X373380Y237140D02*
Y246430D01*
Y237140D02*
X375270Y235250D01*
D16*
X354527Y500149D02*
X357940Y496736D01*
X319809Y500149D02*
X354527D01*
X352860Y485140D02*
Y493581D01*
X351372Y495069D02*
X352860Y493581D01*
X323619Y495069D02*
X351372D01*
X317500Y488950D02*
X323619Y495069D01*
X319979Y538419D02*
Y541425D01*
X304869Y532380D02*
X313940D01*
X319979Y538419D01*
Y541425D02*
X323384Y544830D01*
X351490Y558800D02*
X356839Y553451D01*
X295910Y558800D02*
X351490D01*
X349385Y553720D02*
X358140Y544965D01*
X280740Y560460D02*
X287480Y553720D01*
X284210Y570500D02*
X295910Y558800D01*
X287480Y553720D02*
X349385D01*
X279200Y570500D02*
X284210D01*
X280740Y560460D02*
Y561460D01*
X277760Y563440D02*
X278760D01*
X280740Y561460D01*
X431723Y393700D02*
X450632D01*
X452120Y395188D02*
Y400050D01*
X384356Y402590D02*
X449580D01*
X450632Y393700D02*
X452120Y395188D01*
X449580Y402590D02*
X452120Y400050D01*
X402590Y430810D02*
X422356D01*
X427990Y436444D01*
X424460Y425730D02*
X433070Y434340D01*
Y475928D01*
X403860Y425730D02*
X424460D01*
X450590Y420650D02*
X453410Y417830D01*
X396100Y420650D02*
X450590D01*
X427990Y436444D02*
Y479842D01*
X432018Y483870D01*
X433070Y475928D02*
X435932Y478790D01*
X462940Y468630D02*
X474980Y456590D01*
X473492Y478790D02*
X480060Y472222D01*
X432018Y483870D02*
X478572D01*
X480060Y433186D02*
Y472222D01*
X485140Y435291D02*
Y477302D01*
X478572Y483870D02*
X485140Y477302D01*
X435932Y478790D02*
X473492D01*
X358140Y262890D02*
X374610Y279360D01*
X424744D01*
X375180Y269802D02*
X378428Y273050D01*
X426720D01*
X424744Y279360D02*
X426054Y280670D01*
X426720D01*
X447258Y271780D02*
X453410D01*
X428620Y294010D02*
X442178Y280452D01*
Y276860D02*
Y280452D01*
X428620Y294010D02*
Y383412D01*
X442178Y276860D02*
X447258Y271780D01*
X433700Y307340D02*
X443860Y297180D01*
X433700Y307340D02*
Y381308D01*
X254830Y235391D02*
X258560Y231661D01*
X247330Y235391D02*
X254830D01*
X258560Y230390D02*
Y231661D01*
X268020Y203413D02*
Y220930D01*
X258560Y230390D02*
X268020Y220930D01*
Y203413D02*
X270252Y201181D01*
X268020Y228813D02*
Y270460D01*
X270773Y226060D02*
X284480D01*
X268020Y228813D02*
X270773Y226060D01*
X252258Y274360D02*
X264120D01*
X268020Y270460D01*
X300640Y223870D02*
Y262540D01*
Y223870D02*
X313690Y210820D01*
X300640Y262540D02*
X304840Y266740D01*
X304874D02*
X308570Y270436D01*
Y275664D01*
X304840Y266740D02*
X304874D01*
X303890Y280343D02*
X308570Y275664D01*
X278124Y279440D02*
X284514Y273050D01*
X302260D01*
X254362Y279440D02*
X278124D01*
X280228Y284520D02*
X284405Y280343D01*
X256466Y284520D02*
X280228D01*
X284405Y280343D02*
X303890D01*
X237530Y289088D02*
X252258Y274360D01*
X237530Y289088D02*
Y351864D01*
X243840Y289962D02*
Y349250D01*
Y289962D02*
X254362Y279440D01*
X327660Y341630D02*
X349290Y320000D01*
Y300916D02*
Y320000D01*
Y300916D02*
X350049Y300157D01*
Y297651D02*
X350520Y297180D01*
X350049Y297651D02*
Y300157D01*
X327660Y341630D02*
Y391160D01*
X332740Y344136D02*
Y394534D01*
X333100Y394894D02*
Y397650D01*
X332740Y394534D02*
X333100Y394894D01*
X337820Y356904D02*
Y392430D01*
X342900Y360680D02*
Y391160D01*
X337820Y356904D02*
X365800Y328924D01*
X342900Y360680D02*
X370880Y332700D01*
X361950Y309880D02*
Y314926D01*
X332740Y344136D02*
X361950Y314926D01*
X365800Y320402D02*
X368260Y317942D01*
X370880Y322506D02*
X373340Y320046D01*
X368260Y307266D02*
Y317942D01*
X370880Y322506D02*
Y332700D01*
X365800Y320402D02*
Y328924D01*
X373340Y305162D02*
Y320046D01*
X383100Y402590D02*
Y435850D01*
X373420Y453464D02*
X377116Y457160D01*
X369453Y449497D02*
X383100Y435850D01*
X369536Y449580D02*
X373420Y453464D01*
X383048Y463092D02*
X385916Y465960D01*
X381556Y461600D02*
X383048Y463092D01*
X377986Y458030D02*
X381556Y461600D01*
X386400Y465960D02*
X391160D01*
X385916D02*
X391160D01*
X332706Y449580D02*
X369536D01*
X327910Y454376D02*
X332706Y449580D01*
X455930Y388620D02*
X461228Y393918D01*
Y402372D01*
X433828Y388620D02*
X455930D01*
X418750Y292870D02*
Y367030D01*
X422271Y384247D02*
X431723Y393700D01*
X422271Y370321D02*
Y384247D01*
X418980Y367030D02*
X422271Y370321D01*
X418750Y367030D02*
X418980D01*
X435932Y407670D02*
X455930D01*
X461228Y402372D01*
X468040Y328340D02*
X474980Y335280D01*
X485140Y326390D02*
Y400369D01*
X469900Y391596D02*
Y406682D01*
X473120Y409902D02*
Y425758D01*
X480060Y331470D02*
Y402473D01*
X483280Y405694D01*
X478200Y407798D02*
Y427862D01*
X488360Y403589D02*
Y432071D01*
X435932Y383540D02*
X461844D01*
X469900Y391596D01*
X485140Y400369D02*
X488360Y403589D01*
X474980Y335280D02*
Y404578D01*
X478200Y407798D01*
X483280Y405694D02*
Y429967D01*
X469900Y406682D02*
X473120Y409902D01*
Y324530D02*
X480060Y331470D01*
X478200Y319450D02*
X485140Y326390D01*
Y435291D02*
X488360Y432071D01*
X433074Y410527D02*
X435932Y407670D01*
X413703Y410527D02*
X433074D01*
X428620Y383412D02*
X433828Y388620D01*
X433700Y381308D02*
X435932Y383540D01*
X408940Y415290D02*
X413703Y410527D01*
X323850Y171450D02*
X389890D01*
X478200Y259760D02*
Y319450D01*
X389890Y171450D02*
X478200Y259760D01*
X387350Y176530D02*
X473120Y262300D01*
X339090Y176530D02*
X387350D01*
X473120Y262300D02*
Y324530D01*
X317500Y483060D02*
Y488950D01*
X331421Y510309D02*
X337780Y516669D01*
X314729Y505229D02*
X333525D01*
X342860Y514565D01*
X312189Y510309D02*
X331421D01*
X358140Y486410D02*
Y490804D01*
X357940D02*
Y496736D01*
X309880Y490220D02*
X319809Y500149D01*
X302290Y492790D02*
X314729Y505229D01*
X309880Y476250D02*
Y490220D01*
X270252Y201181D02*
X294119D01*
X323850Y171450D01*
X318776Y184110D02*
X331544D01*
X302048Y200838D02*
Y215161D01*
Y200838D02*
X318776Y184110D01*
X335240Y180380D02*
X339090Y176530D01*
X331544Y184110D02*
X335240Y180414D01*
Y180380D02*
Y180414D01*
X468040Y327660D02*
Y328340D01*
X453410Y443230D02*
X462960D01*
X474980Y431082D02*
X478200Y427862D01*
X474980Y431082D02*
Y456590D01*
X468040Y430838D02*
Y438150D01*
X462960Y443230D02*
X468040Y438150D01*
Y430838D02*
X473120Y425758D01*
X480060Y433186D02*
X483280Y429967D01*
X295560Y221649D02*
Y231661D01*
X284330Y235391D02*
X291830D01*
X295560Y231661D01*
Y221649D02*
X302048Y215161D01*
X363220Y257810D02*
X375180Y269770D01*
Y269802D01*
X246454Y355560D02*
X252747Y349267D01*
X237530Y351864D02*
X241226Y355560D01*
X246454D01*
X252770Y288216D02*
Y318844D01*
Y288216D02*
X256466Y284520D01*
X259046Y325120D02*
X308752D01*
X252770Y318844D02*
X259046Y325120D01*
X364490Y509874D02*
X368100Y506264D01*
X364490Y509874D02*
Y510540D01*
X368100Y478650D02*
Y506264D01*
X360680Y502542D02*
X363020Y500202D01*
X360680Y502542D02*
Y502920D01*
X363020Y483870D02*
Y500202D01*
X348180Y466556D02*
Y472440D01*
X350520Y463550D02*
Y464216D01*
X348180Y466556D02*
X350520Y464216D01*
X370041Y430059D02*
X372581D01*
X375880Y426760D01*
Y413314D02*
Y426760D01*
X369570Y430530D02*
X370041Y430059D01*
X323457Y465960D02*
X325780D01*
X368100Y414217D02*
X369570Y415687D01*
X368100Y402590D02*
Y414217D01*
X369570Y415687D02*
Y422910D01*
X373180Y410614D02*
X375880Y413314D01*
X373180Y403860D02*
Y410614D01*
X327910Y454376D02*
Y462850D01*
X453410Y468630D02*
X462940D01*
X322580Y415290D02*
X347980D01*
X355600Y375920D02*
Y376264D01*
X353226Y378638D02*
X355600Y376264D01*
X353226Y378638D02*
Y384039D01*
X353180Y384086D02*
X353226Y384039D01*
X353180Y384086D02*
Y389890D01*
X358140Y386746D02*
Y391160D01*
X361950Y382270D02*
Y382936D01*
X358140Y386746D02*
X361950Y382936D01*
X320040Y254032D02*
X328898Y262890D01*
X358140D01*
X327660Y254468D02*
X331002Y257810D01*
X363220D01*
X320040Y215900D02*
Y254032D01*
X327660Y224790D02*
Y254468D01*
X265335Y297085D02*
X323945D01*
X259080Y290830D02*
X265335Y297085D01*
X323945D02*
X337820Y283210D01*
X353060D01*
X336590Y292026D02*
Y292060D01*
Y292026D02*
X340286Y288330D01*
X350996D01*
X326390Y302260D02*
X336590Y292060D01*
X264160Y302260D02*
X326390D01*
X259080Y307340D02*
X264160Y302260D01*
X308752Y325120D02*
X311323Y327691D01*
X299520Y425250D02*
X308610D01*
X288290Y414020D02*
X299520Y425250D01*
X291179Y426251D02*
X291845D01*
X295923Y430330D01*
X308610D01*
X288290Y380499D02*
Y414020D01*
X293370Y408929D02*
X304811Y420370D01*
X293370Y389959D02*
X311323Y372006D01*
X293370Y389959D02*
Y408929D01*
X288290Y380499D02*
X294351Y374439D01*
X304811Y420370D02*
X307340D01*
X311323Y327691D02*
Y372006D01*
X348100Y363220D02*
Y392430D01*
X383500Y322506D02*
Y323810D01*
X383540Y323850D02*
Y327780D01*
X383500Y323810D02*
X383540Y323850D01*
X378420Y317426D02*
X383500Y322506D01*
X378420Y303058D02*
Y317426D01*
X355600Y303530D02*
X355640Y303570D01*
X363260Y293410D02*
X368772D01*
X355640Y303570D02*
X364564D01*
X350996Y288330D02*
X361156Y298490D01*
X368772Y293410D02*
X378420Y303058D01*
X366668Y298490D02*
X373340Y305162D01*
X353060Y283210D02*
X363260Y293410D01*
X364564Y303570D02*
X368260Y307266D01*
X361156Y298490D02*
X366668D01*
X348100Y363220D02*
X383540Y327780D01*
X335280Y455930D02*
X335751Y456401D01*
X338324D01*
X343100Y461176D01*
Y472440D01*
X337820Y468360D02*
Y472440D01*
X337021Y467561D02*
X337820Y468360D01*
X336550Y463550D02*
X337021Y464021D01*
Y467561D01*
X325780Y464979D02*
X327910Y462850D01*
X325780Y464979D02*
Y465960D01*
X403860Y415290D02*
X408940D01*
X443860Y297180D02*
X453410D01*
X294351Y374239D02*
X296769Y371821D01*
X294351Y374239D02*
Y374439D01*
X300060Y368300D02*
X300290D01*
X296769Y371591D02*
X300060Y368300D01*
X296769Y371591D02*
Y371821D01*
X281690Y407342D02*
Y426470D01*
X279458Y405110D02*
X281690Y407342D01*
X300290Y337250D02*
X300990Y336550D01*
X300290Y337250D02*
Y368300D01*
X290630Y435410D02*
X309880D01*
X281690Y426470D02*
X290630Y435410D01*
X230080Y394020D02*
X241184Y405124D01*
X243302Y405110D02*
X279458D01*
X243288Y405124D02*
X243302Y405110D01*
X241184Y405124D02*
X243288D01*
X218680Y394020D02*
X230080D01*
X280670Y463518D02*
Y473588D01*
X271658Y482600D02*
X280670Y473588D01*
Y463518D02*
X298618Y445570D01*
X241782Y482600D02*
X271658D01*
X218882Y505500D02*
X241782Y482600D01*
X239242Y459740D02*
X277264D01*
X222732Y476250D02*
X239242Y459740D01*
X277264D02*
X296514Y440490D01*
X307340D01*
X298618Y445570D02*
X307340D01*
X196850Y476250D02*
X222732D01*
X218882Y505500D02*
Y511368D01*
X218440Y511810D02*
X218882Y511368D01*
X378460Y486410D02*
Y489020D01*
X384810Y495300D02*
X384810D01*
X380970Y491460D02*
X384810Y495300D01*
X380900Y491460D02*
X380970D01*
X378460Y489020D02*
X380900Y491460D01*
X342244Y534670D02*
X363220D01*
X370840Y542290D01*
X337780Y530206D02*
X342244Y534670D01*
X373649Y536209D02*
X414389D01*
X416621Y538441D02*
Y539801D01*
X418109Y541289D01*
X419039D01*
X422444Y544695D01*
X367030Y529590D02*
X373649Y536209D01*
X344348Y529590D02*
X367030D01*
X414389Y536209D02*
X416621Y538441D01*
X422444Y544695D02*
Y544830D01*
X342860Y514565D02*
Y528102D01*
X344348Y529590D01*
X337780Y516669D02*
Y530206D01*
X297210Y495330D02*
X312189Y510309D01*
X372448Y544695D02*
Y544830D01*
X302290Y463451D02*
Y492790D01*
X297210Y461346D02*
Y495330D01*
X292130Y459242D02*
X300722Y450650D01*
X309880D01*
X292130Y519641D02*
X304869Y532380D01*
X302826Y455730D02*
X308610D01*
X302290Y463451D02*
X304730Y461010D01*
X297210Y461346D02*
X302826Y455730D01*
X304730Y461010D02*
X308610D01*
X292130Y459242D02*
Y519641D01*
X417980Y292100D02*
X418750Y292870D01*
X230080Y394020D02*
X258847Y365253D01*
Y364826D02*
Y365253D01*
Y364826D02*
X261133Y362540D01*
X262530D01*
X327790Y468760D02*
Y471300D01*
X325780Y465960D02*
Y466750D01*
X327790Y468760D01*
X384530Y455650D02*
X389890D01*
X379730Y450850D02*
X384530Y455650D01*
X373380Y463550D02*
Y472440D01*
X453410Y322580D02*
X462960D01*
X468040Y327660D01*
X334010Y232410D02*
Y233076D01*
X336250Y235316D02*
Y248920D01*
X334010Y233076D02*
X336250Y235316D01*
X483931Y218241D02*
X494030Y228340D01*
X480526Y209550D02*
X483931Y212955D01*
X494030Y228340D02*
Y236220D01*
X483931Y212955D02*
Y218241D01*
X275590Y264521D02*
Y273050D01*
Y264521D02*
X279320Y260791D01*
X284330D01*
X220400Y305472D02*
Y338754D01*
X215070Y301280D02*
X216208D01*
X212090Y298300D02*
X215070Y301280D01*
X217530Y341040D02*
X218114D01*
X220400Y338754D01*
X216208Y301280D02*
X220400Y305472D01*
X208860Y314280D02*
X211840Y311300D01*
X208860Y314280D02*
Y330181D01*
X208767Y330274D02*
X208860Y330181D01*
X216133Y362540D02*
X217530D01*
X211840Y311300D02*
X212090D01*
X208767Y330274D02*
Y355174D01*
X216133Y362540D01*
X356839Y553451D02*
X399651D01*
X408136Y544965D01*
X277760Y571940D02*
X279200Y570500D01*
X279329Y548371D02*
X305671D01*
X309076Y544830D02*
Y544965D01*
X305671Y548371D02*
X309076Y544965D01*
X264260Y563440D02*
X279329Y548371D01*
X358140Y544830D02*
Y544965D01*
X408136Y544830D02*
Y544965D01*
X263260Y563440D02*
X264260D01*
X212311Y209771D02*
X212531Y209991D01*
X212090Y209550D02*
X212311Y209771D01*
X212531Y209991D02*
X247330D01*
D18*
X328100Y478650D02*
D03*
X333100D02*
D03*
X338100D02*
D03*
X343100D02*
D03*
X348100D02*
D03*
X353100D02*
D03*
X358100D02*
D03*
X363100D02*
D03*
X368100D02*
D03*
X373100D02*
D03*
X378100D02*
D03*
X383100D02*
D03*
Y397650D02*
D03*
X378100D02*
D03*
X373100D02*
D03*
X368100D02*
D03*
X363100D02*
D03*
X358100D02*
D03*
X353100D02*
D03*
X348100D02*
D03*
X343100D02*
D03*
X338100D02*
D03*
X333100D02*
D03*
X328100D02*
D03*
D19*
X396100Y465650D02*
D03*
Y460650D02*
D03*
Y455650D02*
D03*
Y450650D02*
D03*
Y445650D02*
D03*
Y440650D02*
D03*
Y435650D02*
D03*
Y430650D02*
D03*
Y425650D02*
D03*
Y420650D02*
D03*
Y415650D02*
D03*
Y410650D02*
D03*
X315100D02*
D03*
Y415650D02*
D03*
Y420650D02*
D03*
Y425650D02*
D03*
Y430650D02*
D03*
Y435650D02*
D03*
Y440650D02*
D03*
Y445650D02*
D03*
Y450650D02*
D03*
Y455650D02*
D03*
Y460650D02*
D03*
Y465650D02*
D03*
D20*
X254932Y471688D02*
D03*
Y497088D02*
D03*
Y522488D02*
D03*
X453410Y297180D02*
D03*
Y322580D02*
D03*
Y373380D02*
D03*
Y347980D02*
D03*
Y271780D02*
D03*
Y417830D02*
D03*
Y494030D02*
D03*
Y519430D02*
D03*
Y468630D02*
D03*
Y443230D02*
D03*
D21*
X373380Y222600D02*
D03*
Y237140D02*
D03*
D22*
X388320Y261620D02*
D03*
X401320D02*
D03*
X336250Y248920D02*
D03*
X349250D02*
D03*
X417980Y292100D02*
D03*
X404980D02*
D03*
X417980Y316230D02*
D03*
X404980D02*
D03*
X417980Y340360D02*
D03*
X404980D02*
D03*
D23*
X408940Y235250D02*
D03*
Y222250D02*
D03*
X212090Y298300D02*
D03*
Y311300D02*
D03*
D24*
X358140Y544830D02*
D03*
X372448D02*
D03*
X309076D02*
D03*
X323384D02*
D03*
X408136D02*
D03*
X422444D02*
D03*
X480526Y209550D02*
D03*
X494834D02*
D03*
D25*
X277760Y571940D02*
D03*
Y563440D02*
D03*
X263260Y571940D02*
D03*
Y563440D02*
D03*
D26*
X262530Y341040D02*
D03*
X217530D02*
D03*
X262530Y362540D02*
D03*
X217530D02*
D03*
D27*
X247330Y209991D02*
D03*
X284330D02*
D03*
X247330Y235391D02*
D03*
X284330D02*
D03*
X247330Y260791D02*
D03*
X284330D02*
D03*
D28*
X261380Y394020D02*
D03*
X218680D02*
D03*
X261380Y414020D02*
D03*
X218680D02*
D03*
X261380Y434020D02*
D03*
X218680D02*
D03*
D29*
X284874Y336550D02*
D03*
X300990D02*
D03*
D30*
X404210Y367030D02*
D03*
X418750D02*
D03*
X285750Y368300D02*
D03*
X300290D02*
D03*
D31*
X324524Y519430D02*
D03*
X307936D02*
D03*
D32*
X495237Y236264D02*
D03*
X480237D02*
D03*
D45*
X340360Y314960D02*
D03*
X336550Y207010D02*
D03*
X388620Y314960D02*
D03*
X373380Y364490D02*
D03*
X356870Y514350D02*
D03*
X309880Y467360D02*
D03*
X296769Y371821D02*
D03*
X378460Y201930D02*
D03*
X391160Y293370D02*
D03*
X284480Y214630D02*
D03*
X333064Y488662D02*
D03*
X252747Y349267D02*
D03*
X243840Y349250D02*
D03*
X360680Y502920D02*
D03*
X317500Y483060D02*
D03*
X309880Y476250D02*
D03*
X369570Y430530D02*
D03*
Y422910D02*
D03*
X347980Y415290D02*
D03*
X361950Y382270D02*
D03*
X355600Y375920D02*
D03*
X364490Y510540D02*
D03*
X327660Y224790D02*
D03*
X320040Y215900D02*
D03*
X426720Y273050D02*
D03*
Y280670D02*
D03*
X259080Y307340D02*
D03*
X291179Y426251D02*
D03*
X313690Y210820D02*
D03*
X350520Y297180D02*
D03*
X355600Y303530D02*
D03*
X361950Y309880D02*
D03*
X336550Y463550D02*
D03*
X335280Y455930D02*
D03*
X316230Y407670D02*
D03*
X302260Y515620D02*
D03*
X350520Y463550D02*
D03*
X331470Y519430D02*
D03*
X384810Y495300D02*
D03*
X373380Y463550D02*
D03*
X384810Y473710D02*
D03*
X379730Y450850D02*
D03*
X349250Y232410D02*
D03*
X328930Y177800D02*
D03*
X261620Y337820D02*
D03*
X468630Y353060D02*
D03*
X245110Y417830D02*
D03*
X389890Y265430D02*
D03*
X342900Y294640D02*
D03*
X303530Y308610D02*
D03*
X364490Y184150D02*
D03*
X341630Y344170D02*
D03*
X334010Y232410D02*
D03*
X393700Y207010D02*
D03*
X311150Y200660D02*
D03*
X360680Y204470D02*
D03*
X377190Y325120D02*
D03*
X240030Y476250D02*
D03*
X196850D02*
D03*
X218440Y511810D02*
D03*
X245110Y438150D02*
D03*
X203200Y417830D02*
D03*
X275590Y273050D02*
D03*
X302260D02*
D03*
X284480Y226060D02*
D03*
X259080Y290830D02*
D03*
X269240Y491490D02*
D03*
X403860Y408940D02*
D03*
X266700Y575310D02*
D03*
X212311Y209771D02*
D03*
X468630Y449580D02*
D03*
X468960Y462610D02*
D03*
X476250Y232410D02*
D03*
X201930Y438150D02*
D03*
X468630Y378460D02*
D03*
Y525780D02*
D03*
D46*
X435610Y149860D02*
D03*
D47*
X289560D02*
D03*
X264160D02*
D03*
X314960D02*
D03*
X340360D02*
D03*
D48*
X495417Y156827D02*
D03*
X212676Y156846D02*
D03*
X495462Y573989D02*
D03*
X212704Y574025D02*
D03*
D49*
X388620Y149860D02*
D03*
M02*
