G04*
G04 #@! TF.GenerationSoftware,Altium Limited,Altium Designer,24.9.1 (31)*
G04*
G04 Layer_Color=16711935*
%FSLAX44Y44*%
%MOMM*%
G71*
G04*
G04 #@! TF.SameCoordinates,573C6FB0-CD79-483D-94B5-B6DABAD4C9EF*
G04*
G04*
G04 #@! TF.FilePolarity,Positive*
G04*
G01*
G75*
%ADD13C,0.2000*%
%ADD14C,0.1524*%
%ADD86C,0.1000*%
%ADD88C,0.0500*%
G36*
X476885Y292735D02*
X511175D01*
Y311785D01*
X476885D01*
Y292735D01*
D02*
G37*
D13*
X352340Y567540D02*
Y580540D01*
X375340D01*
Y567540D02*
Y580540D01*
X352340Y567540D02*
X375340D01*
X433629Y205061D02*
X447751D01*
Y175939D02*
Y205061D01*
X433629Y175939D02*
Y205061D01*
Y175939D02*
X447751D01*
X400641Y263449D02*
Y277571D01*
X371519Y263449D02*
X400641D01*
X371519D02*
Y277571D01*
X400641D01*
X481780Y256890D02*
Y268890D01*
X506280D01*
X481780Y256890D02*
X506280D01*
Y268890D01*
X403790Y567540D02*
X426790D01*
Y580540D01*
X403790D02*
X426790D01*
X403790Y567540D02*
Y580540D01*
X580210Y401580D02*
Y535680D01*
X436510Y401580D02*
X580210D01*
X436510Y535680D02*
X580210D01*
X436510Y401580D02*
Y535680D01*
D14*
X511175Y292735D02*
Y311785D01*
X476885D02*
X511175D01*
X476885Y292735D02*
Y311785D01*
Y292735D02*
X511175D01*
D86*
X340440Y320040D02*
X350440D01*
X345440Y315040D02*
Y325040D01*
X336550Y202010D02*
Y212010D01*
X331550Y207010D02*
X341550D01*
X440690Y231220D02*
Y241220D01*
X435690Y236220D02*
X445690D01*
X331470Y266980D02*
Y276580D01*
X326670Y271780D02*
X336270D01*
X372390Y354480D02*
X381990D01*
X377190Y349680D02*
Y359280D01*
X352070Y271780D02*
X361670D01*
X356870Y266980D02*
Y276580D01*
X383620Y190500D02*
X393620D01*
X388620Y185500D02*
Y195500D01*
X490800Y340360D02*
X499800D01*
X495300Y335860D02*
Y344860D01*
X490800Y382270D02*
X499800D01*
X495300Y377770D02*
Y386770D01*
D88*
X128880Y193791D02*
X298830D01*
X128880D02*
Y353191D01*
X298830D01*
Y193791D02*
Y353191D01*
X324690Y299290D02*
Y340790D01*
X366190Y299290D02*
Y340790D01*
X324690Y299290D02*
X366190D01*
X324690Y340790D02*
X366190D01*
X315800Y186260D02*
X357300D01*
X315800Y227760D02*
X357300D01*
Y186260D02*
Y227760D01*
X315800Y186260D02*
Y227760D01*
X448390Y304910D02*
X458390D01*
X453390Y299910D02*
Y309910D01*
X444890Y289910D02*
Y319910D01*
X461890Y289910D02*
Y319910D01*
X444890D02*
X461890D01*
X444890Y289910D02*
X461890D01*
X428190Y223220D02*
X453190D01*
X428190D02*
Y249220D01*
X453190D01*
Y223220D02*
Y249220D01*
X325470Y260280D02*
X337470D01*
X325470Y283280D02*
X337470D01*
Y260280D02*
Y283280D01*
X325470Y260280D02*
Y283280D01*
X383190Y342980D02*
Y365980D01*
X371190Y342980D02*
Y365980D01*
Y342980D02*
X383190D01*
X371190Y365980D02*
X383190D01*
X350870Y260280D02*
Y283280D01*
X362870Y260280D02*
Y283280D01*
X350870D02*
X362870D01*
X350870Y260280D02*
X362870D01*
X372120Y173500D02*
X405120D01*
X372120D02*
Y207500D01*
X405120Y173500D02*
Y207500D01*
X372120D02*
X405120D01*
X193610Y472650D02*
X233110D01*
Y530650D01*
X193760D02*
X233110D01*
X193610Y472650D02*
X193760Y530650D01*
X478800Y330360D02*
Y350360D01*
X511800Y330360D02*
Y350360D01*
X478800Y330360D02*
X511800D01*
X478800Y350360D02*
X511800D01*
X478800Y372270D02*
Y392270D01*
X511800Y372270D02*
Y392270D01*
X478800Y372270D02*
X511800D01*
X478800Y392270D02*
X511800D01*
M02*
