G04*
G04 #@! TF.GenerationSoftware,Altium Limited,Altium Designer,24.9.1 (31)*
G04*
G04 Layer_Color=32768*
%FSLAX44Y44*%
%MOMM*%
G71*
G04*
G04 #@! TF.SameCoordinates,573C6FB0-CD79-483D-94B5-B6DABAD4C9EF*
G04*
G04*
G04 #@! TF.FilePolarity,Positive*
G04*
G01*
G75*
%ADD13C,0.2000*%
%ADD84C,0.1270*%
%ADD86C,0.1000*%
%ADD87C,0.0254*%
%ADD89C,0.0700*%
D13*
X225560Y533750D02*
G03*
X225560Y533750I-1000J0D01*
G01*
X354340Y568540D02*
Y579540D01*
X373340D01*
Y568540D02*
Y579540D01*
X354340Y568540D02*
X373340D01*
X444690Y182500D02*
Y198500D01*
X436690Y182500D02*
X444690D01*
X436690Y198500D02*
X444690D01*
X436690Y182500D02*
Y198500D01*
X394080Y266510D02*
Y274510D01*
X378080Y266510D02*
X394080D01*
X378080D02*
Y274510D01*
X394080D01*
X485530Y258140D02*
Y267640D01*
X502530D01*
Y258140D02*
Y267640D01*
X485530Y258140D02*
X502530D01*
X405790Y568540D02*
X424790D01*
Y579540D01*
X405790D02*
X424790D01*
X405790Y568540D02*
Y579540D01*
X492110Y402580D02*
X518810D01*
Y534680D01*
X492110Y402580D02*
Y534680D01*
X518810D01*
D84*
X197360Y476650D02*
Y526650D01*
X229360Y476650D02*
Y526650D01*
X197360D02*
X229360D01*
X197360Y476650D02*
X229360D01*
D86*
X344440Y314040D02*
G03*
X344440Y314040I-5000J0D01*
G01*
X347550Y201010D02*
G03*
X347550Y201010I-5000J0D01*
G01*
X330440Y305040D02*
Y335040D01*
X360440Y305040D02*
Y335040D01*
X330440Y305040D02*
X360440D01*
X330440Y335040D02*
X360440D01*
X321550Y192010D02*
X351550D01*
X321550Y222010D02*
X351550D01*
Y192010D02*
Y222010D01*
X321550Y192010D02*
Y222010D01*
X430190Y225720D02*
Y246720D01*
X451190Y225720D02*
Y246720D01*
X430190D02*
X451190D01*
X430190Y225720D02*
X451190D01*
X326670Y263030D02*
X336270D01*
X326670Y280530D02*
X336270D01*
Y263030D02*
Y280530D01*
X326670Y263030D02*
Y280530D01*
X381990Y345730D02*
Y363230D01*
X372390Y345730D02*
Y363230D01*
Y345730D02*
X381990D01*
X372390Y363230D02*
X381990D01*
X352070Y263030D02*
Y280530D01*
X361670Y263030D02*
Y280530D01*
X352070D02*
X361670D01*
X352070Y263030D02*
X361670D01*
X373120Y199500D02*
X404120D01*
X373120Y181500D02*
X404120D01*
X373120D02*
Y199500D01*
X404120Y181500D02*
Y199500D01*
X486800Y335860D02*
Y344860D01*
X503800Y335860D02*
Y344860D01*
X486800Y335860D02*
X503800D01*
X486800Y344860D02*
X503800D01*
X486800Y377770D02*
Y386770D01*
X503800Y377770D02*
Y386770D01*
X486800Y377770D02*
X503800D01*
X486800Y386770D02*
X503800D01*
D87*
X505079Y295275D02*
Y309245D01*
Y295275D02*
Y309245D01*
X482981Y295275D02*
Y309245D01*
Y295275D02*
Y309245D01*
Y295275D02*
X505079D01*
X482981D02*
Y309245D01*
X505079D01*
Y295275D02*
Y309245D01*
D89*
X448690Y230720D02*
G03*
X448690Y230720I-2000J0D01*
G01*
M02*
