M48
;Layer_Color=9474304
;FILE_FORMAT=4:4
METRIC,LZ
;TYPE=PLATED
T01F00S00C0.3000
T02F00S00C1.0000
T03F00S00C1.5000
T04F00S00C3.0480
%
T01
X00212311Y00209771
X0028448Y0021463
Y0022606
X0032766Y0022479
X0033401Y0023241
X0034925
X0033655Y0020701
X0032004Y002159
X0031369Y0021082
X0031115Y0020066
X0032893Y001778
X0036449Y0018415
X0036068Y0020447
X0037846Y0020193
X003937Y0020701
X0038989Y0026543
X0039116Y0029337
X0038862Y0031496
X0037719Y0032512
X0036195Y0030988
X003556Y0030353
X0035052Y0029718
X003429Y0029464
X0034036Y0031496
X0034163Y0034417
X003556Y0037592
X0036195Y0038227
X0037338Y0036449
X00296769Y00371821
X00252747Y00349267
X0024384Y0034925
X0026162Y0033782
X0025908Y0030734
Y0029083
X0027559Y0027305
X0030226
X0030353Y0030861
X0042672Y0028067
Y0027305
X0047625Y0023241
X0046863Y0035306
Y0037846
Y0044958
X0046896Y0046261
X0046863Y0052578
X0040386Y0040894
X0036957Y0042291
Y0043053
X0037973Y0045085
X0037338Y0046355
X0038481Y0047371
Y004953
X0036068Y0050292
X0036449Y0051054
X0035687Y0051435
X0033147Y0051943
X00333064Y00488662
X003175Y0048306
X0030988Y0047625
Y0046736
X0033655Y0046355
X0033528Y0045593
X0035052Y0046355
X0034798Y0041529
X0031623Y0040767
X00291179Y00426251
X0024511Y0041783
Y0043815
X0024003Y0047625
X0019685
X0020193Y0043815
X002032Y0041783
X0021844Y0051181
X0026924Y0049149
X0030226Y0051562
X002667Y0057531
T02
X0026416Y0014986
X0028956
X0031496
X0034036
T03
X0038862Y0014986
X0043561
T04
X00212676Y00156846
X00495417Y00156827
X00495462Y00573989
X00212704Y00574025
M30
