G04*
G04 #@! TF.GenerationSoftware,Altium Limited,Altium Designer,24.9.1 (31)*
G04*
G04 Layer_Physical_Order=4*
G04 Layer_Color=16711680*
%FSLAX44Y44*%
%MOMM*%
G71*
G04*
G04 #@! TF.SameCoordinates,573C6FB0-CD79-483D-94B5-B6DABAD4C9EF*
G04*
G04*
G04 #@! TF.FilePolarity,Positive*
G04*
G01*
G75*
%ADD12C,0.5080*%
%ADD16C,0.2540*%
%ADD20R,3.1800X1.2700*%
%ADD21R,0.9121X0.9581*%
%ADD23R,0.9000X0.8500*%
%ADD27R,2.5000X1.0000*%
%ADD30R,0.9581X0.9121*%
%ADD32R,0.8000X0.8000*%
%ADD45C,0.5000*%
%ADD46R,2.5000X2.5000*%
%ADD47C,2.0000*%
%ADD48C,5.5000*%
%ADD49C,2.5000*%
%ADD58R,1.0000X1.0000*%
%ADD59O,0.7500X0.2500*%
%ADD60O,0.2500X0.7500*%
%ADD61R,1.8000X1.8000*%
%ADD62R,1.8000X1.8000*%
G04:AMPARAMS|DCode=63|XSize=1.3mm|YSize=0.76mm|CornerRadius=0.095mm|HoleSize=0mm|Usage=FLASHONLY|Rotation=0.000|XOffset=0mm|YOffset=0mm|HoleType=Round|Shape=RoundedRectangle|*
%AMROUNDEDRECTD63*
21,1,1.3000,0.5700,0,0,0.0*
21,1,1.1100,0.7600,0,0,0.0*
1,1,0.1900,0.5550,-0.2850*
1,1,0.1900,-0.5550,-0.2850*
1,1,0.1900,-0.5550,0.2850*
1,1,0.1900,0.5550,0.2850*
%
%ADD63ROUNDEDRECTD63*%
G04:AMPARAMS|DCode=64|XSize=0.9mm|YSize=1.6mm|CornerRadius=0.0495mm|HoleSize=0mm|Usage=FLASHONLY|Rotation=90.000|XOffset=0mm|YOffset=0mm|HoleType=Round|Shape=RoundedRectangle|*
%AMROUNDEDRECTD64*
21,1,0.9000,1.5010,0,0,90.0*
21,1,0.8010,1.6000,0,0,90.0*
1,1,0.0990,0.7505,0.4005*
1,1,0.0990,0.7505,-0.4005*
1,1,0.0990,-0.7505,-0.4005*
1,1,0.0990,-0.7505,0.4005*
%
%ADD64ROUNDEDRECTD64*%
G04:AMPARAMS|DCode=65|XSize=0.25mm|YSize=0.5mm|CornerRadius=0.05mm|HoleSize=0mm|Usage=FLASHONLY|Rotation=0.000|XOffset=0mm|YOffset=0mm|HoleType=Round|Shape=RoundedRectangle|*
%AMROUNDEDRECTD65*
21,1,0.2500,0.4000,0,0,0.0*
21,1,0.1500,0.5000,0,0,0.0*
1,1,0.1000,0.0750,-0.2000*
1,1,0.1000,-0.0750,-0.2000*
1,1,0.1000,-0.0750,0.2000*
1,1,0.1000,0.0750,0.2000*
%
%ADD65ROUNDEDRECTD65*%
%ADD66R,1.1557X1.3970*%
%ADD67R,0.7000X0.7000*%
%ADD68R,0.7500X1.0000*%
%ADD69R,1.2500X1.6000*%
%ADD70R,0.8000X1.0000*%
G36*
X495751Y608857D02*
X498010D01*
X502490Y608268D01*
X506854Y607098D01*
X511028Y605369D01*
X514941Y603110D01*
X518526Y600359D01*
X521720Y597164D01*
X524471Y593580D01*
X526730Y589667D01*
X528459Y585493D01*
X529628Y581129D01*
X530218Y576649D01*
Y574390D01*
X530300D01*
X530300Y156429D01*
X530300Y156429D01*
X530300D01*
X530274Y153900D01*
X529719Y149690D01*
X528550Y145326D01*
X526821Y141152D01*
X524562Y137239D01*
X521811Y133654D01*
X518616Y130459D01*
X515032Y127709D01*
X511119Y125450D01*
X506945Y123721D01*
X502580Y122551D01*
X498101Y121962D01*
X495842D01*
Y121920D01*
X210008D01*
X205529Y122510D01*
X201164Y123679D01*
X196990Y125408D01*
X193077Y127667D01*
X189493Y130418D01*
X186298Y133613D01*
X183547Y137197D01*
X181288Y141110D01*
X179559Y145284D01*
X178390Y149649D01*
X177800Y154128D01*
Y156387D01*
X177800Y574436D01*
X177830D01*
Y576695D01*
X178420Y581175D01*
X179589Y585539D01*
X181318Y589714D01*
X183578Y593626D01*
X186328Y597211D01*
X189523Y600406D01*
X193107Y603156D01*
X197020Y605415D01*
X201195Y607145D01*
X205559Y608314D01*
X209767Y608868D01*
X212298Y608890D01*
X212298Y608890D01*
X212298Y608890D01*
X495751Y608890D01*
Y608857D01*
D02*
G37*
%LPC*%
G36*
X423560Y580080D02*
Y575310D01*
X428330D01*
Y580080D01*
X423560D01*
D02*
G37*
G36*
X215068Y604065D02*
X213974D01*
Y575295D01*
X242744D01*
Y576390D01*
X242004Y581060D01*
X240543Y585557D01*
X238396Y589770D01*
X235617Y593595D01*
X232274Y596939D01*
X228448Y599718D01*
X224235Y601865D01*
X219738Y603326D01*
X215068Y604065D01*
D02*
G37*
G36*
X211434D02*
X210340D01*
X205670Y603326D01*
X201173Y601865D01*
X196960Y599718D01*
X193134Y596939D01*
X189791Y593595D01*
X187012Y589770D01*
X184865Y585557D01*
X183404Y581060D01*
X182664Y576390D01*
Y575295D01*
X211434D01*
Y604065D01*
D02*
G37*
G36*
X497826Y604029D02*
X496732D01*
Y575259D01*
X525502D01*
Y576353D01*
X524762Y581024D01*
X523301Y585521D01*
X521154Y589734D01*
X518375Y593559D01*
X515032Y596903D01*
X511206Y599682D01*
X506993Y601828D01*
X502496Y603289D01*
X497826Y604029D01*
D02*
G37*
G36*
X494192D02*
X493098D01*
X488428Y603289D01*
X483931Y601828D01*
X479717Y599682D01*
X475892Y596903D01*
X472549Y593559D01*
X469769Y589734D01*
X467623Y585521D01*
X466162Y581024D01*
X465422Y576353D01*
Y575259D01*
X494192D01*
Y604029D01*
D02*
G37*
G36*
X267703Y580350D02*
X265697D01*
X263845Y579583D01*
X262427Y578165D01*
X261660Y576312D01*
Y574308D01*
X262427Y572455D01*
X263845Y571037D01*
X265697Y570270D01*
X267703D01*
X269555Y571037D01*
X270973Y572455D01*
X271740Y574308D01*
Y576312D01*
X270973Y578165D01*
X269555Y579583D01*
X267703Y580350D01*
D02*
G37*
G36*
X428330Y572770D02*
X423560D01*
Y568000D01*
X428330D01*
Y572770D01*
D02*
G37*
G36*
X376880D02*
X372110D01*
Y568000D01*
X376880D01*
Y572770D01*
D02*
G37*
G36*
X400980Y585235D02*
X311712D01*
X310225Y584939D01*
X308965Y584097D01*
X248903Y524035D01*
X233150D01*
Y530690D01*
X215570D01*
Y516068D01*
X214167Y514665D01*
X213690Y513513D01*
X211150Y514018D01*
Y518880D01*
X203630D01*
Y509610D01*
X211150D01*
Y509610D01*
X213690Y510107D01*
X214167Y508955D01*
X215585Y507537D01*
X215816Y507442D01*
X216412Y504445D01*
X205656Y493690D01*
X193570D01*
Y480098D01*
X192577Y479105D01*
X191810Y477253D01*
Y475247D01*
X192577Y473395D01*
X193995Y471977D01*
X195847Y471210D01*
X197852D01*
X199705Y471977D01*
X200338Y472610D01*
X211150D01*
Y488196D01*
X213223Y490270D01*
X215570Y489298D01*
Y484420D01*
X223090D01*
Y493690D01*
X219962D01*
X218990Y496037D01*
X227409Y504455D01*
X245886D01*
X247372Y504751D01*
X248633Y505593D01*
X256659Y513619D01*
X259005Y512647D01*
Y485479D01*
X247144Y473618D01*
X244991Y475057D01*
X245070Y475247D01*
Y477253D01*
X244303Y479105D01*
X242885Y480523D01*
X241033Y481290D01*
X239028D01*
X237175Y480523D01*
X235757Y479105D01*
X235690Y478942D01*
X233150Y479448D01*
Y481880D01*
X225630D01*
Y472610D01*
X233150D01*
Y473052D01*
X235690Y473558D01*
X235757Y473395D01*
X237175Y471977D01*
X239028Y471210D01*
X241033D01*
X241223Y471289D01*
X242662Y469136D01*
X230933Y457407D01*
X230091Y456147D01*
X229795Y454660D01*
Y449919D01*
X202746Y422870D01*
X202197D01*
X200345Y422103D01*
X198927Y420685D01*
X198160Y418833D01*
Y416828D01*
X198927Y414975D01*
X200345Y413557D01*
X202197Y412790D01*
X204202D01*
X206055Y413557D01*
X207473Y414975D01*
X208240Y416828D01*
Y417376D01*
X232569Y441705D01*
X234915Y440733D01*
Y432785D01*
X235211Y431298D01*
X236053Y430038D01*
X241225Y424866D01*
Y421073D01*
X240837Y420685D01*
X240070Y418833D01*
Y416828D01*
X240837Y414975D01*
X242255Y413557D01*
X244107Y412790D01*
X246112D01*
X247965Y413557D01*
X249383Y414975D01*
X250150Y416828D01*
Y418833D01*
X249383Y420685D01*
X248995Y421073D01*
Y426475D01*
X248699Y427961D01*
X247857Y429221D01*
X246392Y430686D01*
X246364Y430929D01*
X247136Y433534D01*
X247965Y433877D01*
X249383Y435295D01*
X250150Y437147D01*
Y439152D01*
X249383Y441005D01*
X248995Y441393D01*
Y449643D01*
X283417Y484065D01*
X284259Y485326D01*
X284555Y486812D01*
Y511471D01*
X305139Y532055D01*
X357801D01*
X359355Y530501D01*
X359355Y529485D01*
X356842Y526970D01*
X330280D01*
Y524392D01*
X328615Y523703D01*
X327197Y522285D01*
X326430Y520433D01*
Y518428D01*
X327197Y516575D01*
X328615Y515157D01*
X330280Y514468D01*
Y511890D01*
X337918D01*
X337961Y511673D01*
X338803Y510413D01*
X346635Y502581D01*
Y466793D01*
X346247Y466405D01*
X343352Y466052D01*
X343124Y466280D01*
X341863Y467122D01*
X340377Y467418D01*
X339810D01*
X339405Y467823D01*
X337552Y468590D01*
X335547D01*
X333695Y467823D01*
X332277Y466405D01*
X331510Y464552D01*
Y462547D01*
X332425Y460203D01*
X331007Y458785D01*
X330240Y456932D01*
Y454927D01*
X331007Y453075D01*
X332425Y451657D01*
X334277Y450890D01*
X336283D01*
X338135Y451657D01*
X338523Y452045D01*
X338751D01*
X342825Y447971D01*
Y431737D01*
X333763Y422675D01*
X332921Y421414D01*
X332625Y419928D01*
Y370911D01*
X330279Y369939D01*
X320115Y380103D01*
Y404427D01*
X320503Y404815D01*
X321270Y406668D01*
Y408672D01*
X320503Y410525D01*
X319085Y411943D01*
X317232Y412710D01*
X315228D01*
X313375Y411943D01*
X311957Y410525D01*
X311190Y408672D01*
Y406668D01*
X311957Y404815D01*
X312345Y404427D01*
Y378494D01*
X312641Y377007D01*
X313483Y375747D01*
X339109Y350121D01*
X338775Y348443D01*
X337357Y347025D01*
X336964Y346075D01*
X336561Y345162D01*
X334050Y344262D01*
X334010Y344269D01*
X299370D01*
Y344531D01*
X269290D01*
Y329451D01*
X299370D01*
Y333910D01*
X306483D01*
X307535Y331371D01*
X295396Y319231D01*
X286790D01*
X286290Y319131D01*
X269290D01*
Y304051D01*
X266925Y303629D01*
X265748D01*
X264050Y306169D01*
X264120Y306338D01*
Y308342D01*
X263353Y310195D01*
X262370Y311178D01*
Y319131D01*
X232290D01*
Y304051D01*
X231124Y301994D01*
X226087Y296958D01*
X224965Y295278D01*
X224571Y293295D01*
Y253687D01*
X224965Y251705D01*
X226087Y250025D01*
X229581Y246531D01*
X231261Y245408D01*
X231854Y245291D01*
X232290Y242931D01*
X232290D01*
Y227851D01*
X260250D01*
Y222737D01*
X255045Y217531D01*
X232290D01*
Y202451D01*
X262370D01*
Y210206D01*
X266750Y214586D01*
X269290Y213534D01*
Y211261D01*
X284330D01*
X299370D01*
Y217531D01*
X288706D01*
X287335Y218903D01*
X287172Y218970D01*
Y221720D01*
X287335Y221787D01*
X288753Y223205D01*
X289520Y225058D01*
Y227062D01*
X290047Y227851D01*
X299370D01*
Y242931D01*
X300454Y245022D01*
X300805Y245257D01*
X313542Y257995D01*
X314665Y259675D01*
X315060Y261657D01*
Y289335D01*
X323750Y298025D01*
X326291Y296973D01*
Y285070D01*
X324430D01*
Y271490D01*
Y266550D01*
X338510D01*
Y273100D01*
X349830D01*
Y266550D01*
X363910D01*
Y271490D01*
Y275741D01*
X364788Y276327D01*
X365221Y276761D01*
X371479D01*
Y271780D01*
X378810D01*
Y270510D01*
X380080D01*
Y263409D01*
X385272D01*
X385617Y262575D01*
X387035Y261157D01*
X388887Y260390D01*
X389936Y257850D01*
X359490Y227405D01*
X354964D01*
X354295Y228403D01*
X353684Y229945D01*
X354179Y231140D01*
X349250D01*
Y232410D01*
X347980D01*
Y237339D01*
X346395Y236683D01*
X346007Y236295D01*
X345440D01*
X343953Y235999D01*
X342693Y235157D01*
X341397Y233860D01*
X338554Y234610D01*
X338283Y235265D01*
X336865Y236683D01*
X335013Y237450D01*
X333008D01*
X331155Y236683D01*
X329737Y235265D01*
X328970Y233412D01*
Y232177D01*
X328858Y231323D01*
X326874Y229830D01*
X326657D01*
X324805Y229063D01*
X323387Y227645D01*
X322620Y225793D01*
Y223787D01*
X322996Y222880D01*
X321079Y220925D01*
X321043Y220940D01*
X319037D01*
X317185Y220173D01*
X315767Y218755D01*
X315000Y216903D01*
Y216066D01*
X314692Y215860D01*
X312687D01*
X310835Y215093D01*
X309417Y213675D01*
X308650Y211822D01*
Y209818D01*
X309417Y207965D01*
X308693Y205097D01*
X308295Y204933D01*
X306877Y203515D01*
X306110Y201663D01*
Y199657D01*
X306877Y197805D01*
X306620Y196733D01*
X305983Y195107D01*
X271169Y160294D01*
X269000Y161545D01*
X265811Y162400D01*
X262509D01*
X259320Y161545D01*
X256460Y159895D01*
X254125Y157560D01*
X252475Y154700D01*
X251620Y151511D01*
Y148209D01*
X252475Y145020D01*
X254125Y142160D01*
X256460Y139825D01*
X259320Y138175D01*
X262509Y137320D01*
X265811D01*
X269000Y138175D01*
X271860Y139825D01*
X274195Y142160D01*
X275447Y144329D01*
X276200Y144543D01*
X277520D01*
X278273Y144329D01*
X279526Y142160D01*
X281860Y139825D01*
X284720Y138175D01*
X287909Y137320D01*
X291211D01*
X294400Y138175D01*
X297260Y139825D01*
X299594Y142160D01*
X300847Y144329D01*
X301600Y144543D01*
X302920D01*
X303673Y144329D01*
X304925Y142160D01*
X307260Y139825D01*
X310120Y138175D01*
X313309Y137320D01*
X316611D01*
X319800Y138175D01*
X322660Y139825D01*
X324995Y142160D01*
X326247Y144329D01*
X327000Y144543D01*
X328320D01*
X329073Y144329D01*
X330326Y142160D01*
X332660Y139825D01*
X335520Y138175D01*
X338709Y137320D01*
X342011D01*
X345200Y138175D01*
X348060Y139825D01*
X350395Y142160D01*
X352045Y145020D01*
X352900Y148209D01*
Y151511D01*
X352045Y154700D01*
X350651Y157116D01*
X351642Y158108D01*
X352765Y159788D01*
X353159Y161770D01*
Y184563D01*
X355700Y185616D01*
X360827Y180487D01*
X361422Y180090D01*
X361635Y179877D01*
X361913Y179762D01*
X362508Y179365D01*
X363209Y179225D01*
X363488Y179110D01*
X363789D01*
X364490Y178971D01*
X365191Y179110D01*
X365493D01*
X365771Y179225D01*
X366472Y179365D01*
X367067Y179762D01*
X367345Y179877D01*
X367558Y180090D01*
X368153Y180487D01*
X368550Y181082D01*
X368763Y181295D01*
X368878Y181573D01*
X369275Y182168D01*
X369415Y182869D01*
X369530Y183148D01*
Y183449D01*
X369669Y184150D01*
X369530Y184851D01*
Y185152D01*
X369415Y185431D01*
X369275Y186132D01*
X368878Y186727D01*
X368763Y187005D01*
X368550Y187218D01*
X368153Y187812D01*
X359510Y196455D01*
Y196850D01*
X359510Y196850D01*
X359486Y196969D01*
X361538Y199430D01*
X361683D01*
X363535Y200197D01*
X364953Y201615D01*
X365720Y203468D01*
Y205473D01*
X364953Y207325D01*
X364991Y207710D01*
X365475Y208033D01*
X414857Y257416D01*
X415700Y258676D01*
X415995Y260163D01*
Y273659D01*
X418342Y274631D01*
X421359Y271613D01*
X422051Y271151D01*
X422447Y270195D01*
X423865Y268777D01*
X425718Y268010D01*
X427723D01*
X429575Y268777D01*
X430993Y270195D01*
X431760Y272048D01*
Y274053D01*
X430993Y275905D01*
X430038Y276860D01*
X430993Y277815D01*
X431760Y279667D01*
Y281672D01*
X430993Y283525D01*
X429575Y284943D01*
X427723Y285710D01*
X427174D01*
X426795Y286089D01*
Y359410D01*
X426499Y360897D01*
X425657Y362157D01*
X372072Y415742D01*
X372425Y418637D01*
X373843Y420055D01*
X374527Y421708D01*
X392165Y439345D01*
X434970D01*
Y434340D01*
X471850D01*
Y437548D01*
X474197Y438520D01*
X476105Y436611D01*
Y379715D01*
X473670Y379463D01*
X473507Y379857D01*
X472903Y381315D01*
X471485Y382733D01*
X469632Y383500D01*
X467627D01*
X465775Y382733D01*
X464357Y381315D01*
X463590Y379463D01*
Y377458D01*
X464357Y375605D01*
X465775Y374187D01*
X467627Y373420D01*
X469632D01*
X471485Y374187D01*
X472903Y375605D01*
X473507Y377063D01*
X473670Y377457D01*
X476105Y377205D01*
Y375692D01*
X476401Y374205D01*
X477243Y372945D01*
X483915Y366273D01*
Y347900D01*
X481260D01*
Y332820D01*
X493720D01*
X494340Y332820D01*
X496260D01*
X496880Y332820D01*
X509340D01*
Y347900D01*
X506685D01*
Y374730D01*
X509340D01*
Y389810D01*
X506685D01*
Y491610D01*
X506389Y493097D01*
X505547Y494357D01*
X473670Y526234D01*
Y526782D01*
X472903Y528635D01*
X471485Y530053D01*
X469632Y530820D01*
X467627D01*
X465775Y530053D01*
X464357Y528635D01*
X464227Y528320D01*
X434970D01*
Y510540D01*
X471850D01*
Y513748D01*
X474197Y514720D01*
X498915Y490001D01*
Y391028D01*
X496375Y389810D01*
X494340D01*
X493720Y389810D01*
X489025D01*
Y446430D01*
X488729Y447917D01*
X487887Y449177D01*
X474000Y463064D01*
Y463613D01*
X473233Y465465D01*
X471850Y466848D01*
Y477520D01*
X434970D01*
Y459740D01*
X434970D01*
X435503Y458454D01*
X429243Y452195D01*
X387350D01*
X387182Y452161D01*
X385778Y451982D01*
X384003Y453705D01*
X382585Y455123D01*
X380732Y455890D01*
X378730D01*
X378724Y455893D01*
X376641Y457585D01*
X376746Y459789D01*
X377653Y460695D01*
X378420Y462547D01*
Y463096D01*
X381207Y465883D01*
X382049Y467143D01*
X383807Y468670D01*
X385812D01*
X387665Y469437D01*
X389083Y470855D01*
X389850Y472707D01*
Y473256D01*
X393867Y477273D01*
X394709Y478533D01*
X395005Y480020D01*
Y528360D01*
X394709Y529847D01*
X393867Y531107D01*
X371047Y553927D01*
X369787Y554769D01*
X368300Y555065D01*
X301423D01*
X300451Y557411D01*
X313195Y570155D01*
X350800D01*
Y568000D01*
X362880D01*
Y568000D01*
X364800D01*
Y568000D01*
X369570D01*
Y574040D01*
X370840D01*
Y575310D01*
X376880D01*
Y577465D01*
X399371D01*
X402250Y574586D01*
Y568000D01*
X413710D01*
X414330Y568000D01*
X416250D01*
X416870Y568000D01*
X421020D01*
Y574040D01*
Y580080D01*
X416870D01*
X416250Y580080D01*
X414330D01*
X413710Y580080D01*
X407744D01*
X403727Y584097D01*
X402467Y584939D01*
X400980Y585235D01*
D02*
G37*
G36*
X242744Y572755D02*
X213974D01*
Y543985D01*
X215068D01*
X219738Y544725D01*
X224235Y546186D01*
X228448Y548333D01*
X232274Y551112D01*
X235617Y554456D01*
X238396Y558281D01*
X240543Y562494D01*
X242004Y566991D01*
X242744Y571661D01*
Y572755D01*
D02*
G37*
G36*
X211434D02*
X182664D01*
Y571661D01*
X183404Y566991D01*
X184865Y562494D01*
X187012Y558281D01*
X189791Y554456D01*
X193134Y551112D01*
X196960Y548333D01*
X201173Y546186D01*
X205670Y544725D01*
X210340Y543985D01*
X211434D01*
Y572755D01*
D02*
G37*
G36*
X525502Y572719D02*
X496732D01*
Y543949D01*
X497826D01*
X502496Y544689D01*
X506993Y546150D01*
X511206Y548297D01*
X515032Y551076D01*
X518375Y554420D01*
X521154Y558245D01*
X523301Y562458D01*
X524762Y566955D01*
X525502Y571625D01*
Y572719D01*
D02*
G37*
G36*
X494192D02*
X465422D01*
Y571625D01*
X466162Y566955D01*
X467623Y562458D01*
X469769Y558245D01*
X472549Y554420D01*
X475892Y551076D01*
X479717Y548297D01*
X483931Y546150D01*
X488428Y544689D01*
X493098Y543949D01*
X494192D01*
Y572719D01*
D02*
G37*
G36*
X211150Y530690D02*
X203630D01*
Y521420D01*
X211150D01*
Y530690D01*
D02*
G37*
G36*
X201090D02*
X193570D01*
Y521420D01*
X201090D01*
Y530690D01*
D02*
G37*
G36*
X303530Y520549D02*
Y516890D01*
X307189D01*
X306533Y518475D01*
X305115Y519893D01*
X303530Y520549D01*
D02*
G37*
G36*
X300990D02*
X299405Y519893D01*
X297987Y518475D01*
X297331Y516890D01*
X300990D01*
Y520549D01*
D02*
G37*
G36*
X307189Y514350D02*
X303530D01*
Y510691D01*
X305115Y511347D01*
X306533Y512765D01*
X307189Y514350D01*
D02*
G37*
G36*
X300990D02*
X297331D01*
X297987Y512765D01*
X299405Y511347D01*
X300990Y510691D01*
Y514350D01*
D02*
G37*
G36*
X201090Y518880D02*
X193570D01*
Y509610D01*
X201090D01*
Y518880D01*
D02*
G37*
G36*
X471850Y502920D02*
X454680D01*
Y495300D01*
X471850D01*
Y502920D01*
D02*
G37*
G36*
X452140D02*
X434970D01*
Y495300D01*
X452140D01*
Y502920D01*
D02*
G37*
G36*
X334334Y493591D02*
Y489932D01*
X337993D01*
X337337Y491517D01*
X335919Y492935D01*
X334334Y493591D01*
D02*
G37*
G36*
X331794D02*
X330209Y492935D01*
X328791Y491517D01*
X328135Y489932D01*
X331794D01*
Y493591D01*
D02*
G37*
G36*
X471850Y492760D02*
X454680D01*
Y485140D01*
X471850D01*
Y492760D01*
D02*
G37*
G36*
X452140D02*
X434970D01*
Y485140D01*
X452140D01*
Y492760D01*
D02*
G37*
G36*
X233150Y493690D02*
X225630D01*
Y484420D01*
X233150D01*
Y493690D01*
D02*
G37*
G36*
X337993Y487392D02*
X334334D01*
Y483733D01*
X335919Y484389D01*
X337337Y485807D01*
X337993Y487392D01*
D02*
G37*
G36*
X331794D02*
X328135D01*
X328791Y485807D01*
X330209Y484389D01*
X331794Y483733D01*
Y487392D01*
D02*
G37*
G36*
X223090Y481880D02*
X215570D01*
Y472610D01*
X223090D01*
Y481880D01*
D02*
G37*
G36*
X202932Y443190D02*
X200928D01*
X199075Y442423D01*
X197657Y441005D01*
X196890Y439152D01*
Y437147D01*
X197657Y435295D01*
X199075Y433877D01*
X200928Y433110D01*
X202932D01*
X204785Y433877D01*
X206203Y435295D01*
X206970Y437147D01*
Y439152D01*
X206203Y441005D01*
X204785Y442423D01*
X202932Y443190D01*
D02*
G37*
G36*
X318503Y488100D02*
X316497D01*
X314645Y487332D01*
X313227Y485914D01*
X312460Y484062D01*
Y483386D01*
X311133Y481623D01*
X310113Y481290D01*
X308878D01*
X307025Y480523D01*
X305607Y479105D01*
X304840Y477253D01*
Y476737D01*
X300823Y472720D01*
X299981Y471460D01*
X299685Y469974D01*
Y464746D01*
X299981Y463260D01*
X300823Y462000D01*
X305995Y456827D01*
Y437219D01*
X297479Y428703D01*
X295452Y429106D01*
X294034Y430524D01*
X292449Y431181D01*
Y426251D01*
X291179D01*
Y424981D01*
X286250D01*
X286906Y423396D01*
X288324Y421979D01*
X288727Y419951D01*
X241093Y372317D01*
X240251Y371057D01*
X239955Y369570D01*
Y352493D01*
X239567Y352105D01*
X238800Y350252D01*
Y348247D01*
X239287Y347071D01*
X238385Y345120D01*
X237839Y344531D01*
X232290D01*
Y338261D01*
X247330D01*
Y336991D01*
X248600D01*
Y329451D01*
X262370D01*
Y332780D01*
X262623D01*
X264475Y333547D01*
X265893Y334965D01*
X266549Y336550D01*
X261620D01*
Y339090D01*
X266549D01*
X265893Y340675D01*
X264475Y342093D01*
X262623Y342860D01*
X262370D01*
Y344531D01*
X258731D01*
X258180Y345137D01*
X257293Y347071D01*
X257787Y348264D01*
Y350269D01*
X257020Y352122D01*
X256632Y352510D01*
Y367978D01*
X320247Y431593D01*
X321089Y432853D01*
X321385Y434340D01*
Y479817D01*
X321773Y480205D01*
X322540Y482057D01*
Y484062D01*
X321773Y485914D01*
X320355Y487332D01*
X318503Y488100D01*
D02*
G37*
G36*
X289909Y431181D02*
X288324Y430524D01*
X286906Y429106D01*
X286250Y427522D01*
X289909D01*
Y431181D01*
D02*
G37*
G36*
X471850Y426720D02*
X434970D01*
Y414434D01*
X433361Y412825D01*
X407103D01*
X406715Y413213D01*
X404863Y413980D01*
X402858D01*
X401005Y413213D01*
X399587Y411795D01*
X398820Y409943D01*
Y407938D01*
X399587Y406085D01*
X401005Y404667D01*
X402858Y403900D01*
X404863D01*
X406715Y404667D01*
X407103Y405055D01*
X434970D01*
X436457Y405351D01*
X437717Y406193D01*
X440464Y408940D01*
X471850D01*
Y426720D01*
D02*
G37*
G36*
X297772Y376861D02*
X295767D01*
X293914Y376093D01*
X292496Y374676D01*
X291729Y372823D01*
Y370818D01*
X292496Y368966D01*
X293914Y367548D01*
X295767Y366781D01*
X297772D01*
X299624Y367548D01*
X301042Y368966D01*
X301809Y370818D01*
Y372823D01*
X301042Y374676D01*
X299624Y376093D01*
X297772Y376861D01*
D02*
G37*
G36*
X468630Y358215D02*
X468054Y358100D01*
X467627D01*
X467234Y357937D01*
X467143Y357919D01*
X467067Y357868D01*
X465775Y357333D01*
X464357Y355915D01*
X463701Y354330D01*
X473559D01*
X472903Y355915D01*
X471485Y357333D01*
X470193Y357868D01*
X470117Y357919D01*
X470026Y357937D01*
X469632Y358100D01*
X469206D01*
X468630Y358215D01*
D02*
G37*
G36*
X246060Y335721D02*
X232290D01*
Y329451D01*
X246060D01*
Y335721D01*
D02*
G37*
G36*
X473559Y351790D02*
X463701D01*
X464357Y350205D01*
X464745Y349817D01*
Y321335D01*
X462214Y319087D01*
X461456Y319176D01*
X460302Y319947D01*
X458940Y320218D01*
X454660D01*
Y313810D01*
Y307402D01*
X458940D01*
X460302Y307673D01*
X461456Y308444D01*
X462228Y309598D01*
X462293Y309925D01*
X464940D01*
X466427Y310221D01*
X467687Y311063D01*
X468335Y311711D01*
X470927Y310711D01*
X470987Y309475D01*
X462668Y301157D01*
X461456Y301276D01*
X460302Y302048D01*
X458940Y302318D01*
X447840D01*
X446478Y302048D01*
X445324Y301276D01*
X444552Y300122D01*
X444282Y298760D01*
Y293060D01*
X444552Y291698D01*
X445324Y290544D01*
X446478Y289772D01*
X447840Y289502D01*
X458940D01*
X460302Y289772D01*
X461456Y290544D01*
X462228Y291698D01*
X462293Y292025D01*
X462915D01*
X464402Y292321D01*
X465662Y293163D01*
X469384Y296885D01*
X471730Y295913D01*
Y292638D01*
X435383Y256291D01*
X434541Y255031D01*
X434245Y253544D01*
Y251070D01*
X433940Y250820D01*
X432440D01*
X431254Y250584D01*
X430248Y249912D01*
X429576Y248906D01*
X429340Y247720D01*
Y245890D01*
X429185Y245110D01*
Y241995D01*
X429481Y240508D01*
X430075Y239619D01*
Y239450D01*
X430091Y239373D01*
Y237490D01*
X440690D01*
X451289D01*
Y240225D01*
X451054Y241409D01*
X451023Y241456D01*
X451132Y241528D01*
X451804Y242534D01*
X452039Y243720D01*
Y245543D01*
X452075Y245720D01*
Y247191D01*
X463889Y259005D01*
X480240D01*
Y255350D01*
X492820D01*
Y255350D01*
X493914D01*
X494966Y252810D01*
X478917Y236761D01*
X477253Y237450D01*
X475247D01*
X473395Y236683D01*
X471977Y235265D01*
X471210Y233412D01*
Y231408D01*
X471977Y229555D01*
X473395Y228137D01*
X475247Y227370D01*
X477253D01*
X479105Y228137D01*
X479510Y228542D01*
X480077D01*
X481563Y228838D01*
X482824Y229680D01*
X504277Y251133D01*
X505119Y252393D01*
X505415Y253880D01*
Y255350D01*
X507820D01*
Y270430D01*
X505415D01*
Y292735D01*
X511175D01*
Y311785D01*
X504073D01*
X503969Y312310D01*
X503127Y313570D01*
X500895Y315802D01*
X499635Y316644D01*
X498148Y316940D01*
X477847D01*
X476360Y316644D01*
X475100Y315802D01*
X474497Y315199D01*
X472343Y316637D01*
X472515Y317500D01*
Y349817D01*
X472903Y350205D01*
X473559Y351790D01*
D02*
G37*
G36*
X452120Y320218D02*
X447840D01*
X446478Y319947D01*
X445324Y319176D01*
X444552Y318022D01*
X444282Y316660D01*
Y315080D01*
X452120D01*
Y320218D01*
D02*
G37*
G36*
Y312540D02*
X444282D01*
Y310960D01*
X444552Y309598D01*
X445324Y308444D01*
X446478Y307673D01*
X447840Y307402D01*
X452120D01*
Y312540D01*
D02*
G37*
G36*
X377540Y269240D02*
X371479D01*
Y263409D01*
X377540D01*
Y269240D01*
D02*
G37*
G36*
X363910Y264010D02*
X358140D01*
Y258490D01*
X363910D01*
Y264010D01*
D02*
G37*
G36*
X355600D02*
X349830D01*
Y258490D01*
X355600D01*
Y264010D01*
D02*
G37*
G36*
X338510D02*
X332740D01*
Y258490D01*
X338510D01*
Y264010D01*
D02*
G37*
G36*
X330200D02*
X324430D01*
Y258490D01*
X330200D01*
Y264010D01*
D02*
G37*
G36*
X350520Y237339D02*
Y233680D01*
X354179D01*
X353523Y235265D01*
X352105Y236683D01*
X350520Y237339D01*
D02*
G37*
G36*
X452039Y225450D02*
X449460D01*
Y221724D01*
X450126Y221856D01*
X451132Y222528D01*
X451804Y223534D01*
X452039Y224720D01*
Y225450D01*
D02*
G37*
G36*
X431920D02*
X429340D01*
Y224720D01*
X429576Y223534D01*
X430248Y222528D01*
X431254Y221856D01*
X431920Y221724D01*
Y225450D01*
D02*
G37*
G36*
X451289Y234950D02*
X440690D01*
X430091D01*
Y232215D01*
X430326Y231031D01*
X430357Y230984D01*
X430248Y230912D01*
X429576Y229906D01*
X429340Y228720D01*
Y227990D01*
X433190D01*
Y226720D01*
X434340D01*
Y224720D01*
X434460Y224116D01*
Y220866D01*
X435510Y219343D01*
Y207680D01*
X404660D01*
Y209040D01*
X398314D01*
X397973Y209865D01*
X396555Y211283D01*
X394702Y212050D01*
X392697D01*
X390845Y211283D01*
X389427Y209865D01*
X388660Y208013D01*
Y206007D01*
X389427Y204155D01*
X390845Y202737D01*
X391580Y202433D01*
Y195960D01*
X404660D01*
Y197320D01*
X433589D01*
Y190439D01*
Y184500D01*
X440690D01*
X447791D01*
Y190439D01*
Y205101D01*
X445869D01*
Y219343D01*
X446920Y220866D01*
Y224116D01*
X447040Y224720D01*
Y226720D01*
X448190D01*
Y227990D01*
X452039D01*
Y228720D01*
X451804Y229906D01*
X451132Y230912D01*
X451023Y230984D01*
X451054Y231031D01*
X451289Y232215D01*
Y234950D01*
D02*
G37*
G36*
X213313Y214811D02*
X211308D01*
X209456Y214043D01*
X208038Y212626D01*
X207271Y210773D01*
Y208768D01*
X208038Y206916D01*
X209456Y205498D01*
X211308Y204731D01*
X213313D01*
X215166Y205498D01*
X216583Y206916D01*
X217351Y208768D01*
Y210773D01*
X216583Y212626D01*
X215166Y214043D01*
X213313Y214811D01*
D02*
G37*
G36*
X385660Y209040D02*
X380390D01*
Y203770D01*
X385660D01*
Y209040D01*
D02*
G37*
G36*
X377850D02*
X372580D01*
Y203770D01*
X377850D01*
Y209040D01*
D02*
G37*
G36*
X299370Y208721D02*
X285600D01*
Y202451D01*
X299370D01*
Y208721D01*
D02*
G37*
G36*
X283060D02*
X269290D01*
Y202451D01*
X283060D01*
Y208721D01*
D02*
G37*
G36*
X385660Y201230D02*
X380390D01*
Y195960D01*
X385660D01*
Y201230D01*
D02*
G37*
G36*
X377850D02*
X372580D01*
Y195960D01*
X377850D01*
Y201230D01*
D02*
G37*
G36*
X447791Y181960D02*
X441960D01*
Y175899D01*
X447791D01*
Y181960D01*
D02*
G37*
G36*
X439420D02*
X433589D01*
Y175899D01*
X439420D01*
Y181960D01*
D02*
G37*
G36*
X215040Y186886D02*
X213946D01*
Y158116D01*
X242716D01*
Y159210D01*
X241976Y163880D01*
X240515Y168377D01*
X238369Y172590D01*
X235589Y176415D01*
X232246Y179759D01*
X228421Y182538D01*
X224207Y184685D01*
X219711Y186146D01*
X215040Y186886D01*
D02*
G37*
G36*
X211406D02*
X210312D01*
X205642Y186146D01*
X201145Y184685D01*
X196932Y182538D01*
X193106Y179759D01*
X189763Y176415D01*
X186984Y172590D01*
X184837Y168377D01*
X183376Y163880D01*
X182636Y159210D01*
Y158116D01*
X211406D01*
Y186886D01*
D02*
G37*
G36*
X497781Y186867D02*
X496687D01*
Y158097D01*
X525457D01*
Y159191D01*
X524717Y163861D01*
X523256Y168358D01*
X521109Y172571D01*
X518330Y176397D01*
X514986Y179740D01*
X511161Y182519D01*
X506948Y184666D01*
X502451Y186127D01*
X497781Y186867D01*
D02*
G37*
G36*
X494147D02*
X493052D01*
X488382Y186127D01*
X483885Y184666D01*
X479672Y182519D01*
X475847Y179740D01*
X472503Y176397D01*
X469724Y172571D01*
X467578Y168358D01*
X466116Y163861D01*
X465377Y159191D01*
Y158097D01*
X494147D01*
Y186867D01*
D02*
G37*
G36*
X450650Y164900D02*
X436880D01*
Y151130D01*
X450650D01*
Y164900D01*
D02*
G37*
G36*
X434340D02*
X420570D01*
Y151130D01*
X434340D01*
Y164900D01*
D02*
G37*
G36*
X450650Y148590D02*
X436880D01*
Y134820D01*
X450650D01*
Y148590D01*
D02*
G37*
G36*
X434340D02*
X420570D01*
Y134820D01*
X434340D01*
Y148590D01*
D02*
G37*
G36*
X395160Y185040D02*
X382080D01*
Y171960D01*
X383441D01*
Y163994D01*
X381496Y163188D01*
X379033Y161542D01*
X376938Y159447D01*
X375292Y156984D01*
X374158Y154247D01*
X373580Y151341D01*
Y148379D01*
X374158Y145473D01*
X375292Y142736D01*
X376938Y140273D01*
X379033Y138178D01*
X381496Y136532D01*
X384233Y135398D01*
X387139Y134820D01*
X390101D01*
X393007Y135398D01*
X395744Y136532D01*
X398207Y138178D01*
X400302Y140273D01*
X401948Y142736D01*
X403082Y145473D01*
X403660Y148379D01*
Y151341D01*
X403082Y154247D01*
X401948Y156984D01*
X400302Y159447D01*
X398207Y161542D01*
X395744Y163188D01*
X393800Y163994D01*
Y171960D01*
X395160D01*
Y185040D01*
D02*
G37*
G36*
X242716Y155576D02*
X213946D01*
Y126806D01*
X215040D01*
X219711Y127545D01*
X224207Y129007D01*
X228421Y131153D01*
X232246Y133933D01*
X235589Y137276D01*
X238369Y141101D01*
X240515Y145314D01*
X241976Y149811D01*
X242716Y154481D01*
Y155576D01*
D02*
G37*
G36*
X211406D02*
X182636D01*
Y154481D01*
X183376Y149811D01*
X184837Y145314D01*
X186984Y141101D01*
X189763Y137276D01*
X193106Y133933D01*
X196932Y131153D01*
X201145Y129007D01*
X205642Y127545D01*
X210312Y126806D01*
X211406D01*
Y155576D01*
D02*
G37*
G36*
X525457Y155557D02*
X496687D01*
Y126787D01*
X497781D01*
X502451Y127527D01*
X506948Y128988D01*
X511161Y131134D01*
X514986Y133914D01*
X518330Y137257D01*
X521109Y141082D01*
X523256Y145295D01*
X524717Y149792D01*
X525457Y154463D01*
Y155557D01*
D02*
G37*
G36*
X494147D02*
X465377D01*
Y154463D01*
X466116Y149792D01*
X467578Y145295D01*
X469724Y141082D01*
X472503Y137257D01*
X475847Y133914D01*
X479672Y131134D01*
X483885Y128988D01*
X488382Y127527D01*
X493052Y126787D01*
X494147D01*
Y155557D01*
D02*
G37*
%LPD*%
G36*
X372682Y388501D02*
X371710Y386155D01*
X365193D01*
X364805Y386543D01*
X362952Y387310D01*
X360947D01*
X359095Y386543D01*
X357677Y385125D01*
X356910Y383273D01*
X356639Y381231D01*
X354598Y380960D01*
X352745Y380193D01*
X351327Y378775D01*
X350560Y376922D01*
Y374917D01*
X351327Y373065D01*
X352745Y371647D01*
X354598Y370880D01*
X356603D01*
X358455Y371647D01*
X358843Y372035D01*
X372294D01*
X372378Y369530D01*
X370525Y368763D01*
X369107Y367345D01*
X368451Y365760D01*
X373380D01*
Y363220D01*
X368451D01*
X369107Y361635D01*
X370150Y360592D01*
Y354190D01*
Y341190D01*
X373305D01*
Y328534D01*
X370974D01*
X369487Y328238D01*
X368736Y327736D01*
X366929Y328241D01*
X366051Y328813D01*
X366010Y329019D01*
X365172Y330272D01*
X363919Y331110D01*
X362440Y331404D01*
X362135D01*
Y351680D01*
X361839Y353167D01*
X360997Y354427D01*
X345475Y369949D01*
Y409246D01*
X346978Y410250D01*
X348983D01*
X350362Y410821D01*
X372682Y388501D01*
D02*
G37*
G36*
X398066Y348749D02*
Y296505D01*
X395526Y296000D01*
X395433Y296225D01*
X394015Y297643D01*
X392430Y298299D01*
Y293370D01*
X391160D01*
Y292100D01*
X386231D01*
X386887Y290515D01*
X387743Y289660D01*
X386948Y287120D01*
X363076D01*
X361094Y286725D01*
X359413Y285602D01*
X358980Y285170D01*
X358580D01*
X358080Y285070D01*
X349830D01*
Y283459D01*
X338510D01*
Y285070D01*
X336650D01*
Y290428D01*
X339189Y291223D01*
X340045Y290367D01*
X341898Y289600D01*
X343903D01*
X345755Y290367D01*
X347173Y291785D01*
X347635Y292901D01*
X347665Y292907D01*
X349518Y292140D01*
X351522D01*
X353375Y292907D01*
X354793Y294325D01*
X355560Y296178D01*
Y298183D01*
X355765Y298490D01*
X356603D01*
X358455Y299257D01*
X359873Y300675D01*
X360640Y302528D01*
X360911Y304569D01*
X362952Y304840D01*
X364805Y305607D01*
X366223Y307025D01*
X366990Y308878D01*
Y310882D01*
X366910Y311075D01*
X368546Y313615D01*
X373343D01*
X374745Y312213D01*
X376006Y311371D01*
X377492Y311075D01*
X385377D01*
X385765Y310687D01*
X387350Y310031D01*
Y314960D01*
Y319889D01*
X385765Y319233D01*
X385377Y318845D01*
X381361D01*
X381326Y318897D01*
X380582Y321385D01*
X381463Y322265D01*
X382230Y324118D01*
Y326123D01*
X381463Y327975D01*
X381075Y328363D01*
Y341190D01*
X384230D01*
Y354190D01*
Y359266D01*
X386577Y360238D01*
X398066Y348749D01*
D02*
G37*
%LPC*%
G36*
X389890Y319889D02*
Y316230D01*
X393549D01*
X392893Y317815D01*
X391475Y319233D01*
X389890Y319889D01*
D02*
G37*
G36*
X393549Y313690D02*
X389890D01*
Y310031D01*
X391475Y310687D01*
X392893Y312105D01*
X393549Y313690D01*
D02*
G37*
G36*
X389890Y298299D02*
X388305Y297643D01*
X386887Y296225D01*
X386231Y294640D01*
X389890D01*
Y298299D01*
D02*
G37*
%LPD*%
D12*
X304800Y298450D02*
X323850Y317500D01*
X326390D01*
X234905Y298450D02*
X304800D01*
X243836Y250194D02*
X247330Y246700D01*
X229750Y253687D02*
X233244Y250194D01*
X247330Y235391D02*
Y246700D01*
X233244Y250194D02*
X243836D01*
X229750Y253687D02*
Y293295D01*
X234905Y298450D01*
X284330Y311591D02*
X286790Y314051D01*
X297541D01*
X312420Y328930D02*
X329628D01*
X297541Y314051D02*
X312420Y328930D01*
X309880Y261657D02*
Y291480D01*
X297143Y248920D02*
X309880Y261657D01*
Y291480D02*
X329240Y310840D01*
X363076Y281940D02*
X388123D01*
X391099Y278964D01*
Y272531D02*
Y278964D01*
X361126Y279990D02*
X363076Y281940D01*
X358580Y279990D02*
X361126D01*
X356870Y278280D02*
X358580Y279990D01*
X393120Y270510D02*
X393350D01*
X391099Y272531D02*
X393120Y270510D01*
X331470Y298450D02*
X336550Y303530D01*
X331470Y278280D02*
Y298450D01*
Y278280D02*
X356870D01*
X273174Y248920D02*
X297143D01*
X265430Y241175D02*
X273174Y248920D01*
X265430Y220591D02*
Y241175D01*
X254830Y209991D02*
X265430Y220591D01*
X247330Y209991D02*
X254830D01*
X286429Y339090D02*
X334010D01*
X336441Y336659D01*
X284330Y336991D02*
X286429Y339090D01*
X339090Y173990D02*
Y187960D01*
X353060Y198120D02*
X354330Y196850D01*
Y194310D02*
Y196850D01*
Y194310D02*
X364490Y184150D01*
X314960Y191770D02*
X321310Y198120D01*
X309970Y191770D02*
X314960D01*
X264160Y149860D02*
X268060D01*
X309970Y191770D01*
X289560Y152400D02*
X327660Y190500D01*
X289560Y149860D02*
Y152400D01*
X314960Y149860D02*
X339090Y173990D01*
X345440Y190500D02*
X347980Y187960D01*
Y161770D02*
Y187960D01*
X340360Y149860D02*
Y154150D01*
X347980Y161770D01*
X440690Y198000D02*
Y226060D01*
X436190Y202500D02*
X440690Y198000D01*
X398120Y202500D02*
X436190D01*
X388620Y149860D02*
Y178500D01*
D16*
X361934Y217170D02*
X407031Y262267D01*
X355988Y217170D02*
X361934D01*
X353448Y214630D02*
X355988Y217170D01*
X356836Y209550D02*
X358066Y210780D01*
X362728D01*
X462280Y262890D02*
X486530D01*
X448190Y248800D02*
X462280Y262890D01*
X359940Y317500D02*
X374952D01*
X485140Y384930D02*
X487800Y382270D01*
X485140Y384930D02*
Y446430D01*
X468960Y462610D02*
X485140Y446430D01*
X479990Y375692D02*
Y438220D01*
X468630Y449580D02*
X479990Y438220D01*
Y375692D02*
X487800Y367882D01*
X422910Y284480D02*
Y359410D01*
Y284480D02*
X426720Y280670D01*
X361990Y420330D02*
X422910Y359410D01*
X424744Y274360D02*
X426054Y273050D01*
X426720D01*
X424106Y274360D02*
X424744D01*
X417830Y280636D02*
X424106Y274360D01*
X417830Y280636D02*
Y356870D01*
X356910Y417790D02*
X417830Y356870D01*
X362728Y210780D02*
X412111Y260163D01*
Y354566D01*
X361100Y223520D02*
X401951Y264371D01*
X351605Y415071D02*
X412111Y354566D01*
X377222Y382270D02*
X407031Y352462D01*
Y262267D02*
Y352462D01*
X401951Y264371D02*
Y350358D01*
X376388Y375920D02*
X401951Y350358D01*
X348199Y415071D02*
X351605D01*
X347980Y415290D02*
X348199Y415071D01*
X346710Y430128D02*
Y449580D01*
X335280Y455930D02*
X340360D01*
X346710Y449580D01*
X336510Y365398D02*
X353020Y348888D01*
X336510Y365398D02*
Y419928D01*
X346710Y430128D01*
X341590Y368340D02*
Y417824D01*
X351790Y428024D01*
X341590Y368340D02*
X358250Y351680D01*
X351790Y428024D02*
Y452120D01*
X336550Y463550D02*
X336567Y463533D01*
X340377D02*
X351790Y452120D01*
X336567Y463533D02*
X340377D01*
X309880Y435610D02*
Y458436D01*
X303570Y469974D02*
X309846Y476250D01*
X303570Y464746D02*
X309880Y458436D01*
X243840Y369570D02*
X309880Y435610D01*
X303570Y464746D02*
Y469974D01*
X309846Y476250D02*
X309880D01*
X243840Y349250D02*
Y369570D01*
X252747Y349267D02*
Y369587D01*
X317500Y434340D02*
Y483060D01*
X252747Y369587D02*
X317500Y434340D01*
X331470Y519430D02*
X334645Y516255D01*
X341550Y513160D02*
Y515700D01*
Y513160D02*
X350520Y504190D01*
Y463550D02*
Y504190D01*
X337820Y519430D02*
X341550Y515700D01*
X390556Y443230D02*
X453410D01*
X370236Y422910D02*
X390556Y443230D01*
X442500Y463550D02*
X447580Y468630D01*
X442500Y459958D02*
Y463550D01*
X430852Y448310D02*
X442500Y459958D01*
X447580Y468630D02*
X453410D01*
X387350Y448310D02*
X430852D01*
X369570Y430530D02*
X387350Y448310D01*
X374952Y317500D02*
X377492Y314960D01*
X388620D01*
X359940Y322580D02*
X368904D01*
X370974Y324649D01*
X376719D01*
X377190Y325120D01*
X364490Y510322D02*
X366990Y507822D01*
X364490Y510322D02*
Y510540D01*
X366990Y473268D02*
Y507822D01*
X360680Y474142D02*
Y502920D01*
X403860Y408940D02*
X434970D01*
X443860Y417830D01*
X453410D01*
X369570Y422910D02*
X370236D01*
X361990Y420330D02*
Y468268D01*
X356910Y417790D02*
Y470372D01*
X355600Y375920D02*
X376388D01*
X361950Y382270D02*
X377222D01*
X353060Y209550D02*
X356836D01*
X344996Y223520D02*
X361100D01*
X377190Y325120D02*
Y347980D01*
X361990Y468268D02*
X366990Y473268D01*
X356910Y470372D02*
X360680Y474142D01*
X367070Y460936D02*
Y466164D01*
Y460936D02*
X376686Y451321D01*
X373380Y472474D02*
Y521970D01*
X367070Y466164D02*
X373380Y472474D01*
X359410Y535940D02*
X373380Y521970D01*
X317069Y209510D02*
X322050D01*
X316230Y210349D02*
X317069Y209510D01*
X314161Y210349D02*
X316230D01*
X313690Y210820D02*
X314161Y210349D01*
X347940Y300426D02*
X350520Y297846D01*
Y297180D02*
Y297846D01*
X347940Y300426D02*
Y305540D01*
X316230Y378494D02*
X347980Y346744D01*
X316230Y378494D02*
Y407670D01*
X358250Y327660D02*
Y351680D01*
X353020Y348020D02*
Y348888D01*
X347980Y334540D02*
Y346744D01*
X353020Y348020D02*
X353060Y347980D01*
Y337820D02*
Y347980D01*
X342101Y338981D02*
Y343699D01*
X341630Y344170D02*
X342101Y343699D01*
Y338981D02*
X343138Y337943D01*
X400980Y581350D02*
X408290Y574040D01*
X250512Y520150D02*
X311712Y581350D01*
X224360Y520150D02*
X250512D01*
X311712Y581350D02*
X400980D01*
X311586Y574040D02*
X356840D01*
X245886Y508340D02*
X311586Y574040D01*
X225800Y508340D02*
X245886D01*
X202360Y483150D02*
Y484900D01*
X225800Y508340D01*
X262890Y518160D02*
X295910Y551180D01*
X262890Y483870D02*
Y518160D01*
X295910Y551180D02*
X368300D01*
X269240Y516890D02*
X298450Y546100D01*
X269240Y491490D02*
Y516890D01*
X298450Y546100D02*
X365760D01*
X280670Y513080D02*
X303530Y535940D01*
X275550Y515580D02*
X300990Y541020D01*
X275550Y488876D02*
Y515580D01*
X300990Y541020D02*
X361950D01*
X303530Y535940D02*
X359410D01*
X280670Y486812D02*
Y513080D01*
X233680Y454660D02*
X262890Y483870D01*
X378460Y468630D02*
Y524510D01*
X361950Y541020D02*
X378460Y524510D01*
X373380Y463550D02*
X378460Y468630D01*
X365760Y546100D02*
X384810Y527050D01*
Y495300D02*
Y527050D01*
X368300Y551180D02*
X391120Y528360D01*
X384810Y473710D02*
X391120Y480020D01*
Y528360D01*
X376686Y451321D02*
X379259D01*
X379730Y450850D01*
X245110Y451252D02*
X280670Y486812D01*
X245110Y438150D02*
Y451252D01*
X233680Y448310D02*
Y454660D01*
X238800Y432785D02*
Y452126D01*
X275550Y488876D01*
X203200Y417830D02*
X233680Y448310D01*
X238800Y432785D02*
X245110Y426475D01*
Y417830D02*
Y426475D01*
X433070Y241995D02*
Y245110D01*
Y241995D02*
X433960Y241105D01*
Y239450D02*
X437190Y236220D01*
X440690D01*
X433960Y239450D02*
Y241105D01*
X468630Y353060D02*
Y354330D01*
Y317500D02*
Y353060D01*
X345440Y232410D02*
X349250D01*
X339050Y226020D02*
X345440Y232410D01*
X501530Y253880D02*
Y262890D01*
X476267Y232427D02*
X480077D01*
X476250Y232410D02*
X476267Y232427D01*
X480077D02*
X501530Y253880D01*
Y262890D02*
Y300933D01*
X448190Y245720D02*
Y248800D01*
X438130Y245720D02*
Y253544D01*
X351050Y204470D02*
X360680D01*
X333970Y232370D02*
X334010Y232410D01*
X333970Y223520D02*
Y232370D01*
X339050Y221510D02*
Y226020D01*
X311150Y200660D02*
X315000Y204510D01*
X322050D01*
X342900Y294640D02*
Y303530D01*
X317460Y322540D02*
X330940D01*
X303530Y308610D02*
X317460Y322540D01*
X284480Y226060D02*
Y235241D01*
X284330Y235391D02*
X284480Y235241D01*
X295560Y264521D02*
Y266350D01*
X284330Y260791D02*
X291830D01*
X295560Y266350D02*
X302260Y273050D01*
X291830Y260791D02*
X295560Y264521D01*
X332740Y189230D02*
X334010Y190500D01*
X328930Y178466D02*
X332740Y182276D01*
Y189230D01*
X328930Y177800D02*
Y178466D01*
X464940Y313810D02*
X468630Y317500D01*
X453390Y313810D02*
X464940D01*
X475615Y308610D02*
Y310823D01*
Y291029D02*
Y308610D01*
X453390Y295910D02*
X462915D01*
X475615Y308610D01*
Y310823D02*
X477847Y313055D01*
X498148D01*
X438130Y253544D02*
X475615Y291029D01*
X498148Y313055D02*
X500380Y310823D01*
Y304736D02*
Y310823D01*
Y304736D02*
X502856Y302260D01*
X501530Y300933D02*
X502856Y302260D01*
X443210Y245720D02*
Y251440D01*
X480695Y288925D02*
Y297752D01*
X485204Y302260D01*
X443210Y251440D02*
X480695Y288925D01*
X440690Y197770D02*
Y198000D01*
X502800Y340360D02*
Y382270D01*
X468630Y525780D02*
X502800Y491610D01*
Y382270D02*
Y491610D01*
X487800Y340360D02*
Y367882D01*
X247330Y260791D02*
X254830D01*
X267089Y273050D02*
X275590D01*
X254830Y260791D02*
X267089Y273050D01*
X279320Y286191D02*
X284330D01*
X275590Y273050D02*
Y282461D01*
X279320Y286191D01*
X211922Y157600D02*
X212676Y156846D01*
D20*
X453410Y494030D02*
D03*
Y468630D02*
D03*
Y417830D02*
D03*
Y443230D02*
D03*
Y519430D02*
D03*
D21*
X440690Y197770D02*
D03*
Y183230D02*
D03*
D23*
X331470Y265280D02*
D03*
Y278280D02*
D03*
X377190Y347980D02*
D03*
Y360980D02*
D03*
X356870Y278280D02*
D03*
Y265280D02*
D03*
D27*
X284330Y209991D02*
D03*
Y235391D02*
D03*
X247330Y209991D02*
D03*
Y235391D02*
D03*
X284330Y260791D02*
D03*
X247330D02*
D03*
X284330Y286191D02*
D03*
X247330D02*
D03*
Y336991D02*
D03*
X284330D02*
D03*
X247330Y311591D02*
D03*
X284330D02*
D03*
D30*
X378810Y270510D02*
D03*
X393350D02*
D03*
D32*
X388620Y178500D02*
D03*
X398120Y202500D02*
D03*
X379120D02*
D03*
D45*
X340360Y314960D02*
D03*
X336550Y207010D02*
D03*
X388620Y314960D02*
D03*
X373380Y364490D02*
D03*
X356870Y514350D02*
D03*
X309880Y467360D02*
D03*
X296769Y371821D02*
D03*
X378460Y201930D02*
D03*
X391160Y293370D02*
D03*
X284480Y214630D02*
D03*
X333064Y488662D02*
D03*
X252747Y349267D02*
D03*
X243840Y349250D02*
D03*
X360680Y502920D02*
D03*
X317500Y483060D02*
D03*
X309880Y476250D02*
D03*
X369570Y430530D02*
D03*
Y422910D02*
D03*
X347980Y415290D02*
D03*
X361950Y382270D02*
D03*
X355600Y375920D02*
D03*
X364490Y510540D02*
D03*
X327660Y224790D02*
D03*
X320040Y215900D02*
D03*
X426720Y273050D02*
D03*
Y280670D02*
D03*
X259080Y307340D02*
D03*
X291179Y426251D02*
D03*
X313690Y210820D02*
D03*
X350520Y297180D02*
D03*
X355600Y303530D02*
D03*
X361950Y309880D02*
D03*
X336550Y463550D02*
D03*
X335280Y455930D02*
D03*
X316230Y407670D02*
D03*
X302260Y515620D02*
D03*
X350520Y463550D02*
D03*
X331470Y519430D02*
D03*
X384810Y495300D02*
D03*
X373380Y463550D02*
D03*
X384810Y473710D02*
D03*
X379730Y450850D02*
D03*
X349250Y232410D02*
D03*
X328930Y177800D02*
D03*
X261620Y337820D02*
D03*
X468630Y353060D02*
D03*
X245110Y417830D02*
D03*
X389890Y265430D02*
D03*
X342900Y294640D02*
D03*
X303530Y308610D02*
D03*
X364490Y184150D02*
D03*
X341630Y344170D02*
D03*
X334010Y232410D02*
D03*
X393700Y207010D02*
D03*
X311150Y200660D02*
D03*
X360680Y204470D02*
D03*
X377190Y325120D02*
D03*
X240030Y476250D02*
D03*
X196850D02*
D03*
X218440Y511810D02*
D03*
X245110Y438150D02*
D03*
X203200Y417830D02*
D03*
X275590Y273050D02*
D03*
X302260D02*
D03*
X284480Y226060D02*
D03*
X259080Y290830D02*
D03*
X269240Y491490D02*
D03*
X403860Y408940D02*
D03*
X266700Y575310D02*
D03*
X212311Y209771D02*
D03*
X468630Y449580D02*
D03*
X468960Y462610D02*
D03*
X476250Y232410D02*
D03*
X201930Y438150D02*
D03*
X468630Y378460D02*
D03*
Y525780D02*
D03*
D46*
X435610Y149860D02*
D03*
D47*
X289560D02*
D03*
X264160D02*
D03*
X314960D02*
D03*
X340360D02*
D03*
D48*
X495417Y156827D02*
D03*
X212676Y156846D02*
D03*
X495462Y573989D02*
D03*
X212704Y574025D02*
D03*
D49*
X388620Y149860D02*
D03*
D58*
X351790Y519430D02*
D03*
X337820D02*
D03*
D59*
X330940Y312540D02*
D03*
Y317540D02*
D03*
Y322540D02*
D03*
Y327540D02*
D03*
X359940D02*
D03*
Y322540D02*
D03*
Y317540D02*
D03*
Y312540D02*
D03*
X322050Y199510D02*
D03*
Y204510D02*
D03*
Y209510D02*
D03*
Y214510D02*
D03*
X351050D02*
D03*
Y209510D02*
D03*
Y204510D02*
D03*
Y199510D02*
D03*
D60*
X337940Y334540D02*
D03*
X342940D02*
D03*
X347940D02*
D03*
X352940D02*
D03*
Y305540D02*
D03*
X347940D02*
D03*
X342940D02*
D03*
X337940D02*
D03*
X344050Y192510D02*
D03*
X339050D02*
D03*
X334050D02*
D03*
X329050D02*
D03*
Y221510D02*
D03*
X334050D02*
D03*
X339050D02*
D03*
X344050D02*
D03*
D61*
X345440Y320040D02*
D03*
D62*
X336550Y207010D02*
D03*
D63*
X453390Y295910D02*
D03*
Y313810D02*
D03*
D64*
X440690Y236220D02*
D03*
D65*
X448190Y245720D02*
D03*
X443190D02*
D03*
X438190D02*
D03*
X433190D02*
D03*
Y226720D02*
D03*
X438190D02*
D03*
X443190D02*
D03*
X448190D02*
D03*
D66*
X502856Y302260D02*
D03*
X485204D02*
D03*
D67*
X370840Y574040D02*
D03*
X356840D02*
D03*
X408290D02*
D03*
X422290D02*
D03*
D68*
X486530Y262890D02*
D03*
X501530D02*
D03*
D69*
X202360Y520150D02*
D03*
Y483150D02*
D03*
X224360D02*
D03*
Y520150D02*
D03*
D70*
X487800Y340360D02*
D03*
X502800D02*
D03*
X487800Y382270D02*
D03*
X502800D02*
D03*
M02*
