G04*
G04 #@! TF.GenerationSoftware,Altium Limited,Altium Designer,24.9.1 (31)*
G04*
G04 Layer_Color=8388736*
%FSLAX44Y44*%
%MOMM*%
G71*
G04*
G04 #@! TF.SameCoordinates,573C6FB0-CD79-483D-94B5-B6DABAD4C9EF*
G04*
G04*
G04 #@! TF.FilePolarity,Positive*
G04*
G01*
G75*
%ADD82C,0.1500*%
G36*
X453460Y298539D02*
X453554Y298528D01*
X453648Y298511D01*
X453731Y298495D01*
X453809Y298467D01*
X453886Y298439D01*
X453953Y298412D01*
X454014Y298378D01*
X454069Y298345D01*
X454119Y298318D01*
X454158Y298290D01*
X454196Y298262D01*
X454224Y298246D01*
X454241Y298229D01*
X454252Y298218D01*
X454257Y298212D01*
X454318Y298151D01*
X454374Y298085D01*
X454418Y298013D01*
X454457Y297946D01*
X454496Y297880D01*
X454523Y297814D01*
X454562Y297686D01*
X454579Y297631D01*
X454590Y297576D01*
X454595Y297531D01*
X454601Y297487D01*
X454606Y297454D01*
Y297409D01*
X454601Y297310D01*
X454584Y297216D01*
X454567Y297127D01*
X454545Y297050D01*
X454518Y296983D01*
X454501Y296933D01*
X454484Y296900D01*
X454479Y296894D01*
Y296889D01*
X454423Y296800D01*
X454363Y296723D01*
X454302Y296651D01*
X454235Y296595D01*
X454180Y296546D01*
X454136Y296507D01*
X454102Y296485D01*
X454097Y296479D01*
X454196D01*
X454296Y296485D01*
X454385Y296490D01*
X454473Y296501D01*
X454551Y296507D01*
X454623Y296518D01*
X454689Y296529D01*
X454750Y296546D01*
X454805Y296557D01*
X454850Y296568D01*
X454889Y296579D01*
X454922Y296584D01*
X454944Y296595D01*
X454961Y296601D01*
X454972Y296607D01*
X454977D01*
X455088Y296662D01*
X455188Y296717D01*
X455265Y296778D01*
X455332Y296834D01*
X455387Y296883D01*
X455426Y296922D01*
X455448Y296950D01*
X455453Y296961D01*
X455498Y297027D01*
X455525Y297094D01*
X455547Y297160D01*
X455564Y297227D01*
X455575Y297276D01*
X455581Y297321D01*
Y297360D01*
X455570Y297459D01*
X455547Y297553D01*
X455514Y297631D01*
X455481Y297703D01*
X455442Y297758D01*
X455409Y297797D01*
X455387Y297819D01*
X455376Y297830D01*
X455326Y297869D01*
X455265Y297908D01*
X455199Y297941D01*
X455132Y297963D01*
X455071Y297985D01*
X455022Y298002D01*
X454988Y298008D01*
X454983Y298013D01*
X454977D01*
X455016Y298484D01*
X455171Y298450D01*
X455309Y298401D01*
X455431Y298345D01*
X455531Y298284D01*
X455608Y298223D01*
X455642Y298201D01*
X455669Y298174D01*
X455686Y298157D01*
X455703Y298140D01*
X455708Y298135D01*
X455714Y298129D01*
X455758Y298074D01*
X455797Y298013D01*
X455863Y297891D01*
X455907Y297769D01*
X455935Y297653D01*
X455957Y297548D01*
X455963Y297504D01*
Y297465D01*
X455968Y297432D01*
Y297387D01*
X455963Y297276D01*
X455952Y297171D01*
X455930Y297072D01*
X455902Y296978D01*
X455863Y296894D01*
X455830Y296811D01*
X455786Y296739D01*
X455747Y296673D01*
X455708Y296618D01*
X455664Y296562D01*
X455631Y296518D01*
X455597Y296485D01*
X455564Y296457D01*
X455542Y296435D01*
X455531Y296424D01*
X455525Y296418D01*
X455426Y296346D01*
X455309Y296285D01*
X455188Y296230D01*
X455060Y296180D01*
X454927Y296141D01*
X454795Y296108D01*
X454656Y296080D01*
X454529Y296058D01*
X454401Y296042D01*
X454285Y296031D01*
X454180Y296020D01*
X454091Y296014D01*
X454014D01*
X453958Y296008D01*
X453936D01*
X453920D01*
X453914D01*
X453909D01*
X453731Y296014D01*
X453565Y296025D01*
X453410Y296042D01*
X453266Y296069D01*
X453139Y296097D01*
X453023Y296125D01*
X452917Y296158D01*
X452823Y296197D01*
X452746Y296230D01*
X452674Y296263D01*
X452618Y296291D01*
X452569Y296324D01*
X452530Y296346D01*
X452508Y296363D01*
X452491Y296374D01*
X452486Y296380D01*
X452408Y296451D01*
X452341Y296529D01*
X452286Y296607D01*
X452236Y296684D01*
X452192Y296767D01*
X452159Y296845D01*
X452131Y296922D01*
X452109Y297000D01*
X452092Y297066D01*
X452076Y297133D01*
X452065Y297188D01*
X452059Y297238D01*
Y297282D01*
X452054Y297310D01*
Y297337D01*
X452059Y297465D01*
X452081Y297581D01*
X452103Y297686D01*
X452137Y297780D01*
X452164Y297852D01*
X452192Y297908D01*
X452197Y297930D01*
X452209Y297946D01*
X452214Y297952D01*
Y297958D01*
X452281Y298052D01*
X452358Y298140D01*
X452436Y298212D01*
X452513Y298273D01*
X452585Y298323D01*
X452640Y298356D01*
X452663Y298367D01*
X452679Y298378D01*
X452685Y298384D01*
X452690D01*
X452807Y298439D01*
X452928Y298478D01*
X453039Y298506D01*
X453144Y298522D01*
X453233Y298539D01*
X453266D01*
X453299Y298545D01*
X453327D01*
X453344D01*
X453355D01*
X453360D01*
X453460Y298539D01*
D02*
G37*
G36*
Y295089D02*
X453371Y295067D01*
X453288Y295040D01*
X453211Y295012D01*
X453139Y294984D01*
X453072Y294951D01*
X453017Y294918D01*
X452962Y294879D01*
X452912Y294846D01*
X452868Y294818D01*
X452834Y294785D01*
X452801Y294757D01*
X452773Y294735D01*
X452757Y294713D01*
X452740Y294696D01*
X452735Y294691D01*
X452729Y294685D01*
X452685Y294630D01*
X452652Y294569D01*
X452591Y294447D01*
X452546Y294331D01*
X452519Y294214D01*
X452496Y294115D01*
X452491Y294076D01*
Y294037D01*
X452486Y294004D01*
Y293965D01*
X452491Y293838D01*
X452513Y293716D01*
X452541Y293605D01*
X452574Y293506D01*
X452607Y293428D01*
X452624Y293395D01*
X452635Y293367D01*
X452646Y293345D01*
X452657Y293328D01*
X452663Y293317D01*
Y293312D01*
X452740Y293207D01*
X452823Y293118D01*
X452917Y293041D01*
X453006Y292980D01*
X453083Y292930D01*
X453150Y292897D01*
X453178Y292885D01*
X453194Y292875D01*
X453205Y292869D01*
X453211D01*
X453355Y292825D01*
X453499Y292791D01*
X453643Y292764D01*
X453776Y292747D01*
X453837Y292742D01*
X453892Y292736D01*
X453942D01*
X453980Y292731D01*
X454014D01*
X454041D01*
X454058D01*
X454064D01*
X454207Y292736D01*
X454340Y292747D01*
X454462Y292769D01*
X454573Y292791D01*
X454667Y292808D01*
X454706Y292819D01*
X454739Y292830D01*
X454767Y292836D01*
X454783Y292841D01*
X454795Y292847D01*
X454800D01*
X454927Y292902D01*
X455044Y292963D01*
X455138Y293029D01*
X455221Y293102D01*
X455287Y293162D01*
X455332Y293212D01*
X455359Y293251D01*
X455370Y293256D01*
Y293262D01*
X455442Y293378D01*
X455498Y293506D01*
X455536Y293627D01*
X455559Y293744D01*
X455575Y293849D01*
X455581Y293893D01*
Y293932D01*
X455586Y293960D01*
Y294004D01*
X455581Y294142D01*
X455559Y294270D01*
X455525Y294375D01*
X455492Y294469D01*
X455453Y294541D01*
X455426Y294597D01*
X455404Y294630D01*
X455392Y294641D01*
X455309Y294729D01*
X455215Y294813D01*
X455116Y294879D01*
X455016Y294934D01*
X454927Y294979D01*
X454883Y294995D01*
X454850Y295006D01*
X454822Y295017D01*
X454800Y295028D01*
X454789Y295034D01*
X454783D01*
X454900Y295532D01*
X454999Y295499D01*
X455088Y295466D01*
X455171Y295422D01*
X455254Y295383D01*
X455326Y295338D01*
X455392Y295289D01*
X455459Y295244D01*
X455514Y295200D01*
X455559Y295156D01*
X455603Y295117D01*
X455642Y295078D01*
X455669Y295051D01*
X455697Y295023D01*
X455714Y295001D01*
X455719Y294990D01*
X455725Y294984D01*
X455775Y294907D01*
X455824Y294829D01*
X455863Y294752D01*
X455896Y294669D01*
X455946Y294502D01*
X455979Y294353D01*
X455996Y294281D01*
X456002Y294220D01*
X456007Y294159D01*
X456013Y294109D01*
X456018Y294070D01*
Y294015D01*
X456007Y293832D01*
X455979Y293655D01*
X455946Y293500D01*
X455924Y293428D01*
X455902Y293362D01*
X455880Y293301D01*
X455858Y293246D01*
X455841Y293201D01*
X455824Y293157D01*
X455808Y293129D01*
X455797Y293107D01*
X455791Y293090D01*
X455786Y293085D01*
X455691Y292935D01*
X455581Y292808D01*
X455470Y292697D01*
X455359Y292603D01*
X455260Y292531D01*
X455215Y292504D01*
X455177Y292481D01*
X455149Y292459D01*
X455127Y292448D01*
X455110Y292443D01*
X455105Y292437D01*
X454933Y292360D01*
X454756Y292304D01*
X454579Y292265D01*
X454418Y292238D01*
X454346Y292227D01*
X454274Y292221D01*
X454219Y292215D01*
X454163D01*
X454124Y292210D01*
X454091D01*
X454069D01*
X454064D01*
X453864Y292221D01*
X453670Y292243D01*
X453499Y292271D01*
X453416Y292293D01*
X453344Y292310D01*
X453277Y292326D01*
X453216Y292348D01*
X453161Y292365D01*
X453117Y292376D01*
X453083Y292393D01*
X453056Y292398D01*
X453039Y292409D01*
X453034D01*
X452868Y292492D01*
X452718Y292586D01*
X452591Y292686D01*
X452541Y292736D01*
X452491Y292780D01*
X452447Y292825D01*
X452408Y292869D01*
X452375Y292908D01*
X452353Y292941D01*
X452330Y292963D01*
X452314Y292985D01*
X452308Y292996D01*
X452303Y293002D01*
X452258Y293079D01*
X452220Y293157D01*
X452159Y293323D01*
X452114Y293489D01*
X452087Y293650D01*
X452076Y293727D01*
X452065Y293794D01*
X452059Y293855D01*
Y293904D01*
X452054Y293949D01*
Y294010D01*
X452059Y294120D01*
X452070Y294226D01*
X452081Y294325D01*
X452103Y294419D01*
X452131Y294508D01*
X452159Y294591D01*
X452186Y294669D01*
X452220Y294741D01*
X452247Y294801D01*
X452275Y294862D01*
X452303Y294907D01*
X452330Y294951D01*
X452353Y294979D01*
X452364Y295006D01*
X452375Y295017D01*
X452380Y295023D01*
X452447Y295100D01*
X452513Y295167D01*
X452591Y295228D01*
X452668Y295289D01*
X452823Y295388D01*
X452978Y295466D01*
X453050Y295499D01*
X453117Y295527D01*
X453178Y295549D01*
X453227Y295566D01*
X453272Y295582D01*
X453305Y295593D01*
X453327Y295599D01*
X453333D01*
X453460Y295089D01*
D02*
G37*
%LPC*%
G36*
X453371Y298063D02*
X453349D01*
X453338D01*
X453333D01*
X453183Y298052D01*
X453056Y298030D01*
X452945Y297996D01*
X452851Y297958D01*
X452779Y297913D01*
X452724Y297880D01*
X452690Y297858D01*
X452685Y297847D01*
X452679D01*
X452635Y297808D01*
X452602Y297764D01*
X452541Y297675D01*
X452502Y297587D01*
X452469Y297509D01*
X452452Y297437D01*
X452447Y297382D01*
X452441Y297360D01*
Y297332D01*
X452447Y297254D01*
X452458Y297182D01*
X452480Y297116D01*
X452502Y297061D01*
X452519Y297011D01*
X452541Y296972D01*
X452552Y296950D01*
X452557Y296939D01*
X452607Y296872D01*
X452657Y296817D01*
X452718Y296767D01*
X452768Y296728D01*
X452818Y296695D01*
X452856Y296673D01*
X452884Y296656D01*
X452895Y296651D01*
X452978Y296618D01*
X453061Y296595D01*
X453139Y296573D01*
X453211Y296562D01*
X453272Y296557D01*
X453322Y296551D01*
X453349D01*
X453360D01*
X453493Y296562D01*
X453610Y296584D01*
X453715Y296623D01*
X453798Y296662D01*
X453870Y296701D01*
X453920Y296739D01*
X453947Y296762D01*
X453958Y296773D01*
X454036Y296861D01*
X454091Y296950D01*
X454136Y297044D01*
X454163Y297127D01*
X454180Y297205D01*
X454185Y297260D01*
X454191Y297282D01*
Y297315D01*
X454180Y297432D01*
X454152Y297537D01*
X454119Y297625D01*
X454075Y297703D01*
X454030Y297764D01*
X453997Y297808D01*
X453969Y297836D01*
X453958Y297847D01*
X453864Y297919D01*
X453764Y297974D01*
X453659Y298013D01*
X453560Y298035D01*
X453471Y298052D01*
X453432Y298057D01*
X453399D01*
X453371Y298063D01*
D02*
G37*
%LPD*%
D82*
X202632Y260995D02*
X217628D01*
Y268493D01*
X215128Y270992D01*
X210130D01*
X207631Y268493D01*
Y260995D01*
X202632Y285987D02*
Y275991D01*
X212629Y285987D01*
X215128D01*
X217628Y283488D01*
Y278490D01*
X215128Y275991D01*
M02*
