G04*
G04 #@! TF.GenerationSoftware,Altium Limited,Altium Designer,24.9.1 (31)*
G04*
G04 Layer_Color=8421504*
%FSLAX44Y44*%
%MOMM*%
G71*
G04*
G04 #@! TF.SameCoordinates,573C6FB0-CD79-483D-94B5-B6DABAD4C9EF*
G04*
G04*
G04 #@! TF.FilePolarity,Positive*
G04*
G01*
G75*
%ADD18O,0.3000X1.8000*%
%ADD19O,1.8000X0.3000*%
%ADD20R,3.1800X1.2700*%
%ADD21R,0.9121X0.9581*%
%ADD22R,0.8500X0.9000*%
%ADD23R,0.9000X0.8500*%
%ADD24R,0.9350X0.9621*%
%ADD25R,0.8500X0.6500*%
%ADD26R,0.9906X0.7112*%
%ADD27R,2.5000X1.0000*%
%ADD28R,3.3000X1.0200*%
%ADD29R,1.3046X1.4562*%
%ADD30R,0.9581X0.9121*%
%ADD31R,1.0637X1.0621*%
%ADD32R,0.8000X0.8000*%
D18*
X328100Y478650D02*
D03*
X333100D02*
D03*
X338100D02*
D03*
X343100D02*
D03*
X348100D02*
D03*
X353100D02*
D03*
X358100D02*
D03*
X363100D02*
D03*
X368100D02*
D03*
X373100D02*
D03*
X378100D02*
D03*
X383100D02*
D03*
Y397650D02*
D03*
X378100D02*
D03*
X373100D02*
D03*
X368100D02*
D03*
X363100D02*
D03*
X358100D02*
D03*
X353100D02*
D03*
X348100D02*
D03*
X343100D02*
D03*
X338100D02*
D03*
X333100D02*
D03*
X328100D02*
D03*
D19*
X396100Y465650D02*
D03*
Y460650D02*
D03*
Y455650D02*
D03*
Y450650D02*
D03*
Y445650D02*
D03*
Y440650D02*
D03*
Y435650D02*
D03*
Y430650D02*
D03*
Y425650D02*
D03*
Y420650D02*
D03*
Y415650D02*
D03*
Y410650D02*
D03*
X315100D02*
D03*
Y415650D02*
D03*
Y420650D02*
D03*
Y425650D02*
D03*
Y430650D02*
D03*
Y435650D02*
D03*
Y440650D02*
D03*
Y445650D02*
D03*
Y450650D02*
D03*
Y455650D02*
D03*
Y460650D02*
D03*
Y465650D02*
D03*
D20*
X254932Y471688D02*
D03*
Y497088D02*
D03*
Y522488D02*
D03*
X453410Y297180D02*
D03*
Y322580D02*
D03*
Y373380D02*
D03*
Y347980D02*
D03*
Y271780D02*
D03*
Y417830D02*
D03*
Y494030D02*
D03*
Y519430D02*
D03*
Y468630D02*
D03*
Y443230D02*
D03*
D21*
X373380Y222600D02*
D03*
Y237140D02*
D03*
D22*
X388320Y261620D02*
D03*
X401320D02*
D03*
X336250Y248920D02*
D03*
X349250D02*
D03*
X417980Y292100D02*
D03*
X404980D02*
D03*
X417980Y316230D02*
D03*
X404980D02*
D03*
X417980Y340360D02*
D03*
X404980D02*
D03*
D23*
X408940Y235250D02*
D03*
Y222250D02*
D03*
X212090Y298300D02*
D03*
Y311300D02*
D03*
D24*
X358140Y544830D02*
D03*
X372448D02*
D03*
X309076D02*
D03*
X323384D02*
D03*
X408136D02*
D03*
X422444D02*
D03*
X480526Y209550D02*
D03*
X494834D02*
D03*
D25*
X277760Y571940D02*
D03*
Y563440D02*
D03*
X263260Y571940D02*
D03*
Y563440D02*
D03*
D26*
X262530Y341040D02*
D03*
X217530D02*
D03*
X262530Y362540D02*
D03*
X217530D02*
D03*
D27*
X247330Y209991D02*
D03*
X284330D02*
D03*
X247330Y235391D02*
D03*
X284330D02*
D03*
X247330Y260791D02*
D03*
X284330D02*
D03*
D28*
X261380Y394020D02*
D03*
X218680D02*
D03*
X261380Y414020D02*
D03*
X218680D02*
D03*
X261380Y434020D02*
D03*
X218680D02*
D03*
D29*
X284874Y336550D02*
D03*
X300990D02*
D03*
D30*
X404210Y367030D02*
D03*
X418750D02*
D03*
X285750Y368300D02*
D03*
X300290D02*
D03*
D31*
X324524Y519430D02*
D03*
X307936D02*
D03*
D32*
X495237Y236264D02*
D03*
X480237D02*
D03*
M02*
