G04*
G04 #@! TF.GenerationSoftware,Altium Limited,Altium Designer,24.9.1 (31)*
G04*
G04 Layer_Color=32768*
%FSLAX44Y44*%
%MOMM*%
G71*
G04*
G04 #@! TF.SameCoordinates,573C6FB0-CD79-483D-94B5-B6DABAD4C9EF*
G04*
G04*
G04 #@! TF.FilePolarity,Positive*
G04*
G01*
G75*
%ADD86C,0.1000*%
D86*
X130130Y257591D02*
X190130D01*
X130130Y263991D02*
X190130D01*
X230130Y197291D02*
Y273491D01*
X190130Y197291D02*
X230130D01*
X190130D02*
Y273491D01*
X130130Y206791D02*
X190130D01*
X130130Y257591D02*
Y263991D01*
Y232191D02*
X190130D01*
X130130Y238591D02*
X190130D01*
X130130Y232191D02*
Y238591D01*
X190130Y273491D02*
X230130D01*
X130130Y213191D02*
X190130D01*
X130130Y206791D02*
Y213191D01*
X251480Y257691D02*
X252730D01*
X251480Y264091D02*
X252730D01*
X251480Y238691D02*
X252730D01*
X251480Y213291D02*
X252730D01*
X251480Y206891D02*
X252730D01*
X251480Y232291D02*
X252730D01*
X254930Y257691D02*
Y264091D01*
Y232291D02*
Y238691D01*
Y206891D02*
Y213291D01*
X230130Y257691D02*
X291730D01*
X230130Y264091D02*
X291730D01*
X230130Y232291D02*
X291730D01*
X230130Y206891D02*
X291730D01*
X230130Y213291D02*
X291730D01*
X230130Y238691D02*
X291730D01*
X285480Y257691D02*
X288280D01*
X285480Y264091D02*
X288280D01*
X285480Y232291D02*
X288280D01*
X285480Y238691D02*
X288280D01*
X285480Y213291D02*
X288280D01*
X285480Y206891D02*
X288280D01*
Y257691D02*
X291730D01*
X288280Y232291D02*
X291730D01*
X288280Y238691D02*
X291730D01*
X288280Y264091D02*
X291730D01*
X288280Y206891D02*
X291730D01*
X288280Y213291D02*
X291730D01*
Y257691D02*
Y264091D01*
Y232291D02*
Y238691D01*
Y206891D02*
Y213291D01*
M02*
