G04*
G04 #@! TF.GenerationSoftware,Altium Limited,Altium Designer,24.9.1 (31)*
G04*
G04 Layer_Color=16711935*
%FSLAX44Y44*%
%MOMM*%
G71*
G04*
G04 #@! TF.SameCoordinates,573C6FB0-CD79-483D-94B5-B6DABAD4C9EF*
G04*
G04*
G04 #@! TF.FilePolarity,Negative*
G04*
G01*
G75*
%ADD20R,3.1800X1.2700*%
%ADD21R,0.9121X0.9581*%
%ADD30R,0.9581X0.9121*%
%ADD37R,1.1032X1.0532*%
%ADD38R,2.7032X1.2032*%
%ADD39R,1.0032X1.0032*%
%ADD40C,0.7032*%
%ADD41R,2.7032X2.7032*%
%ADD42C,2.2032*%
%ADD43C,5.7032*%
%ADD44C,2.7032*%
%ADD66R,1.1557X1.3970*%
%ADD67R,0.7000X0.7000*%
%ADD68R,0.7500X1.0000*%
%ADD71R,1.2032X1.2032*%
%ADD72O,0.9532X0.4532*%
%ADD73O,0.4532X0.9532*%
%ADD74R,2.0032X2.0032*%
%ADD75R,2.0032X2.0032*%
G04:AMPARAMS|DCode=76|XSize=1.5032mm|YSize=0.9632mm|CornerRadius=0.1966mm|HoleSize=0mm|Usage=FLASHONLY|Rotation=0.000|XOffset=0mm|YOffset=0mm|HoleType=Round|Shape=RoundedRectangle|*
%AMROUNDEDRECTD76*
21,1,1.5032,0.5700,0,0,0.0*
21,1,1.1100,0.9632,0,0,0.0*
1,1,0.3932,0.5550,-0.2850*
1,1,0.3932,-0.5550,-0.2850*
1,1,0.3932,-0.5550,0.2850*
1,1,0.3932,0.5550,0.2850*
%
%ADD76ROUNDEDRECTD76*%
G04:AMPARAMS|DCode=77|XSize=1.1032mm|YSize=1.8032mm|CornerRadius=0.1511mm|HoleSize=0mm|Usage=FLASHONLY|Rotation=90.000|XOffset=0mm|YOffset=0mm|HoleType=Round|Shape=RoundedRectangle|*
%AMROUNDEDRECTD77*
21,1,1.1032,1.5010,0,0,90.0*
21,1,0.8010,1.8032,0,0,90.0*
1,1,0.3022,0.7505,0.4005*
1,1,0.3022,0.7505,-0.4005*
1,1,0.3022,-0.7505,-0.4005*
1,1,0.3022,-0.7505,0.4005*
%
%ADD77ROUNDEDRECTD77*%
G04:AMPARAMS|DCode=78|XSize=0.4532mm|YSize=0.7032mm|CornerRadius=0.1516mm|HoleSize=0mm|Usage=FLASHONLY|Rotation=0.000|XOffset=0mm|YOffset=0mm|HoleType=Round|Shape=RoundedRectangle|*
%AMROUNDEDRECTD78*
21,1,0.4532,0.4000,0,0,0.0*
21,1,0.1500,0.7032,0,0,0.0*
1,1,0.3032,0.0750,-0.2000*
1,1,0.3032,-0.0750,-0.2000*
1,1,0.3032,-0.0750,0.2000*
1,1,0.3032,0.0750,0.2000*
%
%ADD78ROUNDEDRECTD78*%
%ADD79R,1.4532X1.8032*%
%ADD80R,1.0032X1.2032*%
D20*
X453410Y494030D02*
D03*
Y468630D02*
D03*
Y417830D02*
D03*
Y443230D02*
D03*
Y519430D02*
D03*
D21*
X440690Y197770D02*
D03*
Y183230D02*
D03*
D30*
X378810Y270510D02*
D03*
X393350D02*
D03*
D37*
X331470Y265280D02*
D03*
Y278280D02*
D03*
X377190Y347980D02*
D03*
Y360980D02*
D03*
X356870Y278280D02*
D03*
Y265280D02*
D03*
D38*
X284330Y209991D02*
D03*
Y235391D02*
D03*
X247330Y209991D02*
D03*
Y235391D02*
D03*
X284330Y260791D02*
D03*
X247330D02*
D03*
X284330Y286191D02*
D03*
X247330D02*
D03*
Y336991D02*
D03*
X284330D02*
D03*
X247330Y311591D02*
D03*
X284330D02*
D03*
D39*
X388620Y178500D02*
D03*
X398120Y202500D02*
D03*
X379120D02*
D03*
D40*
X340360Y314960D02*
D03*
X336550Y207010D02*
D03*
X388620Y314960D02*
D03*
X373380Y364490D02*
D03*
X356870Y514350D02*
D03*
X309880Y467360D02*
D03*
X296769Y371821D02*
D03*
X378460Y201930D02*
D03*
X391160Y293370D02*
D03*
X284480Y214630D02*
D03*
X333064Y488662D02*
D03*
X252747Y349267D02*
D03*
X243840Y349250D02*
D03*
X360680Y502920D02*
D03*
X317500Y483060D02*
D03*
X309880Y476250D02*
D03*
X369570Y430530D02*
D03*
Y422910D02*
D03*
X347980Y415290D02*
D03*
X361950Y382270D02*
D03*
X355600Y375920D02*
D03*
X364490Y510540D02*
D03*
X327660Y224790D02*
D03*
X320040Y215900D02*
D03*
X426720Y273050D02*
D03*
Y280670D02*
D03*
X259080Y307340D02*
D03*
X291179Y426251D02*
D03*
X313690Y210820D02*
D03*
X350520Y297180D02*
D03*
X355600Y303530D02*
D03*
X361950Y309880D02*
D03*
X336550Y463550D02*
D03*
X335280Y455930D02*
D03*
X316230Y407670D02*
D03*
X302260Y515620D02*
D03*
X350520Y463550D02*
D03*
X331470Y519430D02*
D03*
X384810Y495300D02*
D03*
X373380Y463550D02*
D03*
X384810Y473710D02*
D03*
X379730Y450850D02*
D03*
X349250Y232410D02*
D03*
X328930Y177800D02*
D03*
X261620Y337820D02*
D03*
X468630Y353060D02*
D03*
X245110Y417830D02*
D03*
X389890Y265430D02*
D03*
X342900Y294640D02*
D03*
X303530Y308610D02*
D03*
X364490Y184150D02*
D03*
X341630Y344170D02*
D03*
X334010Y232410D02*
D03*
X393700Y207010D02*
D03*
X311150Y200660D02*
D03*
X360680Y204470D02*
D03*
X377190Y325120D02*
D03*
X240030Y476250D02*
D03*
X196850D02*
D03*
X218440Y511810D02*
D03*
X245110Y438150D02*
D03*
X203200Y417830D02*
D03*
X275590Y273050D02*
D03*
X302260D02*
D03*
X284480Y226060D02*
D03*
X259080Y290830D02*
D03*
X269240Y491490D02*
D03*
X403860Y408940D02*
D03*
X266700Y575310D02*
D03*
X212311Y209771D02*
D03*
X468630Y449580D02*
D03*
X468960Y462610D02*
D03*
X476250Y232410D02*
D03*
X201930Y438150D02*
D03*
X468630Y378460D02*
D03*
Y525780D02*
D03*
D41*
X435610Y149860D02*
D03*
D42*
X289560D02*
D03*
X264160D02*
D03*
X314960D02*
D03*
X340360D02*
D03*
D43*
X495417Y156827D02*
D03*
X212676Y156846D02*
D03*
X495462Y573989D02*
D03*
X212704Y574025D02*
D03*
D44*
X388620Y149860D02*
D03*
D66*
X502856Y302260D02*
D03*
X485204D02*
D03*
D67*
X370840Y574040D02*
D03*
X356840D02*
D03*
X408290D02*
D03*
X422290D02*
D03*
D68*
X486530Y262890D02*
D03*
X501530D02*
D03*
D71*
X351790Y519430D02*
D03*
X337820D02*
D03*
D72*
X330940Y312540D02*
D03*
Y317540D02*
D03*
Y322540D02*
D03*
Y327540D02*
D03*
X359940D02*
D03*
Y322540D02*
D03*
Y317540D02*
D03*
Y312540D02*
D03*
X322050Y199510D02*
D03*
Y204510D02*
D03*
Y209510D02*
D03*
Y214510D02*
D03*
X351050D02*
D03*
Y209510D02*
D03*
Y204510D02*
D03*
Y199510D02*
D03*
D73*
X337940Y334540D02*
D03*
X342940D02*
D03*
X347940D02*
D03*
X352940D02*
D03*
Y305540D02*
D03*
X347940D02*
D03*
X342940D02*
D03*
X337940D02*
D03*
X344050Y192510D02*
D03*
X339050D02*
D03*
X334050D02*
D03*
X329050D02*
D03*
Y221510D02*
D03*
X334050D02*
D03*
X339050D02*
D03*
X344050D02*
D03*
D74*
X345440Y320040D02*
D03*
D75*
X336550Y207010D02*
D03*
D76*
X453390Y295910D02*
D03*
Y313810D02*
D03*
D77*
X440690Y236220D02*
D03*
D78*
X448190Y245720D02*
D03*
X443190D02*
D03*
X438190D02*
D03*
X433190D02*
D03*
Y226720D02*
D03*
X438190D02*
D03*
X443190D02*
D03*
X448190D02*
D03*
D79*
X202360Y520150D02*
D03*
Y483150D02*
D03*
X224360D02*
D03*
Y520150D02*
D03*
D80*
X487800Y340360D02*
D03*
X502800D02*
D03*
X487800Y382270D02*
D03*
X502800D02*
D03*
M02*
