G04*
G04 #@! TF.GenerationSoftware,Altium Limited,Altium Designer,24.9.1 (31)*
G04*
G04 Layer_Color=32896*
%FSLAX44Y44*%
%MOMM*%
G71*
G04*
G04 #@! TF.SameCoordinates,573C6FB0-CD79-483D-94B5-B6DABAD4C9EF*
G04*
G04*
G04 #@! TF.FilePolarity,Positive*
G04*
G01*
G75*
%ADD86C,0.1000*%
D86*
X291730Y333691D02*
Y340091D01*
Y308291D02*
Y314691D01*
Y282891D02*
Y289291D01*
X288280Y340091D02*
X291730D01*
X288280Y333691D02*
X291730D01*
X288280Y314691D02*
X291730D01*
X288280Y308291D02*
X291730D01*
X288280Y289291D02*
X291730D01*
X288280Y282891D02*
X291730D01*
X288280Y263891D02*
X291730D01*
X285480Y340091D02*
X288280D01*
X285480Y333691D02*
X288280D01*
X285480Y314691D02*
X288280D01*
X285480Y308291D02*
X288280D01*
X285480Y289291D02*
X288280D01*
X285480Y282891D02*
X288280D01*
X230130Y340091D02*
X291730D01*
X230130Y333691D02*
X291730D01*
X230130Y308291D02*
X291730D01*
X285480Y263891D02*
X288280D01*
X291730Y257491D02*
Y263891D01*
X288280Y257491D02*
X291730D01*
X285480D02*
X288280D01*
X230130Y238491D02*
X291730D01*
X288280D02*
X291730D01*
X285480D02*
X288280D01*
X285480Y232091D02*
X288280D01*
X285480Y213091D02*
X288280D01*
X291730D01*
X285480Y206691D02*
X288280D01*
X291730D01*
X230130Y232091D02*
X291730D01*
Y206691D02*
Y213091D01*
Y232091D02*
Y238491D01*
X288280Y232091D02*
X291730D01*
X230130Y314691D02*
X291730D01*
X230130Y289291D02*
X291730D01*
X230130Y282891D02*
X291730D01*
X230130Y263891D02*
X291730D01*
X254930Y333691D02*
Y340091D01*
Y282891D02*
Y289291D01*
Y308291D02*
Y314691D01*
Y257491D02*
Y263891D01*
X251480Y289291D02*
X252730D01*
X251480Y282891D02*
X252730D01*
X251480Y333691D02*
X252730D01*
X251480Y340091D02*
X252730D01*
X251480Y314691D02*
X252730D01*
X251480Y308291D02*
X252730D01*
X251480Y263891D02*
X252730D01*
X251480Y257491D02*
X252730D01*
X230130Y197291D02*
Y349691D01*
X190130D02*
X230130D01*
X190130Y197291D02*
Y349691D01*
X130130Y308391D02*
X190130D01*
X130130Y289391D02*
X190130D01*
X130130Y340191D02*
X190130D01*
X130130Y282991D02*
X190130D01*
X130130Y314791D02*
X190130D01*
X130130Y333791D02*
X190130D01*
X130130Y263991D02*
X190130D01*
X130130Y257591D02*
X190130D01*
X130130Y308391D02*
Y314791D01*
Y282991D02*
Y289391D01*
Y333791D02*
Y340191D01*
Y257591D02*
Y263991D01*
X230130Y257491D02*
X291730D01*
X130130Y238591D02*
X190130D01*
X251480Y238491D02*
X252730D01*
X130130Y232191D02*
Y238591D01*
X254930Y232091D02*
Y238491D01*
X130130Y232191D02*
X190130D01*
X251480Y232091D02*
X252730D01*
X230130Y206691D02*
X291730D01*
X251480D02*
X252730D01*
X230130Y213091D02*
X291730D01*
X190130Y197291D02*
X230130D01*
X130130Y206791D02*
Y213191D01*
X190130D01*
X251480Y213091D02*
X252730D01*
X254930Y206691D02*
Y213091D01*
X130130Y206791D02*
X190130D01*
M02*
