G04*
G04 #@! TF.GenerationSoftware,Altium Limited,Altium Designer,24.9.1 (31)*
G04*
G04 Layer_Color=65535*
%FSLAX44Y44*%
%MOMM*%
G71*
G04*
G04 #@! TF.SameCoordinates,573C6FB0-CD79-483D-94B5-B6DABAD4C9EF*
G04*
G04*
G04 #@! TF.FilePolarity,Positive*
G04*
G01*
G75*
%ADD10C,0.6000*%
%ADD11C,0.2500*%
%ADD12C,0.5080*%
%ADD13C,0.2000*%
%ADD14C,0.1524*%
%ADD15C,0.4000*%
%ADD16C,0.2540*%
%ADD17C,0.1520*%
G36*
X457227Y164452D02*
X413993D01*
Y186068D01*
X457227D01*
Y164452D01*
D02*
G37*
G36*
X406453Y164400D02*
X370856D01*
Y186017D01*
X406453D01*
Y164400D01*
D02*
G37*
G36*
X492760Y445770D02*
X472803D01*
Y491287D01*
X492760D01*
Y445770D01*
D02*
G37*
G36*
X331605Y175260D02*
X275590D01*
Y195217D01*
X331605D01*
Y175260D01*
D02*
G37*
G36*
X293309Y269240D02*
X276860D01*
Y288892D01*
X293309D01*
Y269240D01*
D02*
G37*
G36*
X254246D02*
X240030D01*
Y288892D01*
X254246D01*
Y269240D01*
D02*
G37*
G36*
X319317Y216410D02*
X299720D01*
Y255270D01*
X319317D01*
Y216410D01*
D02*
G37*
G36*
X234587Y469291D02*
X214630D01*
Y523240D01*
X234587D01*
Y469291D01*
D02*
G37*
G36*
X492760Y298450D02*
X472803D01*
Y345479D01*
X492760D01*
Y298450D01*
D02*
G37*
G36*
X462530Y561340D02*
X303530D01*
Y591023D01*
X462530D01*
Y561340D01*
D02*
G37*
G36*
X332268Y159044D02*
X323052D01*
Y173696D01*
X332268D01*
Y159044D01*
D02*
G37*
G36*
X282584D02*
X271136D01*
Y173696D01*
X282584D01*
Y159044D01*
D02*
G37*
%LPC*%
G36*
X424737Y181068D02*
X424543D01*
X423960Y181052D01*
X423443Y180988D01*
X423216Y180939D01*
X422990Y180891D01*
X422779Y180842D01*
X422601Y180793D01*
X422440Y180729D01*
X422278Y180680D01*
X422165Y180632D01*
X422051Y180599D01*
X421970Y180551D01*
X421906Y180535D01*
X421873Y180502D01*
X421857D01*
X421356Y180211D01*
X421145Y180033D01*
X420935Y179871D01*
X420741Y179693D01*
X420563Y179515D01*
X420401Y179337D01*
X420255Y179175D01*
X420142Y179014D01*
X420029Y178868D01*
X419932Y178739D01*
X419851Y178625D01*
X419802Y178528D01*
X419754Y178464D01*
X419738Y178415D01*
X419721Y178399D01*
X419592Y178140D01*
X419479Y177881D01*
X419301Y177347D01*
X419171Y176813D01*
X419090Y176344D01*
X419058Y176117D01*
X419026Y175923D01*
X419010Y175745D01*
Y175584D01*
X418993Y175470D01*
Y175292D01*
X419026Y174694D01*
X419090Y174144D01*
X419204Y173642D01*
X419252Y173399D01*
X419317Y173189D01*
X419382Y172995D01*
X419430Y172817D01*
X419495Y172671D01*
X419543Y172542D01*
X419576Y172445D01*
X419608Y172364D01*
X419641Y172315D01*
Y172299D01*
X419916Y171814D01*
X420223Y171393D01*
X420547Y171021D01*
X420870Y170730D01*
X421016Y170600D01*
X421161Y170487D01*
X421275Y170390D01*
X421388Y170325D01*
X421469Y170260D01*
X421550Y170212D01*
X421582Y170196D01*
X421598Y170180D01*
X421857Y170050D01*
X422100Y169937D01*
X422634Y169759D01*
X423152Y169629D01*
X423621Y169548D01*
X423847Y169516D01*
X424041Y169484D01*
X424219Y169468D01*
X424381D01*
X424495Y169452D01*
X424673D01*
X425190Y169468D01*
X425676Y169532D01*
X426145Y169613D01*
X426549Y169710D01*
X426727Y169759D01*
X426889Y169807D01*
X427035Y169856D01*
X427164Y169888D01*
X427261Y169921D01*
X427326Y169953D01*
X427374Y169969D01*
X427391D01*
X427876Y170163D01*
X428281Y170374D01*
X428637Y170584D01*
X428944Y170762D01*
X429170Y170924D01*
X429251Y170989D01*
X429332Y171053D01*
X429381Y171102D01*
X429429Y171134D01*
X429462Y171166D01*
Y175665D01*
X424592D01*
Y173771D01*
X427180D01*
Y172332D01*
X426986Y172186D01*
X426776Y172056D01*
X426566Y171943D01*
X426371Y171846D01*
X426209Y171765D01*
X426064Y171700D01*
X425983Y171668D01*
X425967Y171652D01*
X425951D01*
X425692Y171555D01*
X425433Y171490D01*
X425190Y171442D01*
X424980Y171409D01*
X424786Y171393D01*
X424656Y171377D01*
X424527D01*
X424268Y171393D01*
X424009Y171425D01*
X423783Y171474D01*
X423556Y171539D01*
X423152Y171700D01*
X422990Y171781D01*
X422828Y171878D01*
X422682Y171975D01*
X422553Y172056D01*
X422456Y172153D01*
X422359Y172218D01*
X422294Y172283D01*
X422245Y172332D01*
X422213Y172364D01*
X422197Y172380D01*
X422051Y172574D01*
X421906Y172801D01*
X421792Y173027D01*
X421695Y173270D01*
X421534Y173771D01*
X421437Y174257D01*
X421404Y174483D01*
X421372Y174710D01*
X421356Y174888D01*
X421339Y175066D01*
X421323Y175195D01*
Y175308D01*
Y175373D01*
Y175389D01*
X421339Y175729D01*
X421356Y176037D01*
X421404Y176344D01*
X421453Y176619D01*
X421517Y176862D01*
X421598Y177088D01*
X421679Y177299D01*
X421760Y177493D01*
X421825Y177655D01*
X421906Y177800D01*
X421987Y177913D01*
X422051Y178011D01*
X422100Y178092D01*
X422148Y178140D01*
X422165Y178172D01*
X422181Y178188D01*
X422359Y178350D01*
X422537Y178512D01*
X422731Y178625D01*
X422925Y178739D01*
X423119Y178836D01*
X423313Y178917D01*
X423685Y179030D01*
X423863Y179062D01*
X424025Y179095D01*
X424171Y179111D01*
X424300Y179127D01*
X424397Y179143D01*
X424543D01*
X424899Y179127D01*
X425206Y179062D01*
X425481Y178997D01*
X425724Y178901D01*
X425902Y178820D01*
X426048Y178739D01*
X426129Y178674D01*
X426161Y178658D01*
X426387Y178464D01*
X426582Y178253D01*
X426744Y178043D01*
X426857Y177833D01*
X426954Y177638D01*
X427019Y177493D01*
X427051Y177396D01*
X427067Y177380D01*
Y177363D01*
X429316Y177784D01*
X429251Y178059D01*
X429154Y178334D01*
X429057Y178577D01*
X428928Y178803D01*
X428815Y179030D01*
X428685Y179224D01*
X428556Y179402D01*
X428426Y179564D01*
X428297Y179709D01*
X428184Y179839D01*
X428086Y179952D01*
X427989Y180033D01*
X427908Y180098D01*
X427844Y180163D01*
X427811Y180179D01*
X427795Y180195D01*
X427569Y180357D01*
X427326Y180486D01*
X427067Y180599D01*
X426792Y180696D01*
X426258Y180858D01*
X425740Y180955D01*
X425498Y181004D01*
X425271Y181020D01*
X425061Y181036D01*
X424883Y181052D01*
X424737Y181068D01*
D02*
G37*
G36*
X440464Y180858D02*
X438377D01*
Y173318D01*
X433749Y180858D01*
X431565D01*
Y169662D01*
X433652D01*
Y177040D01*
X438199Y169662D01*
X440464D01*
Y180858D01*
D02*
G37*
G36*
X447324D02*
X442859D01*
Y169662D01*
X447098D01*
X447534Y169678D01*
X447939Y169694D01*
X448279Y169727D01*
X448554Y169775D01*
X448780Y169824D01*
X448958Y169856D01*
X449007Y169872D01*
X449055D01*
X449072Y169888D01*
X449088D01*
X449444Y170018D01*
X449767Y170163D01*
X450026Y170309D01*
X450253Y170455D01*
X450431Y170584D01*
X450560Y170681D01*
X450641Y170746D01*
X450673Y170778D01*
X450948Y171086D01*
X451191Y171409D01*
X451401Y171749D01*
X451563Y172056D01*
X451693Y172348D01*
X451757Y172461D01*
X451790Y172558D01*
X451822Y172655D01*
X451855Y172720D01*
X451871Y172752D01*
Y172768D01*
X451984Y173157D01*
X452081Y173561D01*
X452146Y173949D01*
X452178Y174322D01*
X452194Y174499D01*
X452211Y174661D01*
Y174791D01*
X452227Y174920D01*
Y175147D01*
X452211Y175713D01*
X452162Y176215D01*
X452146Y176457D01*
X452113Y176668D01*
X452081Y176878D01*
X452049Y177056D01*
X452000Y177218D01*
X451968Y177363D01*
X451935Y177493D01*
X451919Y177590D01*
X451887Y177671D01*
X451871Y177736D01*
X451855Y177768D01*
Y177784D01*
X451709Y178172D01*
X451531Y178528D01*
X451353Y178836D01*
X451175Y179095D01*
X451029Y179305D01*
X450900Y179467D01*
X450819Y179564D01*
X450803Y179596D01*
X450787D01*
X450512Y179855D01*
X450237Y180065D01*
X449945Y180243D01*
X449686Y180389D01*
X449460Y180502D01*
X449266Y180583D01*
X449201Y180599D01*
X449152Y180616D01*
X449120Y180632D01*
X449104D01*
X448797Y180713D01*
X448457Y180761D01*
X448101Y180810D01*
X447761Y180826D01*
X447454Y180842D01*
X447324Y180858D01*
D02*
G37*
%LPD*%
G36*
X446806Y178949D02*
X447001D01*
X447162Y178933D01*
X447308D01*
X447454Y178917D01*
X447567D01*
X447745Y178884D01*
X447874Y178868D01*
X447955Y178852D01*
X447971D01*
X448198Y178787D01*
X448392Y178706D01*
X448570Y178625D01*
X448732Y178528D01*
X448845Y178447D01*
X448942Y178383D01*
X448991Y178334D01*
X449007Y178318D01*
X449152Y178156D01*
X449282Y177978D01*
X449395Y177800D01*
X449492Y177638D01*
X449557Y177477D01*
X449605Y177347D01*
X449638Y177266D01*
X449654Y177250D01*
Y177234D01*
X449735Y176943D01*
X449800Y176635D01*
X449832Y176296D01*
X449864Y175972D01*
X449881Y175697D01*
X449897Y175567D01*
Y175454D01*
Y175373D01*
Y175308D01*
Y175260D01*
Y175244D01*
X449881Y174791D01*
X449864Y174370D01*
X449816Y174030D01*
X449784Y173739D01*
X449735Y173496D01*
X449719Y173399D01*
X449686Y173335D01*
X449670Y173270D01*
Y173221D01*
X449654Y173205D01*
Y173189D01*
X449557Y172930D01*
X449476Y172704D01*
X449363Y172526D01*
X449282Y172380D01*
X449201Y172267D01*
X449136Y172186D01*
X449088Y172137D01*
X449072Y172121D01*
X448926Y172008D01*
X448780Y171911D01*
X448635Y171830D01*
X448489Y171765D01*
X448360Y171717D01*
X448263Y171684D01*
X448198Y171652D01*
X448166D01*
X447988Y171619D01*
X447777Y171603D01*
X447551Y171571D01*
X447324D01*
X447114Y171555D01*
X445124D01*
Y178965D01*
X446596D01*
X446806Y178949D01*
D02*
G37*
%LPC*%
G36*
X401073Y180597D02*
X398985D01*
Y173057D01*
X394358Y180597D01*
X392174D01*
Y169400D01*
X394261D01*
Y176778D01*
X398807Y169400D01*
X401073D01*
Y180597D01*
D02*
G37*
G36*
X386673D02*
X384262D01*
X381527Y172313D01*
X378680Y180597D01*
X376237D01*
X380249Y169400D01*
X382692D01*
X386673Y180597D01*
D02*
G37*
G36*
X390006D02*
X387740D01*
Y169400D01*
X390006D01*
Y180597D01*
D02*
G37*
G36*
X487580Y486287D02*
X477927D01*
Y482071D01*
Y484789D01*
X478246Y484650D01*
X478537Y484470D01*
X478815Y484276D01*
X479037Y484082D01*
X479217Y483915D01*
X479356Y483763D01*
X479411Y483707D01*
X479453Y483666D01*
X479467Y483638D01*
X479481Y483624D01*
X479702Y483319D01*
X479897Y483028D01*
X480049Y482764D01*
X480160Y482529D01*
X480243Y482335D01*
X480313Y482196D01*
X480326Y482140D01*
X480340Y482099D01*
X480354Y482085D01*
Y482071D01*
X477927D01*
X482019D01*
X481824Y482570D01*
X481616Y483014D01*
X481505Y483222D01*
X481381Y483416D01*
X481270Y483596D01*
X481159Y483763D01*
X481048Y483915D01*
X480951Y484054D01*
X480867Y484165D01*
X480784Y484262D01*
X480715Y484345D01*
X480673Y484401D01*
X480645Y484429D01*
X480632Y484442D01*
X487580D01*
Y486287D01*
D02*
G37*
G36*
Y476662D02*
Y472016D01*
X483502D01*
Y476024D01*
X481880D01*
Y472016D01*
X479605D01*
Y476662D01*
X487580D01*
X477983D01*
Y470075D01*
X487580D01*
Y476662D01*
D02*
G37*
G36*
X482892Y468549D02*
X477803D01*
X482795D01*
X482365Y468535D01*
X481963Y468494D01*
X481589Y468438D01*
X481228Y468355D01*
X480909Y468258D01*
X480604Y468147D01*
X480326Y468036D01*
X480091Y467911D01*
X479869Y467786D01*
X479675Y467676D01*
X479508Y467565D01*
X479370Y467467D01*
X479272Y467398D01*
X479189Y467329D01*
X479148Y467287D01*
X479134Y467273D01*
X478898Y467024D01*
X478690Y466760D01*
X478510Y466483D01*
X478357Y466205D01*
X478232Y465914D01*
X478121Y465637D01*
X478038Y465359D01*
X477969Y465096D01*
X477913Y464846D01*
X477872Y464611D01*
X477844Y464403D01*
X477816Y464222D01*
Y464084D01*
X477803Y463973D01*
Y463876D01*
X477816Y463460D01*
X477858Y463057D01*
X477927Y462711D01*
X477997Y462406D01*
X478038Y462281D01*
X478066Y462156D01*
X478094Y462059D01*
X478135Y461976D01*
X478149Y461906D01*
X478177Y461851D01*
X478191Y461823D01*
Y461809D01*
X478302Y461560D01*
X478440Y461324D01*
X478593Y461116D01*
X478732Y460936D01*
X478857Y460783D01*
X478967Y460658D01*
X479037Y460589D01*
X479051Y460575D01*
X479064Y460561D01*
X479286Y460367D01*
X479522Y460187D01*
X479730Y460034D01*
X479938Y459909D01*
X480118Y459812D01*
X480257Y459729D01*
X480313Y459715D01*
X480354Y459687D01*
X480368Y459674D01*
X480382D01*
X480770Y459535D01*
X481186Y459424D01*
X481602Y459355D01*
X481991Y459299D01*
X482171Y459285D01*
X482337Y459271D01*
X482476Y459258D01*
X482601D01*
X482712Y459244D01*
X487760D01*
X482851D01*
X483267Y459258D01*
X483669Y459299D01*
X484043Y459355D01*
X484390Y459438D01*
X484709Y459535D01*
X485000Y459646D01*
X485278Y459757D01*
X485513Y459882D01*
X485735Y459992D01*
X485915Y460103D01*
X486082Y460214D01*
X486221Y460311D01*
X486318Y460395D01*
X486401Y460450D01*
X486442Y460492D01*
X486456Y460506D01*
X486692Y460755D01*
X486886Y461019D01*
X487067Y461282D01*
X487205Y461573D01*
X487330Y461851D01*
X487441Y462142D01*
X487524Y462406D01*
X487594Y462683D01*
X487649Y462933D01*
X487691Y463168D01*
X487718Y463376D01*
X487732Y463557D01*
X487746Y463695D01*
X487760Y463806D01*
Y464084D01*
Y463903D01*
X487746Y464292D01*
X487705Y464652D01*
X487635Y464999D01*
X487552Y465318D01*
X487455Y465623D01*
X487344Y465900D01*
X487233Y466150D01*
X487108Y466386D01*
X486983Y466580D01*
X486872Y466760D01*
X486762Y466913D01*
X486664Y467038D01*
X486581Y467149D01*
X486512Y467218D01*
X486470Y467259D01*
X486456Y467273D01*
X486193Y467495D01*
X485915Y467689D01*
X485624Y467870D01*
X485333Y468008D01*
X485028Y468133D01*
X484723Y468244D01*
X484418Y468327D01*
X484127Y468397D01*
X483863Y468438D01*
X483600Y468480D01*
X483378Y468508D01*
X483183Y468535D01*
X483017D01*
X482892Y468549D01*
D02*
G37*
G36*
X487580Y458384D02*
Y455555D01*
X479605D01*
Y458384D01*
X487580D01*
X477983D01*
Y450770D01*
X479605D01*
Y453613D01*
X487580D01*
Y450770D01*
Y458384D01*
D02*
G37*
%LPD*%
G36*
X483059Y466538D02*
X483350Y466525D01*
X483613Y466483D01*
X483849Y466441D01*
X484085Y466386D01*
X484293Y466316D01*
X484473Y466247D01*
X484640Y466178D01*
X484792Y466108D01*
X484917Y466039D01*
X485028Y465984D01*
X485125Y465914D01*
X485194Y465873D01*
X485236Y465831D01*
X485264Y465817D01*
X485278Y465803D01*
X485430Y465665D01*
X485555Y465512D01*
X485666Y465346D01*
X485763Y465193D01*
X485832Y465027D01*
X485902Y464874D01*
X485999Y464569D01*
X486068Y464305D01*
X486082Y464195D01*
X486096Y464098D01*
X486110Y464014D01*
Y463903D01*
X486096Y463695D01*
X486068Y463487D01*
X486026Y463293D01*
X485971Y463113D01*
X485846Y462780D01*
X485680Y462517D01*
X485610Y462392D01*
X485527Y462295D01*
X485458Y462198D01*
X485388Y462128D01*
X485347Y462073D01*
X485305Y462031D01*
X485278Y462003D01*
X485264Y461990D01*
X485097Y461865D01*
X484917Y461740D01*
X484723Y461643D01*
X484515Y461560D01*
X484113Y461421D01*
X483710Y461338D01*
X483516Y461310D01*
X483350Y461282D01*
X483183Y461268D01*
X483045Y461255D01*
X482934Y461241D01*
X482851D01*
X482795D01*
X482781D01*
X482476Y461255D01*
X482199Y461268D01*
X481935Y461310D01*
X481686Y461352D01*
X481464Y461407D01*
X481256Y461463D01*
X481075Y461532D01*
X480909Y461601D01*
X480756Y461671D01*
X480632Y461740D01*
X480535Y461795D01*
X480438Y461851D01*
X480368Y461892D01*
X480326Y461934D01*
X480299Y461948D01*
X480285Y461962D01*
X480132Y462100D01*
X480008Y462253D01*
X479897Y462419D01*
X479799Y462572D01*
X479716Y462738D01*
X479661Y462905D01*
X479550Y463210D01*
X479494Y463487D01*
X479481Y463598D01*
X479467Y463709D01*
X479453Y463792D01*
Y463903D01*
X479467Y464125D01*
X479494Y464333D01*
X479522Y464527D01*
X479578Y464708D01*
X479716Y465027D01*
X479786Y465179D01*
X479855Y465304D01*
X479938Y465429D01*
X480008Y465526D01*
X480077Y465609D01*
X480146Y465692D01*
X480202Y465748D01*
X480229Y465789D01*
X480257Y465803D01*
X480271Y465817D01*
X480438Y465942D01*
X480618Y466067D01*
X480798Y466164D01*
X481006Y466247D01*
X481422Y466372D01*
X481824Y466455D01*
X482005Y466497D01*
X482185Y466511D01*
X482337Y466525D01*
X482476Y466538D01*
X482601Y466552D01*
X482684D01*
X482740D01*
X482753D01*
X483059Y466538D01*
D02*
G37*
%LPC*%
G36*
X322819Y190217D02*
X322653D01*
X322251Y190204D01*
X321890Y190162D01*
X321571Y190107D01*
X321294Y190051D01*
X321169Y190009D01*
X321058Y189982D01*
X320975Y189954D01*
X320892Y189926D01*
X320836Y189898D01*
X320794Y189885D01*
X320767Y189871D01*
X320753D01*
X320476Y189732D01*
X320240Y189580D01*
X320032Y189413D01*
X319865Y189261D01*
X319727Y189122D01*
X319643Y189011D01*
X319574Y188928D01*
X319560Y188914D01*
Y188900D01*
X319422Y188664D01*
X319324Y188415D01*
X319255Y188179D01*
X319214Y187971D01*
X319186Y187791D01*
X319158Y187652D01*
Y187596D01*
Y187555D01*
Y187541D01*
Y187527D01*
X319172Y187319D01*
X319200Y187111D01*
X319241Y186931D01*
X319297Y186750D01*
X319435Y186418D01*
X319602Y186126D01*
X319671Y186001D01*
X319754Y185904D01*
X319824Y185807D01*
X319893Y185724D01*
X319949Y185669D01*
X319990Y185627D01*
X320018Y185599D01*
X320032Y185585D01*
X320157Y185488D01*
X320309Y185391D01*
X320462Y185294D01*
X320642Y185211D01*
X320989Y185045D01*
X321349Y184906D01*
X321530Y184850D01*
X321682Y184795D01*
X321835Y184753D01*
X321959Y184712D01*
X322057Y184684D01*
X322140Y184656D01*
X322195Y184642D01*
X322209D01*
X322431Y184587D01*
X322625Y184531D01*
X322805Y184490D01*
X322972Y184448D01*
X323111Y184407D01*
X323235Y184379D01*
X323346Y184337D01*
X323443Y184310D01*
X323527Y184296D01*
X323596Y184268D01*
X323693Y184240D01*
X323749Y184212D01*
X323762D01*
X323943Y184143D01*
X324081Y184074D01*
X324206Y184004D01*
X324303Y183935D01*
X324372Y183880D01*
X324414Y183838D01*
X324442Y183810D01*
X324456Y183796D01*
X324525Y183699D01*
X324581Y183602D01*
X324608Y183505D01*
X324636Y183422D01*
X324650Y183339D01*
X324664Y183269D01*
Y183228D01*
Y183214D01*
X324650Y183020D01*
X324594Y182853D01*
X324511Y182687D01*
X324428Y182548D01*
X324331Y182437D01*
X324262Y182354D01*
X324206Y182299D01*
X324178Y182285D01*
X323984Y182160D01*
X323762Y182063D01*
X323527Y181994D01*
X323305Y181952D01*
X323097Y181924D01*
X322930Y181896D01*
X322778D01*
X322459Y181910D01*
X322181Y181966D01*
X321946Y182035D01*
X321738Y182118D01*
X321571Y182202D01*
X321460Y182271D01*
X321391Y182326D01*
X321363Y182340D01*
X321183Y182534D01*
X321044Y182742D01*
X320919Y182978D01*
X320836Y183214D01*
X320767Y183422D01*
X320711Y183588D01*
X320697Y183644D01*
Y183699D01*
X320684Y183727D01*
Y183741D01*
X318797Y183561D01*
X318839Y183269D01*
X318895Y182992D01*
X318978Y182729D01*
X319047Y182493D01*
X319144Y182271D01*
X319241Y182063D01*
X319338Y181883D01*
X319435Y181716D01*
X319533Y181577D01*
X319629Y181453D01*
X319713Y181342D01*
X319796Y181245D01*
X319851Y181175D01*
X319907Y181134D01*
X319935Y181106D01*
X319949Y181092D01*
X320143Y180940D01*
X320351Y180815D01*
X320573Y180704D01*
X320808Y180607D01*
X321030Y180537D01*
X321266Y180468D01*
X321724Y180371D01*
X321932Y180329D01*
X322126Y180302D01*
X322292Y180288D01*
X322445Y180274D01*
X322570Y180260D01*
X322750D01*
X323194Y180274D01*
X323596Y180315D01*
X323956Y180371D01*
X324109Y180399D01*
X324262Y180440D01*
X324386Y180468D01*
X324497Y180496D01*
X324594Y180523D01*
X324678Y180551D01*
X324747Y180579D01*
X324789Y180593D01*
X324816Y180607D01*
X324830D01*
X325135Y180759D01*
X325385Y180926D01*
X325621Y181092D01*
X325801Y181272D01*
X325940Y181425D01*
X326051Y181564D01*
X326106Y181647D01*
X326134Y181661D01*
Y181675D01*
X326286Y181952D01*
X326411Y182215D01*
X326494Y182479D01*
X326550Y182729D01*
X326578Y182923D01*
X326591Y183020D01*
X326605Y183089D01*
Y183228D01*
X326591Y183561D01*
X326550Y183852D01*
X326480Y184115D01*
X326411Y184337D01*
X326342Y184518D01*
X326273Y184642D01*
X326231Y184726D01*
X326217Y184753D01*
X326064Y184975D01*
X325884Y185169D01*
X325704Y185336D01*
X325537Y185474D01*
X325385Y185585D01*
X325260Y185669D01*
X325177Y185724D01*
X325163Y185738D01*
X325149D01*
X325010Y185807D01*
X324872Y185877D01*
X324539Y186001D01*
X324192Y186112D01*
X323859Y186223D01*
X323707Y186265D01*
X323554Y186307D01*
X323416Y186348D01*
X323305Y186376D01*
X323208Y186404D01*
X323138Y186418D01*
X323083Y186431D01*
X323069D01*
X322819Y186501D01*
X322597Y186556D01*
X322389Y186612D01*
X322195Y186667D01*
X322043Y186723D01*
X321890Y186778D01*
X321765Y186834D01*
X321654Y186875D01*
X321557Y186917D01*
X321488Y186958D01*
X321419Y186986D01*
X321377Y187014D01*
X321308Y187055D01*
X321294Y187069D01*
X321197Y187167D01*
X321127Y187264D01*
X321086Y187361D01*
X321058Y187458D01*
X321030Y187527D01*
X321016Y187596D01*
Y187638D01*
Y187652D01*
X321030Y187791D01*
X321058Y187901D01*
X321114Y188012D01*
X321169Y188096D01*
X321224Y188165D01*
X321280Y188207D01*
X321308Y188234D01*
X321321Y188248D01*
X321516Y188373D01*
X321724Y188456D01*
X321946Y188526D01*
X322154Y188567D01*
X322334Y188595D01*
X322486Y188609D01*
X322625D01*
X322916Y188595D01*
X323166Y188553D01*
X323374Y188498D01*
X323540Y188442D01*
X323679Y188387D01*
X323776Y188331D01*
X323832Y188290D01*
X323845Y188276D01*
X323984Y188137D01*
X324109Y187971D01*
X324206Y187804D01*
X324276Y187624D01*
X324331Y187472D01*
X324359Y187347D01*
X324386Y187250D01*
Y187236D01*
Y187222D01*
X326328Y187291D01*
X326314Y187541D01*
X326273Y187763D01*
X326217Y187985D01*
X326148Y188179D01*
X326078Y188373D01*
X325995Y188553D01*
X325912Y188706D01*
X325829Y188858D01*
X325732Y188983D01*
X325648Y189094D01*
X325565Y189191D01*
X325496Y189274D01*
X325440Y189330D01*
X325399Y189371D01*
X325371Y189399D01*
X325357Y189413D01*
X325177Y189552D01*
X324983Y189677D01*
X324775Y189788D01*
X324553Y189885D01*
X324331Y189954D01*
X324109Y190023D01*
X323665Y190120D01*
X323457Y190148D01*
X323277Y190176D01*
X323097Y190190D01*
X322944Y190204D01*
X322819Y190217D01*
D02*
G37*
G36*
X288259Y190037D02*
X286318D01*
Y186265D01*
X282532D01*
Y190037D01*
X280590D01*
Y180440D01*
X282532D01*
Y184642D01*
X286318D01*
Y180440D01*
X288259D01*
Y190037D01*
D02*
G37*
G36*
X307578D02*
X305789D01*
Y183575D01*
X301822Y190037D01*
X299950D01*
Y180440D01*
X301739D01*
Y186764D01*
X305636Y180440D01*
X307578D01*
Y190037D01*
D02*
G37*
G36*
X313458D02*
X309630D01*
Y180440D01*
X313264D01*
X313638Y180454D01*
X313985Y180468D01*
X314276Y180496D01*
X314512Y180537D01*
X314706Y180579D01*
X314859Y180607D01*
X314900Y180621D01*
X314942D01*
X314956Y180634D01*
X314970D01*
X315275Y180745D01*
X315552Y180870D01*
X315774Y180995D01*
X315968Y181120D01*
X316121Y181231D01*
X316232Y181314D01*
X316301Y181369D01*
X316329Y181397D01*
X316565Y181661D01*
X316773Y181938D01*
X316953Y182229D01*
X317092Y182493D01*
X317203Y182742D01*
X317258Y182840D01*
X317286Y182923D01*
X317313Y183006D01*
X317341Y183061D01*
X317355Y183089D01*
Y183103D01*
X317452Y183436D01*
X317535Y183783D01*
X317591Y184115D01*
X317619Y184434D01*
X317633Y184587D01*
X317646Y184726D01*
Y184837D01*
X317660Y184947D01*
Y185142D01*
X317646Y185627D01*
X317605Y186057D01*
X317591Y186265D01*
X317563Y186445D01*
X317535Y186626D01*
X317508Y186778D01*
X317466Y186917D01*
X317438Y187042D01*
X317411Y187153D01*
X317397Y187236D01*
X317369Y187305D01*
X317355Y187361D01*
X317341Y187388D01*
Y187402D01*
X317216Y187735D01*
X317064Y188040D01*
X316911Y188304D01*
X316759Y188526D01*
X316634Y188706D01*
X316523Y188845D01*
X316454Y188928D01*
X316440Y188955D01*
X316426D01*
X316190Y189177D01*
X315954Y189358D01*
X315705Y189510D01*
X315483Y189635D01*
X315289Y189732D01*
X315122Y189801D01*
X315067Y189815D01*
X315025Y189829D01*
X314998Y189843D01*
X314984D01*
X314720Y189912D01*
X314429Y189954D01*
X314124Y189996D01*
X313832Y190009D01*
X313569Y190023D01*
X313458Y190037D01*
D02*
G37*
G36*
X295055D02*
X293002D01*
X289286Y180440D01*
X291338D01*
X292129Y182618D01*
X295984D01*
X296816Y180440D01*
X298910D01*
X295055Y190037D01*
D02*
G37*
%LPD*%
G36*
X313014Y188401D02*
X313181D01*
X313319Y188387D01*
X313444D01*
X313569Y188373D01*
X313666D01*
X313819Y188345D01*
X313930Y188331D01*
X313999Y188318D01*
X314013D01*
X314207Y188262D01*
X314373Y188193D01*
X314526Y188123D01*
X314665Y188040D01*
X314762Y187971D01*
X314845Y187915D01*
X314886Y187874D01*
X314900Y187860D01*
X315025Y187721D01*
X315136Y187569D01*
X315233Y187416D01*
X315317Y187277D01*
X315372Y187139D01*
X315413Y187028D01*
X315441Y186958D01*
X315455Y186945D01*
Y186931D01*
X315525Y186681D01*
X315580Y186418D01*
X315608Y186126D01*
X315635Y185849D01*
X315649Y185613D01*
X315663Y185502D01*
Y185405D01*
Y185336D01*
Y185280D01*
Y185239D01*
Y185225D01*
X315649Y184837D01*
X315635Y184476D01*
X315594Y184185D01*
X315566Y183935D01*
X315525Y183727D01*
X315511Y183644D01*
X315483Y183588D01*
X315469Y183533D01*
Y183491D01*
X315455Y183477D01*
Y183464D01*
X315372Y183242D01*
X315303Y183048D01*
X315205Y182895D01*
X315136Y182770D01*
X315067Y182673D01*
X315011Y182604D01*
X314970Y182562D01*
X314956Y182548D01*
X314831Y182451D01*
X314706Y182368D01*
X314581Y182299D01*
X314457Y182243D01*
X314346Y182202D01*
X314263Y182174D01*
X314207Y182146D01*
X314179D01*
X314027Y182118D01*
X313846Y182104D01*
X313652Y182077D01*
X313458D01*
X313278Y182063D01*
X311572D01*
Y188415D01*
X312834D01*
X313014Y188401D01*
D02*
G37*
G36*
X295360Y184240D02*
X292711D01*
X294015Y187804D01*
X295360Y184240D01*
D02*
G37*
%LPC*%
G36*
X288309Y283892D02*
X285258D01*
X285022Y283878D01*
X284800Y283865D01*
X284370Y283795D01*
X284010Y283684D01*
X283843Y283629D01*
X283691Y283560D01*
X283552Y283504D01*
X283441Y283435D01*
X283330Y283379D01*
X283247Y283338D01*
X283178Y283282D01*
X283136Y283255D01*
X283108Y283241D01*
X283094Y283227D01*
X282942Y283088D01*
X282803Y282949D01*
X282678Y282783D01*
X282567Y282603D01*
X282401Y282242D01*
X282262Y281895D01*
X282221Y281715D01*
X282179Y281562D01*
X282137Y281424D01*
X282124Y281299D01*
X282096Y281188D01*
Y281119D01*
X282082Y281063D01*
Y281049D01*
X283913Y280869D01*
X283940Y281147D01*
X283996Y281382D01*
X284051Y281590D01*
X284121Y281743D01*
X284176Y281868D01*
X284231Y281951D01*
X284273Y282006D01*
X284287Y282020D01*
X284426Y282131D01*
X284578Y282214D01*
X284731Y282284D01*
X284883Y282325D01*
X285008Y282353D01*
X285119Y282367D01*
X285216D01*
X285424Y282353D01*
X285604Y282311D01*
X285757Y282256D01*
X285896Y282201D01*
X285993Y282145D01*
X286076Y282090D01*
X286118Y282048D01*
X286131Y282034D01*
X286242Y281895D01*
X286326Y281743D01*
X286381Y281590D01*
X286423Y281438D01*
X286450Y281299D01*
X286464Y281174D01*
Y281105D01*
Y281091D01*
Y281077D01*
X286450Y280869D01*
X286409Y280675D01*
X286339Y280481D01*
X286270Y280314D01*
X286201Y280162D01*
X286131Y280051D01*
X286090Y279981D01*
X286076Y279954D01*
X286021Y279871D01*
X285937Y279774D01*
X285826Y279649D01*
X285715Y279538D01*
X285466Y279274D01*
X285216Y279011D01*
X284967Y278761D01*
X284856Y278650D01*
X284745Y278567D01*
X284661Y278484D01*
X284606Y278428D01*
X284564Y278387D01*
X284550Y278373D01*
X284273Y278109D01*
X284023Y277860D01*
X283788Y277624D01*
X283580Y277416D01*
X283386Y277208D01*
X283219Y277014D01*
X283067Y276847D01*
X282942Y276681D01*
X282831Y276542D01*
X282734Y276417D01*
X282651Y276320D01*
X282595Y276223D01*
X282540Y276168D01*
X282512Y276112D01*
X282484Y276084D01*
Y276071D01*
X282304Y275752D01*
X282165Y275419D01*
X282054Y275114D01*
X281971Y274836D01*
X281915Y274587D01*
X281902Y274490D01*
X281888Y274406D01*
X281874Y274337D01*
X281860Y274282D01*
Y274240D01*
X288309D01*
Y276084D01*
Y275946D01*
X284648D01*
X284758Y276126D01*
X284883Y276279D01*
X284939Y276348D01*
X284980Y276404D01*
X285008Y276431D01*
X285022Y276445D01*
X285077Y276500D01*
X285133Y276570D01*
X285299Y276722D01*
X285480Y276903D01*
X285660Y277083D01*
X285840Y277249D01*
X285993Y277388D01*
X286048Y277444D01*
X286090Y277485D01*
X286118Y277499D01*
X286131Y277513D01*
X286437Y277804D01*
X286686Y278040D01*
X286894Y278262D01*
X287061Y278428D01*
X287185Y278567D01*
X287269Y278664D01*
X287324Y278733D01*
X287338Y278747D01*
X287518Y278983D01*
X287671Y279205D01*
X287796Y279413D01*
X287893Y279593D01*
X287976Y279746D01*
X288031Y279871D01*
X288059Y279940D01*
X288073Y279968D01*
X288156Y280189D01*
X288212Y280411D01*
X288253Y280620D01*
X288281Y280814D01*
X288295Y280966D01*
X288309Y281091D01*
Y281202D01*
X288295Y281410D01*
X288267Y281618D01*
X288239Y281812D01*
X288184Y281992D01*
X288045Y282311D01*
X287907Y282589D01*
X287823Y282714D01*
X287754Y282811D01*
X287685Y282908D01*
X287615Y282977D01*
X287560Y283033D01*
X287532Y283088D01*
X287504Y283102D01*
X287491Y283116D01*
X287338Y283255D01*
X287158Y283379D01*
X286991Y283476D01*
X286797Y283560D01*
X286437Y283698D01*
X286076Y283795D01*
X285910Y283823D01*
X285757Y283851D01*
X285618Y283865D01*
X285494Y283878D01*
X285396Y283892D01*
X288309D01*
D02*
G37*
G36*
X249246D02*
X245030D01*
D01*
X247748D01*
X247610Y283573D01*
X247429Y283282D01*
X247235Y283005D01*
X247041Y282783D01*
X246875Y282603D01*
X246722Y282464D01*
X246667Y282409D01*
X246625Y282367D01*
X246597Y282353D01*
X246583Y282339D01*
X246278Y282117D01*
X245987Y281923D01*
X245723Y281770D01*
X245488Y281660D01*
X245294Y281576D01*
X245155Y281507D01*
X245099Y281493D01*
X245058Y281479D01*
X245044Y281465D01*
X245030D01*
Y279801D01*
X245529Y279995D01*
X245973Y280203D01*
X246181Y280314D01*
X246375Y280439D01*
X246556Y280550D01*
X246722Y280661D01*
X246875Y280772D01*
X247013Y280869D01*
X247124Y280952D01*
X247221Y281035D01*
X247304Y281105D01*
X247360Y281147D01*
X247388Y281174D01*
X247402Y281188D01*
Y274240D01*
X249246D01*
Y283892D01*
D02*
G37*
G36*
X314248Y250270D02*
X304720D01*
Y243502D01*
X306343D01*
Y248328D01*
X314248D01*
Y250270D01*
D02*
G37*
G36*
X314317Y242185D02*
X304720D01*
Y240243D01*
X314317D01*
Y242185D01*
D02*
G37*
G36*
Y238385D02*
X304720D01*
Y236596D01*
X311044D01*
X304720Y232699D01*
Y230757D01*
X314317D01*
Y238385D01*
D02*
G37*
G36*
Y228705D02*
X304720D01*
Y221410D01*
X306343D01*
Y226763D01*
X308950D01*
Y221951D01*
X310572D01*
Y226763D01*
X312694D01*
Y221590D01*
X314317D01*
Y221410D01*
D01*
Y228705D01*
D02*
G37*
%LPD*%
G36*
Y232546D02*
X307854D01*
X314317Y236513D01*
Y232546D01*
D02*
G37*
%LPC*%
G36*
X229587Y518240D02*
X219630D01*
Y510432D01*
D01*
Y514287D01*
X219644Y513844D01*
X219685Y513442D01*
X219741Y513081D01*
X219769Y512928D01*
X219810Y512776D01*
X219838Y512651D01*
X219866Y512540D01*
X219893Y512443D01*
X219921Y512360D01*
X219949Y512290D01*
X219963Y512249D01*
X219977Y512221D01*
Y512207D01*
X220129Y511902D01*
X220296Y511652D01*
X220462Y511417D01*
X220642Y511236D01*
X220795Y511098D01*
X220934Y510987D01*
X221017Y510931D01*
X221031Y510904D01*
X221045D01*
X221322Y510751D01*
X221585Y510626D01*
X221849Y510543D01*
X222099Y510488D01*
X222293Y510460D01*
X222390Y510446D01*
X222459Y510432D01*
X219630D01*
X229587D01*
X222598D01*
X222931Y510446D01*
X223222Y510488D01*
X223485Y510557D01*
X223707Y510626D01*
X223888Y510696D01*
X224012Y510765D01*
X224096Y510807D01*
X224123Y510820D01*
X224345Y510973D01*
X224539Y511153D01*
X224706Y511334D01*
X224844Y511500D01*
X224956Y511652D01*
X225039Y511777D01*
X225094Y511861D01*
X225108Y511874D01*
Y511888D01*
X225177Y512027D01*
X225247Y512166D01*
X225371Y512499D01*
X225483Y512845D01*
X225593Y513178D01*
X225635Y513331D01*
X225677Y513483D01*
X225718Y513622D01*
X225746Y513733D01*
X225774Y513830D01*
X225788Y513899D01*
X225801Y513955D01*
Y513969D01*
X225871Y514218D01*
X225926Y514440D01*
X225982Y514648D01*
X226037Y514842D01*
X226093Y514995D01*
X226148Y515147D01*
X226204Y515272D01*
X226245Y515383D01*
X226287Y515480D01*
X226328Y515550D01*
X226356Y515619D01*
X226384Y515661D01*
X226425Y515730D01*
X226439Y515744D01*
X226537Y515841D01*
X226633Y515910D01*
X226731Y515952D01*
X226828Y515979D01*
X226897Y516007D01*
X226966Y516021D01*
X227008D01*
X227022D01*
X227160Y516007D01*
X227271Y515979D01*
X227382Y515924D01*
X227466Y515868D01*
X227535Y515813D01*
X227577Y515758D01*
X227604Y515730D01*
X227618Y515716D01*
X227743Y515522D01*
X227826Y515314D01*
X227896Y515092D01*
X227937Y514884D01*
X227965Y514704D01*
X227979Y514551D01*
Y514412D01*
X227965Y514121D01*
X227923Y513871D01*
X227868Y513663D01*
X227812Y513497D01*
X227757Y513358D01*
X227701Y513261D01*
X227660Y513206D01*
X227646Y513192D01*
X227507Y513053D01*
X227341Y512928D01*
X227174Y512831D01*
X226994Y512762D01*
X226842Y512706D01*
X226717Y512679D01*
X226620Y512651D01*
X226606D01*
X226592D01*
X226661Y510709D01*
X226911Y510723D01*
X227133Y510765D01*
X227355Y510820D01*
X227549Y510890D01*
X227743Y510959D01*
X227923Y511042D01*
X228076Y511125D01*
X228228Y511209D01*
X228353Y511306D01*
X228464Y511389D01*
X228561Y511472D01*
X228644Y511542D01*
X228700Y511597D01*
X228741Y511639D01*
X228769Y511666D01*
X228783Y511680D01*
X228922Y511861D01*
X229047Y512055D01*
X229158Y512263D01*
X229255Y512485D01*
X229324Y512706D01*
X229393Y512928D01*
X229490Y513372D01*
X229518Y513580D01*
X229546Y513760D01*
X229560Y513941D01*
X229574Y514093D01*
X229587Y514218D01*
Y514385D01*
X229574Y514787D01*
X229532Y515147D01*
X229477Y515466D01*
X229421Y515744D01*
X229380Y515868D01*
X229352Y515979D01*
X229324Y516063D01*
X229296Y516146D01*
X229268Y516201D01*
X229255Y516243D01*
X229241Y516271D01*
Y516285D01*
X229102Y516562D01*
X228950Y516798D01*
X228783Y517006D01*
X228631Y517172D01*
X228492Y517311D01*
X228381Y517394D01*
X228298Y517463D01*
X228284Y517477D01*
X228270D01*
X228034Y517616D01*
X227785Y517713D01*
X227549Y517782D01*
X227341Y517824D01*
X227160Y517852D01*
X227022Y517879D01*
X226966D01*
X226925D01*
X226911D01*
X226897D01*
X226689Y517866D01*
X226481Y517838D01*
X226301Y517796D01*
X226120Y517741D01*
X225788Y517602D01*
X225496Y517436D01*
X225371Y517366D01*
X225274Y517283D01*
X225177Y517214D01*
X225094Y517144D01*
X225039Y517089D01*
X224997Y517047D01*
X224969Y517020D01*
X224956Y517006D01*
X224858Y516881D01*
X224761Y516728D01*
X224664Y516576D01*
X224581Y516395D01*
X224415Y516049D01*
X224276Y515688D01*
X224220Y515508D01*
X224165Y515355D01*
X224123Y515203D01*
X224082Y515078D01*
X224054Y514981D01*
X224026Y514898D01*
X224012Y514842D01*
Y514828D01*
X223957Y514607D01*
X223902Y514412D01*
X223860Y514232D01*
X223818Y514066D01*
X223777Y513927D01*
X223749Y513802D01*
X223707Y513691D01*
X223680Y513594D01*
X223666Y513511D01*
X223638Y513442D01*
X223610Y513344D01*
X223582Y513289D01*
Y513275D01*
X223513Y513095D01*
X223444Y512956D01*
X223375Y512831D01*
X223305Y512734D01*
X223250Y512665D01*
X223208Y512623D01*
X223180Y512596D01*
X223166Y512582D01*
X223069Y512512D01*
X222972Y512457D01*
X222875Y512429D01*
X222792Y512401D01*
X222709Y512388D01*
X222639Y512374D01*
X222598D01*
X222584D01*
X222390Y512388D01*
X222223Y512443D01*
X222057Y512526D01*
X221918Y512609D01*
X221807Y512706D01*
X221724Y512776D01*
X221669Y512831D01*
X221655Y512859D01*
X221530Y513053D01*
X221433Y513275D01*
X221364Y513511D01*
X221322Y513733D01*
X221294Y513941D01*
X221266Y514107D01*
Y514260D01*
X221280Y514579D01*
X221336Y514856D01*
X221405Y515092D01*
X221488Y515300D01*
X221572Y515466D01*
X221641Y515577D01*
X221696Y515647D01*
X221710Y515674D01*
X221904Y515855D01*
X222112Y515993D01*
X222348Y516118D01*
X222584Y516201D01*
X222792Y516271D01*
X222958Y516326D01*
X223014Y516340D01*
X223069D01*
X223097Y516354D01*
X223111D01*
X222931Y518240D01*
X222639Y518198D01*
X222362Y518143D01*
X222099Y518060D01*
X221863Y517990D01*
X221641Y517893D01*
X221433Y517796D01*
X221253Y517699D01*
X221086Y517602D01*
X220947Y517505D01*
X220823Y517408D01*
X220712Y517325D01*
X220615Y517242D01*
X220545Y517186D01*
X220504Y517131D01*
X220476Y517103D01*
X220462Y517089D01*
X220310Y516895D01*
X220185Y516687D01*
X220074Y516465D01*
X219977Y516229D01*
X219907Y516007D01*
X219838Y515771D01*
X219741Y515314D01*
X219699Y515106D01*
X219672Y514912D01*
X219658Y514745D01*
X219644Y514593D01*
X219630Y514468D01*
Y518240D01*
X229587D01*
D02*
G37*
G36*
X229407Y509461D02*
X227785D01*
Y506618D01*
X219810D01*
Y509461D01*
D01*
Y501848D01*
D01*
Y504677D01*
X227785D01*
Y501848D01*
X219810D01*
X229407D01*
Y509461D01*
D02*
G37*
G36*
Y501570D02*
X219810D01*
Y491945D01*
D01*
X229407Y495801D01*
Y497854D01*
X219810Y501570D01*
X229407D01*
D02*
G37*
G36*
Y490905D02*
X219810D01*
Y482279D01*
D01*
X221682Y483458D01*
X221877Y483583D01*
X222071Y483708D01*
X222237Y483819D01*
X222390Y483930D01*
X222528Y484027D01*
X222667Y484110D01*
X222875Y484276D01*
X223042Y484401D01*
X223153Y484484D01*
X223222Y484554D01*
X223236Y484567D01*
X223402Y484720D01*
X223555Y484900D01*
X223680Y485067D01*
X223804Y485233D01*
X223902Y485372D01*
X223971Y485483D01*
X224026Y485566D01*
X224040Y485580D01*
Y485594D01*
X224082Y485358D01*
X224137Y485150D01*
X224193Y484956D01*
X224262Y484762D01*
X224331Y484595D01*
X224401Y484443D01*
X224470Y484290D01*
X224553Y484165D01*
X224623Y484054D01*
X224692Y483957D01*
X224761Y483874D01*
X224817Y483819D01*
X224858Y483763D01*
X224900Y483722D01*
X224914Y483708D01*
X224928Y483694D01*
X225066Y483583D01*
X225205Y483486D01*
X225510Y483319D01*
X225801Y483208D01*
X226093Y483139D01*
X226342Y483084D01*
X226439Y483070D01*
X226537D01*
X226606Y483056D01*
X226675D01*
X226703D01*
X226717D01*
X227022Y483070D01*
X227313Y483125D01*
X227563Y483195D01*
X227785Y483264D01*
X227965Y483347D01*
X228104Y483416D01*
X228145Y483444D01*
X228187Y483472D01*
X228201Y483486D01*
X228214D01*
X228450Y483652D01*
X228644Y483833D01*
X228797Y484013D01*
X228936Y484193D01*
X229019Y484360D01*
X229088Y484484D01*
X229130Y484567D01*
X229144Y484581D01*
Y484595D01*
X229185Y484734D01*
X229227Y484887D01*
X229296Y485233D01*
X229338Y485608D01*
X229380Y485968D01*
Y486148D01*
X229393Y486301D01*
Y486454D01*
X229407Y486578D01*
Y490905D01*
D02*
G37*
G36*
Y481905D02*
X227785D01*
Y479062D01*
X219810D01*
Y481905D01*
D01*
Y474291D01*
D01*
Y477120D01*
X227785D01*
Y474291D01*
X219810D01*
X229407D01*
Y481905D01*
D02*
G37*
%LPD*%
G36*
X227174Y496841D02*
X223610Y495496D01*
Y498145D01*
X227174Y496841D01*
D02*
G37*
G36*
X221988Y498727D02*
Y494872D01*
X219810Y494040D01*
Y499518D01*
X221988Y498727D01*
D02*
G37*
G36*
X227785Y486745D02*
X227771Y486620D01*
Y486315D01*
X227757Y486190D01*
Y486107D01*
X227743Y486065D01*
Y486051D01*
X227701Y485885D01*
X227646Y485732D01*
X227591Y485608D01*
X227521Y485511D01*
X227452Y485427D01*
X227410Y485358D01*
X227369Y485330D01*
X227355Y485316D01*
X227244Y485233D01*
X227105Y485164D01*
X226980Y485122D01*
X226855Y485081D01*
X226744Y485067D01*
X226661Y485053D01*
X226606D01*
X226578D01*
X226425Y485067D01*
X226287Y485081D01*
X226162Y485122D01*
X226051Y485150D01*
X225968Y485192D01*
X225912Y485233D01*
X225871Y485247D01*
X225857Y485261D01*
X225760Y485344D01*
X225677Y485427D01*
X225552Y485608D01*
X225510Y485677D01*
X225483Y485746D01*
X225455Y485788D01*
Y485802D01*
X225441Y485871D01*
X225413Y485982D01*
X225399Y486093D01*
X225385Y486218D01*
X225371Y486509D01*
X225358Y486800D01*
X225344Y487078D01*
Y488964D01*
X227785D01*
Y486745D01*
D02*
G37*
G36*
X223818Y488340D02*
X223804Y488146D01*
X223790Y487979D01*
X223763Y487840D01*
X223749Y487729D01*
X223721Y487660D01*
X223707Y487619D01*
Y487605D01*
X223652Y487494D01*
X223596Y487383D01*
X223527Y487286D01*
X223472Y487189D01*
X223402Y487119D01*
X223347Y487064D01*
X223319Y487036D01*
X223305Y487022D01*
X223236Y486967D01*
X223166Y486897D01*
X222958Y486745D01*
X222736Y486578D01*
X222487Y486398D01*
X222265Y486246D01*
X222154Y486176D01*
X222071Y486121D01*
X222001Y486065D01*
X221946Y486024D01*
X221904Y486010D01*
X221891Y485996D01*
X219810Y484609D01*
Y488964D01*
X223818D01*
Y488340D01*
D02*
G37*
%LPC*%
G36*
X487580Y340479D02*
X480618D01*
X480410Y340465D01*
X480202Y340437D01*
X480008Y340409D01*
X479827Y340354D01*
X479508Y340215D01*
X479231Y340076D01*
X479106Y339993D01*
X479009Y339924D01*
X478912Y339855D01*
X478843Y339785D01*
X478787Y339730D01*
X478732Y339702D01*
X478718Y339674D01*
X478704Y339660D01*
X478565Y339508D01*
X478440Y339328D01*
X478343Y339161D01*
X478260Y338967D01*
X478121Y338606D01*
X478024Y338246D01*
X477997Y338079D01*
X477969Y337927D01*
X477955Y337788D01*
X477941Y337663D01*
X477927Y337566D01*
Y334030D01*
Y337428D01*
X477941Y337192D01*
X477955Y336970D01*
X478024Y336540D01*
X478135Y336179D01*
X478191Y336013D01*
X478260Y335860D01*
X478316Y335722D01*
X478385Y335611D01*
X478440Y335500D01*
X478482Y335417D01*
X478537Y335347D01*
X478565Y335306D01*
X478579Y335278D01*
X478593Y335264D01*
X478732Y335112D01*
X478870Y334973D01*
X479037Y334848D01*
X479217Y334737D01*
X479578Y334571D01*
X479924Y334432D01*
X480105Y334390D01*
X480257Y334349D01*
X480396Y334307D01*
X480521Y334293D01*
X480632Y334266D01*
X480701D01*
X480756Y334252D01*
X480770D01*
X480951Y336082D01*
X480673Y336110D01*
X480438Y336166D01*
X480229Y336221D01*
X480077Y336290D01*
X479952Y336346D01*
X479869Y336401D01*
X479813Y336443D01*
X479799Y336457D01*
X479689Y336595D01*
X479605Y336748D01*
X479536Y336901D01*
X479494Y337053D01*
X479467Y337178D01*
X479453Y337289D01*
Y337386D01*
X479467Y337594D01*
X479508Y337774D01*
X479564Y337927D01*
X479619Y338065D01*
X479675Y338163D01*
X479730Y338246D01*
X479772Y338287D01*
X479786Y338301D01*
X479924Y338412D01*
X480077Y338495D01*
X480229Y338551D01*
X480382Y338592D01*
X480521Y338620D01*
X480645Y338634D01*
X480715D01*
X480729D01*
X480743D01*
X480951Y338620D01*
X481145Y338579D01*
X481339Y338509D01*
X481505Y338440D01*
X481658Y338371D01*
X481769Y338301D01*
X481838Y338260D01*
X481866Y338246D01*
X481949Y338190D01*
X482046Y338107D01*
X482171Y337996D01*
X482282Y337885D01*
X482546Y337636D01*
X482809Y337386D01*
X483059Y337136D01*
X483170Y337025D01*
X483253Y336914D01*
X483336Y336831D01*
X483391Y336776D01*
X483433Y336734D01*
X483447Y336720D01*
X483710Y336443D01*
X483960Y336193D01*
X484196Y335957D01*
X484404Y335750D01*
X484612Y335555D01*
X484806Y335389D01*
X484972Y335236D01*
X485139Y335112D01*
X485278Y335001D01*
X485402Y334903D01*
X485499Y334820D01*
X485597Y334765D01*
X485652Y334709D01*
X485708Y334682D01*
X485735Y334654D01*
X485749D01*
X486068Y334474D01*
X486401Y334335D01*
X486706Y334224D01*
X486983Y334141D01*
X487233Y334085D01*
X487330Y334071D01*
X487413Y334058D01*
X487483Y334044D01*
X487538Y334030D01*
X487580D01*
Y340479D01*
D02*
G37*
G36*
Y329342D02*
D01*
Y324696D01*
X483502D01*
Y328704D01*
X481880D01*
Y324696D01*
X479605D01*
Y329342D01*
X487580D01*
X477983D01*
Y322755D01*
X487580D01*
Y329342D01*
D02*
G37*
G36*
X487760Y321229D02*
D01*
Y316583D01*
X487746Y316972D01*
X487705Y317332D01*
X487635Y317679D01*
X487552Y317998D01*
X487455Y318303D01*
X487344Y318580D01*
X487233Y318830D01*
X487108Y319066D01*
X486983Y319260D01*
X486872Y319440D01*
X486762Y319593D01*
X486664Y319718D01*
X486581Y319829D01*
X486512Y319898D01*
X486470Y319939D01*
X486456Y319953D01*
X486193Y320175D01*
X485915Y320369D01*
X485624Y320550D01*
X485333Y320688D01*
X485028Y320813D01*
X484723Y320924D01*
X484418Y321007D01*
X484127Y321077D01*
X483863Y321118D01*
X483600Y321160D01*
X483378Y321188D01*
X483183Y321215D01*
X483017D01*
X482892Y321229D01*
X482795D01*
X482365Y321215D01*
X481963Y321174D01*
X481589Y321118D01*
X481228Y321035D01*
X480909Y320938D01*
X480604Y320827D01*
X480326Y320716D01*
X480091Y320591D01*
X479869Y320466D01*
X479675Y320356D01*
X479508Y320245D01*
X479370Y320148D01*
X479272Y320078D01*
X479189Y320009D01*
X479148Y319967D01*
X479134Y319953D01*
X478898Y319704D01*
X478690Y319440D01*
X478510Y319163D01*
X478357Y318885D01*
X478232Y318594D01*
X478121Y318317D01*
X478038Y318039D01*
X477969Y317776D01*
X477913Y317526D01*
X477872Y317291D01*
X477844Y317083D01*
X477816Y316902D01*
Y316764D01*
X477803Y316653D01*
Y316556D01*
X477816Y316140D01*
X477858Y315737D01*
X477927Y315391D01*
X477997Y315086D01*
X478038Y314961D01*
X478066Y314836D01*
X478094Y314739D01*
X478135Y314656D01*
X478149Y314586D01*
X478177Y314531D01*
X478191Y314503D01*
Y314489D01*
X478302Y314240D01*
X478440Y314004D01*
X478593Y313796D01*
X478732Y313615D01*
X478857Y313463D01*
X478967Y313338D01*
X479037Y313269D01*
X479051Y313255D01*
X479064Y313241D01*
X479286Y313047D01*
X479522Y312867D01*
X479730Y312714D01*
X479938Y312589D01*
X480118Y312492D01*
X480257Y312409D01*
X480313Y312395D01*
X480354Y312367D01*
X480368Y312353D01*
X480382D01*
X480770Y312215D01*
X481186Y312104D01*
X481602Y312034D01*
X481991Y311979D01*
X482171Y311965D01*
X482337Y311951D01*
X482476Y311938D01*
X482601D01*
X482712Y311924D01*
X477803D01*
X487760D01*
Y321229D01*
D02*
G37*
G36*
X487580Y311064D02*
Y308235D01*
X479605D01*
Y311064D01*
X487580D01*
X477983D01*
Y303450D01*
X479605D01*
Y306293D01*
X487580D01*
Y303450D01*
Y311064D01*
D02*
G37*
%LPD*%
G36*
X485874Y336817D02*
X485694Y336928D01*
X485541Y337053D01*
X485472Y337109D01*
X485416Y337150D01*
X485388Y337178D01*
X485375Y337192D01*
X485319Y337247D01*
X485250Y337303D01*
X485097Y337469D01*
X484917Y337649D01*
X484737Y337830D01*
X484570Y338010D01*
X484432Y338163D01*
X484376Y338218D01*
X484334Y338260D01*
X484321Y338287D01*
X484307Y338301D01*
X484016Y338606D01*
X483780Y338856D01*
X483558Y339064D01*
X483391Y339230D01*
X483253Y339355D01*
X483156Y339439D01*
X483086Y339494D01*
X483073Y339508D01*
X482837Y339688D01*
X482615Y339841D01*
X482407Y339966D01*
X482226Y340063D01*
X482074Y340146D01*
X481949Y340201D01*
X481880Y340229D01*
X481852Y340243D01*
X481630Y340326D01*
X481408Y340382D01*
X481200Y340423D01*
X481006Y340451D01*
X480854Y340465D01*
X480729Y340479D01*
X485874D01*
Y336817D01*
D02*
G37*
G36*
X483059Y319218D02*
X483350Y319205D01*
X483613Y319163D01*
X483849Y319121D01*
X484085Y319066D01*
X484293Y318997D01*
X484473Y318927D01*
X484640Y318858D01*
X484792Y318788D01*
X484917Y318719D01*
X485028Y318664D01*
X485125Y318594D01*
X485194Y318553D01*
X485236Y318511D01*
X485264Y318497D01*
X485278Y318483D01*
X485430Y318345D01*
X485555Y318192D01*
X485666Y318026D01*
X485763Y317873D01*
X485832Y317707D01*
X485902Y317554D01*
X485999Y317249D01*
X486068Y316985D01*
X486082Y316875D01*
X486096Y316777D01*
X486110Y316694D01*
Y316583D01*
X486096Y316375D01*
X486068Y316167D01*
X486026Y315973D01*
X485971Y315793D01*
X485846Y315460D01*
X485680Y315196D01*
X485610Y315072D01*
X485527Y314975D01*
X485458Y314878D01*
X485388Y314808D01*
X485347Y314753D01*
X485305Y314711D01*
X485278Y314683D01*
X485264Y314669D01*
X485097Y314545D01*
X484917Y314420D01*
X484723Y314323D01*
X484515Y314240D01*
X484113Y314101D01*
X483710Y314018D01*
X483516Y313990D01*
X483350Y313962D01*
X483183Y313948D01*
X483045Y313934D01*
X482934Y313921D01*
X482851D01*
X482795D01*
X482781D01*
X482476Y313934D01*
X482199Y313948D01*
X481935Y313990D01*
X481686Y314032D01*
X481464Y314087D01*
X481256Y314142D01*
X481075Y314212D01*
X480909Y314281D01*
X480756Y314351D01*
X480632Y314420D01*
X480535Y314475D01*
X480438Y314531D01*
X480368Y314572D01*
X480326Y314614D01*
X480299Y314628D01*
X480285Y314642D01*
X480132Y314781D01*
X480008Y314933D01*
X479897Y315099D01*
X479799Y315252D01*
X479716Y315418D01*
X479661Y315585D01*
X479550Y315890D01*
X479494Y316167D01*
X479481Y316278D01*
X479467Y316389D01*
X479453Y316472D01*
Y316583D01*
X479467Y316805D01*
X479494Y317013D01*
X479522Y317207D01*
X479578Y317388D01*
X479716Y317707D01*
X479786Y317859D01*
X479855Y317984D01*
X479938Y318109D01*
X480008Y318206D01*
X480077Y318289D01*
X480146Y318372D01*
X480202Y318428D01*
X480229Y318470D01*
X480257Y318483D01*
X480271Y318497D01*
X480438Y318622D01*
X480618Y318747D01*
X480798Y318844D01*
X481006Y318927D01*
X481422Y319052D01*
X481824Y319135D01*
X482005Y319177D01*
X482185Y319191D01*
X482337Y319205D01*
X482476Y319218D01*
X482601Y319232D01*
X482684D01*
X482740D01*
X482753D01*
X483059Y319218D01*
D02*
G37*
G36*
X487760Y311924D02*
X482851D01*
X483267Y311938D01*
X483669Y311979D01*
X484043Y312034D01*
X484390Y312118D01*
X484709Y312215D01*
X485000Y312326D01*
X485278Y312437D01*
X485513Y312561D01*
X485735Y312673D01*
X485915Y312783D01*
X486082Y312894D01*
X486221Y312991D01*
X486318Y313075D01*
X486401Y313130D01*
X486442Y313172D01*
X486456Y313186D01*
X486692Y313435D01*
X486886Y313699D01*
X487067Y313962D01*
X487205Y314254D01*
X487330Y314531D01*
X487441Y314822D01*
X487524Y315086D01*
X487594Y315363D01*
X487649Y315613D01*
X487691Y315848D01*
X487718Y316056D01*
X487732Y316237D01*
X487746Y316375D01*
X487760Y316486D01*
Y311924D01*
D02*
G37*
%LPC*%
G36*
X324604Y582331D02*
Y582303D01*
D01*
Y582331D01*
D02*
G37*
G36*
Y578361D02*
Y578333D01*
D01*
Y578361D01*
D02*
G37*
G36*
Y578194D02*
Y578083D01*
D01*
Y578194D01*
D02*
G37*
G36*
X362555Y585912D02*
X354893D01*
X358669D01*
Y575252D01*
Y574835D01*
Y574447D01*
X358641Y574086D01*
Y573753D01*
X358613Y573475D01*
Y573197D01*
X358585Y572947D01*
Y572725D01*
X358530Y572392D01*
X358502Y572142D01*
X358474Y572004D01*
Y571948D01*
X358391Y571587D01*
X358252Y571282D01*
X358086Y571004D01*
X357919Y570754D01*
X357752Y570560D01*
X357614Y570421D01*
X357503Y570338D01*
X357475Y570310D01*
X357142Y570088D01*
X356725Y569921D01*
X356337Y569810D01*
X355920Y569727D01*
X355559Y569672D01*
X355281Y569644D01*
X355004D01*
X354421Y569672D01*
X353921Y569755D01*
X353477Y569866D01*
X353088Y570005D01*
X352811Y570116D01*
X352589Y570227D01*
X352478Y570310D01*
X352422Y570338D01*
X352117Y570615D01*
X351867Y570948D01*
X351645Y571254D01*
X351506Y571559D01*
X351395Y571837D01*
X351311Y572059D01*
X351256Y572198D01*
Y572253D01*
X351228Y572420D01*
X351200Y572587D01*
Y572809D01*
X351173Y573058D01*
X351145Y573586D01*
Y574141D01*
X351117Y574641D01*
Y574863D01*
Y575085D01*
Y575252D01*
Y575363D01*
Y575446D01*
Y575474D01*
Y585912D01*
X347230D01*
Y575057D01*
X347258Y574502D01*
Y573975D01*
X347286Y573503D01*
X347314Y573058D01*
X347341Y572670D01*
X347369Y572309D01*
X347425Y571976D01*
X347453Y571698D01*
X347480Y571448D01*
X347508Y571226D01*
X347536Y571060D01*
X347564Y570921D01*
Y570838D01*
X347591Y570782D01*
Y570754D01*
X347730Y570338D01*
X347869Y569949D01*
X348063Y569588D01*
X348230Y569283D01*
X348396Y569005D01*
X348535Y568783D01*
X348646Y568672D01*
X348674Y568616D01*
X349007Y568256D01*
X349368Y567922D01*
X349757Y567645D01*
X350118Y567395D01*
X350423Y567201D01*
X350701Y567062D01*
X350867Y566978D01*
X350895Y566951D01*
X350923D01*
X351200Y566840D01*
X351506Y566756D01*
X352200Y566590D01*
X352894Y566479D01*
X353560Y566423D01*
X353866Y566395D01*
X354171Y566368D01*
X354421D01*
X354671Y566340D01*
X355115D01*
X355920Y566368D01*
X356642Y566423D01*
X357280Y566534D01*
X357808Y566645D01*
X358030Y566673D01*
X358252Y566729D01*
X358419Y566784D01*
X358558Y566840D01*
X358669Y566867D01*
X358752Y566895D01*
X358780Y566923D01*
X358807D01*
X359307Y567145D01*
X359751Y567423D01*
X360140Y567673D01*
X360473Y567922D01*
X360723Y568144D01*
X360917Y568311D01*
X361028Y568422D01*
X361056Y568478D01*
X361362Y568866D01*
X361611Y569283D01*
X361806Y569672D01*
X361972Y570060D01*
X362083Y570393D01*
X362167Y570671D01*
X362194Y570754D01*
Y570838D01*
X362222Y570865D01*
Y570893D01*
X362278Y571198D01*
X362333Y571531D01*
X362389Y571892D01*
X362416Y572253D01*
X362472Y573086D01*
X362528Y573891D01*
Y574252D01*
Y574613D01*
X362555Y574946D01*
Y566867D01*
Y585912D01*
D02*
G37*
G36*
X343177D02*
X335515D01*
X339291D01*
Y575252D01*
Y574835D01*
Y574447D01*
X339263Y574086D01*
Y573753D01*
X339235Y573475D01*
Y573197D01*
X339207Y572947D01*
Y572725D01*
X339152Y572392D01*
X339124Y572142D01*
X339096Y572004D01*
Y571948D01*
X339013Y571587D01*
X338874Y571282D01*
X338708Y571004D01*
X338541Y570754D01*
X338374Y570560D01*
X338236Y570421D01*
X338125Y570338D01*
X338097Y570310D01*
X337764Y570088D01*
X337347Y569921D01*
X336959Y569810D01*
X336542Y569727D01*
X336181Y569672D01*
X335904Y569644D01*
X335626D01*
X335043Y569672D01*
X334543Y569755D01*
X334099Y569866D01*
X333710Y570005D01*
X333433Y570116D01*
X333211Y570227D01*
X333100Y570310D01*
X333044Y570338D01*
X332739Y570615D01*
X332489Y570948D01*
X332267Y571254D01*
X332128Y571559D01*
X332017Y571837D01*
X331934Y572059D01*
X331878Y572198D01*
Y572253D01*
X331850Y572420D01*
X331823Y572587D01*
Y572809D01*
X331795Y573058D01*
X331767Y573586D01*
Y574141D01*
X331739Y574641D01*
Y574863D01*
Y575085D01*
Y575252D01*
Y575363D01*
Y575446D01*
Y575474D01*
Y585912D01*
X327853D01*
Y575057D01*
X327880Y574502D01*
Y573975D01*
X327908Y573503D01*
X327936Y573058D01*
X327963Y572670D01*
X327991Y572309D01*
X328047Y571976D01*
X328075Y571698D01*
X328102Y571448D01*
X328130Y571226D01*
X328158Y571060D01*
X328186Y570921D01*
Y570838D01*
X328213Y570782D01*
Y570754D01*
X328352Y570338D01*
X328491Y569949D01*
X328685Y569588D01*
X328852Y569283D01*
X329019Y569005D01*
X329157Y568783D01*
X329268Y568672D01*
X329296Y568616D01*
X329629Y568256D01*
X329990Y567922D01*
X330379Y567645D01*
X330740Y567395D01*
X331045Y567201D01*
X331323Y567062D01*
X331489Y566978D01*
X331517Y566951D01*
X331545D01*
X331823Y566840D01*
X332128Y566756D01*
X332822Y566590D01*
X333516Y566479D01*
X334182Y566423D01*
X334488Y566395D01*
X334793Y566368D01*
X335043D01*
X335293Y566340D01*
X335737D01*
X336542Y566368D01*
X337264Y566423D01*
X337902Y566534D01*
X338430Y566645D01*
X338652Y566673D01*
X338874Y566729D01*
X339041Y566784D01*
X339179Y566840D01*
X339291Y566867D01*
X339374Y566895D01*
X339402Y566923D01*
X339429D01*
X339929Y567145D01*
X340373Y567423D01*
X340762Y567673D01*
X341095Y567922D01*
X341345Y568144D01*
X341539Y568311D01*
X341650Y568422D01*
X341678Y568478D01*
X341983Y568866D01*
X342233Y569283D01*
X342428Y569672D01*
X342594Y570060D01*
X342705Y570393D01*
X342789Y570671D01*
X342816Y570754D01*
Y570838D01*
X342844Y570865D01*
Y570893D01*
X342900Y571198D01*
X342955Y571531D01*
X343011Y571892D01*
X343038Y572253D01*
X343094Y573086D01*
X343149Y573891D01*
Y574252D01*
Y574613D01*
X343177Y574946D01*
Y568811D01*
Y574946D01*
Y585912D01*
D02*
G37*
G36*
X457530Y586023D02*
X444759D01*
D01*
X450950D01*
X450367Y585996D01*
X449840Y585940D01*
X449340Y585829D01*
X448923Y585718D01*
X448590Y585607D01*
X448313Y585496D01*
X448146Y585440D01*
X448118Y585413D01*
X448091D01*
X447646Y585163D01*
X447230Y584885D01*
X446897Y584608D01*
X446619Y584358D01*
X446397Y584108D01*
X446231Y583913D01*
X446119Y583802D01*
X446092Y583747D01*
X445842Y583330D01*
X445620Y582886D01*
X445453Y582414D01*
X445287Y581970D01*
X445176Y581554D01*
X445092Y581248D01*
X445065Y581110D01*
Y581026D01*
X445037Y580971D01*
Y580943D01*
X448424Y580388D01*
X448507Y580832D01*
X448618Y581221D01*
X448729Y581554D01*
X448868Y581804D01*
X449007Y582026D01*
X449118Y582192D01*
X449201Y582276D01*
X449229Y582303D01*
X449479Y582525D01*
X449756Y582692D01*
X450034Y582803D01*
X450284Y582886D01*
X450506Y582942D01*
X450672Y582970D01*
X450839D01*
X451172Y582942D01*
X451505Y582886D01*
X451755Y582775D01*
X451977Y582692D01*
X452172Y582581D01*
X452283Y582470D01*
X452366Y582414D01*
X452394Y582387D01*
X452588Y582164D01*
X452727Y581887D01*
X452838Y581637D01*
X452893Y581387D01*
X452949Y581165D01*
X452977Y580998D01*
Y580887D01*
Y580832D01*
X452949Y580415D01*
X452866Y580055D01*
X452727Y579749D01*
X452588Y579499D01*
X452421Y579277D01*
X452310Y579138D01*
X452199Y579027D01*
X452172Y579000D01*
X451838Y578778D01*
X451478Y578611D01*
X451089Y578500D01*
X450728Y578417D01*
X450395Y578389D01*
X450117Y578361D01*
X449867D01*
X449479Y575391D01*
X449840Y575474D01*
X450145Y575557D01*
X450450Y575613D01*
X450700Y575640D01*
X450895Y575668D01*
X451172D01*
X451561Y575640D01*
X451894Y575529D01*
X452199Y575418D01*
X452477Y575252D01*
X452671Y575113D01*
X452838Y574974D01*
X452949Y574863D01*
X452977Y574835D01*
X453227Y574502D01*
X453421Y574141D01*
X453560Y573780D01*
X453671Y573419D01*
X453726Y573086D01*
X453754Y572836D01*
Y572670D01*
Y572642D01*
Y572614D01*
X453726Y572087D01*
X453643Y571615D01*
X453504Y571198D01*
X453365Y570865D01*
X453199Y570615D01*
X453088Y570421D01*
X452977Y570282D01*
X452949Y570255D01*
X452644Y569977D01*
X452310Y569755D01*
X452005Y569616D01*
X451700Y569505D01*
X451422Y569449D01*
X451228Y569422D01*
X451089Y569394D01*
X451033D01*
X450645Y569422D01*
X450312Y569505D01*
X450006Y569616D01*
X449729Y569755D01*
X449534Y569866D01*
X449368Y569977D01*
X449257Y570060D01*
X449229Y570088D01*
X448979Y570393D01*
X448757Y570726D01*
X448618Y571087D01*
X448479Y571421D01*
X448396Y571726D01*
X448340Y571976D01*
X448313Y572142D01*
Y572170D01*
Y572198D01*
X444759Y571754D01*
X444815Y571309D01*
X444926Y570893D01*
X445176Y570116D01*
X445481Y569449D01*
X445675Y569172D01*
X445842Y568894D01*
X446008Y568644D01*
X446175Y568450D01*
X446314Y568256D01*
X446453Y568117D01*
X446564Y568006D01*
X446647Y567923D01*
X446702Y567867D01*
X446730Y567839D01*
X447063Y567589D01*
X447424Y567340D01*
X447757Y567145D01*
X448146Y566978D01*
X448868Y566701D01*
X449534Y566534D01*
X449867Y566479D01*
X450145Y566423D01*
X450395Y566395D01*
X450617Y566368D01*
X450811Y566340D01*
X451061D01*
X451561Y566368D01*
X452061Y566423D01*
X452505Y566507D01*
X452949Y566618D01*
X453338Y566756D01*
X453726Y566895D01*
X454087Y567062D01*
X454393Y567228D01*
X454670Y567395D01*
X454948Y567562D01*
X455142Y567700D01*
X455336Y567839D01*
X455475Y567950D01*
X455586Y568033D01*
X455642Y568089D01*
X455670Y568117D01*
X456003Y568450D01*
X456280Y568811D01*
X456530Y569172D01*
X456752Y569533D01*
X456919Y569921D01*
X457085Y570282D01*
X457308Y570948D01*
X457363Y571254D01*
X457419Y571559D01*
X457474Y571809D01*
X457502Y572031D01*
X457530Y572198D01*
Y566978D01*
Y572448D01*
X457474Y573086D01*
X457363Y573642D01*
X457224Y574169D01*
X457030Y574585D01*
X456836Y574946D01*
X456697Y575196D01*
X456586Y575363D01*
X456530Y575418D01*
X456142Y575835D01*
X455697Y576196D01*
X455253Y576473D01*
X454837Y576695D01*
X454476Y576862D01*
X454170Y576945D01*
X454059Y577001D01*
X453976D01*
X453921Y577029D01*
X453893D01*
X454393Y577334D01*
X454809Y577639D01*
X455170Y577972D01*
X455503Y578306D01*
X455781Y578639D01*
X456003Y578972D01*
X456169Y579305D01*
X456336Y579610D01*
X456447Y579916D01*
X456530Y580193D01*
X456586Y580443D01*
X456614Y580665D01*
X456641Y580832D01*
X456669Y580971D01*
Y581054D01*
Y581082D01*
X456641Y581415D01*
X456614Y581720D01*
X456447Y582331D01*
X456253Y582886D01*
X456003Y583358D01*
X455753Y583747D01*
X455531Y584025D01*
X455448Y584136D01*
X455364Y584219D01*
X455336Y584247D01*
X455309Y584274D01*
X455003Y584580D01*
X454642Y584857D01*
X454309Y585079D01*
X453948Y585274D01*
X453560Y585468D01*
X453199Y585607D01*
X452505Y585801D01*
X452199Y585885D01*
X451894Y585940D01*
X451644Y585968D01*
X451394Y585996D01*
X451200Y586023D01*
X457530D01*
D02*
G37*
G36*
X443760Y585912D02*
D01*
Y566701D01*
X436930D01*
X443760Y585912D01*
X439623D01*
X434931Y571698D01*
X430045Y585912D01*
X425853D01*
X432738Y566701D01*
X425853D01*
X443760D01*
Y585912D01*
D02*
G37*
G36*
X407919Y585774D02*
X404032D01*
Y566701D01*
X417580D01*
Y569977D01*
Y569949D01*
X407919D01*
Y585774D01*
D02*
G37*
G36*
X400645Y585912D02*
X386042D01*
Y566701D01*
X400645D01*
Y570060D01*
Y569949D01*
X389929D01*
Y575168D01*
X399562D01*
Y578417D01*
X389929D01*
Y582664D01*
X400284D01*
Y585912D01*
X400645D01*
D01*
D02*
G37*
G36*
X375104Y585912D02*
X366664D01*
Y566701D01*
X374993D01*
X375465Y566729D01*
X376297D01*
X376631Y566756D01*
X377158D01*
X377352Y566784D01*
X377630D01*
X377741Y566812D01*
X377852D01*
X378407Y566895D01*
X378907Y567034D01*
X379351Y567173D01*
X379740Y567339D01*
X380045Y567478D01*
X380267Y567617D01*
X380406Y567700D01*
X380462Y567728D01*
X380850Y568033D01*
X381156Y568367D01*
X381461Y568672D01*
X381683Y569005D01*
X381878Y569283D01*
X382016Y569505D01*
X382100Y569644D01*
X382128Y569699D01*
X382322Y570171D01*
X382489Y570615D01*
X382599Y571060D01*
X382655Y571448D01*
X382711Y571781D01*
X382738Y572031D01*
Y572253D01*
X382711Y572864D01*
X382599Y573419D01*
X382433Y573891D01*
X382266Y574336D01*
X382100Y574669D01*
X381933Y574919D01*
X381822Y575085D01*
X381794Y575141D01*
X381406Y575585D01*
X380989Y575946D01*
X380517Y576251D01*
X380101Y576473D01*
X379712Y576668D01*
X379379Y576806D01*
X379268Y576834D01*
X379185Y576862D01*
X379129Y576890D01*
X379101D01*
X379546Y577140D01*
X379934Y577389D01*
X380267Y577695D01*
X380545Y577945D01*
X380740Y578194D01*
X380906Y578389D01*
X381017Y578528D01*
X381045Y578583D01*
X381295Y579027D01*
X381489Y579444D01*
X381600Y579860D01*
X381711Y580249D01*
X381767Y580582D01*
X381794Y580832D01*
Y580998D01*
Y581026D01*
Y581054D01*
X381767Y581498D01*
X381711Y581942D01*
X381600Y582303D01*
X381489Y582636D01*
X381378Y582914D01*
X381267Y583136D01*
X381211Y583247D01*
X381184Y583303D01*
X380962Y583664D01*
X380712Y583969D01*
X380462Y584247D01*
X380240Y584496D01*
X380018Y584663D01*
X379851Y584802D01*
X379740Y584885D01*
X379712Y584913D01*
X379379Y585135D01*
X379018Y585302D01*
X378685Y585440D01*
X378380Y585551D01*
X378102Y585635D01*
X377908Y585690D01*
X377769Y585718D01*
X377713D01*
X377241Y585774D01*
X376714Y585829D01*
X376159Y585857D01*
X375603Y585885D01*
X375104Y585912D01*
D02*
G37*
G36*
X316192D02*
X308530D01*
Y566701D01*
X315804D01*
X316553Y566729D01*
X317247Y566756D01*
X317830Y566812D01*
X318302Y566895D01*
X318691Y566978D01*
X318996Y567034D01*
X319080Y567062D01*
X319163D01*
X319191Y567090D01*
X319218D01*
X319829Y567312D01*
X320384Y567561D01*
X320829Y567811D01*
X321217Y568061D01*
X321523Y568283D01*
X321745Y568450D01*
X321884Y568561D01*
X321939Y568616D01*
X322411Y569144D01*
X322827Y569699D01*
X323188Y570282D01*
X323466Y570810D01*
X323688Y571309D01*
X323799Y571504D01*
X323855Y571670D01*
X323910Y571837D01*
X323966Y571948D01*
X323993Y572004D01*
Y572031D01*
X324188Y572697D01*
X324354Y573392D01*
X324465Y574058D01*
X324521Y574696D01*
X324549Y575002D01*
X324576Y575279D01*
Y575502D01*
X324604Y575724D01*
Y576112D01*
X324576Y577084D01*
X324493Y577945D01*
X324465Y578361D01*
X324410Y578722D01*
X324354Y579083D01*
X324299Y579388D01*
X324216Y579666D01*
X324160Y579916D01*
X324105Y580138D01*
X324077Y580304D01*
X324021Y580443D01*
X323993Y580554D01*
X323966Y580610D01*
Y580638D01*
X323716Y581304D01*
X323410Y581915D01*
X323105Y582442D01*
X322800Y582886D01*
X322550Y583247D01*
X322328Y583525D01*
X322189Y583691D01*
X322161Y583747D01*
X322133D01*
X321661Y584191D01*
X321190Y584552D01*
X320690Y584857D01*
X320246Y585107D01*
X319857Y585302D01*
X319524Y585440D01*
X319413Y585468D01*
X319329Y585496D01*
X319274Y585524D01*
X319246D01*
X318719Y585662D01*
X318136Y585746D01*
X317525Y585829D01*
X316942Y585857D01*
X316415Y585885D01*
X316192Y585912D01*
D02*
G37*
%LPD*%
G36*
X374715Y582692D02*
X375437D01*
X375603Y582664D01*
X375909D01*
X376020Y582636D01*
X376048D01*
X376381Y582581D01*
X376686Y582498D01*
X376936Y582387D01*
X377158Y582276D01*
X377297Y582164D01*
X377436Y582053D01*
X377491Y581998D01*
X377519Y581970D01*
X377686Y581748D01*
X377797Y581498D01*
X377908Y581276D01*
X377963Y581054D01*
X377991Y580832D01*
X378019Y580665D01*
Y580554D01*
Y580527D01*
X377991Y580193D01*
X377935Y579888D01*
X377824Y579638D01*
X377741Y579416D01*
X377630Y579222D01*
X377519Y579111D01*
X377463Y579027D01*
X377436Y579000D01*
X377214Y578805D01*
X376964Y578666D01*
X376714Y578555D01*
X376464Y578472D01*
X376214Y578389D01*
X376048Y578361D01*
X375937Y578333D01*
X375770D01*
X375603Y578306D01*
X374743D01*
X374271Y578278D01*
X370551D01*
Y582720D01*
X374410D01*
X374715Y582692D01*
D02*
G37*
G36*
X374965Y575057D02*
X375298Y575030D01*
X375631D01*
X375909Y575002D01*
X376159Y574974D01*
X376353Y574946D01*
X376547Y574919D01*
X376686Y574891D01*
X376908Y574863D01*
X377047Y574808D01*
X377075D01*
X377352Y574696D01*
X377602Y574558D01*
X377824Y574419D01*
X377991Y574252D01*
X378130Y574141D01*
X378213Y574030D01*
X378269Y573947D01*
X378296Y573919D01*
X378435Y573669D01*
X378546Y573419D01*
X378629Y573197D01*
X378685Y572947D01*
X378713Y572753D01*
X378741Y572587D01*
Y572475D01*
Y572448D01*
X378713Y572087D01*
X378657Y571754D01*
X378574Y571476D01*
X378463Y571254D01*
X378352Y571060D01*
X378269Y570921D01*
X378213Y570838D01*
X378185Y570810D01*
X377963Y570615D01*
X377741Y570449D01*
X377491Y570310D01*
X377269Y570199D01*
X377075Y570143D01*
X376908Y570088D01*
X376797Y570060D01*
X376769D01*
X376658Y570032D01*
X376492D01*
X376131Y570005D01*
X375687Y569977D01*
X375243D01*
X374826Y569949D01*
X370551D01*
Y575085D01*
X374576D01*
X374965Y575057D01*
D02*
G37*
G36*
X315304Y582636D02*
X315637D01*
X315915Y582609D01*
X316165D01*
X316415Y582581D01*
X316609D01*
X316914Y582525D01*
X317136Y582498D01*
X317275Y582470D01*
X317303D01*
X317691Y582359D01*
X318025Y582220D01*
X318330Y582081D01*
X318608Y581915D01*
X318802Y581776D01*
X318969Y581665D01*
X319052Y581581D01*
X319080Y581554D01*
X319329Y581276D01*
X319552Y580971D01*
X319746Y580665D01*
X319912Y580388D01*
X320023Y580110D01*
X320107Y579888D01*
X320162Y579749D01*
X320190Y579721D01*
Y579694D01*
X320329Y579194D01*
X320440Y578666D01*
X320495Y578083D01*
X320551Y577528D01*
X320579Y577056D01*
X320606Y576834D01*
Y576640D01*
Y576501D01*
Y576390D01*
Y576307D01*
Y576279D01*
X320579Y575502D01*
X320551Y574780D01*
X320468Y574197D01*
X320412Y573697D01*
X320329Y573280D01*
X320301Y573114D01*
X320246Y573003D01*
X320218Y572892D01*
Y572809D01*
X320190Y572781D01*
Y572753D01*
X320023Y572309D01*
X319885Y571920D01*
X319690Y571615D01*
X319552Y571365D01*
X319413Y571171D01*
X319302Y571032D01*
X319218Y570948D01*
X319191Y570921D01*
X318941Y570726D01*
X318691Y570560D01*
X318441Y570421D01*
X318191Y570310D01*
X317969Y570227D01*
X317803Y570171D01*
X317691Y570116D01*
X317636D01*
X317331Y570060D01*
X316970Y570032D01*
X316581Y569977D01*
X316192D01*
X315831Y569949D01*
X312417D01*
Y582664D01*
X314943D01*
X315304Y582636D01*
D02*
G37*
%LPC*%
G36*
X329768Y171196D02*
X328270D01*
X328131Y170877D01*
X327951Y170586D01*
X327757Y170309D01*
X327563Y170087D01*
X327397Y169906D01*
X327244Y169768D01*
X327188Y169712D01*
X327147Y169671D01*
X327119Y169657D01*
X327105Y169643D01*
X326800Y169421D01*
X326509Y169227D01*
X326245Y169074D01*
X326010Y168963D01*
X325816Y168880D01*
X325677Y168811D01*
X325621Y168797D01*
X325580Y168783D01*
X325566Y168769D01*
X325552D01*
Y167105D01*
X326051Y167299D01*
X326495Y167507D01*
X326703Y167618D01*
X326897Y167743D01*
X327077Y167854D01*
X327244Y167965D01*
X327397Y168076D01*
X327535Y168173D01*
X327646Y168256D01*
X327743Y168339D01*
X327826Y168409D01*
X327882Y168450D01*
X327910Y168478D01*
X327924Y168492D01*
Y161544D01*
X329768D01*
Y171196D01*
D02*
G37*
G36*
X277172D02*
X277033D01*
X276798Y171182D01*
X276576Y171168D01*
X276146Y171099D01*
X275785Y170988D01*
X275619Y170933D01*
X275466Y170863D01*
X275327Y170808D01*
X275217Y170739D01*
X275106Y170683D01*
X275022Y170641D01*
X274953Y170586D01*
X274911Y170558D01*
X274884Y170544D01*
X274870Y170530D01*
X274717Y170392D01*
X274579Y170253D01*
X274454Y170087D01*
X274343Y169906D01*
X274177Y169546D01*
X274038Y169199D01*
X273996Y169019D01*
X273955Y168866D01*
X273913Y168728D01*
X273899Y168603D01*
X273871Y168492D01*
Y168423D01*
X273857Y168367D01*
Y168353D01*
X275688Y168173D01*
X275716Y168450D01*
X275771Y168686D01*
X275827Y168894D01*
X275896Y169047D01*
X275952Y169171D01*
X276007Y169255D01*
X276049Y169310D01*
X276063Y169324D01*
X276201Y169435D01*
X276354Y169518D01*
X276506Y169587D01*
X276659Y169629D01*
X276784Y169657D01*
X276895Y169671D01*
X276992D01*
X277200Y169657D01*
X277380Y169615D01*
X277533Y169560D01*
X277671Y169504D01*
X277768Y169449D01*
X277852Y169393D01*
X277893Y169352D01*
X277907Y169338D01*
X278018Y169199D01*
X278101Y169047D01*
X278157Y168894D01*
X278198Y168741D01*
X278226Y168603D01*
X278240Y168478D01*
Y168409D01*
Y168395D01*
Y168381D01*
X278226Y168173D01*
X278184Y167979D01*
X278115Y167785D01*
X278046Y167618D01*
X277976Y167466D01*
X277907Y167355D01*
X277866Y167285D01*
X277852Y167258D01*
X277796Y167174D01*
X277713Y167077D01*
X277602Y166952D01*
X277491Y166842D01*
X277241Y166578D01*
X276992Y166315D01*
X276742Y166065D01*
X276631Y165954D01*
X276520Y165871D01*
X276437Y165788D01*
X276381Y165732D01*
X276340Y165690D01*
X276326Y165677D01*
X276049Y165413D01*
X275799Y165163D01*
X275563Y164928D01*
X275355Y164720D01*
X275161Y164512D01*
X274995Y164317D01*
X274842Y164151D01*
X274717Y163985D01*
X274606Y163846D01*
X274509Y163721D01*
X274426Y163624D01*
X274371Y163527D01*
X274315Y163472D01*
X274287Y163416D01*
X274260Y163388D01*
Y163374D01*
X274079Y163055D01*
X273941Y162723D01*
X273830Y162418D01*
X273746Y162140D01*
X273691Y161891D01*
X273677Y161793D01*
X273663Y161710D01*
X273650Y161641D01*
X273636Y161585D01*
Y161544D01*
X280084D01*
Y163250D01*
X276423D01*
X276534Y163430D01*
X276659Y163582D01*
X276714Y163652D01*
X276756Y163707D01*
X276784Y163735D01*
X276798Y163749D01*
X276853Y163804D01*
X276908Y163874D01*
X277075Y164026D01*
X277255Y164207D01*
X277435Y164387D01*
X277616Y164553D01*
X277768Y164692D01*
X277824Y164747D01*
X277866Y164789D01*
X277893Y164803D01*
X277907Y164817D01*
X278212Y165108D01*
X278462Y165344D01*
X278670Y165566D01*
X278836Y165732D01*
X278961Y165871D01*
X279044Y165968D01*
X279100Y166037D01*
X279114Y166051D01*
X279294Y166287D01*
X279447Y166509D01*
X279571Y166717D01*
X279668Y166897D01*
X279752Y167050D01*
X279807Y167174D01*
X279835Y167244D01*
X279849Y167271D01*
X279932Y167493D01*
X279987Y167715D01*
X280029Y167923D01*
X280057Y168117D01*
X280070Y168270D01*
X280084Y168395D01*
Y168506D01*
X280070Y168714D01*
X280043Y168922D01*
X280015Y169116D01*
X279960Y169296D01*
X279821Y169615D01*
X279682Y169893D01*
X279599Y170017D01*
X279530Y170114D01*
X279460Y170212D01*
X279391Y170281D01*
X279335Y170336D01*
X279308Y170392D01*
X279280Y170406D01*
X279266Y170420D01*
X279114Y170558D01*
X278933Y170683D01*
X278767Y170780D01*
X278573Y170863D01*
X278212Y171002D01*
X277852Y171099D01*
X277685Y171127D01*
X277533Y171155D01*
X277394Y171168D01*
X277269Y171182D01*
X277172Y171196D01*
D02*
G37*
%LPD*%
D10*
X341100Y455650D02*
G03*
X341100Y455650I-3000J0D01*
G01*
D11*
X316350Y472650D02*
G03*
X316350Y472650I-1250J0D01*
G01*
X277582Y471688D02*
G03*
X277582Y471688I-1250J0D01*
G01*
X433310Y373380D02*
G03*
X433310Y373380I-1250J0D01*
G01*
X280760Y584940D02*
G03*
X280760Y584940I-1250J0D01*
G01*
X248380Y199391D02*
G03*
X248380Y199391I-1250J0D01*
G01*
X196430Y434020D02*
G03*
X196430Y434020I-1250J0D01*
G01*
X433310Y519430D02*
G03*
X433310Y519430I-1250J0D01*
G01*
D12*
X202819Y362540D02*
G03*
X202819Y362540I-3810J0D01*
G01*
D13*
X328100Y410650D02*
X383100D01*
X328100Y465650D02*
X383100D01*
Y410650D02*
Y465650D01*
X328100Y410650D02*
Y465650D01*
X214832Y458988D02*
Y535188D01*
X189432D02*
X214832D01*
X189432Y458988D02*
Y535188D01*
Y458988D02*
X214832D01*
X381941Y217809D02*
Y241931D01*
X364819Y217809D02*
Y241931D01*
X492110Y388630D02*
X518810D01*
X492110Y256530D02*
X518810D01*
X492110D02*
Y388630D01*
X518810Y256530D02*
Y388630D01*
X353465Y536019D02*
X377123D01*
X353465Y553641D02*
X377123D01*
X304401Y536019D02*
X328059D01*
X304401Y553641D02*
X328059D01*
X403461Y536019D02*
X427119D01*
X403461Y553641D02*
X427119D01*
X262510Y556440D02*
X278510D01*
X262510Y578940D02*
X278510D01*
X130130Y213191D02*
X189380D01*
X130130Y206791D02*
X189380D01*
X130130D02*
Y213191D01*
Y238591D02*
X189380D01*
X130130Y232191D02*
X189380D01*
X130130D02*
Y238591D01*
Y263991D02*
X189380D01*
X130130Y257591D02*
X189380D01*
X130130D02*
Y263991D01*
X189380Y274991D02*
X230880D01*
X189380Y195791D02*
Y274991D01*
Y195791D02*
X230880D01*
Y274991D01*
X219710Y444020D02*
X260350D01*
X219710Y384020D02*
Y385170D01*
Y442870D02*
Y444020D01*
Y384020D02*
X260350D01*
Y385170D01*
Y442870D02*
Y444020D01*
X278351Y325269D02*
X307513D01*
X278351Y347831D02*
X307513D01*
X399419Y358469D02*
X423541D01*
X399419Y375591D02*
X423541D01*
X302618Y528741D02*
X329842D01*
X302618Y510119D02*
X329842D01*
X280959Y359739D02*
X305081D01*
X280959Y376861D02*
X305081D01*
X518810Y402580D02*
Y534680D01*
X492110Y402580D02*
Y534680D01*
Y402580D02*
X518810D01*
X492110Y534680D02*
X518810D01*
X475851Y200739D02*
X499509D01*
X475851Y218361D02*
X499509D01*
D14*
X216789Y347923D02*
Y355657D01*
Y370078D02*
X263271D01*
Y347923D02*
Y355657D01*
X216789Y333502D02*
X263271D01*
D15*
X504237Y232264D02*
Y240264D01*
D16*
X240030Y596900D02*
X467360Y597171D01*
X518963Y545843D02*
X519430Y185420D01*
X189230Y184150D02*
X189584Y546063D01*
X240030Y133350D02*
X467360D01*
D17*
X200237Y337821D02*
X199391Y336974D01*
Y335282D01*
X200237Y334435D01*
X201084D01*
X201930Y335282D01*
Y336974D01*
X202776Y337821D01*
X203623D01*
X204469Y336974D01*
Y335282D01*
X203623Y334435D01*
X199391Y339514D02*
X204469D01*
X202776Y341206D01*
X204469Y342899D01*
X199391D01*
X204469Y344592D02*
Y346285D01*
Y345438D01*
X199391D01*
X200237Y344592D01*
X294043Y515198D02*
X288965D01*
Y517737D01*
X289811Y518584D01*
X291504D01*
X292350Y517737D01*
Y515198D01*
Y516891D02*
X294043Y518584D01*
X288965Y523662D02*
Y520276D01*
X291504D01*
X290658Y521969D01*
Y522816D01*
X291504Y523662D01*
X293197D01*
X294043Y522816D01*
Y521123D01*
X293197Y520276D01*
X393427Y289138D02*
X392581Y288291D01*
Y286598D01*
X393427Y285752D01*
X396813D01*
X397659Y286598D01*
Y288291D01*
X396813Y289138D01*
X397659Y290830D02*
Y292523D01*
Y291677D01*
X392581D01*
X393427Y290830D01*
X392581Y298448D02*
X393427Y296755D01*
X395120Y295062D01*
X396813D01*
X397659Y295909D01*
Y297602D01*
X396813Y298448D01*
X395966D01*
X395120Y297602D01*
Y295062D01*
X393427Y313268D02*
X392581Y312421D01*
Y310728D01*
X393427Y309882D01*
X396813D01*
X397659Y310728D01*
Y312421D01*
X396813Y313268D01*
X397659Y314960D02*
Y316653D01*
Y315807D01*
X392581D01*
X393427Y314960D01*
X392581Y322578D02*
Y319192D01*
X395120D01*
X394274Y320885D01*
Y321732D01*
X395120Y322578D01*
X396813D01*
X397659Y321732D01*
Y320039D01*
X396813Y319192D01*
X393427Y337398D02*
X392581Y336551D01*
Y334859D01*
X393427Y334012D01*
X396813D01*
X397659Y334859D01*
Y336551D01*
X396813Y337398D01*
X397659Y339090D02*
Y340783D01*
Y339937D01*
X392581D01*
X393427Y339090D01*
X397659Y345862D02*
X392581D01*
X395120Y343322D01*
Y346708D01*
X335554Y260773D02*
X334708Y261619D01*
X333015D01*
X332168Y260773D01*
Y257387D01*
X333015Y256541D01*
X334708D01*
X335554Y257387D01*
X337247Y256541D02*
X338940D01*
X338093D01*
Y261619D01*
X337247Y260773D01*
X341479Y256541D02*
X343172D01*
X342325D01*
Y261619D01*
X341479Y260773D01*
X387624Y273473D02*
X386777Y274319D01*
X385084D01*
X384238Y273473D01*
Y270087D01*
X385084Y269241D01*
X386777D01*
X387624Y270087D01*
X392702Y274319D02*
X389316D01*
Y271780D01*
X391009Y272626D01*
X391856D01*
X392702Y271780D01*
Y270087D01*
X391856Y269241D01*
X390163D01*
X389316Y270087D01*
X420793Y235946D02*
X421639Y236793D01*
Y238486D01*
X420793Y239332D01*
X417407D01*
X416561Y238486D01*
Y236793D01*
X417407Y235946D01*
X416561Y231714D02*
X421639D01*
X419100Y234254D01*
Y230868D01*
X200237Y297604D02*
X199391Y296757D01*
Y295065D01*
X200237Y294218D01*
X203623D01*
X204469Y295065D01*
Y296757D01*
X203623Y297604D01*
X200237Y299296D02*
X199391Y300143D01*
Y301836D01*
X200237Y302682D01*
X201084D01*
X201930Y301836D01*
Y300989D01*
Y301836D01*
X202776Y302682D01*
X203623D01*
X204469Y301836D01*
Y300143D01*
X203623Y299296D01*
X310728Y482599D02*
Y478367D01*
X311574Y477521D01*
X313267D01*
X314114Y478367D01*
Y482599D01*
X319192Y477521D02*
X315806D01*
X319192Y480906D01*
Y481753D01*
X318346Y482599D01*
X316653D01*
X315806Y481753D01*
X298449Y541868D02*
X293371D01*
Y544407D01*
X294217Y545254D01*
X295910D01*
X296756Y544407D01*
Y541868D01*
Y543561D02*
X298449Y545254D01*
X294217Y546946D02*
X293371Y547793D01*
Y549486D01*
X294217Y550332D01*
X295064D01*
X295910Y549486D01*
X296756Y550332D01*
X297603D01*
X298449Y549486D01*
Y547793D01*
X297603Y546946D01*
X296756D01*
X295910Y547793D01*
X295064Y546946D01*
X294217D01*
X295910Y547793D02*
Y549486D01*
X347513Y541868D02*
X342435D01*
Y544407D01*
X343281Y545254D01*
X344974D01*
X345820Y544407D01*
Y541868D01*
Y543561D02*
X347513Y545254D01*
X342435Y546946D02*
Y550332D01*
X343281D01*
X346667Y546946D01*
X347513D01*
X397509Y541868D02*
X392431D01*
Y544407D01*
X393277Y545254D01*
X394970D01*
X395816Y544407D01*
Y541868D01*
Y543561D02*
X397509Y545254D01*
X392431Y550332D02*
X393277Y548639D01*
X394970Y546946D01*
X396663D01*
X397509Y547793D01*
Y549486D01*
X396663Y550332D01*
X395816D01*
X394970Y549486D01*
Y546946D01*
X472864Y222251D02*
Y227329D01*
X475404D01*
X476250Y226483D01*
Y224790D01*
X475404Y223944D01*
X472864D01*
X474557D02*
X476250Y222251D01*
X477943D02*
X479636D01*
X478789D01*
Y227329D01*
X477943Y226483D01*
X219288Y528321D02*
Y533399D01*
X221827D01*
X222674Y532553D01*
Y530860D01*
X221827Y530014D01*
X219288D01*
X224366Y532553D02*
X225213Y533399D01*
X226906D01*
X227752Y532553D01*
Y531706D01*
X226906Y530860D01*
X226059D01*
X226906D01*
X227752Y530014D01*
Y529167D01*
X226906Y528321D01*
X225213D01*
X224366Y529167D01*
X289715Y202370D02*
Y197292D01*
X287176D01*
X286330Y198139D01*
Y199831D01*
X287176Y200678D01*
X289715D01*
X284637Y202370D02*
X282944D01*
X283791D01*
Y197292D01*
X284637Y198139D01*
X203624Y453389D02*
X201931D01*
X202777D01*
Y449157D01*
X201931Y448311D01*
X201084D01*
X200238Y449157D01*
X205316Y452543D02*
X206163Y453389D01*
X207856D01*
X208702Y452543D01*
Y451696D01*
X207856Y450850D01*
X207009D01*
X207856D01*
X208702Y450004D01*
Y449157D01*
X207856Y448311D01*
X206163D01*
X205316Y449157D01*
X482601Y382694D02*
Y381001D01*
Y381847D01*
X486833D01*
X487679Y381001D01*
Y380154D01*
X486833Y379308D01*
X487679Y387772D02*
Y384386D01*
X484294Y387772D01*
X483447D01*
X482601Y386926D01*
Y385233D01*
X483447Y384386D01*
X482601Y530860D02*
Y529167D01*
Y530014D01*
X486833D01*
X487679Y529167D01*
Y528321D01*
X486833Y527475D01*
X487679Y532553D02*
Y534246D01*
Y533399D01*
X482601D01*
X483447Y532553D01*
X475930Y248169D02*
Y243091D01*
X478469D01*
X479316Y243937D01*
Y247323D01*
X478469Y248169D01*
X475930D01*
X484394Y247323D02*
X483548Y248169D01*
X481855D01*
X481009Y247323D01*
Y246476D01*
X481855Y245630D01*
X483548D01*
X484394Y244783D01*
Y243937D01*
X483548Y243091D01*
X481855D01*
X481009Y243937D01*
X486087Y243091D02*
X487780D01*
X486933D01*
Y248169D01*
X486087Y247323D01*
X258234Y588009D02*
Y582931D01*
X260774D01*
X261620Y583777D01*
Y587163D01*
X260774Y588009D01*
X258234D01*
X263313Y582931D02*
X265006D01*
X264159D01*
Y588009D01*
X263313Y587163D01*
X389043Y241372D02*
X389889Y242219D01*
Y243911D01*
X389043Y244758D01*
X385657D01*
X384811Y243911D01*
Y242219D01*
X385657Y241372D01*
X384811Y239680D02*
Y237987D01*
Y238833D01*
X389889D01*
X389043Y239680D01*
X384811Y232062D02*
Y235448D01*
X388196Y232062D01*
X389043D01*
X389889Y232908D01*
Y234601D01*
X389043Y235448D01*
X315383Y374226D02*
X316229Y375073D01*
Y376766D01*
X315383Y377612D01*
X311997D01*
X311151Y376766D01*
Y375073D01*
X311997Y374226D01*
X315383Y372534D02*
X316229Y371687D01*
Y369994D01*
X315383Y369148D01*
X314536D01*
X313690Y369994D01*
X312844Y369148D01*
X311997D01*
X311151Y369994D01*
Y371687D01*
X311997Y372534D01*
X312844D01*
X313690Y371687D01*
X314536Y372534D01*
X315383D01*
X313690Y371687D02*
Y369994D01*
X317485Y341206D02*
X318331Y342053D01*
Y343745D01*
X317485Y344592D01*
X314099D01*
X313253Y343745D01*
Y342053D01*
X314099Y341206D01*
X318331Y339514D02*
Y336128D01*
X317485D01*
X314099Y339514D01*
X313253D01*
X390387Y367030D02*
X389541Y366184D01*
Y364491D01*
X390387Y363644D01*
X393773D01*
X394619Y364491D01*
Y366184D01*
X393773Y367030D01*
X394619Y368723D02*
Y370416D01*
Y369569D01*
X389541D01*
X390387Y368723D01*
M02*
