G04*
G04 #@! TF.GenerationSoftware,Altium Limited,Altium Designer,24.9.1 (31)*
G04*
G04 Layer_Physical_Order=2*
G04 Layer_Color=32768*
%FSLAX44Y44*%
%MOMM*%
G71*
G04*
G04 #@! TF.SameCoordinates,573C6FB0-CD79-483D-94B5-B6DABAD4C9EF*
G04*
G04*
G04 #@! TF.FilePolarity,Negative*
G04*
G01*
G75*
%ADD50C,1.0160*%
%ADD51C,1.3160*%
G04:AMPARAMS|DCode=52|XSize=1.824mm|YSize=1.824mm|CornerRadius=0mm|HoleSize=0mm|Usage=FLASHONLY|Rotation=0.000|XOffset=0mm|YOffset=0mm|HoleType=Round|Shape=Relief|Width=0.254mm|Gap=0.254mm|Entries=4|*
%AMTHD52*
7,0,0,1.8240,1.3160,0.2540,45*
%
%ADD52THD52*%
%ADD53C,2.5160*%
%ADD54C,2.0160*%
%ADD55C,4.0640*%
D50*
X212298Y608904D02*
G03*
X177830Y574436I0J-34467D01*
G01*
X530218Y574390D02*
G03*
X495751Y608857I-34467J0D01*
G01*
X495842Y121962D02*
G03*
X530309Y156429I0J34467D01*
G01*
X177800Y156387D02*
G03*
X212267Y121920I34467J0D01*
G01*
X177800Y574436D02*
X177800Y156387D01*
X177800Y574436D02*
X177830D01*
X212298Y608890D02*
Y608904D01*
Y608890D02*
X495751Y608890D01*
Y608857D02*
Y608890D01*
X530218Y574390D02*
X530300D01*
X530300Y156429D02*
X530300Y574390D01*
X530300Y156429D02*
X530309D01*
X495842Y121920D02*
Y121962D01*
X212267Y121920D02*
X495842D01*
D51*
X340360Y314960D02*
D03*
X336550Y207010D02*
D03*
X388620Y314960D02*
D03*
X373380Y364490D02*
D03*
X378460Y201930D02*
D03*
X391160Y293370D02*
D03*
X284480Y214630D02*
D03*
X333064Y488662D02*
D03*
X252747Y349267D02*
D03*
X243840Y349250D02*
D03*
X360680Y502920D02*
D03*
X317500Y483060D02*
D03*
X309880Y476250D02*
D03*
X369570Y430530D02*
D03*
Y422910D02*
D03*
X347980Y415290D02*
D03*
X361950Y382270D02*
D03*
X355600Y375920D02*
D03*
X364490Y510540D02*
D03*
X327660Y224790D02*
D03*
X320040Y215900D02*
D03*
X426720Y273050D02*
D03*
Y280670D02*
D03*
X259080Y307340D02*
D03*
X291179Y426251D02*
D03*
X313690Y210820D02*
D03*
X350520Y297180D02*
D03*
X355600Y303530D02*
D03*
X361950Y309880D02*
D03*
X336550Y463550D02*
D03*
X335280Y455930D02*
D03*
X316230Y407670D02*
D03*
X302260Y515620D02*
D03*
X350520Y463550D02*
D03*
X331470Y519430D02*
D03*
X384810Y495300D02*
D03*
X373380Y463550D02*
D03*
X384810Y473710D02*
D03*
X379730Y450850D02*
D03*
X349250Y232410D02*
D03*
X328930Y177800D02*
D03*
X261620Y337820D02*
D03*
X468630Y353060D02*
D03*
X245110Y417830D02*
D03*
X389890Y265430D02*
D03*
X303530Y308610D02*
D03*
X364490Y184150D02*
D03*
X393700Y207010D02*
D03*
X196850Y476250D02*
D03*
X218440Y511810D02*
D03*
X245110Y438150D02*
D03*
X203200Y417830D02*
D03*
X302260Y273050D02*
D03*
X284480Y226060D02*
D03*
X259080Y290830D02*
D03*
X269240Y491490D02*
D03*
X403860Y408940D02*
D03*
X468630Y449580D02*
D03*
X468960Y462610D02*
D03*
D52*
X356870Y514350D02*
D03*
X309880Y467360D02*
D03*
X296769Y371821D02*
D03*
X342900Y294640D02*
D03*
X341630Y344170D02*
D03*
X334010Y232410D02*
D03*
X311150Y200660D02*
D03*
X360680Y204470D02*
D03*
X377190Y325120D02*
D03*
X240030Y476250D02*
D03*
X275590Y273050D02*
D03*
X266700Y575310D02*
D03*
X212311Y209771D02*
D03*
X476250Y232410D02*
D03*
X201930Y438150D02*
D03*
X468630Y378460D02*
D03*
Y525780D02*
D03*
D53*
X435610Y149860D02*
D03*
X388620D02*
D03*
D54*
X289560D02*
D03*
X264160D02*
D03*
X314960D02*
D03*
X340360D02*
D03*
D55*
X495417Y156827D02*
D03*
X212676Y156846D02*
D03*
X495462Y573989D02*
D03*
X212704Y574025D02*
D03*
M02*
