G04*
G04 #@! TF.GenerationSoftware,Altium Limited,Altium Designer,24.9.1 (31)*
G04*
G04 Layer_Color=32896*
%FSLAX44Y44*%
%MOMM*%
G71*
G04*
G04 #@! TF.SameCoordinates,573C6FB0-CD79-483D-94B5-B6DABAD4C9EF*
G04*
G04*
G04 #@! TF.FilePolarity,Positive*
G04*
G01*
G75*
%ADD11C,0.2500*%
%ADD12C,0.5080*%
%ADD13C,0.2000*%
%ADD16C,0.2540*%
%ADD17C,0.1520*%
%ADD82C,0.1500*%
%ADD83C,0.1700*%
%ADD84C,0.1270*%
G36*
X507584Y237302D02*
X505176D01*
Y236927D01*
X505185Y236810D01*
X505193Y236710D01*
X505210Y236627D01*
X505218Y236560D01*
X505235Y236519D01*
X505243Y236494D01*
Y236485D01*
X505276Y236419D01*
X505310Y236352D01*
X505351Y236294D01*
X505384Y236235D01*
X505426Y236194D01*
X505460Y236161D01*
X505476Y236144D01*
X505485Y236136D01*
X505526Y236102D01*
X505568Y236061D01*
X505693Y235969D01*
X505826Y235869D01*
X505976Y235761D01*
X506109Y235669D01*
X506176Y235627D01*
X506226Y235594D01*
X506268Y235561D01*
X506301Y235536D01*
X506326Y235527D01*
X506334Y235519D01*
X507584Y234686D01*
Y233286D01*
X506459Y233994D01*
X506343Y234069D01*
X506226Y234144D01*
X506126Y234211D01*
X506034Y234278D01*
X505951Y234336D01*
X505868Y234386D01*
X505743Y234486D01*
X505643Y234561D01*
X505576Y234611D01*
X505535Y234653D01*
X505526Y234661D01*
X505426Y234753D01*
X505335Y234861D01*
X505260Y234961D01*
X505185Y235061D01*
X505126Y235144D01*
X505085Y235211D01*
X505051Y235261D01*
X505043Y235269D01*
Y235277D01*
X505018Y235136D01*
X504985Y235011D01*
X504951Y234894D01*
X504910Y234778D01*
X504868Y234678D01*
X504826Y234586D01*
X504785Y234494D01*
X504735Y234419D01*
X504693Y234353D01*
X504651Y234294D01*
X504610Y234244D01*
X504576Y234211D01*
X504551Y234178D01*
X504526Y234153D01*
X504518Y234144D01*
X504510Y234136D01*
X504426Y234069D01*
X504343Y234011D01*
X504160Y233911D01*
X503985Y233844D01*
X503810Y233803D01*
X503660Y233769D01*
X503602Y233761D01*
X503543D01*
X503502Y233753D01*
X503460D01*
X503443D01*
X503435D01*
X503252Y233761D01*
X503077Y233794D01*
X502927Y233836D01*
X502794Y233878D01*
X502685Y233928D01*
X502602Y233969D01*
X502577Y233986D01*
X502552Y234003D01*
X502544Y234011D01*
X502535D01*
X502394Y234111D01*
X502277Y234219D01*
X502185Y234328D01*
X502102Y234436D01*
X502052Y234536D01*
X502010Y234611D01*
X501985Y234661D01*
X501977Y234669D01*
Y234678D01*
X501952Y234761D01*
X501927Y234853D01*
X501885Y235061D01*
X501860Y235286D01*
X501835Y235502D01*
Y235611D01*
X501827Y235702D01*
Y235794D01*
X501819Y235869D01*
Y238468D01*
X507584D01*
Y237302D01*
D02*
G37*
G36*
X500516Y231612D02*
X499541D01*
Y234827D01*
X497975D01*
Y231936D01*
X497000D01*
Y234827D01*
X495725D01*
Y231720D01*
X494751D01*
Y235994D01*
X500516D01*
Y231612D01*
D02*
G37*
G36*
X506551Y232953D02*
X506642Y232945D01*
X506818Y232903D01*
X506968Y232845D01*
X507092Y232778D01*
X507192Y232711D01*
X507267Y232653D01*
X507317Y232611D01*
X507326Y232595D01*
X507334D01*
X507451Y232445D01*
X507534Y232278D01*
X507592Y232111D01*
X507634Y231945D01*
X507659Y231803D01*
X507667Y231737D01*
Y231687D01*
X507676Y231637D01*
Y231578D01*
X507667Y231445D01*
X507651Y231312D01*
X507634Y231195D01*
X507609Y231095D01*
X507584Y231012D01*
X507559Y230945D01*
X507551Y230903D01*
X507542Y230887D01*
X507484Y230770D01*
X507426Y230653D01*
X507351Y230554D01*
X507284Y230462D01*
X507226Y230387D01*
X507176Y230329D01*
X507142Y230295D01*
X507134Y230279D01*
X507167Y230270D01*
X507209Y230254D01*
X507242Y230245D01*
X507251Y230237D01*
X507259D01*
X507334Y230212D01*
X507401Y230195D01*
X507459Y230179D01*
X507501Y230162D01*
X507534Y230145D01*
X507567Y230137D01*
X507576Y230129D01*
X507584D01*
Y229037D01*
X507476Y229087D01*
X507376Y229129D01*
X507284Y229162D01*
X507201Y229196D01*
X507134Y229212D01*
X507076Y229229D01*
X507042Y229237D01*
X507034D01*
X506926Y229254D01*
X506792Y229262D01*
X506659Y229279D01*
X506526D01*
X506409Y229287D01*
X506309D01*
X506268D01*
X506243D01*
X506226D01*
X506218D01*
X504926Y229271D01*
X504793D01*
X504676Y229279D01*
X504568Y229287D01*
X504468Y229296D01*
X504376Y229304D01*
X504293Y229321D01*
X504218Y229329D01*
X504160Y229345D01*
X504101Y229362D01*
X504060Y229370D01*
X503985Y229396D01*
X503952Y229412D01*
X503935Y229421D01*
X503843Y229487D01*
X503752Y229562D01*
X503677Y229646D01*
X503610Y229737D01*
X503560Y229812D01*
X503527Y229879D01*
X503502Y229920D01*
X503493Y229929D01*
Y229937D01*
X503460Y230012D01*
X503435Y230087D01*
X503385Y230262D01*
X503352Y230445D01*
X503335Y230620D01*
X503318Y230787D01*
Y230854D01*
X503310Y230912D01*
Y231187D01*
X503327Y231320D01*
X503335Y231453D01*
X503360Y231570D01*
X503377Y231687D01*
X503402Y231787D01*
X503435Y231878D01*
X503460Y231961D01*
X503485Y232028D01*
X503518Y232095D01*
X503543Y232145D01*
X503560Y232195D01*
X503585Y232228D01*
X503593Y232253D01*
X503610Y232262D01*
Y232270D01*
X503735Y232411D01*
X503877Y232528D01*
X504027Y232628D01*
X504168Y232711D01*
X504301Y232770D01*
X504360Y232795D01*
X504410Y232811D01*
X504451Y232828D01*
X504485Y232836D01*
X504501Y232845D01*
X504510D01*
X504693Y231853D01*
X504593Y231812D01*
X504510Y231770D01*
X504435Y231728D01*
X504376Y231678D01*
X504335Y231645D01*
X504310Y231612D01*
X504293Y231595D01*
X504285Y231587D01*
X504243Y231520D01*
X504210Y231445D01*
X504193Y231362D01*
X504176Y231287D01*
X504168Y231220D01*
X504160Y231170D01*
Y231120D01*
X504168Y230970D01*
X504185Y230845D01*
X504202Y230745D01*
X504226Y230662D01*
X504260Y230604D01*
X504277Y230562D01*
X504293Y230537D01*
X504301Y230529D01*
X504360Y230470D01*
X504426Y230429D01*
X504501Y230404D01*
X504576Y230379D01*
X504651Y230370D01*
X504710Y230362D01*
X504743D01*
X504760D01*
X504868D01*
X504893Y230420D01*
X504918Y230495D01*
X504968Y230653D01*
X505010Y230837D01*
X505051Y231012D01*
X505093Y231178D01*
X505110Y231253D01*
X505118Y231320D01*
X505126Y231370D01*
X505135Y231412D01*
X505143Y231437D01*
Y231445D01*
X505185Y231645D01*
X505226Y231828D01*
X505268Y231978D01*
X505310Y232103D01*
X505351Y232203D01*
X505376Y232270D01*
X505393Y232311D01*
X505401Y232328D01*
X505460Y232436D01*
X505526Y232528D01*
X505601Y232611D01*
X505668Y232670D01*
X505726Y232728D01*
X505776Y232761D01*
X505809Y232786D01*
X505826Y232795D01*
X505934Y232853D01*
X506043Y232895D01*
X506143Y232920D01*
X506243Y232936D01*
X506326Y232953D01*
X506393Y232961D01*
X506434D01*
X506451D01*
X506551Y232953D01*
D02*
G37*
G36*
X500516Y229529D02*
X494751D01*
Y230637D01*
X500516D01*
Y229529D01*
D02*
G37*
G36*
X491790Y233136D02*
X487257D01*
X491790Y232003D01*
Y230879D01*
X487257Y229745D01*
X491790Y229737D01*
Y228662D01*
X486025D01*
Y230412D01*
X489965Y231437D01*
X486025Y232470D01*
Y234211D01*
X491790D01*
Y233136D01*
D02*
G37*
G36*
X500516Y227288D02*
X496334D01*
Y228396D01*
X500516D01*
Y227288D01*
D02*
G37*
G36*
X495775D02*
X494751D01*
Y228396D01*
X495775D01*
Y227288D01*
D02*
G37*
G36*
X506601Y228496D02*
X506792Y228404D01*
X506951Y228304D01*
X507084Y228196D01*
X507192Y228096D01*
X507267Y228004D01*
X507301Y227979D01*
X507317Y227954D01*
X507326Y227938D01*
X507334Y227929D01*
X507392Y227829D01*
X507451Y227729D01*
X507534Y227504D01*
X507592Y227279D01*
X507634Y227063D01*
X507651Y226963D01*
X507659Y226871D01*
X507667Y226788D01*
Y226713D01*
X507676Y226655D01*
Y226571D01*
X507667Y226405D01*
X507659Y226246D01*
X507634Y226096D01*
X507609Y225955D01*
X507584Y225830D01*
X507542Y225713D01*
X507509Y225605D01*
X507467Y225513D01*
X507434Y225430D01*
X507392Y225355D01*
X507359Y225297D01*
X507334Y225247D01*
X507301Y225205D01*
X507284Y225180D01*
X507276Y225163D01*
X507267Y225155D01*
X507184Y225072D01*
X507101Y224997D01*
X507018Y224930D01*
X506934Y224872D01*
X506851Y224830D01*
X506768Y224788D01*
X506618Y224730D01*
X506476Y224697D01*
X506418Y224688D01*
X506376Y224680D01*
X506334Y224672D01*
X506301D01*
X506284D01*
X506276D01*
X506093Y224688D01*
X505926Y224730D01*
X505784Y224780D01*
X505668Y224847D01*
X505576Y224913D01*
X505509Y224963D01*
X505476Y225005D01*
X505460Y225022D01*
X505410Y225097D01*
X505351Y225172D01*
X505310Y225263D01*
X505260Y225363D01*
X505176Y225563D01*
X505101Y225772D01*
X505043Y225955D01*
X505026Y226038D01*
X505001Y226113D01*
X504985Y226171D01*
X504976Y226213D01*
X504968Y226246D01*
Y226255D01*
X504926Y226413D01*
X504893Y226555D01*
X504860Y226680D01*
X504826Y226788D01*
X504801Y226888D01*
X504776Y226971D01*
X504751Y227038D01*
X504735Y227104D01*
X504710Y227154D01*
X504693Y227196D01*
X504685Y227229D01*
X504668Y227246D01*
X504660Y227279D01*
X504651Y227288D01*
X504618Y227321D01*
X504585Y227346D01*
X504518Y227379D01*
X504468Y227396D01*
X504460D01*
X504451D01*
X504402Y227388D01*
X504360Y227379D01*
X504285Y227329D01*
X504243Y227288D01*
X504226Y227279D01*
Y227271D01*
X504185Y227188D01*
X504151Y227096D01*
X504135Y226996D01*
X504118Y226888D01*
X504110Y226796D01*
X504101Y226721D01*
Y226646D01*
X504110Y226521D01*
X504118Y226413D01*
X504143Y226321D01*
X504168Y226246D01*
X504193Y226188D01*
X504210Y226146D01*
X504226Y226121D01*
X504235Y226113D01*
X504285Y226046D01*
X504343Y225996D01*
X504402Y225946D01*
X504468Y225913D01*
X504518Y225888D01*
X504560Y225871D01*
X504593Y225855D01*
X504601D01*
X504410Y224813D01*
X504218Y224880D01*
X504052Y224972D01*
X503910Y225063D01*
X503802Y225163D01*
X503710Y225247D01*
X503643Y225322D01*
X503610Y225372D01*
X503593Y225380D01*
Y225388D01*
X503543Y225471D01*
X503502Y225563D01*
X503427Y225763D01*
X503377Y225971D01*
X503343Y226180D01*
X503335Y226280D01*
X503327Y226371D01*
X503318Y226455D01*
X503310Y226521D01*
Y226829D01*
X503327Y226980D01*
X503343Y227121D01*
X503368Y227254D01*
X503393Y227371D01*
X503427Y227479D01*
X503460Y227579D01*
X503493Y227671D01*
X503535Y227746D01*
X503568Y227813D01*
X503602Y227871D01*
X503627Y227913D01*
X503652Y227954D01*
X503668Y227979D01*
X503677Y227988D01*
X503685Y227996D01*
X503752Y228071D01*
X503827Y228137D01*
X503902Y228196D01*
X503985Y228237D01*
X504135Y228321D01*
X504277Y228371D01*
X504402Y228396D01*
X504460Y228404D01*
X504501Y228412D01*
X504543Y228421D01*
X504568D01*
X504585D01*
X504593D01*
X504701Y228412D01*
X504801Y228396D01*
X504901Y228379D01*
X504993Y228346D01*
X505151Y228263D01*
X505285Y228171D01*
X505393Y228088D01*
X505468Y228004D01*
X505501Y227971D01*
X505518Y227954D01*
X505526Y227938D01*
X505535Y227929D01*
X505576Y227854D01*
X505626Y227754D01*
X505676Y227638D01*
X505718Y227513D01*
X505768Y227379D01*
X505809Y227238D01*
X505893Y226946D01*
X505934Y226805D01*
X505968Y226671D01*
X506001Y226555D01*
X506026Y226446D01*
X506043Y226355D01*
X506059Y226288D01*
X506076Y226246D01*
Y226230D01*
X506101Y226130D01*
X506126Y226055D01*
X506151Y225988D01*
X506168Y225938D01*
X506193Y225905D01*
X506201Y225880D01*
X506218Y225863D01*
X506284Y225813D01*
X506351Y225788D01*
X506401Y225780D01*
X506418D01*
X506426D01*
X506493Y225788D01*
X506551Y225805D01*
X506601Y225830D01*
X506642Y225855D01*
X506676Y225880D01*
X506701Y225905D01*
X506717Y225921D01*
X506726Y225930D01*
X506776Y226021D01*
X506809Y226121D01*
X506842Y226230D01*
X506859Y226330D01*
X506867Y226421D01*
X506876Y226505D01*
Y226571D01*
X506867Y226713D01*
X506851Y226829D01*
X506826Y226938D01*
X506792Y227021D01*
X506768Y227088D01*
X506743Y227138D01*
X506726Y227171D01*
X506717Y227179D01*
X506651Y227254D01*
X506568Y227313D01*
X506493Y227363D01*
X506409Y227404D01*
X506334Y227429D01*
X506276Y227446D01*
X506243Y227463D01*
X506226D01*
X506393Y228571D01*
X506601Y228496D01*
D02*
G37*
G36*
X490757Y227779D02*
X490848Y227771D01*
X491023Y227729D01*
X491173Y227671D01*
X491298Y227604D01*
X491398Y227538D01*
X491473Y227479D01*
X491523Y227438D01*
X491531Y227421D01*
X491540D01*
X491656Y227271D01*
X491740Y227104D01*
X491798Y226938D01*
X491840Y226771D01*
X491865Y226630D01*
X491873Y226563D01*
Y226513D01*
X491881Y226463D01*
Y226405D01*
X491873Y226271D01*
X491856Y226138D01*
X491840Y226021D01*
X491815Y225921D01*
X491790Y225838D01*
X491765Y225772D01*
X491756Y225730D01*
X491748Y225713D01*
X491690Y225597D01*
X491631Y225480D01*
X491556Y225380D01*
X491490Y225288D01*
X491432Y225213D01*
X491381Y225155D01*
X491348Y225122D01*
X491340Y225105D01*
X491373Y225097D01*
X491415Y225080D01*
X491448Y225072D01*
X491456Y225063D01*
X491465D01*
X491540Y225038D01*
X491606Y225022D01*
X491665Y225005D01*
X491706Y224988D01*
X491740Y224972D01*
X491773Y224963D01*
X491781Y224955D01*
X491790D01*
Y223864D01*
X491681Y223914D01*
X491581Y223955D01*
X491490Y223989D01*
X491407Y224022D01*
X491340Y224039D01*
X491282Y224055D01*
X491248Y224064D01*
X491240D01*
X491132Y224080D01*
X490998Y224089D01*
X490865Y224105D01*
X490732D01*
X490615Y224114D01*
X490515D01*
X490473D01*
X490448D01*
X490432D01*
X490423D01*
X489132Y224097D01*
X488999D01*
X488882Y224105D01*
X488774Y224114D01*
X488674Y224122D01*
X488582Y224130D01*
X488499Y224147D01*
X488424Y224155D01*
X488366Y224172D01*
X488307Y224188D01*
X488266Y224197D01*
X488191Y224222D01*
X488157Y224238D01*
X488141Y224247D01*
X488049Y224314D01*
X487957Y224389D01*
X487882Y224472D01*
X487816Y224563D01*
X487766Y224638D01*
X487732Y224705D01*
X487707Y224747D01*
X487699Y224755D01*
Y224763D01*
X487666Y224838D01*
X487641Y224913D01*
X487591Y225088D01*
X487557Y225272D01*
X487541Y225446D01*
X487524Y225613D01*
Y225680D01*
X487516Y225738D01*
Y226013D01*
X487533Y226146D01*
X487541Y226280D01*
X487566Y226396D01*
X487582Y226513D01*
X487607Y226613D01*
X487641Y226705D01*
X487666Y226788D01*
X487691Y226854D01*
X487724Y226921D01*
X487749Y226971D01*
X487766Y227021D01*
X487791Y227055D01*
X487799Y227080D01*
X487816Y227088D01*
Y227096D01*
X487941Y227238D01*
X488082Y227354D01*
X488232Y227454D01*
X488374Y227538D01*
X488507Y227596D01*
X488565Y227621D01*
X488615Y227638D01*
X488657Y227654D01*
X488690Y227663D01*
X488707Y227671D01*
X488716D01*
X488899Y226680D01*
X488799Y226638D01*
X488716Y226596D01*
X488641Y226555D01*
X488582Y226505D01*
X488540Y226471D01*
X488516Y226438D01*
X488499Y226421D01*
X488490Y226413D01*
X488449Y226346D01*
X488416Y226271D01*
X488399Y226188D01*
X488382Y226113D01*
X488374Y226046D01*
X488366Y225996D01*
Y225946D01*
X488374Y225796D01*
X488391Y225672D01*
X488407Y225571D01*
X488432Y225488D01*
X488465Y225430D01*
X488482Y225388D01*
X488499Y225363D01*
X488507Y225355D01*
X488565Y225297D01*
X488632Y225255D01*
X488707Y225230D01*
X488782Y225205D01*
X488857Y225197D01*
X488915Y225188D01*
X488949D01*
X488965D01*
X489074D01*
X489099Y225247D01*
X489124Y225322D01*
X489174Y225480D01*
X489215Y225663D01*
X489257Y225838D01*
X489299Y226005D01*
X489315Y226080D01*
X489324Y226146D01*
X489332Y226196D01*
X489340Y226238D01*
X489349Y226263D01*
Y226271D01*
X489390Y226471D01*
X489432Y226655D01*
X489474Y226805D01*
X489515Y226929D01*
X489557Y227029D01*
X489582Y227096D01*
X489599Y227138D01*
X489607Y227154D01*
X489665Y227263D01*
X489732Y227354D01*
X489807Y227438D01*
X489874Y227496D01*
X489932Y227554D01*
X489982Y227588D01*
X490015Y227613D01*
X490032Y227621D01*
X490140Y227679D01*
X490248Y227721D01*
X490348Y227746D01*
X490448Y227763D01*
X490532Y227779D01*
X490598Y227788D01*
X490640D01*
X490657D01*
X490757Y227779D01*
D02*
G37*
G36*
X500516Y225047D02*
X496334D01*
Y226155D01*
X500516D01*
Y225047D01*
D02*
G37*
G36*
X495775D02*
X494751D01*
Y226155D01*
X495775D01*
Y225047D01*
D02*
G37*
G36*
X514627Y223339D02*
X513602D01*
Y225538D01*
X513494Y225471D01*
X513402Y225397D01*
X513361Y225363D01*
X513327Y225338D01*
X513311Y225322D01*
X513302Y225313D01*
X513269Y225280D01*
X513228Y225247D01*
X513136Y225147D01*
X513028Y225038D01*
X512919Y224930D01*
X512819Y224822D01*
X512736Y224730D01*
X512703Y224697D01*
X512678Y224672D01*
X512669Y224655D01*
X512661Y224647D01*
X512486Y224464D01*
X512344Y224314D01*
X512211Y224188D01*
X512111Y224089D01*
X512028Y224014D01*
X511969Y223964D01*
X511928Y223930D01*
X511920Y223922D01*
X511778Y223814D01*
X511645Y223722D01*
X511520Y223647D01*
X511411Y223589D01*
X511320Y223539D01*
X511245Y223505D01*
X511203Y223489D01*
X511186Y223480D01*
X511053Y223430D01*
X510920Y223397D01*
X510795Y223372D01*
X510678Y223355D01*
X510587Y223347D01*
X510512Y223339D01*
X510462D01*
X510445D01*
X510320Y223347D01*
X510195Y223364D01*
X510078Y223380D01*
X509970Y223414D01*
X509778Y223497D01*
X509612Y223580D01*
X509537Y223630D01*
X509478Y223672D01*
X509420Y223714D01*
X509379Y223755D01*
X509345Y223789D01*
X509312Y223805D01*
X509304Y223822D01*
X509295Y223830D01*
X509212Y223922D01*
X509137Y224030D01*
X509079Y224130D01*
X509029Y224247D01*
X508945Y224464D01*
X508887Y224680D01*
X508870Y224780D01*
X508854Y224872D01*
X508845Y224955D01*
X508837Y225030D01*
X508829Y225088D01*
Y225172D01*
X508837Y225313D01*
X508845Y225446D01*
X508887Y225705D01*
X508954Y225921D01*
X508987Y226021D01*
X509029Y226113D01*
X509062Y226196D01*
X509104Y226263D01*
X509137Y226330D01*
X509162Y226380D01*
X509195Y226421D01*
X509212Y226446D01*
X509220Y226463D01*
X509229Y226471D01*
X509312Y226563D01*
X509395Y226646D01*
X509495Y226721D01*
X509604Y226788D01*
X509820Y226888D01*
X510028Y226971D01*
X510137Y226996D01*
X510228Y227021D01*
X510312Y227046D01*
X510387Y227055D01*
X510453Y227071D01*
X510495D01*
X510528Y227080D01*
X510536D01*
X510645Y225980D01*
X510478Y225963D01*
X510337Y225930D01*
X510212Y225896D01*
X510120Y225855D01*
X510045Y225821D01*
X509995Y225788D01*
X509962Y225763D01*
X509953Y225755D01*
X509887Y225672D01*
X509837Y225580D01*
X509795Y225488D01*
X509770Y225397D01*
X509753Y225322D01*
X509745Y225255D01*
Y225197D01*
X509753Y225072D01*
X509778Y224963D01*
X509812Y224872D01*
X509845Y224788D01*
X509878Y224730D01*
X509912Y224680D01*
X509937Y224655D01*
X509945Y224647D01*
X510028Y224580D01*
X510120Y224530D01*
X510212Y224497D01*
X510303Y224472D01*
X510387Y224455D01*
X510462Y224447D01*
X510503D01*
X510512D01*
X510520D01*
X510645Y224455D01*
X510761Y224480D01*
X510878Y224522D01*
X510978Y224563D01*
X511070Y224605D01*
X511136Y224647D01*
X511178Y224672D01*
X511195Y224680D01*
X511245Y224713D01*
X511303Y224763D01*
X511378Y224830D01*
X511445Y224897D01*
X511603Y225047D01*
X511761Y225197D01*
X511911Y225347D01*
X511978Y225413D01*
X512028Y225480D01*
X512078Y225530D01*
X512111Y225563D01*
X512136Y225588D01*
X512145Y225597D01*
X512303Y225763D01*
X512453Y225913D01*
X512594Y226055D01*
X512719Y226180D01*
X512844Y226296D01*
X512961Y226396D01*
X513061Y226488D01*
X513161Y226563D01*
X513244Y226630D01*
X513319Y226688D01*
X513377Y226738D01*
X513436Y226771D01*
X513469Y226805D01*
X513503Y226821D01*
X513519Y226838D01*
X513527D01*
X513719Y226946D01*
X513919Y227029D01*
X514102Y227096D01*
X514269Y227146D01*
X514419Y227179D01*
X514477Y227188D01*
X514527Y227196D01*
X514569Y227204D01*
X514602Y227213D01*
X514619D01*
X514627D01*
Y223339D01*
D02*
G37*
G36*
X499533Y224222D02*
X499724Y224130D01*
X499883Y224030D01*
X500016Y223922D01*
X500124Y223822D01*
X500199Y223730D01*
X500233Y223705D01*
X500249Y223680D01*
X500257Y223664D01*
X500266Y223655D01*
X500324Y223555D01*
X500382Y223455D01*
X500466Y223230D01*
X500524Y223006D01*
X500566Y222789D01*
X500582Y222689D01*
X500591Y222597D01*
X500599Y222514D01*
Y222439D01*
X500607Y222381D01*
Y222297D01*
X500599Y222131D01*
X500591Y221972D01*
X500566Y221822D01*
X500541Y221681D01*
X500516Y221556D01*
X500474Y221439D01*
X500441Y221331D01*
X500399Y221239D01*
X500366Y221156D01*
X500324Y221081D01*
X500291Y221023D01*
X500266Y220973D01*
X500233Y220931D01*
X500216Y220906D01*
X500207Y220889D01*
X500199Y220881D01*
X500116Y220798D01*
X500033Y220723D01*
X499949Y220656D01*
X499866Y220598D01*
X499783Y220556D01*
X499699Y220515D01*
X499549Y220456D01*
X499408Y220423D01*
X499349Y220415D01*
X499308Y220406D01*
X499266Y220398D01*
X499233D01*
X499216D01*
X499208D01*
X499025Y220415D01*
X498858Y220456D01*
X498716Y220506D01*
X498600Y220573D01*
X498508Y220639D01*
X498441Y220689D01*
X498408Y220731D01*
X498391Y220748D01*
X498341Y220823D01*
X498283Y220898D01*
X498241Y220989D01*
X498191Y221089D01*
X498108Y221289D01*
X498033Y221498D01*
X497975Y221681D01*
X497958Y221764D01*
X497933Y221839D01*
X497916Y221897D01*
X497908Y221939D01*
X497900Y221972D01*
Y221981D01*
X497858Y222139D01*
X497825Y222281D01*
X497791Y222406D01*
X497758Y222514D01*
X497733Y222614D01*
X497708Y222697D01*
X497683Y222764D01*
X497667Y222831D01*
X497641Y222880D01*
X497625Y222922D01*
X497617Y222955D01*
X497600Y222972D01*
X497592Y223006D01*
X497583Y223014D01*
X497550Y223047D01*
X497517Y223072D01*
X497450Y223106D01*
X497400Y223122D01*
X497392D01*
X497383D01*
X497333Y223114D01*
X497292Y223106D01*
X497217Y223055D01*
X497175Y223014D01*
X497158Y223006D01*
Y222997D01*
X497117Y222914D01*
X497083Y222822D01*
X497067Y222722D01*
X497050Y222614D01*
X497042Y222522D01*
X497033Y222447D01*
Y222372D01*
X497042Y222247D01*
X497050Y222139D01*
X497075Y222047D01*
X497100Y221972D01*
X497125Y221914D01*
X497142Y221873D01*
X497158Y221847D01*
X497167Y221839D01*
X497217Y221772D01*
X497275Y221723D01*
X497333Y221672D01*
X497400Y221639D01*
X497450Y221614D01*
X497492Y221597D01*
X497525Y221581D01*
X497533D01*
X497342Y220539D01*
X497150Y220606D01*
X496983Y220698D01*
X496842Y220789D01*
X496733Y220889D01*
X496642Y220973D01*
X496575Y221048D01*
X496542Y221098D01*
X496525Y221106D01*
Y221114D01*
X496475Y221198D01*
X496433Y221289D01*
X496358Y221489D01*
X496309Y221698D01*
X496275Y221906D01*
X496267Y222006D01*
X496259Y222097D01*
X496250Y222181D01*
X496242Y222247D01*
Y222556D01*
X496259Y222706D01*
X496275Y222847D01*
X496300Y222980D01*
X496325Y223097D01*
X496358Y223205D01*
X496392Y223305D01*
X496425Y223397D01*
X496467Y223472D01*
X496500Y223539D01*
X496534Y223597D01*
X496558Y223639D01*
X496584Y223680D01*
X496600Y223705D01*
X496609Y223714D01*
X496617Y223722D01*
X496683Y223797D01*
X496758Y223864D01*
X496833Y223922D01*
X496917Y223964D01*
X497067Y224047D01*
X497208Y224097D01*
X497333Y224122D01*
X497392Y224130D01*
X497433Y224139D01*
X497475Y224147D01*
X497500D01*
X497517D01*
X497525D01*
X497633Y224139D01*
X497733Y224122D01*
X497833Y224105D01*
X497925Y224072D01*
X498083Y223989D01*
X498216Y223897D01*
X498325Y223814D01*
X498400Y223730D01*
X498433Y223697D01*
X498450Y223680D01*
X498458Y223664D01*
X498466Y223655D01*
X498508Y223580D01*
X498558Y223480D01*
X498608Y223364D01*
X498650Y223239D01*
X498700Y223106D01*
X498741Y222964D01*
X498825Y222672D01*
X498866Y222531D01*
X498899Y222397D01*
X498933Y222281D01*
X498958Y222172D01*
X498974Y222081D01*
X498991Y222014D01*
X499008Y221972D01*
Y221956D01*
X499033Y221856D01*
X499058Y221781D01*
X499083Y221714D01*
X499100Y221664D01*
X499124Y221631D01*
X499133Y221606D01*
X499150Y221589D01*
X499216Y221539D01*
X499283Y221514D01*
X499333Y221506D01*
X499349D01*
X499358D01*
X499424Y221514D01*
X499483Y221531D01*
X499533Y221556D01*
X499574Y221581D01*
X499608Y221606D01*
X499633Y221631D01*
X499649Y221647D01*
X499658Y221656D01*
X499708Y221747D01*
X499741Y221847D01*
X499774Y221956D01*
X499791Y222056D01*
X499799Y222147D01*
X499808Y222231D01*
Y222297D01*
X499799Y222439D01*
X499783Y222556D01*
X499758Y222664D01*
X499724Y222747D01*
X499699Y222814D01*
X499674Y222864D01*
X499658Y222897D01*
X499649Y222906D01*
X499583Y222980D01*
X499499Y223039D01*
X499424Y223089D01*
X499341Y223130D01*
X499266Y223155D01*
X499208Y223172D01*
X499174Y223189D01*
X499158D01*
X499324Y224297D01*
X499533Y224222D01*
D02*
G37*
G36*
X489882Y223247D02*
X490057Y223230D01*
X490223Y223205D01*
X490382Y223172D01*
X490523Y223139D01*
X490657Y223097D01*
X490773Y223047D01*
X490882Y222997D01*
X490982Y222955D01*
X491065Y222906D01*
X491140Y222864D01*
X491198Y222822D01*
X491248Y222797D01*
X491282Y222772D01*
X491298Y222756D01*
X491306Y222747D01*
X491407Y222647D01*
X491498Y222547D01*
X491573Y222439D01*
X491640Y222339D01*
X491698Y222231D01*
X491740Y222131D01*
X491781Y222031D01*
X491806Y221939D01*
X491831Y221847D01*
X491848Y221764D01*
X491865Y221698D01*
X491873Y221631D01*
X491881Y221581D01*
Y221514D01*
X491873Y221381D01*
X491856Y221256D01*
X491831Y221131D01*
X491798Y221023D01*
X491765Y220939D01*
X491740Y220864D01*
X491723Y220823D01*
X491715Y220806D01*
X491640Y220681D01*
X491556Y220564D01*
X491465Y220456D01*
X491381Y220373D01*
X491306Y220298D01*
X491240Y220240D01*
X491198Y220206D01*
X491181Y220198D01*
X491790D01*
Y219173D01*
X486025D01*
Y220281D01*
X488099D01*
X487999Y220381D01*
X487907Y220481D01*
X487832Y220581D01*
X487757Y220689D01*
X487707Y220789D01*
X487657Y220889D01*
X487616Y220989D01*
X487591Y221081D01*
X487566Y221173D01*
X487549Y221248D01*
X487533Y221323D01*
X487524Y221381D01*
X487516Y221431D01*
Y221498D01*
X487524Y221639D01*
X487541Y221772D01*
X487566Y221897D01*
X487599Y222022D01*
X487691Y222231D01*
X487741Y222331D01*
X487791Y222414D01*
X487849Y222497D01*
X487899Y222564D01*
X487941Y222622D01*
X487982Y222672D01*
X488024Y222714D01*
X488049Y222739D01*
X488066Y222756D01*
X488074Y222764D01*
X488182Y222847D01*
X488299Y222922D01*
X488424Y222989D01*
X488557Y223047D01*
X488690Y223097D01*
X488824Y223139D01*
X489090Y223197D01*
X489207Y223214D01*
X489324Y223230D01*
X489424Y223239D01*
X489515Y223247D01*
X489590Y223255D01*
X489640D01*
X489682D01*
X489690D01*
X489882Y223247D01*
D02*
G37*
G36*
X512078Y222581D02*
X512353Y222564D01*
X512611Y222539D01*
X512844Y222506D01*
X513053Y222472D01*
X513244Y222431D01*
X513411Y222381D01*
X513561Y222331D01*
X513686Y222289D01*
X513802Y222239D01*
X513894Y222197D01*
X513969Y222156D01*
X514019Y222131D01*
X514061Y222106D01*
X514086Y222089D01*
X514094Y222081D01*
X514211Y221981D01*
X514302Y221873D01*
X514394Y221764D01*
X514460Y221647D01*
X514527Y221539D01*
X514577Y221423D01*
X514619Y221314D01*
X514652Y221206D01*
X514686Y221106D01*
X514702Y221014D01*
X514719Y220931D01*
X514727Y220864D01*
Y220806D01*
X514735Y220756D01*
Y220723D01*
X514727Y220573D01*
X514711Y220431D01*
X514677Y220289D01*
X514644Y220165D01*
X514602Y220048D01*
X514552Y219940D01*
X514494Y219848D01*
X514436Y219756D01*
X514386Y219681D01*
X514327Y219606D01*
X514277Y219548D01*
X514236Y219498D01*
X514202Y219465D01*
X514169Y219440D01*
X514152Y219423D01*
X514144Y219415D01*
X514002Y219315D01*
X513836Y219231D01*
X513661Y219148D01*
X513469Y219090D01*
X513278Y219032D01*
X513086Y218990D01*
X512886Y218948D01*
X512694Y218915D01*
X512511Y218898D01*
X512344Y218882D01*
X512186Y218865D01*
X512053Y218857D01*
X511945Y218848D01*
X511861D01*
X511828D01*
X511803D01*
X511795D01*
X511786D01*
X511486Y218857D01*
X511211Y218873D01*
X510961Y218898D01*
X510728Y218940D01*
X510512Y218981D01*
X510320Y219023D01*
X510145Y219081D01*
X509995Y219132D01*
X509853Y219181D01*
X509745Y219231D01*
X509645Y219282D01*
X509562Y219323D01*
X509504Y219365D01*
X509462Y219390D01*
X509437Y219406D01*
X509428Y219415D01*
X509320Y219506D01*
X509229Y219606D01*
X509154Y219715D01*
X509079Y219823D01*
X509020Y219931D01*
X508979Y220040D01*
X508937Y220140D01*
X508904Y220248D01*
X508879Y220348D01*
X508862Y220431D01*
X508845Y220515D01*
X508837Y220581D01*
X508829Y220639D01*
Y220723D01*
X508837Y220873D01*
X508854Y221014D01*
X508887Y221156D01*
X508920Y221281D01*
X508970Y221398D01*
X509020Y221506D01*
X509070Y221597D01*
X509129Y221689D01*
X509187Y221764D01*
X509237Y221839D01*
X509287Y221897D01*
X509337Y221939D01*
X509370Y221981D01*
X509403Y222006D01*
X509420Y222022D01*
X509428Y222031D01*
X509570Y222131D01*
X509737Y222214D01*
X509912Y222289D01*
X510095Y222356D01*
X510287Y222406D01*
X510487Y222456D01*
X510678Y222489D01*
X510870Y222522D01*
X511053Y222539D01*
X511220Y222556D01*
X511378Y222572D01*
X511511Y222581D01*
X511620Y222589D01*
X511703D01*
X511736D01*
X511761D01*
X511770D01*
X511778D01*
X512078Y222581D01*
D02*
G37*
G36*
X507584Y222672D02*
X505560D01*
X505351D01*
X505168Y222656D01*
X505026Y222647D01*
X504901Y222631D01*
X504818Y222614D01*
X504751Y222606D01*
X504710Y222589D01*
X504701D01*
X504610Y222547D01*
X504526Y222506D01*
X504460Y222456D01*
X504402Y222406D01*
X504360Y222364D01*
X504327Y222331D01*
X504310Y222306D01*
X504301Y222297D01*
X504252Y222214D01*
X504218Y222139D01*
X504193Y222064D01*
X504176Y221989D01*
X504168Y221931D01*
X504160Y221881D01*
Y221764D01*
X504176Y221698D01*
X504185Y221639D01*
X504202Y221589D01*
X504218Y221556D01*
X504235Y221531D01*
X504243Y221514D01*
X504252Y221506D01*
X504285Y221464D01*
X504327Y221423D01*
X504418Y221364D01*
X504451Y221348D01*
X504485Y221331D01*
X504510Y221323D01*
X504518D01*
X504551Y221314D01*
X504601Y221298D01*
X504718Y221281D01*
X504843Y221273D01*
X504976Y221264D01*
X505101Y221256D01*
X505201D01*
X505243D01*
X505276D01*
X505293D01*
X505301D01*
X507584D01*
Y220148D01*
X505584D01*
X505376D01*
X505201Y220131D01*
X505051Y220123D01*
X504926Y220106D01*
X504835Y220090D01*
X504768Y220081D01*
X504735Y220065D01*
X504718D01*
X504618Y220023D01*
X504535Y219981D01*
X504468Y219931D01*
X504410Y219881D01*
X504360Y219840D01*
X504327Y219806D01*
X504310Y219781D01*
X504301Y219773D01*
X504252Y219698D01*
X504218Y219615D01*
X504193Y219540D01*
X504176Y219473D01*
X504168Y219415D01*
X504160Y219373D01*
Y219331D01*
X504168Y219223D01*
X504193Y219123D01*
X504235Y219040D01*
X504277Y218973D01*
X504327Y218923D01*
X504360Y218890D01*
X504393Y218865D01*
X504402Y218857D01*
X504443Y218840D01*
X504485Y218815D01*
X504601Y218790D01*
X504735Y218765D01*
X504868Y218757D01*
X504993Y218748D01*
X505101Y218740D01*
X505143D01*
X505176D01*
X505193D01*
X505201D01*
X507584D01*
Y217632D01*
X504918D01*
X504710Y217640D01*
X504526Y217649D01*
X504376Y217665D01*
X504260Y217690D01*
X504168Y217715D01*
X504101Y217732D01*
X504060Y217740D01*
X504052Y217749D01*
X503918Y217815D01*
X503810Y217890D01*
X503718Y217973D01*
X503635Y218048D01*
X503577Y218123D01*
X503535Y218182D01*
X503510Y218215D01*
X503502Y218232D01*
X503435Y218357D01*
X503393Y218490D01*
X503360Y218615D01*
X503335Y218740D01*
X503318Y218848D01*
X503310Y218932D01*
Y219007D01*
X503318Y219140D01*
X503335Y219265D01*
X503360Y219381D01*
X503393Y219481D01*
X503427Y219565D01*
X503452Y219631D01*
X503468Y219673D01*
X503477Y219690D01*
X503543Y219806D01*
X503627Y219915D01*
X503710Y220015D01*
X503793Y220106D01*
X503868Y220181D01*
X503927Y220231D01*
X503968Y220264D01*
X503985Y220281D01*
X503868Y220356D01*
X503760Y220439D01*
X503677Y220523D01*
X503602Y220598D01*
X503543Y220664D01*
X503510Y220723D01*
X503485Y220756D01*
X503477Y220773D01*
X503418Y220889D01*
X503377Y221006D01*
X503352Y221123D01*
X503327Y221231D01*
X503318Y221323D01*
X503310Y221398D01*
Y221464D01*
X503318Y221606D01*
X503335Y221739D01*
X503368Y221864D01*
X503410Y221989D01*
X503518Y222206D01*
X503585Y222306D01*
X503643Y222397D01*
X503702Y222481D01*
X503768Y222556D01*
X503818Y222614D01*
X503868Y222664D01*
X503918Y222706D01*
X503952Y222739D01*
X503968Y222756D01*
X503977Y222764D01*
X503402D01*
Y223780D01*
X507584D01*
Y222672D01*
D02*
G37*
G36*
X514627Y214374D02*
X513602D01*
Y216574D01*
X513494Y216507D01*
X513402Y216432D01*
X513361Y216399D01*
X513327Y216374D01*
X513311Y216357D01*
X513302Y216349D01*
X513269Y216315D01*
X513228Y216282D01*
X513136Y216182D01*
X513028Y216074D01*
X512919Y215966D01*
X512819Y215857D01*
X512736Y215766D01*
X512703Y215732D01*
X512678Y215707D01*
X512669Y215691D01*
X512661Y215682D01*
X512486Y215499D01*
X512344Y215349D01*
X512211Y215224D01*
X512111Y215124D01*
X512028Y215049D01*
X511969Y214999D01*
X511928Y214966D01*
X511920Y214958D01*
X511778Y214849D01*
X511645Y214758D01*
X511520Y214683D01*
X511411Y214624D01*
X511320Y214574D01*
X511245Y214541D01*
X511203Y214524D01*
X511186Y214516D01*
X511053Y214466D01*
X510920Y214433D01*
X510795Y214408D01*
X510678Y214391D01*
X510587Y214383D01*
X510512Y214374D01*
X510462D01*
X510445D01*
X510320Y214383D01*
X510195Y214399D01*
X510078Y214416D01*
X509970Y214449D01*
X509778Y214533D01*
X509612Y214616D01*
X509537Y214666D01*
X509478Y214708D01*
X509420Y214749D01*
X509379Y214791D01*
X509345Y214824D01*
X509312Y214841D01*
X509304Y214858D01*
X509295Y214866D01*
X509212Y214958D01*
X509137Y215066D01*
X509079Y215166D01*
X509029Y215282D01*
X508945Y215499D01*
X508887Y215716D01*
X508870Y215816D01*
X508854Y215907D01*
X508845Y215991D01*
X508837Y216066D01*
X508829Y216124D01*
Y216207D01*
X508837Y216349D01*
X508845Y216482D01*
X508887Y216740D01*
X508954Y216957D01*
X508987Y217057D01*
X509029Y217149D01*
X509062Y217232D01*
X509104Y217299D01*
X509137Y217365D01*
X509162Y217415D01*
X509195Y217457D01*
X509212Y217482D01*
X509220Y217499D01*
X509229Y217507D01*
X509312Y217598D01*
X509395Y217682D01*
X509495Y217757D01*
X509604Y217824D01*
X509820Y217924D01*
X510028Y218007D01*
X510137Y218032D01*
X510228Y218057D01*
X510312Y218082D01*
X510387Y218090D01*
X510453Y218107D01*
X510495D01*
X510528Y218115D01*
X510536D01*
X510645Y217015D01*
X510478Y216999D01*
X510337Y216965D01*
X510212Y216932D01*
X510120Y216890D01*
X510045Y216857D01*
X509995Y216824D01*
X509962Y216799D01*
X509953Y216790D01*
X509887Y216707D01*
X509837Y216616D01*
X509795Y216524D01*
X509770Y216432D01*
X509753Y216357D01*
X509745Y216291D01*
Y216232D01*
X509753Y216107D01*
X509778Y215999D01*
X509812Y215907D01*
X509845Y215824D01*
X509878Y215766D01*
X509912Y215716D01*
X509937Y215691D01*
X509945Y215682D01*
X510028Y215616D01*
X510120Y215566D01*
X510212Y215532D01*
X510303Y215507D01*
X510387Y215491D01*
X510462Y215482D01*
X510503D01*
X510512D01*
X510520D01*
X510645Y215491D01*
X510761Y215516D01*
X510878Y215557D01*
X510978Y215599D01*
X511070Y215641D01*
X511136Y215682D01*
X511178Y215707D01*
X511195Y215716D01*
X511245Y215749D01*
X511303Y215799D01*
X511378Y215866D01*
X511445Y215932D01*
X511603Y216082D01*
X511761Y216232D01*
X511911Y216382D01*
X511978Y216449D01*
X512028Y216516D01*
X512078Y216565D01*
X512111Y216599D01*
X512136Y216624D01*
X512145Y216632D01*
X512303Y216799D01*
X512453Y216949D01*
X512594Y217090D01*
X512719Y217215D01*
X512844Y217332D01*
X512961Y217432D01*
X513061Y217524D01*
X513161Y217598D01*
X513244Y217665D01*
X513319Y217724D01*
X513377Y217773D01*
X513436Y217807D01*
X513469Y217840D01*
X513503Y217857D01*
X513519Y217873D01*
X513527D01*
X513719Y217982D01*
X513919Y218065D01*
X514102Y218132D01*
X514269Y218182D01*
X514419Y218215D01*
X514477Y218223D01*
X514527Y218232D01*
X514569Y218240D01*
X514602Y218248D01*
X514619D01*
X514627D01*
Y214374D01*
D02*
G37*
G36*
X489890Y218398D02*
X490048Y218390D01*
X490190Y218365D01*
X490323Y218340D01*
X490457Y218315D01*
X490573Y218273D01*
X490682Y218240D01*
X490782Y218198D01*
X490873Y218165D01*
X490948Y218123D01*
X491015Y218090D01*
X491073Y218065D01*
X491115Y218032D01*
X491148Y218015D01*
X491165Y218007D01*
X491173Y217998D01*
X491298Y217890D01*
X491407Y217782D01*
X491498Y217657D01*
X491581Y217524D01*
X491648Y217390D01*
X491706Y217257D01*
X491756Y217124D01*
X491790Y216990D01*
X491823Y216874D01*
X491840Y216757D01*
X491856Y216649D01*
X491873Y216557D01*
Y216482D01*
X491881Y216432D01*
Y216382D01*
X491865Y216141D01*
X491831Y215916D01*
X491781Y215724D01*
X491723Y215557D01*
X491690Y215482D01*
X491665Y215424D01*
X491640Y215366D01*
X491615Y215324D01*
X491590Y215291D01*
X491581Y215257D01*
X491565Y215249D01*
Y215241D01*
X491432Y215082D01*
X491290Y214941D01*
X491132Y214824D01*
X490982Y214733D01*
X490848Y214658D01*
X490790Y214633D01*
X490740Y214608D01*
X490698Y214591D01*
X490665Y214574D01*
X490648Y214566D01*
X490640D01*
X490457Y215666D01*
X490565Y215707D01*
X490665Y215749D01*
X490740Y215791D01*
X490807Y215841D01*
X490857Y215874D01*
X490890Y215907D01*
X490907Y215932D01*
X490915Y215941D01*
X490965Y216007D01*
X490998Y216082D01*
X491023Y216157D01*
X491040Y216224D01*
X491048Y216282D01*
X491057Y216332D01*
Y216374D01*
X491048Y216507D01*
X491015Y216632D01*
X490973Y216749D01*
X490923Y216840D01*
X490873Y216915D01*
X490832Y216965D01*
X490798Y217007D01*
X490790Y217015D01*
X490682Y217099D01*
X490557Y217157D01*
X490423Y217207D01*
X490307Y217240D01*
X490190Y217257D01*
X490107Y217265D01*
X490074Y217274D01*
X490048D01*
X490032D01*
X490023D01*
Y214508D01*
X489790D01*
X489582Y214524D01*
X489382Y214549D01*
X489199Y214583D01*
X489024Y214624D01*
X488874Y214666D01*
X488732Y214716D01*
X488607Y214766D01*
X488499Y214816D01*
X488399Y214866D01*
X488324Y214908D01*
X488257Y214949D01*
X488207Y214983D01*
X488166Y215007D01*
X488149Y215024D01*
X488141Y215033D01*
X488032Y215133D01*
X487932Y215249D01*
X487849Y215366D01*
X487782Y215482D01*
X487716Y215607D01*
X487666Y215732D01*
X487624Y215849D01*
X487591Y215966D01*
X487566Y216074D01*
X487549Y216174D01*
X487533Y216266D01*
X487524Y216341D01*
X487516Y216407D01*
Y216499D01*
X487524Y216649D01*
X487541Y216790D01*
X487574Y216932D01*
X487607Y217057D01*
X487649Y217182D01*
X487699Y217290D01*
X487757Y217399D01*
X487807Y217490D01*
X487866Y217574D01*
X487924Y217649D01*
X487974Y217715D01*
X488016Y217765D01*
X488049Y217807D01*
X488082Y217840D01*
X488099Y217857D01*
X488107Y217865D01*
X488224Y217957D01*
X488349Y218040D01*
X488474Y218115D01*
X488607Y218182D01*
X488749Y218232D01*
X488882Y218273D01*
X489140Y218340D01*
X489265Y218365D01*
X489374Y218382D01*
X489474Y218390D01*
X489557Y218398D01*
X489632Y218407D01*
X489690D01*
X489724D01*
X489732D01*
X489890Y218398D01*
D02*
G37*
G36*
X506259Y216549D02*
X506443Y216532D01*
X506601Y216507D01*
X506734Y216482D01*
X506842Y216457D01*
X506917Y216432D01*
X506959Y216416D01*
X506976Y216407D01*
X507092Y216341D01*
X507201Y216266D01*
X507284Y216191D01*
X507359Y216107D01*
X507417Y216041D01*
X507459Y215974D01*
X507484Y215941D01*
X507492Y215924D01*
X507551Y215799D01*
X507601Y215666D01*
X507634Y215541D01*
X507651Y215416D01*
X507667Y215316D01*
X507676Y215241D01*
Y215166D01*
X507667Y215016D01*
X507651Y214874D01*
X507617Y214741D01*
X507584Y214624D01*
X507551Y214524D01*
X507517Y214449D01*
X507501Y214399D01*
X507492Y214383D01*
X507417Y214249D01*
X507326Y214133D01*
X507242Y214025D01*
X507151Y213941D01*
X507076Y213866D01*
X507018Y213816D01*
X506976Y213783D01*
X506959Y213775D01*
X507584D01*
Y212750D01*
X503402D01*
Y213858D01*
X505168D01*
X505326D01*
X505468D01*
X505601Y213866D01*
X505718Y213874D01*
X505826D01*
X505918Y213883D01*
X505993Y213891D01*
X506068Y213899D01*
X506126Y213908D01*
X506168Y213916D01*
X506209Y213925D01*
X506243D01*
X506284Y213941D01*
X506293D01*
X506376Y213974D01*
X506451Y214025D01*
X506509Y214074D01*
X506568Y214124D01*
X506618Y214174D01*
X506651Y214216D01*
X506668Y214241D01*
X506676Y214249D01*
X506726Y214333D01*
X506759Y214424D01*
X506792Y214508D01*
X506809Y214591D01*
X506818Y214658D01*
X506826Y214708D01*
Y214758D01*
X506818Y214849D01*
X506809Y214924D01*
X506792Y214999D01*
X506768Y215058D01*
X506751Y215107D01*
X506734Y215141D01*
X506726Y215166D01*
X506717Y215174D01*
X506668Y215233D01*
X506618Y215274D01*
X506568Y215316D01*
X506518Y215341D01*
X506468Y215366D01*
X506434Y215382D01*
X506409Y215391D01*
X506401D01*
X506359Y215399D01*
X506301Y215407D01*
X506226Y215416D01*
X506151Y215424D01*
X505976Y215432D01*
X505784Y215441D01*
X505610Y215449D01*
X505535D01*
X505468D01*
X505410D01*
X505368D01*
X505335D01*
X505326D01*
X503402D01*
Y216557D01*
X506051D01*
X506259Y216549D01*
D02*
G37*
G36*
X500516Y216116D02*
X495984D01*
X500516Y214983D01*
Y213858D01*
X495984Y212725D01*
X500516Y212717D01*
Y211642D01*
X494751D01*
Y213391D01*
X498691Y214416D01*
X494751Y215449D01*
Y217190D01*
X500516D01*
Y216116D01*
D02*
G37*
G36*
X513469Y211450D02*
X514627D01*
Y210384D01*
X513469D01*
Y209667D01*
X512503D01*
Y210384D01*
X508837D01*
Y211317D01*
X512511Y213816D01*
X513469D01*
Y211450D01*
D02*
G37*
G36*
X500516Y209367D02*
X499408D01*
Y210475D01*
X500516D01*
Y209367D01*
D02*
G37*
G36*
X506601Y211925D02*
X506792Y211833D01*
X506951Y211733D01*
X507084Y211625D01*
X507192Y211525D01*
X507267Y211434D01*
X507301Y211409D01*
X507317Y211383D01*
X507326Y211367D01*
X507334Y211359D01*
X507392Y211259D01*
X507451Y211159D01*
X507534Y210934D01*
X507592Y210709D01*
X507634Y210492D01*
X507651Y210392D01*
X507659Y210300D01*
X507667Y210217D01*
Y210142D01*
X507676Y210084D01*
Y210000D01*
X507667Y209834D01*
X507659Y209676D01*
X507634Y209526D01*
X507609Y209384D01*
X507584Y209259D01*
X507542Y209142D01*
X507509Y209034D01*
X507467Y208942D01*
X507434Y208859D01*
X507392Y208784D01*
X507359Y208726D01*
X507334Y208676D01*
X507301Y208634D01*
X507284Y208609D01*
X507276Y208592D01*
X507267Y208584D01*
X507184Y208501D01*
X507101Y208426D01*
X507018Y208359D01*
X506934Y208301D01*
X506851Y208259D01*
X506768Y208218D01*
X506618Y208159D01*
X506476Y208126D01*
X506418Y208118D01*
X506376Y208109D01*
X506334Y208101D01*
X506301D01*
X506284D01*
X506276D01*
X506093Y208118D01*
X505926Y208159D01*
X505784Y208209D01*
X505668Y208276D01*
X505576Y208343D01*
X505509Y208393D01*
X505476Y208434D01*
X505460Y208451D01*
X505410Y208526D01*
X505351Y208601D01*
X505310Y208692D01*
X505260Y208792D01*
X505176Y208992D01*
X505101Y209201D01*
X505043Y209384D01*
X505026Y209467D01*
X505001Y209542D01*
X504985Y209601D01*
X504976Y209642D01*
X504968Y209676D01*
Y209684D01*
X504926Y209842D01*
X504893Y209984D01*
X504860Y210109D01*
X504826Y210217D01*
X504801Y210317D01*
X504776Y210400D01*
X504751Y210467D01*
X504735Y210534D01*
X504710Y210584D01*
X504693Y210625D01*
X504685Y210659D01*
X504668Y210675D01*
X504660Y210709D01*
X504651Y210717D01*
X504618Y210750D01*
X504585Y210775D01*
X504518Y210809D01*
X504468Y210825D01*
X504460D01*
X504451D01*
X504402Y210817D01*
X504360Y210809D01*
X504285Y210759D01*
X504243Y210717D01*
X504226Y210709D01*
Y210700D01*
X504185Y210617D01*
X504151Y210525D01*
X504135Y210425D01*
X504118Y210317D01*
X504110Y210225D01*
X504101Y210151D01*
Y210075D01*
X504110Y209951D01*
X504118Y209842D01*
X504143Y209751D01*
X504168Y209676D01*
X504193Y209617D01*
X504210Y209576D01*
X504226Y209551D01*
X504235Y209542D01*
X504285Y209476D01*
X504343Y209426D01*
X504402Y209376D01*
X504468Y209342D01*
X504518Y209317D01*
X504560Y209301D01*
X504593Y209284D01*
X504601D01*
X504410Y208243D01*
X504218Y208309D01*
X504052Y208401D01*
X503910Y208493D01*
X503802Y208592D01*
X503710Y208676D01*
X503643Y208751D01*
X503610Y208801D01*
X503593Y208809D01*
Y208818D01*
X503543Y208901D01*
X503502Y208992D01*
X503427Y209192D01*
X503377Y209401D01*
X503343Y209609D01*
X503335Y209709D01*
X503327Y209800D01*
X503318Y209884D01*
X503310Y209951D01*
Y210259D01*
X503327Y210409D01*
X503343Y210550D01*
X503368Y210684D01*
X503393Y210800D01*
X503427Y210909D01*
X503460Y211009D01*
X503493Y211100D01*
X503535Y211175D01*
X503568Y211242D01*
X503602Y211300D01*
X503627Y211342D01*
X503652Y211383D01*
X503668Y211409D01*
X503677Y211417D01*
X503685Y211425D01*
X503752Y211500D01*
X503827Y211567D01*
X503902Y211625D01*
X503985Y211667D01*
X504135Y211750D01*
X504277Y211800D01*
X504402Y211825D01*
X504460Y211833D01*
X504501Y211842D01*
X504543Y211850D01*
X504568D01*
X504585D01*
X504593D01*
X504701Y211842D01*
X504801Y211825D01*
X504901Y211808D01*
X504993Y211775D01*
X505151Y211692D01*
X505285Y211600D01*
X505393Y211517D01*
X505468Y211434D01*
X505501Y211400D01*
X505518Y211383D01*
X505526Y211367D01*
X505535Y211359D01*
X505576Y211283D01*
X505626Y211183D01*
X505676Y211067D01*
X505718Y210942D01*
X505768Y210809D01*
X505809Y210667D01*
X505893Y210375D01*
X505934Y210234D01*
X505968Y210100D01*
X506001Y209984D01*
X506026Y209876D01*
X506043Y209784D01*
X506059Y209717D01*
X506076Y209676D01*
Y209659D01*
X506101Y209559D01*
X506126Y209484D01*
X506151Y209417D01*
X506168Y209367D01*
X506193Y209334D01*
X506201Y209309D01*
X506218Y209292D01*
X506284Y209242D01*
X506351Y209217D01*
X506401Y209209D01*
X506418D01*
X506426D01*
X506493Y209217D01*
X506551Y209234D01*
X506601Y209259D01*
X506642Y209284D01*
X506676Y209309D01*
X506701Y209334D01*
X506717Y209351D01*
X506726Y209359D01*
X506776Y209451D01*
X506809Y209551D01*
X506842Y209659D01*
X506859Y209759D01*
X506867Y209851D01*
X506876Y209934D01*
Y210000D01*
X506867Y210142D01*
X506851Y210259D01*
X506826Y210367D01*
X506792Y210450D01*
X506768Y210517D01*
X506743Y210567D01*
X506726Y210600D01*
X506717Y210609D01*
X506651Y210684D01*
X506568Y210742D01*
X506493Y210792D01*
X506409Y210834D01*
X506334Y210859D01*
X506276Y210875D01*
X506243Y210892D01*
X506226D01*
X506393Y212000D01*
X506601Y211925D01*
D02*
G37*
G36*
X491790Y210384D02*
X491181D01*
X491306Y210284D01*
X491415Y210184D01*
X491498Y210084D01*
X491573Y209992D01*
X491631Y209909D01*
X491673Y209842D01*
X491698Y209800D01*
X491706Y209784D01*
X491765Y209651D01*
X491806Y209526D01*
X491840Y209409D01*
X491856Y209301D01*
X491873Y209209D01*
X491881Y209134D01*
Y209076D01*
X491873Y208942D01*
X491856Y208809D01*
X491831Y208692D01*
X491790Y208576D01*
X491698Y208359D01*
X491648Y208268D01*
X491590Y208176D01*
X491540Y208101D01*
X491490Y208034D01*
X491440Y207976D01*
X491398Y207926D01*
X491357Y207884D01*
X491331Y207859D01*
X491315Y207843D01*
X491306Y207834D01*
X491190Y207743D01*
X491073Y207668D01*
X490940Y207593D01*
X490807Y207535D01*
X490665Y207484D01*
X490532Y207443D01*
X490265Y207384D01*
X490140Y207360D01*
X490023Y207343D01*
X489924Y207334D01*
X489832Y207326D01*
X489757Y207318D01*
X489707D01*
X489665D01*
X489657D01*
X489465Y207326D01*
X489290Y207343D01*
X489124Y207368D01*
X488974Y207393D01*
X488832Y207435D01*
X488699Y207476D01*
X488582Y207526D01*
X488474Y207568D01*
X488382Y207618D01*
X488299Y207668D01*
X488232Y207709D01*
X488174Y207743D01*
X488132Y207776D01*
X488099Y207801D01*
X488082Y207818D01*
X488074Y207826D01*
X487974Y207926D01*
X487891Y208026D01*
X487816Y208126D01*
X487749Y208234D01*
X487699Y208343D01*
X487649Y208443D01*
X487582Y208643D01*
X487566Y208743D01*
X487549Y208826D01*
X487533Y208901D01*
X487524Y208967D01*
X487516Y209017D01*
Y209092D01*
X487524Y209217D01*
X487541Y209342D01*
X487566Y209467D01*
X487607Y209576D01*
X487699Y209784D01*
X487807Y209959D01*
X487857Y210034D01*
X487916Y210100D01*
X487966Y210159D01*
X488007Y210209D01*
X488049Y210250D01*
X488074Y210275D01*
X488091Y210292D01*
X488099Y210300D01*
X486025D01*
Y211409D01*
X491790D01*
Y210384D01*
D02*
G37*
G36*
X499049Y206201D02*
X499166Y206193D01*
X499366Y206143D01*
X499549Y206077D01*
X499708Y206001D01*
X499841Y205926D01*
X499899Y205893D01*
X499941Y205860D01*
X499974Y205835D01*
X499999Y205810D01*
X500016Y205802D01*
X500024Y205793D01*
X500133Y205685D01*
X500224Y205568D01*
X500299Y205443D01*
X500374Y205310D01*
X500433Y205177D01*
X500474Y205043D01*
X500516Y204910D01*
X500549Y204785D01*
X500574Y204660D01*
X500591Y204544D01*
X500607Y204444D01*
X500616Y204352D01*
Y204277D01*
X500624Y204227D01*
Y204177D01*
X500616Y203977D01*
X500599Y203794D01*
X500574Y203636D01*
X500549Y203502D01*
X500524Y203386D01*
X500499Y203302D01*
X500491Y203277D01*
X500482Y203252D01*
X500474Y203244D01*
Y203236D01*
X500407Y203094D01*
X500341Y202952D01*
X500266Y202827D01*
X500191Y202719D01*
X500124Y202627D01*
X500066Y202552D01*
X500033Y202511D01*
X500016Y202494D01*
X500166Y202327D01*
X500291Y202161D01*
X500407Y201994D01*
X500499Y201853D01*
X500566Y201728D01*
X500599Y201678D01*
X500624Y201636D01*
X500641Y201603D01*
X500657Y201578D01*
X500666Y201561D01*
Y201553D01*
X499816Y200886D01*
X499783Y200944D01*
X499741Y201011D01*
X499649Y201153D01*
X499608Y201219D01*
X499574Y201269D01*
X499549Y201303D01*
X499541Y201319D01*
X499466Y201419D01*
X499391Y201519D01*
X499333Y201594D01*
X499274Y201669D01*
X499233Y201719D01*
X499191Y201761D01*
X499174Y201786D01*
X499166Y201794D01*
X499033Y201703D01*
X498899Y201628D01*
X498841Y201603D01*
X498800Y201578D01*
X498766Y201569D01*
X498758Y201561D01*
X498650Y201519D01*
X498533Y201478D01*
X498400Y201428D01*
X498275Y201394D01*
X498158Y201353D01*
X498058Y201328D01*
X498025Y201319D01*
X498000Y201311D01*
X497983Y201303D01*
X497975D01*
X497750Y202294D01*
X497892Y202336D01*
X498016Y202377D01*
X498133Y202411D01*
X498225Y202452D01*
X498300Y202486D01*
X498358Y202511D01*
X498391Y202527D01*
X498400Y202536D01*
X497333Y203335D01*
X497258Y203219D01*
X497192Y203119D01*
X497117Y203019D01*
X497050Y202936D01*
X496992Y202861D01*
X496933Y202794D01*
X496825Y202677D01*
X496742Y202594D01*
X496675Y202536D01*
X496642Y202502D01*
X496625Y202494D01*
X496508Y202427D01*
X496384Y202377D01*
X496275Y202336D01*
X496175Y202311D01*
X496084Y202294D01*
X496017Y202286D01*
X495975D01*
X495959D01*
X495859Y202294D01*
X495759Y202302D01*
X495584Y202353D01*
X495425Y202419D01*
X495284Y202494D01*
X495176Y202577D01*
X495092Y202644D01*
X495067Y202669D01*
X495042Y202694D01*
X495034Y202702D01*
X495025Y202711D01*
X494959Y202794D01*
X494901Y202877D01*
X494801Y203069D01*
X494734Y203261D01*
X494692Y203452D01*
X494659Y203619D01*
X494651Y203694D01*
Y203752D01*
X494642Y203802D01*
Y204019D01*
X494659Y204152D01*
X494676Y204277D01*
X494701Y204394D01*
X494726Y204494D01*
X494759Y204594D01*
X494792Y204685D01*
X494826Y204760D01*
X494859Y204835D01*
X494892Y204893D01*
X494926Y204952D01*
X494950Y204993D01*
X494976Y205027D01*
X494992Y205052D01*
X495000Y205060D01*
X495009Y205068D01*
X495075Y205143D01*
X495150Y205202D01*
X495225Y205260D01*
X495300Y205310D01*
X495450Y205385D01*
X495592Y205435D01*
X495717Y205460D01*
X495809Y205477D01*
X495850Y205485D01*
X495875D01*
X495892D01*
X495900D01*
X496009Y205477D01*
X496117Y205460D01*
X496217Y205443D01*
X496309Y205410D01*
X496384Y205385D01*
X496442Y205368D01*
X496483Y205352D01*
X496500Y205343D01*
X496617Y205277D01*
X496733Y205210D01*
X496850Y205135D01*
X496950Y205060D01*
X497042Y204993D01*
X497108Y204944D01*
X497150Y204910D01*
X497167Y204893D01*
X497292Y205127D01*
X497425Y205327D01*
X497558Y205493D01*
X497675Y205635D01*
X497783Y205743D01*
X497867Y205818D01*
X497900Y205852D01*
X497925Y205868D01*
X497933Y205885D01*
X497941D01*
X498108Y205993D01*
X498283Y206077D01*
X498450Y206126D01*
X498608Y206168D01*
X498741Y206193D01*
X498800Y206201D01*
X498849D01*
X498883Y206210D01*
X498916D01*
X498933D01*
X498941D01*
X499049Y206201D01*
D02*
G37*
G36*
X491798Y205377D02*
X491923Y205418D01*
X492031Y205460D01*
X492131Y205510D01*
X492215Y205552D01*
X492281Y205593D01*
X492331Y205627D01*
X492365Y205652D01*
X492373Y205660D01*
X492448Y205735D01*
X492506Y205827D01*
X492548Y205918D01*
X492573Y206010D01*
X492589Y206093D01*
X492606Y206160D01*
Y206227D01*
X492598Y206385D01*
X492589Y206468D01*
X492573Y206535D01*
X492565Y206601D01*
X492556Y206651D01*
X492548Y206685D01*
Y206693D01*
X493414Y206593D01*
X493456Y206368D01*
X493473Y206268D01*
X493481Y206168D01*
Y206093D01*
X493489Y206026D01*
Y205860D01*
X493481Y205752D01*
X493464Y205660D01*
X493448Y205577D01*
X493439Y205502D01*
X493423Y205452D01*
X493414Y205418D01*
Y205410D01*
X493389Y205318D01*
X493356Y205235D01*
X493323Y205168D01*
X493298Y205110D01*
X493273Y205060D01*
X493248Y205027D01*
X493239Y205002D01*
X493231Y204993D01*
X493131Y204869D01*
X493031Y204777D01*
X492981Y204743D01*
X492948Y204718D01*
X492923Y204702D01*
X492914Y204694D01*
X492831Y204643D01*
X492748Y204594D01*
X492656Y204544D01*
X492565Y204502D01*
X492481Y204469D01*
X492415Y204435D01*
X492373Y204419D01*
X492356Y204410D01*
X491640Y204144D01*
X487607Y202669D01*
Y203810D01*
X490582Y204793D01*
X487607Y205785D01*
Y206960D01*
X491798Y205377D01*
D02*
G37*
G36*
X507584Y203710D02*
X505410D01*
Y202677D01*
X505401Y202552D01*
Y202436D01*
X505393Y202327D01*
X505384Y202227D01*
X505376Y202136D01*
X505368Y202061D01*
Y201986D01*
X505359Y201928D01*
X505351Y201869D01*
X505343Y201828D01*
Y201794D01*
X505335Y201769D01*
Y201753D01*
X505301Y201636D01*
X505260Y201528D01*
X505218Y201428D01*
X505168Y201336D01*
X505126Y201261D01*
X505093Y201203D01*
X505068Y201169D01*
X505060Y201153D01*
X504976Y201045D01*
X504885Y200953D01*
X504785Y200861D01*
X504701Y200795D01*
X504618Y200736D01*
X504551Y200695D01*
X504510Y200670D01*
X504493Y200661D01*
X504352Y200595D01*
X504202Y200545D01*
X504043Y200511D01*
X503902Y200486D01*
X503785Y200470D01*
X503727D01*
X503685Y200461D01*
X503643D01*
X503618D01*
X503602D01*
X503593D01*
X503352Y200478D01*
X503127Y200511D01*
X502943Y200570D01*
X502777Y200628D01*
X502710Y200661D01*
X502652Y200695D01*
X502602Y200720D01*
X502552Y200753D01*
X502519Y200770D01*
X502494Y200786D01*
X502485Y200803D01*
X502477D01*
X502327Y200936D01*
X502202Y201069D01*
X502102Y201211D01*
X502027Y201336D01*
X501977Y201453D01*
X501935Y201544D01*
X501927Y201578D01*
X501919Y201603D01*
X501910Y201619D01*
Y201628D01*
X501894Y201694D01*
X501877Y201778D01*
X501869Y201878D01*
X501860Y201978D01*
X501844Y202211D01*
X501827Y202444D01*
Y202661D01*
X501819Y202752D01*
Y204877D01*
X507584D01*
Y203710D01*
D02*
G37*
G36*
Y198412D02*
X506476D01*
Y199520D01*
X507584D01*
Y198412D01*
D02*
G37*
G36*
X208150Y326020D02*
X207891Y325956D01*
X207648Y325875D01*
X207422Y325794D01*
X207211Y325713D01*
X207017Y325616D01*
X206855Y325519D01*
X206693Y325405D01*
X206548Y325308D01*
X206418Y325227D01*
X206321Y325130D01*
X206224Y325049D01*
X206143Y324985D01*
X206095Y324920D01*
X206046Y324871D01*
X206030Y324855D01*
X206014Y324839D01*
X205884Y324677D01*
X205787Y324499D01*
X205609Y324143D01*
X205480Y323804D01*
X205399Y323464D01*
X205334Y323173D01*
X205318Y323059D01*
Y322946D01*
X205302Y322849D01*
Y322736D01*
X205318Y322364D01*
X205383Y322008D01*
X205464Y321684D01*
X205561Y321393D01*
X205658Y321166D01*
X205707Y321069D01*
X205739Y320988D01*
X205771Y320924D01*
X205804Y320875D01*
X205820Y320843D01*
Y320826D01*
X206046Y320519D01*
X206289Y320260D01*
X206564Y320034D01*
X206823Y319856D01*
X207050Y319710D01*
X207244Y319613D01*
X207325Y319581D01*
X207373Y319548D01*
X207405Y319532D01*
X207422D01*
X207842Y319403D01*
X208263Y319306D01*
X208684Y319225D01*
X209072Y319176D01*
X209250Y319160D01*
X209412Y319144D01*
X209557D01*
X209671Y319128D01*
X209768D01*
X209849D01*
X209897D01*
X209913D01*
X210334Y319144D01*
X210722Y319176D01*
X211078Y319241D01*
X211402Y319306D01*
X211677Y319354D01*
X211790Y319387D01*
X211887Y319419D01*
X211968Y319435D01*
X212017Y319451D01*
X212049Y319467D01*
X212065D01*
X212437Y319629D01*
X212777Y319807D01*
X213052Y320001D01*
X213295Y320212D01*
X213489Y320390D01*
X213619Y320535D01*
X213699Y320648D01*
X213732Y320665D01*
Y320681D01*
X213942Y321021D01*
X214104Y321393D01*
X214217Y321749D01*
X214282Y322089D01*
X214330Y322396D01*
X214347Y322525D01*
Y322639D01*
X214363Y322719D01*
Y322849D01*
X214347Y323254D01*
X214282Y323626D01*
X214185Y323933D01*
X214088Y324208D01*
X213974Y324418D01*
X213894Y324580D01*
X213829Y324677D01*
X213796Y324710D01*
X213554Y324968D01*
X213279Y325211D01*
X212987Y325405D01*
X212696Y325567D01*
X212437Y325697D01*
X212308Y325745D01*
X212211Y325778D01*
X212130Y325810D01*
X212065Y325842D01*
X212033Y325858D01*
X212017D01*
X212356Y327315D01*
X212648Y327217D01*
X212907Y327120D01*
X213149Y326991D01*
X213392Y326878D01*
X213602Y326748D01*
X213796Y326603D01*
X213991Y326473D01*
X214152Y326344D01*
X214282Y326214D01*
X214411Y326101D01*
X214524Y325988D01*
X214605Y325907D01*
X214686Y325826D01*
X214735Y325761D01*
X214751Y325729D01*
X214767Y325713D01*
X214913Y325486D01*
X215058Y325260D01*
X215172Y325033D01*
X215269Y324790D01*
X215414Y324305D01*
X215511Y323868D01*
X215560Y323658D01*
X215576Y323480D01*
X215592Y323302D01*
X215609Y323156D01*
X215625Y323043D01*
Y322881D01*
X215592Y322347D01*
X215511Y321830D01*
X215414Y321377D01*
X215350Y321166D01*
X215285Y320972D01*
X215220Y320794D01*
X215156Y320632D01*
X215107Y320503D01*
X215058Y320373D01*
X215010Y320293D01*
X214978Y320228D01*
X214961Y320179D01*
X214945Y320163D01*
X214670Y319726D01*
X214347Y319354D01*
X214023Y319030D01*
X213699Y318755D01*
X213408Y318545D01*
X213279Y318464D01*
X213165Y318400D01*
X213085Y318335D01*
X213020Y318302D01*
X212971Y318286D01*
X212955Y318270D01*
X212453Y318044D01*
X211936Y317882D01*
X211418Y317768D01*
X210949Y317688D01*
X210739Y317655D01*
X210528Y317639D01*
X210366Y317623D01*
X210205D01*
X210091Y317607D01*
X209994D01*
X209930D01*
X209913D01*
X209331Y317639D01*
X208764Y317704D01*
X208263Y317785D01*
X208020Y317849D01*
X207810Y317898D01*
X207616Y317946D01*
X207438Y318011D01*
X207276Y318060D01*
X207147Y318092D01*
X207050Y318141D01*
X206969Y318157D01*
X206920Y318189D01*
X206904D01*
X206418Y318432D01*
X205982Y318707D01*
X205609Y318998D01*
X205464Y319144D01*
X205318Y319273D01*
X205189Y319403D01*
X205075Y319532D01*
X204979Y319645D01*
X204914Y319742D01*
X204849Y319807D01*
X204800Y319872D01*
X204784Y319904D01*
X204768Y319920D01*
X204639Y320147D01*
X204525Y320373D01*
X204347Y320859D01*
X204218Y321344D01*
X204137Y321814D01*
X204105Y322040D01*
X204072Y322234D01*
X204056Y322412D01*
Y322558D01*
X204040Y322687D01*
Y322865D01*
X204056Y323189D01*
X204089Y323496D01*
X204121Y323787D01*
X204186Y324062D01*
X204266Y324321D01*
X204347Y324564D01*
X204428Y324790D01*
X204525Y325001D01*
X204606Y325179D01*
X204687Y325357D01*
X204768Y325486D01*
X204849Y325616D01*
X204914Y325697D01*
X204946Y325778D01*
X204979Y325810D01*
X204995Y325826D01*
X205189Y326053D01*
X205383Y326247D01*
X205609Y326425D01*
X205836Y326603D01*
X206289Y326894D01*
X206742Y327120D01*
X206952Y327217D01*
X207147Y327298D01*
X207325Y327363D01*
X207470Y327412D01*
X207600Y327460D01*
X207697Y327493D01*
X207761Y327509D01*
X207778D01*
X208150Y326020D01*
D02*
G37*
G36*
X205561Y310763D02*
X215431D01*
Y309274D01*
X204234D01*
Y316280D01*
X205561D01*
Y310763D01*
D02*
G37*
G36*
X215431Y305423D02*
X207713D01*
X207373D01*
X207082Y305391D01*
X206839Y305375D01*
X206645Y305342D01*
X206499Y305310D01*
X206386Y305294D01*
X206321Y305261D01*
X206305D01*
X206143Y305197D01*
X206014Y305116D01*
X205901Y305019D01*
X205787Y304938D01*
X205723Y304841D01*
X205658Y304776D01*
X205626Y304728D01*
X205609Y304711D01*
X205529Y304550D01*
X205464Y304388D01*
X205431Y304226D01*
X205399Y304080D01*
X205383Y303935D01*
X205367Y303838D01*
Y303741D01*
X205383Y303482D01*
X205448Y303239D01*
X205512Y303045D01*
X205609Y302867D01*
X205690Y302738D01*
X205771Y302640D01*
X205820Y302576D01*
X205836Y302560D01*
X205933Y302479D01*
X206046Y302414D01*
X206305Y302317D01*
X206596Y302220D01*
X206888Y302171D01*
X207163Y302123D01*
X207276D01*
X207373Y302106D01*
X207470Y302090D01*
X207535D01*
X207567D01*
X207583D01*
X207389Y300747D01*
X207082D01*
X206807Y300763D01*
X206532Y300812D01*
X206289Y300844D01*
X206063Y300909D01*
X205868Y300974D01*
X205674Y301039D01*
X205512Y301103D01*
X205367Y301184D01*
X205237Y301249D01*
X205124Y301314D01*
X205043Y301378D01*
X204979Y301427D01*
X204914Y301459D01*
X204898Y301475D01*
X204881Y301492D01*
X204736Y301653D01*
X204606Y301815D01*
X204493Y301993D01*
X204396Y302187D01*
X204250Y302560D01*
X204153Y302915D01*
X204089Y303255D01*
X204072Y303385D01*
X204056Y303514D01*
X204040Y303611D01*
Y303757D01*
X204056Y304113D01*
X204105Y304436D01*
X204170Y304728D01*
X204250Y304986D01*
X204315Y305197D01*
X204380Y305342D01*
X204428Y305439D01*
X204445Y305472D01*
X204606Y305731D01*
X204800Y305957D01*
X204995Y306135D01*
X205173Y306297D01*
X205351Y306410D01*
X205480Y306491D01*
X205577Y306540D01*
X205593Y306556D01*
X205609D01*
X205933Y306669D01*
X206273Y306766D01*
X206645Y306831D01*
X207001Y306863D01*
X207308Y306896D01*
X207438D01*
X207567Y306912D01*
X207664D01*
X207729D01*
X207778D01*
X207794D01*
X215431D01*
Y305423D01*
D02*
G37*
G36*
X208150Y298191D02*
X207891Y298126D01*
X207648Y298045D01*
X207422Y297964D01*
X207211Y297883D01*
X207017Y297787D01*
X206855Y297689D01*
X206693Y297576D01*
X206548Y297479D01*
X206418Y297398D01*
X206321Y297301D01*
X206224Y297220D01*
X206143Y297155D01*
X206095Y297091D01*
X206046Y297042D01*
X206030Y297026D01*
X206014Y297010D01*
X205884Y296848D01*
X205787Y296670D01*
X205609Y296314D01*
X205480Y295974D01*
X205399Y295634D01*
X205334Y295343D01*
X205318Y295230D01*
Y295117D01*
X205302Y295020D01*
Y294906D01*
X205318Y294534D01*
X205383Y294178D01*
X205464Y293855D01*
X205561Y293563D01*
X205658Y293337D01*
X205707Y293240D01*
X205739Y293159D01*
X205771Y293094D01*
X205804Y293046D01*
X205820Y293013D01*
Y292997D01*
X206046Y292690D01*
X206289Y292431D01*
X206564Y292204D01*
X206823Y292026D01*
X207050Y291881D01*
X207244Y291784D01*
X207325Y291751D01*
X207373Y291719D01*
X207405Y291703D01*
X207422D01*
X207842Y291573D01*
X208263Y291476D01*
X208684Y291395D01*
X209072Y291347D01*
X209250Y291331D01*
X209412Y291315D01*
X209557D01*
X209671Y291298D01*
X209768D01*
X209849D01*
X209897D01*
X209913D01*
X210334Y291315D01*
X210722Y291347D01*
X211078Y291412D01*
X211402Y291476D01*
X211677Y291525D01*
X211790Y291557D01*
X211887Y291590D01*
X211968Y291606D01*
X212017Y291622D01*
X212049Y291638D01*
X212065D01*
X212437Y291800D01*
X212777Y291978D01*
X213052Y292172D01*
X213295Y292382D01*
X213489Y292560D01*
X213619Y292706D01*
X213699Y292819D01*
X213732Y292835D01*
Y292852D01*
X213942Y293191D01*
X214104Y293563D01*
X214217Y293920D01*
X214282Y294259D01*
X214330Y294567D01*
X214347Y294696D01*
Y294809D01*
X214363Y294890D01*
Y295020D01*
X214347Y295424D01*
X214282Y295796D01*
X214185Y296104D01*
X214088Y296379D01*
X213974Y296589D01*
X213894Y296751D01*
X213829Y296848D01*
X213796Y296880D01*
X213554Y297139D01*
X213279Y297382D01*
X212987Y297576D01*
X212696Y297738D01*
X212437Y297867D01*
X212308Y297916D01*
X212211Y297948D01*
X212130Y297981D01*
X212065Y298013D01*
X212033Y298029D01*
X212017D01*
X212356Y299485D01*
X212648Y299388D01*
X212907Y299291D01*
X213149Y299162D01*
X213392Y299049D01*
X213602Y298919D01*
X213796Y298773D01*
X213991Y298644D01*
X214152Y298514D01*
X214282Y298385D01*
X214411Y298272D01*
X214524Y298159D01*
X214605Y298078D01*
X214686Y297997D01*
X214735Y297932D01*
X214751Y297900D01*
X214767Y297883D01*
X214913Y297657D01*
X215058Y297430D01*
X215172Y297204D01*
X215269Y296961D01*
X215414Y296476D01*
X215511Y296039D01*
X215560Y295829D01*
X215576Y295651D01*
X215592Y295473D01*
X215609Y295327D01*
X215625Y295214D01*
Y295052D01*
X215592Y294518D01*
X215511Y294000D01*
X215414Y293547D01*
X215350Y293337D01*
X215285Y293143D01*
X215220Y292965D01*
X215156Y292803D01*
X215107Y292674D01*
X215058Y292544D01*
X215010Y292463D01*
X214978Y292399D01*
X214961Y292350D01*
X214945Y292334D01*
X214670Y291897D01*
X214347Y291525D01*
X214023Y291201D01*
X213699Y290926D01*
X213408Y290716D01*
X213279Y290635D01*
X213165Y290570D01*
X213085Y290506D01*
X213020Y290473D01*
X212971Y290457D01*
X212955Y290441D01*
X212453Y290214D01*
X211936Y290053D01*
X211418Y289939D01*
X210949Y289858D01*
X210739Y289826D01*
X210528Y289810D01*
X210366Y289794D01*
X210205D01*
X210091Y289777D01*
X209994D01*
X209930D01*
X209913D01*
X209331Y289810D01*
X208764Y289874D01*
X208263Y289955D01*
X208020Y290020D01*
X207810Y290069D01*
X207616Y290117D01*
X207438Y290182D01*
X207276Y290231D01*
X207147Y290263D01*
X207050Y290311D01*
X206969Y290328D01*
X206920Y290360D01*
X206904D01*
X206418Y290603D01*
X205982Y290878D01*
X205609Y291169D01*
X205464Y291315D01*
X205318Y291444D01*
X205189Y291573D01*
X205075Y291703D01*
X204979Y291816D01*
X204914Y291913D01*
X204849Y291978D01*
X204800Y292043D01*
X204784Y292075D01*
X204768Y292091D01*
X204639Y292318D01*
X204525Y292544D01*
X204347Y293030D01*
X204218Y293515D01*
X204137Y293984D01*
X204105Y294211D01*
X204072Y294405D01*
X204056Y294583D01*
Y294729D01*
X204040Y294858D01*
Y295036D01*
X204056Y295359D01*
X204089Y295667D01*
X204121Y295958D01*
X204186Y296233D01*
X204266Y296492D01*
X204347Y296735D01*
X204428Y296961D01*
X204525Y297172D01*
X204606Y297350D01*
X204687Y297528D01*
X204768Y297657D01*
X204849Y297787D01*
X204914Y297867D01*
X204946Y297948D01*
X204979Y297981D01*
X204995Y297997D01*
X205189Y298223D01*
X205383Y298417D01*
X205609Y298595D01*
X205836Y298773D01*
X206289Y299065D01*
X206742Y299291D01*
X206952Y299388D01*
X207147Y299469D01*
X207325Y299534D01*
X207470Y299582D01*
X207600Y299631D01*
X207697Y299663D01*
X207761Y299680D01*
X207778D01*
X208150Y298191D01*
D02*
G37*
G36*
X205561Y282933D02*
X215431D01*
Y281445D01*
X204234D01*
Y288451D01*
X205561D01*
Y282933D01*
D02*
G37*
G36*
X215431Y277594D02*
X207713D01*
X207373D01*
X207082Y277562D01*
X206839Y277546D01*
X206645Y277513D01*
X206499Y277481D01*
X206386Y277465D01*
X206321Y277432D01*
X206305D01*
X206143Y277367D01*
X206014Y277287D01*
X205901Y277190D01*
X205787Y277109D01*
X205723Y277012D01*
X205658Y276947D01*
X205626Y276898D01*
X205609Y276882D01*
X205529Y276720D01*
X205464Y276559D01*
X205431Y276397D01*
X205399Y276251D01*
X205383Y276105D01*
X205367Y276008D01*
Y275911D01*
X205383Y275653D01*
X205448Y275410D01*
X205512Y275216D01*
X205609Y275038D01*
X205690Y274908D01*
X205771Y274811D01*
X205820Y274746D01*
X205836Y274730D01*
X205933Y274649D01*
X206046Y274585D01*
X206305Y274487D01*
X206596Y274391D01*
X206888Y274342D01*
X207163Y274293D01*
X207276D01*
X207373Y274277D01*
X207470Y274261D01*
X207535D01*
X207567D01*
X207583D01*
X207389Y272918D01*
X207082D01*
X206807Y272934D01*
X206532Y272983D01*
X206289Y273015D01*
X206063Y273080D01*
X205868Y273145D01*
X205674Y273209D01*
X205512Y273274D01*
X205367Y273355D01*
X205237Y273420D01*
X205124Y273484D01*
X205043Y273549D01*
X204979Y273598D01*
X204914Y273630D01*
X204898Y273646D01*
X204881Y273662D01*
X204736Y273824D01*
X204606Y273986D01*
X204493Y274164D01*
X204396Y274358D01*
X204250Y274730D01*
X204153Y275086D01*
X204089Y275426D01*
X204072Y275555D01*
X204056Y275685D01*
X204040Y275782D01*
Y275928D01*
X204056Y276283D01*
X204105Y276607D01*
X204170Y276898D01*
X204250Y277157D01*
X204315Y277367D01*
X204380Y277513D01*
X204428Y277610D01*
X204445Y277643D01*
X204606Y277901D01*
X204800Y278128D01*
X204995Y278306D01*
X205173Y278468D01*
X205351Y278581D01*
X205480Y278662D01*
X205577Y278710D01*
X205593Y278727D01*
X205609D01*
X205933Y278840D01*
X206273Y278937D01*
X206645Y279002D01*
X207001Y279034D01*
X207308Y279066D01*
X207438D01*
X207567Y279083D01*
X207664D01*
X207729D01*
X207778D01*
X207794D01*
X215431D01*
Y277594D01*
D02*
G37*
G36*
X208150Y270362D02*
X207891Y270297D01*
X207648Y270216D01*
X207422Y270135D01*
X207211Y270054D01*
X207017Y269957D01*
X206855Y269860D01*
X206693Y269747D01*
X206548Y269650D01*
X206418Y269569D01*
X206321Y269472D01*
X206224Y269391D01*
X206143Y269326D01*
X206095Y269261D01*
X206046Y269213D01*
X206030Y269197D01*
X206014Y269181D01*
X205884Y269019D01*
X205787Y268841D01*
X205609Y268485D01*
X205480Y268145D01*
X205399Y267805D01*
X205334Y267514D01*
X205318Y267401D01*
Y267288D01*
X205302Y267190D01*
Y267077D01*
X205318Y266705D01*
X205383Y266349D01*
X205464Y266026D01*
X205561Y265734D01*
X205658Y265508D01*
X205707Y265411D01*
X205739Y265330D01*
X205771Y265265D01*
X205804Y265217D01*
X205820Y265184D01*
Y265168D01*
X206046Y264861D01*
X206289Y264602D01*
X206564Y264375D01*
X206823Y264197D01*
X207050Y264052D01*
X207244Y263955D01*
X207325Y263922D01*
X207373Y263890D01*
X207405Y263874D01*
X207422D01*
X207842Y263744D01*
X208263Y263647D01*
X208684Y263566D01*
X209072Y263518D01*
X209250Y263501D01*
X209412Y263485D01*
X209557D01*
X209671Y263469D01*
X209768D01*
X209849D01*
X209897D01*
X209913D01*
X210334Y263485D01*
X210722Y263518D01*
X211078Y263582D01*
X211402Y263647D01*
X211677Y263696D01*
X211790Y263728D01*
X211887Y263760D01*
X211968Y263776D01*
X212017Y263793D01*
X212049Y263809D01*
X212065D01*
X212437Y263971D01*
X212777Y264149D01*
X213052Y264343D01*
X213295Y264553D01*
X213489Y264731D01*
X213619Y264877D01*
X213699Y264990D01*
X213732Y265006D01*
Y265022D01*
X213942Y265362D01*
X214104Y265734D01*
X214217Y266090D01*
X214282Y266430D01*
X214330Y266737D01*
X214347Y266867D01*
Y266980D01*
X214363Y267061D01*
Y267190D01*
X214347Y267595D01*
X214282Y267967D01*
X214185Y268274D01*
X214088Y268550D01*
X213974Y268760D01*
X213894Y268922D01*
X213829Y269019D01*
X213796Y269051D01*
X213554Y269310D01*
X213279Y269553D01*
X212987Y269747D01*
X212696Y269909D01*
X212437Y270038D01*
X212308Y270087D01*
X212211Y270119D01*
X212130Y270151D01*
X212065Y270184D01*
X212033Y270200D01*
X212017D01*
X212356Y271656D01*
X212648Y271559D01*
X212907Y271462D01*
X213149Y271332D01*
X213392Y271219D01*
X213602Y271090D01*
X213796Y270944D01*
X213991Y270815D01*
X214152Y270685D01*
X214282Y270556D01*
X214411Y270443D01*
X214524Y270329D01*
X214605Y270248D01*
X214686Y270168D01*
X214735Y270103D01*
X214751Y270070D01*
X214767Y270054D01*
X214913Y269828D01*
X215058Y269601D01*
X215172Y269375D01*
X215269Y269132D01*
X215414Y268647D01*
X215511Y268210D01*
X215560Y267999D01*
X215576Y267822D01*
X215592Y267644D01*
X215609Y267498D01*
X215625Y267385D01*
Y267223D01*
X215592Y266689D01*
X215511Y266171D01*
X215414Y265718D01*
X215350Y265508D01*
X215285Y265314D01*
X215220Y265136D01*
X215156Y264974D01*
X215107Y264844D01*
X215058Y264715D01*
X215010Y264634D01*
X214978Y264569D01*
X214961Y264521D01*
X214945Y264505D01*
X214670Y264068D01*
X214347Y263696D01*
X214023Y263372D01*
X213699Y263097D01*
X213408Y262887D01*
X213279Y262806D01*
X213165Y262741D01*
X213085Y262676D01*
X213020Y262644D01*
X212971Y262628D01*
X212955Y262612D01*
X212453Y262385D01*
X211936Y262223D01*
X211418Y262110D01*
X210949Y262029D01*
X210739Y261997D01*
X210528Y261981D01*
X210366Y261964D01*
X210205D01*
X210091Y261948D01*
X209994D01*
X209930D01*
X209913D01*
X209331Y261981D01*
X208764Y262045D01*
X208263Y262126D01*
X208020Y262191D01*
X207810Y262239D01*
X207616Y262288D01*
X207438Y262353D01*
X207276Y262401D01*
X207147Y262434D01*
X207050Y262482D01*
X206969Y262498D01*
X206920Y262531D01*
X206904D01*
X206418Y262773D01*
X205982Y263048D01*
X205609Y263340D01*
X205464Y263485D01*
X205318Y263615D01*
X205189Y263744D01*
X205075Y263874D01*
X204979Y263987D01*
X204914Y264084D01*
X204849Y264149D01*
X204800Y264213D01*
X204784Y264246D01*
X204768Y264262D01*
X204639Y264488D01*
X204525Y264715D01*
X204347Y265200D01*
X204218Y265686D01*
X204137Y266155D01*
X204105Y266381D01*
X204072Y266576D01*
X204056Y266754D01*
Y266899D01*
X204040Y267029D01*
Y267207D01*
X204056Y267530D01*
X204089Y267838D01*
X204121Y268129D01*
X204186Y268404D01*
X204266Y268663D01*
X204347Y268906D01*
X204428Y269132D01*
X204525Y269342D01*
X204606Y269520D01*
X204687Y269698D01*
X204768Y269828D01*
X204849Y269957D01*
X204914Y270038D01*
X204946Y270119D01*
X204979Y270151D01*
X204995Y270168D01*
X205189Y270394D01*
X205383Y270588D01*
X205609Y270766D01*
X205836Y270944D01*
X206289Y271235D01*
X206742Y271462D01*
X206952Y271559D01*
X207147Y271640D01*
X207325Y271705D01*
X207470Y271753D01*
X207600Y271802D01*
X207697Y271834D01*
X207761Y271850D01*
X207778D01*
X208150Y270362D01*
D02*
G37*
G36*
X205561Y255104D02*
X215431D01*
Y253616D01*
X204234D01*
Y260621D01*
X205561D01*
Y255104D01*
D02*
G37*
G36*
X215431Y249765D02*
X207713D01*
X207373D01*
X207082Y249732D01*
X206839Y249716D01*
X206645Y249684D01*
X206499Y249652D01*
X206386Y249635D01*
X206321Y249603D01*
X206305D01*
X206143Y249538D01*
X206014Y249457D01*
X205901Y249360D01*
X205787Y249279D01*
X205723Y249182D01*
X205658Y249118D01*
X205626Y249069D01*
X205609Y249053D01*
X205529Y248891D01*
X205464Y248729D01*
X205431Y248568D01*
X205399Y248422D01*
X205383Y248276D01*
X205367Y248179D01*
Y248082D01*
X205383Y247823D01*
X205448Y247581D01*
X205512Y247386D01*
X205609Y247208D01*
X205690Y247079D01*
X205771Y246982D01*
X205820Y246917D01*
X205836Y246901D01*
X205933Y246820D01*
X206046Y246755D01*
X206305Y246658D01*
X206596Y246561D01*
X206888Y246513D01*
X207163Y246464D01*
X207276D01*
X207373Y246448D01*
X207470Y246432D01*
X207535D01*
X207567D01*
X207583D01*
X207389Y245089D01*
X207082D01*
X206807Y245105D01*
X206532Y245154D01*
X206289Y245186D01*
X206063Y245251D01*
X205868Y245315D01*
X205674Y245380D01*
X205512Y245445D01*
X205367Y245526D01*
X205237Y245590D01*
X205124Y245655D01*
X205043Y245720D01*
X204979Y245768D01*
X204914Y245801D01*
X204898Y245817D01*
X204881Y245833D01*
X204736Y245995D01*
X204606Y246157D01*
X204493Y246335D01*
X204396Y246529D01*
X204250Y246901D01*
X204153Y247257D01*
X204089Y247597D01*
X204072Y247726D01*
X204056Y247856D01*
X204040Y247953D01*
Y248098D01*
X204056Y248454D01*
X204105Y248778D01*
X204170Y249069D01*
X204250Y249328D01*
X204315Y249538D01*
X204380Y249684D01*
X204428Y249781D01*
X204445Y249813D01*
X204606Y250072D01*
X204800Y250299D01*
X204995Y250477D01*
X205173Y250639D01*
X205351Y250752D01*
X205480Y250833D01*
X205577Y250881D01*
X205593Y250897D01*
X205609D01*
X205933Y251011D01*
X206273Y251108D01*
X206645Y251172D01*
X207001Y251205D01*
X207308Y251237D01*
X207438D01*
X207567Y251253D01*
X207664D01*
X207729D01*
X207778D01*
X207794D01*
X215431D01*
Y249765D01*
D02*
G37*
G36*
X208150Y242532D02*
X207891Y242468D01*
X207648Y242387D01*
X207422Y242306D01*
X207211Y242225D01*
X207017Y242128D01*
X206855Y242031D01*
X206693Y241918D01*
X206548Y241821D01*
X206418Y241740D01*
X206321Y241642D01*
X206224Y241562D01*
X206143Y241497D01*
X206095Y241432D01*
X206046Y241384D01*
X206030Y241367D01*
X206014Y241351D01*
X205884Y241189D01*
X205787Y241012D01*
X205609Y240656D01*
X205480Y240316D01*
X205399Y239976D01*
X205334Y239685D01*
X205318Y239571D01*
Y239458D01*
X205302Y239361D01*
Y239248D01*
X205318Y238876D01*
X205383Y238520D01*
X205464Y238196D01*
X205561Y237905D01*
X205658Y237679D01*
X205707Y237581D01*
X205739Y237500D01*
X205771Y237436D01*
X205804Y237387D01*
X205820Y237355D01*
Y237339D01*
X206046Y237031D01*
X206289Y236772D01*
X206564Y236546D01*
X206823Y236368D01*
X207050Y236222D01*
X207244Y236125D01*
X207325Y236093D01*
X207373Y236061D01*
X207405Y236044D01*
X207422D01*
X207842Y235915D01*
X208263Y235818D01*
X208684Y235737D01*
X209072Y235688D01*
X209250Y235672D01*
X209412Y235656D01*
X209557D01*
X209671Y235640D01*
X209768D01*
X209849D01*
X209897D01*
X209913D01*
X210334Y235656D01*
X210722Y235688D01*
X211078Y235753D01*
X211402Y235818D01*
X211677Y235866D01*
X211790Y235899D01*
X211887Y235931D01*
X211968Y235947D01*
X212017Y235963D01*
X212049Y235980D01*
X212065D01*
X212437Y236141D01*
X212777Y236319D01*
X213052Y236514D01*
X213295Y236724D01*
X213489Y236902D01*
X213619Y237048D01*
X213699Y237161D01*
X213732Y237177D01*
Y237193D01*
X213942Y237533D01*
X214104Y237905D01*
X214217Y238261D01*
X214282Y238601D01*
X214330Y238908D01*
X214347Y239038D01*
Y239151D01*
X214363Y239232D01*
Y239361D01*
X214347Y239766D01*
X214282Y240138D01*
X214185Y240445D01*
X214088Y240720D01*
X213974Y240931D01*
X213894Y241092D01*
X213829Y241189D01*
X213796Y241222D01*
X213554Y241481D01*
X213279Y241723D01*
X212987Y241918D01*
X212696Y242079D01*
X212437Y242209D01*
X212308Y242257D01*
X212211Y242290D01*
X212130Y242322D01*
X212065Y242355D01*
X212033Y242371D01*
X212017D01*
X212356Y243827D01*
X212648Y243730D01*
X212907Y243633D01*
X213149Y243503D01*
X213392Y243390D01*
X213602Y243260D01*
X213796Y243115D01*
X213991Y242985D01*
X214152Y242856D01*
X214282Y242727D01*
X214411Y242613D01*
X214524Y242500D01*
X214605Y242419D01*
X214686Y242338D01*
X214735Y242274D01*
X214751Y242241D01*
X214767Y242225D01*
X214913Y241999D01*
X215058Y241772D01*
X215172Y241546D01*
X215269Y241303D01*
X215414Y240817D01*
X215511Y240380D01*
X215560Y240170D01*
X215576Y239992D01*
X215592Y239814D01*
X215609Y239669D01*
X215625Y239555D01*
Y239394D01*
X215592Y238860D01*
X215511Y238342D01*
X215414Y237889D01*
X215350Y237679D01*
X215285Y237484D01*
X215220Y237306D01*
X215156Y237145D01*
X215107Y237015D01*
X215058Y236886D01*
X215010Y236805D01*
X214978Y236740D01*
X214961Y236691D01*
X214945Y236675D01*
X214670Y236238D01*
X214347Y235866D01*
X214023Y235543D01*
X213699Y235268D01*
X213408Y235057D01*
X213279Y234977D01*
X213165Y234912D01*
X213085Y234847D01*
X213020Y234815D01*
X212971Y234799D01*
X212955Y234782D01*
X212453Y234556D01*
X211936Y234394D01*
X211418Y234281D01*
X210949Y234200D01*
X210739Y234167D01*
X210528Y234151D01*
X210366Y234135D01*
X210205D01*
X210091Y234119D01*
X209994D01*
X209930D01*
X209913D01*
X209331Y234151D01*
X208764Y234216D01*
X208263Y234297D01*
X208020Y234362D01*
X207810Y234410D01*
X207616Y234459D01*
X207438Y234523D01*
X207276Y234572D01*
X207147Y234604D01*
X207050Y234653D01*
X206969Y234669D01*
X206920Y234701D01*
X206904D01*
X206418Y234944D01*
X205982Y235219D01*
X205609Y235510D01*
X205464Y235656D01*
X205318Y235786D01*
X205189Y235915D01*
X205075Y236044D01*
X204979Y236158D01*
X204914Y236255D01*
X204849Y236319D01*
X204800Y236384D01*
X204784Y236416D01*
X204768Y236433D01*
X204639Y236659D01*
X204525Y236886D01*
X204347Y237371D01*
X204218Y237857D01*
X204137Y238326D01*
X204105Y238552D01*
X204072Y238746D01*
X204056Y238924D01*
Y239070D01*
X204040Y239199D01*
Y239377D01*
X204056Y239701D01*
X204089Y240008D01*
X204121Y240300D01*
X204186Y240575D01*
X204266Y240834D01*
X204347Y241076D01*
X204428Y241303D01*
X204525Y241513D01*
X204606Y241691D01*
X204687Y241869D01*
X204768Y241999D01*
X204849Y242128D01*
X204914Y242209D01*
X204946Y242290D01*
X204979Y242322D01*
X204995Y242338D01*
X205189Y242565D01*
X205383Y242759D01*
X205609Y242937D01*
X205836Y243115D01*
X206289Y243406D01*
X206742Y243633D01*
X206952Y243730D01*
X207147Y243811D01*
X207325Y243875D01*
X207470Y243924D01*
X207600Y243972D01*
X207697Y244005D01*
X207761Y244021D01*
X207778D01*
X208150Y242532D01*
D02*
G37*
G36*
X205561Y227275D02*
X215431D01*
Y225786D01*
X204234D01*
Y232792D01*
X205561D01*
Y227275D01*
D02*
G37*
G36*
X215431Y221936D02*
X207713D01*
X207373D01*
X207082Y221903D01*
X206839Y221887D01*
X206645Y221855D01*
X206499Y221822D01*
X206386Y221806D01*
X206321Y221774D01*
X206305D01*
X206143Y221709D01*
X206014Y221628D01*
X205901Y221531D01*
X205787Y221450D01*
X205723Y221353D01*
X205658Y221288D01*
X205626Y221240D01*
X205609Y221224D01*
X205529Y221062D01*
X205464Y220900D01*
X205431Y220738D01*
X205399Y220593D01*
X205383Y220447D01*
X205367Y220350D01*
Y220253D01*
X205383Y219994D01*
X205448Y219751D01*
X205512Y219557D01*
X205609Y219379D01*
X205690Y219250D01*
X205771Y219153D01*
X205820Y219088D01*
X205836Y219072D01*
X205933Y218991D01*
X206046Y218926D01*
X206305Y218829D01*
X206596Y218732D01*
X206888Y218683D01*
X207163Y218635D01*
X207276D01*
X207373Y218619D01*
X207470Y218603D01*
X207535D01*
X207567D01*
X207583D01*
X207389Y217260D01*
X207082D01*
X206807Y217276D01*
X206532Y217324D01*
X206289Y217357D01*
X206063Y217421D01*
X205868Y217486D01*
X205674Y217551D01*
X205512Y217616D01*
X205367Y217696D01*
X205237Y217761D01*
X205124Y217826D01*
X205043Y217891D01*
X204979Y217939D01*
X204914Y217971D01*
X204898Y217988D01*
X204881Y218004D01*
X204736Y218166D01*
X204606Y218328D01*
X204493Y218505D01*
X204396Y218700D01*
X204250Y219072D01*
X204153Y219428D01*
X204089Y219767D01*
X204072Y219897D01*
X204056Y220026D01*
X204040Y220123D01*
Y220269D01*
X204056Y220625D01*
X204105Y220949D01*
X204170Y221240D01*
X204250Y221499D01*
X204315Y221709D01*
X204380Y221855D01*
X204428Y221952D01*
X204445Y221984D01*
X204606Y222243D01*
X204800Y222470D01*
X204995Y222647D01*
X205173Y222809D01*
X205351Y222922D01*
X205480Y223003D01*
X205577Y223052D01*
X205593Y223068D01*
X205609D01*
X205933Y223181D01*
X206273Y223279D01*
X206645Y223343D01*
X207001Y223376D01*
X207308Y223408D01*
X207438D01*
X207567Y223424D01*
X207664D01*
X207729D01*
X207778D01*
X207794D01*
X215431D01*
Y221936D01*
D02*
G37*
G36*
X490220Y445634D02*
X470262D01*
Y492760D01*
X490220D01*
Y445634D01*
D02*
G37*
G36*
X293370Y345440D02*
X276921D01*
Y365092D01*
X293370D01*
Y345440D01*
D02*
G37*
G36*
X255270D02*
X241054D01*
Y365092D01*
X255270D01*
Y345440D01*
D02*
G37*
G36*
X319678Y251460D02*
X299720D01*
Y296283D01*
X319678D01*
Y251460D01*
D02*
G37*
%LPC*%
G36*
X504260Y237302D02*
X502794D01*
Y235969D01*
X502802Y235894D01*
Y235711D01*
X502810Y235636D01*
Y235586D01*
X502818Y235561D01*
Y235552D01*
X502844Y235452D01*
X502877Y235361D01*
X502910Y235286D01*
X502952Y235227D01*
X502994Y235177D01*
X503018Y235136D01*
X503044Y235119D01*
X503052Y235111D01*
X503119Y235061D01*
X503202Y235019D01*
X503277Y234994D01*
X503352Y234969D01*
X503418Y234961D01*
X503468Y234952D01*
X503502D01*
X503518D01*
X503610Y234961D01*
X503693Y234969D01*
X503768Y234994D01*
X503835Y235011D01*
X503885Y235036D01*
X503918Y235061D01*
X503943Y235069D01*
X503952Y235077D01*
X504010Y235127D01*
X504060Y235177D01*
X504135Y235286D01*
X504160Y235327D01*
X504176Y235369D01*
X504193Y235394D01*
Y235402D01*
X504202Y235444D01*
X504218Y235511D01*
X504226Y235577D01*
X504235Y235652D01*
X504243Y235827D01*
X504252Y236002D01*
X504260Y236169D01*
Y237302D01*
D02*
G37*
G36*
X506376Y231853D02*
X506343D01*
X506334D01*
X506251Y231845D01*
X506176Y231820D01*
X506109Y231787D01*
X506051Y231745D01*
X506009Y231712D01*
X505976Y231678D01*
X505959Y231653D01*
X505951Y231645D01*
X505918Y231578D01*
X505876Y231495D01*
X505843Y231395D01*
X505818Y231295D01*
X505793Y231195D01*
X505776Y231120D01*
X505768Y231087D01*
X505759Y231062D01*
Y231045D01*
X505726Y230879D01*
X505693Y230745D01*
X505659Y230620D01*
X505634Y230529D01*
X505610Y230454D01*
X505601Y230404D01*
X505584Y230370D01*
Y230362D01*
X505809D01*
X505943D01*
X506059Y230370D01*
X506151Y230379D01*
X506226Y230387D01*
X506276Y230395D01*
X506318Y230404D01*
X506334Y230412D01*
X506343D01*
X506418Y230437D01*
X506493Y230479D01*
X506551Y230520D01*
X506609Y230562D01*
X506651Y230604D01*
X506684Y230637D01*
X506701Y230662D01*
X506709Y230670D01*
X506776Y230770D01*
X506818Y230879D01*
X506851Y230970D01*
X506876Y231062D01*
X506893Y231137D01*
X506901Y231195D01*
Y231245D01*
X506893Y231337D01*
X506876Y231428D01*
X506851Y231503D01*
X506818Y231562D01*
X506784Y231620D01*
X506759Y231653D01*
X506743Y231678D01*
X506734Y231687D01*
X506668Y231745D01*
X506601Y231787D01*
X506534Y231812D01*
X506468Y231828D01*
X506418Y231845D01*
X506376Y231853D01*
D02*
G37*
G36*
X490582Y226680D02*
X490548D01*
X490540D01*
X490457Y226671D01*
X490382Y226646D01*
X490315Y226613D01*
X490257Y226571D01*
X490215Y226538D01*
X490182Y226505D01*
X490165Y226480D01*
X490157Y226471D01*
X490123Y226405D01*
X490082Y226321D01*
X490048Y226221D01*
X490023Y226121D01*
X489999Y226021D01*
X489982Y225946D01*
X489973Y225913D01*
X489965Y225888D01*
Y225871D01*
X489932Y225705D01*
X489898Y225571D01*
X489865Y225446D01*
X489840Y225355D01*
X489815Y225280D01*
X489807Y225230D01*
X489790Y225197D01*
Y225188D01*
X490015D01*
X490148D01*
X490265Y225197D01*
X490357Y225205D01*
X490432Y225213D01*
X490482Y225222D01*
X490523Y225230D01*
X490540Y225238D01*
X490548D01*
X490623Y225263D01*
X490698Y225305D01*
X490757Y225347D01*
X490815Y225388D01*
X490857Y225430D01*
X490890Y225463D01*
X490907Y225488D01*
X490915Y225497D01*
X490982Y225597D01*
X491023Y225705D01*
X491057Y225796D01*
X491082Y225888D01*
X491098Y225963D01*
X491106Y226021D01*
Y226071D01*
X491098Y226163D01*
X491082Y226255D01*
X491057Y226330D01*
X491023Y226388D01*
X490990Y226446D01*
X490965Y226480D01*
X490948Y226505D01*
X490940Y226513D01*
X490873Y226571D01*
X490807Y226613D01*
X490740Y226638D01*
X490673Y226655D01*
X490623Y226671D01*
X490582Y226680D01*
D02*
G37*
G36*
X489724Y222122D02*
X489682D01*
X489640D01*
X489624D01*
X489615D01*
X489399Y222114D01*
X489207Y222081D01*
X489049Y222039D01*
X488915Y221989D01*
X488815Y221947D01*
X488741Y221906D01*
X488699Y221873D01*
X488682Y221864D01*
X488574Y221756D01*
X488499Y221647D01*
X488441Y221539D01*
X488407Y221431D01*
X488382Y221348D01*
X488374Y221273D01*
X488366Y221223D01*
Y221206D01*
X488382Y221064D01*
X488416Y220931D01*
X488465Y220823D01*
X488524Y220723D01*
X488582Y220648D01*
X488632Y220598D01*
X488666Y220556D01*
X488682Y220548D01*
X488749Y220498D01*
X488815Y220456D01*
X488982Y220389D01*
X489149Y220348D01*
X489324Y220315D01*
X489474Y220298D01*
X489549Y220289D01*
X489607Y220281D01*
X489657D01*
X489690D01*
X489715D01*
X489724D01*
X489949Y220289D01*
X490148Y220323D01*
X490315Y220364D01*
X490448Y220415D01*
X490557Y220464D01*
X490632Y220506D01*
X490673Y220539D01*
X490690Y220548D01*
X490798Y220656D01*
X490873Y220764D01*
X490932Y220873D01*
X490965Y220973D01*
X490990Y221064D01*
X490998Y221131D01*
X491007Y221181D01*
Y221198D01*
X490998Y221281D01*
X490990Y221364D01*
X490940Y221514D01*
X490873Y221639D01*
X490790Y221747D01*
X490715Y221831D01*
X490648Y221889D01*
X490598Y221922D01*
X490590Y221939D01*
X490582D01*
X490523Y221972D01*
X490457Y221997D01*
X490307Y222047D01*
X490140Y222081D01*
X489982Y222097D01*
X489840Y222114D01*
X489782D01*
X489724Y222122D01*
D02*
G37*
G36*
X512036Y221423D02*
X511953D01*
X511886D01*
X511828D01*
X511795D01*
X511786D01*
X511603D01*
X511428Y221414D01*
X511278D01*
X511128Y221406D01*
X511003Y221398D01*
X510878Y221389D01*
X510778Y221381D01*
X510678Y221364D01*
X510595Y221356D01*
X510528Y221348D01*
X510470Y221339D01*
X510420Y221331D01*
X510387Y221323D01*
X510353D01*
X510345Y221314D01*
X510337D01*
X510220Y221281D01*
X510120Y221239D01*
X510045Y221206D01*
X509978Y221164D01*
X509937Y221131D01*
X509903Y221106D01*
X509887Y221089D01*
X509878Y221081D01*
X509837Y221023D01*
X509803Y220956D01*
X509778Y220898D01*
X509762Y220839D01*
X509753Y220798D01*
X509745Y220756D01*
Y220723D01*
X509753Y220648D01*
X509762Y220581D01*
X509787Y220523D01*
X509812Y220473D01*
X509837Y220431D01*
X509853Y220398D01*
X509870Y220381D01*
X509878Y220373D01*
X509937Y220323D01*
X510012Y220273D01*
X510095Y220231D01*
X510178Y220190D01*
X510262Y220165D01*
X510328Y220140D01*
X510370Y220131D01*
X510378Y220123D01*
X510387D01*
X510462Y220106D01*
X510553Y220090D01*
X510662Y220073D01*
X510770Y220056D01*
X510995Y220040D01*
X511228Y220031D01*
X511336Y220023D01*
X511445D01*
X511536Y220015D01*
X511620D01*
X511686D01*
X511745D01*
X511778D01*
X511786D01*
X511969D01*
X512145Y220023D01*
X512303D01*
X512444Y220031D01*
X512578Y220040D01*
X512694Y220048D01*
X512803Y220065D01*
X512894Y220073D01*
X512978Y220081D01*
X513044Y220098D01*
X513103Y220106D01*
X513153Y220115D01*
X513186Y220123D01*
X513219D01*
X513228Y220131D01*
X513236D01*
X513353Y220165D01*
X513444Y220206D01*
X513527Y220248D01*
X513586Y220281D01*
X513636Y220315D01*
X513669Y220348D01*
X513686Y220364D01*
X513694Y220373D01*
X513736Y220431D01*
X513769Y220490D01*
X513786Y220548D01*
X513802Y220606D01*
X513811Y220648D01*
X513819Y220689D01*
Y220723D01*
X513811Y220798D01*
X513802Y220864D01*
X513777Y220923D01*
X513752Y220973D01*
X513736Y221014D01*
X513711Y221048D01*
X513702Y221064D01*
X513694Y221073D01*
X513636Y221123D01*
X513561Y221173D01*
X513478Y221214D01*
X513394Y221256D01*
X513319Y221281D01*
X513252Y221306D01*
X513211Y221314D01*
X513194Y221323D01*
X513111Y221339D01*
X513019Y221356D01*
X512919Y221373D01*
X512811Y221381D01*
X512578Y221398D01*
X512344Y221406D01*
X512236Y221414D01*
X512128D01*
X512036Y221423D01*
D02*
G37*
G36*
X489349Y217257D02*
X489190Y217249D01*
X489049Y217224D01*
X488924Y217190D01*
X488824Y217140D01*
X488741Y217099D01*
X488682Y217057D01*
X488641Y217032D01*
X488632Y217024D01*
X488540Y216932D01*
X488474Y216832D01*
X488432Y216732D01*
X488399Y216640D01*
X488382Y216557D01*
X488366Y216490D01*
Y216432D01*
X488374Y216307D01*
X488407Y216199D01*
X488449Y216099D01*
X488490Y216016D01*
X488540Y215949D01*
X488582Y215899D01*
X488615Y215866D01*
X488624Y215857D01*
X488724Y215782D01*
X488840Y215716D01*
X488965Y215674D01*
X489082Y215641D01*
X489182Y215624D01*
X489274Y215616D01*
X489307Y215607D01*
X489324D01*
X489340D01*
X489349D01*
Y217257D01*
D02*
G37*
G36*
X512503Y212791D02*
X510520Y211450D01*
X512503D01*
Y212791D01*
D02*
G37*
G36*
X489724Y210317D02*
X489674D01*
X489640D01*
X489624D01*
X489615D01*
X489390Y210309D01*
X489199Y210275D01*
X489040Y210234D01*
X488907Y210184D01*
X488807Y210142D01*
X488732Y210100D01*
X488690Y210067D01*
X488674Y210059D01*
X488574Y209951D01*
X488499Y209842D01*
X488441Y209726D01*
X488407Y209617D01*
X488382Y209526D01*
X488374Y209451D01*
X488366Y209401D01*
Y209384D01*
X488382Y209234D01*
X488416Y209109D01*
X488465Y208992D01*
X488524Y208901D01*
X488582Y208818D01*
X488632Y208768D01*
X488666Y208726D01*
X488682Y208717D01*
X488749Y208668D01*
X488815Y208626D01*
X488974Y208559D01*
X489149Y208517D01*
X489315Y208484D01*
X489474Y208468D01*
X489540Y208459D01*
X489599Y208451D01*
X489649D01*
X489682D01*
X489707D01*
X489715D01*
X489840D01*
X489949Y208459D01*
X490057Y208476D01*
X490157Y208493D01*
X490323Y208534D01*
X490457Y208584D01*
X490565Y208634D01*
X490640Y208676D01*
X490682Y208709D01*
X490698Y208717D01*
X490798Y208818D01*
X490873Y208926D01*
X490932Y209026D01*
X490965Y209126D01*
X490990Y209209D01*
X490998Y209284D01*
X491007Y209326D01*
Y209342D01*
X490998Y209434D01*
X490990Y209517D01*
X490940Y209667D01*
X490873Y209800D01*
X490790Y209909D01*
X490707Y210000D01*
X490640Y210067D01*
X490590Y210100D01*
X490582Y210117D01*
X490573D01*
X490440Y210184D01*
X490290Y210234D01*
X490132Y210267D01*
X489982Y210292D01*
X489840Y210309D01*
X489773D01*
X489724Y210317D01*
D02*
G37*
G36*
X495867Y204410D02*
X495859D01*
X495792Y204402D01*
X495734Y204385D01*
X495642Y204335D01*
X495600Y204310D01*
X495575Y204294D01*
X495559Y204277D01*
X495550Y204269D01*
X495509Y204210D01*
X495475Y204144D01*
X495450Y204069D01*
X495434Y204002D01*
X495425Y203944D01*
X495417Y203894D01*
Y203852D01*
X495425Y203760D01*
X495442Y203669D01*
X495467Y203602D01*
X495492Y203535D01*
X495517Y203494D01*
X495542Y203452D01*
X495559Y203435D01*
X495567Y203427D01*
X495625Y203369D01*
X495684Y203327D01*
X495750Y203302D01*
X495809Y203277D01*
X495859Y203269D01*
X495900Y203261D01*
X495925D01*
X495934D01*
X496025Y203277D01*
X496117Y203311D01*
X496200Y203369D01*
X496283Y203427D01*
X496350Y203486D01*
X496400Y203544D01*
X496433Y203577D01*
X496442Y203594D01*
X496675Y203894D01*
X496358Y204160D01*
X496250Y204244D01*
X496159Y204302D01*
X496075Y204352D01*
X496000Y204377D01*
X495942Y204394D01*
X495892Y204402D01*
X495867Y204410D01*
D02*
G37*
G36*
X498958Y205077D02*
X498916D01*
X498899D01*
X498791Y205068D01*
X498691Y205052D01*
X498600Y205018D01*
X498516Y204985D01*
X498441Y204952D01*
X498391Y204918D01*
X498350Y204902D01*
X498341Y204893D01*
X498241Y204810D01*
X498150Y204727D01*
X498075Y204627D01*
X498008Y204535D01*
X497950Y204452D01*
X497908Y204385D01*
X497883Y204344D01*
X497875Y204327D01*
X499266Y203202D01*
X499349Y203302D01*
X499424Y203402D01*
X499483Y203494D01*
X499524Y203569D01*
X499566Y203636D01*
X499591Y203685D01*
X499599Y203719D01*
X499608Y203727D01*
X499641Y203819D01*
X499666Y203902D01*
X499683Y203985D01*
X499691Y204060D01*
X499699Y204127D01*
X499708Y204177D01*
Y204219D01*
X499699Y204360D01*
X499674Y204485D01*
X499633Y204585D01*
X499591Y204677D01*
X499558Y204752D01*
X499516Y204802D01*
X499491Y204835D01*
X499483Y204844D01*
X499391Y204918D01*
X499299Y204977D01*
X499199Y205018D01*
X499108Y205043D01*
X499025Y205060D01*
X498958Y205077D01*
D02*
G37*
G36*
X504435Y203710D02*
X502794D01*
Y202844D01*
X502802Y202761D01*
Y202686D01*
X502810Y202611D01*
Y202502D01*
X502818Y202419D01*
X502827Y202361D01*
X502835Y202327D01*
Y202319D01*
X502860Y202219D01*
X502893Y202127D01*
X502935Y202044D01*
X502985Y201978D01*
X503027Y201928D01*
X503060Y201886D01*
X503085Y201861D01*
X503093Y201853D01*
X503177Y201786D01*
X503260Y201744D01*
X503352Y201711D01*
X503435Y201686D01*
X503510Y201669D01*
X503568Y201661D01*
X503602D01*
X503618D01*
X503710Y201669D01*
X503793Y201678D01*
X503868Y201703D01*
X503935Y201728D01*
X503993Y201753D01*
X504035Y201769D01*
X504060Y201786D01*
X504068Y201794D01*
X504135Y201844D01*
X504193Y201911D01*
X504243Y201969D01*
X504285Y202027D01*
X504310Y202078D01*
X504335Y202119D01*
X504343Y202153D01*
X504352Y202161D01*
X504368Y202211D01*
X504376Y202269D01*
X504402Y202402D01*
X504418Y202552D01*
X504426Y202702D01*
Y202852D01*
X504435Y202911D01*
Y203710D01*
D02*
G37*
G36*
X485040Y487760D02*
X475443D01*
Y480146D01*
X477065D01*
Y482975D01*
X485040D01*
Y484917D01*
X477065D01*
Y487760D01*
X485040D01*
D02*
G37*
G36*
X480311Y479286D02*
X475262D01*
X480172D01*
X480061Y479272D01*
X479936D01*
X479798Y479259D01*
X479631Y479245D01*
X479451Y479231D01*
X479062Y479175D01*
X478646Y479106D01*
X478230Y478995D01*
X477842Y478857D01*
X477828D01*
X477814Y478843D01*
X477773Y478815D01*
X477717Y478801D01*
X477579Y478718D01*
X477398Y478621D01*
X477190Y478496D01*
X476982Y478343D01*
X476746Y478163D01*
X476525Y477969D01*
X476511Y477955D01*
X476497Y477941D01*
X476427Y477872D01*
X476316Y477747D01*
X476192Y477594D01*
X476053Y477414D01*
X475900Y477206D01*
X475762Y476970D01*
X475651Y476721D01*
Y476707D01*
X475637Y476679D01*
X475609Y476624D01*
X475595Y476554D01*
X475554Y476471D01*
X475526Y476374D01*
X475498Y476249D01*
X475457Y476124D01*
X475387Y475819D01*
X475318Y475473D01*
X475276Y475070D01*
X475262Y474654D01*
Y474724D01*
Y474557D01*
X475276Y474446D01*
Y474308D01*
X475304Y474127D01*
X475332Y473919D01*
X475373Y473684D01*
X475429Y473434D01*
X475498Y473171D01*
X475582Y472893D01*
X475692Y472616D01*
X475817Y472324D01*
X475970Y472047D01*
X476150Y471770D01*
X476358Y471506D01*
X476594Y471257D01*
X476608Y471243D01*
X476649Y471201D01*
X476732Y471132D01*
X476830Y471063D01*
X476968Y470965D01*
X477135Y470854D01*
X477329Y470743D01*
X477551Y470619D01*
X477786Y470494D01*
X478064Y470383D01*
X478369Y470272D01*
X478688Y470175D01*
X479049Y470092D01*
X479423Y470036D01*
X479825Y469995D01*
X480255Y469981D01*
X480352D01*
X480477Y469995D01*
X480643D01*
X480838Y470022D01*
X481059Y470050D01*
X481323Y470092D01*
X481586Y470133D01*
X481878Y470203D01*
X482183Y470286D01*
X482488Y470397D01*
X482793Y470522D01*
X483084Y470660D01*
X483376Y470841D01*
X483653Y471035D01*
X483916Y471257D01*
X483930Y471270D01*
X483972Y471312D01*
X484041Y471381D01*
X484124Y471492D01*
X484221Y471617D01*
X484332Y471770D01*
X484443Y471950D01*
X484568Y472144D01*
X484693Y472380D01*
X484804Y472630D01*
X484915Y472907D01*
X485012Y473212D01*
X485095Y473531D01*
X485164Y473878D01*
X485206Y474238D01*
X485220Y474627D01*
Y470660D01*
Y474724D01*
X485206Y474835D01*
X485192Y474973D01*
X485178Y475154D01*
X485151Y475362D01*
X485109Y475597D01*
X485054Y475847D01*
X484984Y476124D01*
X484901Y476388D01*
X484790Y476679D01*
X484665Y476956D01*
X484527Y477248D01*
X484346Y477511D01*
X484152Y477775D01*
X483916Y478024D01*
X483903Y478038D01*
X483861Y478080D01*
X483778Y478135D01*
X483681Y478219D01*
X483542Y478316D01*
X483376Y478427D01*
X483195Y478537D01*
X482973Y478648D01*
X482738Y478773D01*
X482460Y478884D01*
X482169Y478995D01*
X481850Y479092D01*
X481503Y479175D01*
X481129Y479231D01*
X480727Y479272D01*
X480311Y479286D01*
D02*
G37*
G36*
X485040Y468455D02*
X475443D01*
Y461868D01*
X477065D01*
Y466514D01*
X479340D01*
Y462506D01*
X480962D01*
Y466514D01*
X485040D01*
Y468455D01*
D02*
G37*
G36*
X485220Y457014D02*
D01*
Y453991D01*
X485206Y454087D01*
X485192Y454198D01*
X485178Y454323D01*
X485151Y454462D01*
X485123Y454628D01*
X485040Y454961D01*
X484901Y455322D01*
X484818Y455516D01*
X484721Y455682D01*
X484596Y455863D01*
X484471Y456029D01*
X484457Y456043D01*
X484430Y456071D01*
X484388Y456112D01*
X484332Y456168D01*
X484263Y456237D01*
X484166Y456306D01*
X484069Y456390D01*
X483944Y456473D01*
X483805Y456556D01*
X483667Y456653D01*
X483334Y456806D01*
X482946Y456931D01*
X482738Y456986D01*
X482516Y457014D01*
X482294Y455239D01*
X482308D01*
X482322D01*
X482405Y455225D01*
X482529Y455197D01*
X482682Y455155D01*
X482849Y455086D01*
X483029Y455017D01*
X483195Y454906D01*
X483348Y454781D01*
X483362Y454767D01*
X483403Y454712D01*
X483459Y454628D01*
X483514Y454531D01*
X483583Y454393D01*
X483639Y454240D01*
X483681Y454074D01*
X483694Y453880D01*
Y453852D01*
X483681Y453782D01*
X483667Y453685D01*
X483639Y453547D01*
X483583Y453394D01*
X483514Y453242D01*
X483403Y453075D01*
X483265Y452923D01*
X483251Y452909D01*
X483181Y452853D01*
X483084Y452798D01*
X482960Y452715D01*
X482793Y452645D01*
X482585Y452576D01*
X482349Y452534D01*
X482086Y452520D01*
X482072D01*
X482058D01*
X481975D01*
X481850Y452534D01*
X481684Y452562D01*
X481503Y452617D01*
X481323Y452687D01*
X481143Y452784D01*
X480976Y452909D01*
X480962Y452923D01*
X480907Y452978D01*
X480838Y453061D01*
X480768Y453158D01*
X480685Y453297D01*
X480630Y453450D01*
X480574Y453616D01*
X480560Y453810D01*
Y453949D01*
X480574Y454046D01*
X480588Y454171D01*
X480616Y454323D01*
X480657Y454476D01*
X480699Y454656D01*
X479215Y454462D01*
Y454337D01*
X479201Y454198D01*
X479187Y454032D01*
X479146Y453852D01*
X479090Y453658D01*
X479007Y453477D01*
X478896Y453311D01*
X478882Y453297D01*
X478827Y453242D01*
X478757Y453186D01*
X478646Y453103D01*
X478522Y453033D01*
X478369Y452964D01*
X478189Y452923D01*
X477981Y452909D01*
X477953D01*
X477897D01*
X477814Y452923D01*
X477703Y452950D01*
X477579Y452978D01*
X477454Y453033D01*
X477315Y453103D01*
X477204Y453200D01*
X477190Y453214D01*
X477163Y453255D01*
X477107Y453311D01*
X477052Y453408D01*
X477010Y453519D01*
X476954Y453644D01*
X476927Y453810D01*
X476913Y453977D01*
Y454060D01*
X476927Y454143D01*
X476954Y454254D01*
X476996Y454379D01*
X477052Y454518D01*
X477135Y454656D01*
X477246Y454781D01*
X477259Y454795D01*
X477301Y454836D01*
X477384Y454892D01*
X477495Y454961D01*
X477620Y455031D01*
X477786Y455086D01*
X477981Y455141D01*
X478203Y455183D01*
X477925Y456875D01*
X477911D01*
X477884Y456861D01*
X477842D01*
X477773Y456847D01*
X477620Y456806D01*
X477412Y456750D01*
X477190Y456667D01*
X476954Y456584D01*
X476732Y456473D01*
X476525Y456348D01*
X476497Y456334D01*
X476441Y456279D01*
X476344Y456195D01*
X476219Y456085D01*
X476095Y455946D01*
X475956Y455779D01*
X475817Y455572D01*
X475692Y455350D01*
Y455336D01*
X475679Y455322D01*
X475651Y455239D01*
X475595Y455100D01*
X475540Y454934D01*
X475484Y454725D01*
X475429Y454476D01*
X475401Y454212D01*
X475387Y453921D01*
Y453796D01*
X475401Y453699D01*
X475415Y453574D01*
X475429Y453450D01*
X475457Y453297D01*
X475498Y453144D01*
X475595Y452798D01*
X475665Y452617D01*
X475762Y452423D01*
X475859Y452243D01*
X475970Y452077D01*
X476109Y451896D01*
X476261Y451744D01*
X476275Y451730D01*
X476289Y451716D01*
X476330Y451674D01*
X476386Y451633D01*
X476525Y451522D01*
X476719Y451397D01*
X476954Y451272D01*
X477232Y451175D01*
X477537Y451092D01*
X477690Y451078D01*
X477856Y451064D01*
X477870D01*
X477911D01*
X477981Y451078D01*
X478064Y451092D01*
X478175Y451106D01*
X478300Y451134D01*
X478438Y451175D01*
X478591Y451231D01*
X478744Y451314D01*
X478910Y451397D01*
X479076Y451508D01*
X479243Y451647D01*
X479409Y451813D01*
X479576Y451993D01*
X479728Y452201D01*
X479881Y452451D01*
Y452437D01*
X479894Y452410D01*
Y452368D01*
X479922Y452312D01*
X479964Y452160D01*
X480047Y451979D01*
X480158Y451772D01*
X480297Y451550D01*
X480477Y451328D01*
X480685Y451134D01*
X480713Y451106D01*
X480796Y451050D01*
X480921Y450981D01*
X481101Y450884D01*
X481309Y450787D01*
X481573Y450718D01*
X481850Y450662D01*
X482169Y450634D01*
X485220D01*
Y457014D01*
D02*
G37*
%LPD*%
G36*
X480505Y477276D02*
X480643Y477262D01*
X480810Y477248D01*
X480976Y477220D01*
X481170Y477192D01*
X481573Y477109D01*
X481975Y476970D01*
X482183Y476887D01*
X482377Y476790D01*
X482557Y476665D01*
X482724Y476540D01*
X482738Y476527D01*
X482765Y476499D01*
X482807Y476457D01*
X482849Y476402D01*
X482918Y476332D01*
X482987Y476235D01*
X483070Y476138D01*
X483140Y476013D01*
X483306Y475750D01*
X483431Y475417D01*
X483487Y475237D01*
X483528Y475043D01*
X483556Y474835D01*
X483570Y474627D01*
Y474516D01*
X483556Y474432D01*
X483542Y474335D01*
X483528Y474225D01*
X483459Y473961D01*
X483362Y473656D01*
X483292Y473503D01*
X483223Y473337D01*
X483126Y473184D01*
X483015Y473018D01*
X482890Y472865D01*
X482738Y472727D01*
X482724Y472713D01*
X482696Y472699D01*
X482654Y472657D01*
X482585Y472616D01*
X482488Y472546D01*
X482377Y472491D01*
X482252Y472422D01*
X482100Y472352D01*
X481933Y472283D01*
X481753Y472214D01*
X481545Y472144D01*
X481309Y472089D01*
X481073Y472047D01*
X480810Y472006D01*
X480519Y471992D01*
X480214Y471978D01*
X480200D01*
X480144D01*
X480061D01*
X479936Y471992D01*
X479798Y472006D01*
X479645Y472019D01*
X479465Y472033D01*
X479284Y472075D01*
X478882Y472158D01*
X478466Y472283D01*
X478258Y472366D01*
X478078Y472463D01*
X477897Y472588D01*
X477731Y472713D01*
X477717Y472727D01*
X477690Y472741D01*
X477662Y472782D01*
X477606Y472838D01*
X477537Y472921D01*
X477468Y473004D01*
X477398Y473101D01*
X477315Y473226D01*
X477246Y473351D01*
X477176Y473503D01*
X477038Y473822D01*
X476982Y474003D01*
X476954Y474197D01*
X476927Y474405D01*
X476913Y474627D01*
Y474738D01*
X476927Y474821D01*
X476941Y474932D01*
X476954Y475043D01*
X477010Y475320D01*
X477121Y475625D01*
X477176Y475792D01*
X477259Y475958D01*
X477357Y476111D01*
X477468Y476277D01*
X477592Y476429D01*
X477745Y476568D01*
X477759Y476582D01*
X477786Y476596D01*
X477828Y476638D01*
X477897Y476679D01*
X477995Y476735D01*
X478092Y476790D01*
X478217Y476859D01*
X478369Y476929D01*
X478535Y476998D01*
X478716Y477067D01*
X478924Y477123D01*
X479146Y477178D01*
X479395Y477220D01*
X479659Y477262D01*
X479936Y477276D01*
X480241Y477289D01*
X480255D01*
X480311D01*
X480394D01*
X480505Y477276D01*
D02*
G37*
G36*
X485220Y450634D02*
X482294D01*
X482377Y450648D01*
X482488Y450662D01*
X482613Y450690D01*
X482765Y450718D01*
X482918Y450745D01*
X483251Y450856D01*
X483431Y450939D01*
X483625Y451023D01*
X483805Y451134D01*
X483986Y451258D01*
X484166Y451397D01*
X484332Y451563D01*
X484346Y451577D01*
X484374Y451605D01*
X484416Y451661D01*
X484471Y451730D01*
X484540Y451827D01*
X484610Y451924D01*
X484693Y452063D01*
X484776Y452201D01*
X484859Y452354D01*
X484943Y452534D01*
X485012Y452728D01*
X485081Y452923D01*
X485137Y453144D01*
X485178Y453366D01*
X485206Y453616D01*
X485220Y453866D01*
Y450634D01*
D02*
G37*
%LPC*%
G36*
X288370Y360092D02*
X284834D01*
X284736Y360079D01*
X284612Y360065D01*
X284473Y360051D01*
X284320Y360023D01*
X284154Y359995D01*
X283793Y359898D01*
X283433Y359760D01*
X283239Y359676D01*
X283072Y359579D01*
X282892Y359454D01*
X282739Y359316D01*
X282726Y359302D01*
X282698Y359288D01*
X282670Y359233D01*
X282615Y359177D01*
X282545Y359108D01*
X282476Y359011D01*
X282407Y358914D01*
X282323Y358789D01*
X282185Y358511D01*
X282046Y358192D01*
X281991Y358012D01*
X281963Y357818D01*
X281935Y357610D01*
X281921Y357402D01*
Y357790D01*
Y357291D01*
X281935Y357166D01*
X281949Y357014D01*
X281977Y356819D01*
X282018Y356611D01*
X282074Y356390D01*
X282157Y356168D01*
X282171Y356140D01*
X282199Y356071D01*
X282254Y355946D01*
X282337Y355793D01*
X282434Y355613D01*
X282559Y355405D01*
X282712Y355183D01*
X282892Y354947D01*
X282906Y354933D01*
X282961Y354864D01*
X283044Y354767D01*
X283169Y354628D01*
X283336Y354462D01*
X283544Y354240D01*
X283793Y354004D01*
X284098Y353713D01*
X284112Y353699D01*
X284140Y353685D01*
X284182Y353644D01*
X284237Y353588D01*
X284390Y353449D01*
X284570Y353283D01*
X284750Y353103D01*
X284931Y352922D01*
X285097Y352770D01*
X285152Y352701D01*
X285208Y352645D01*
X285222Y352631D01*
X285250Y352603D01*
X285291Y352548D01*
X285347Y352479D01*
X285471Y352326D01*
X285583Y352146D01*
X281921D01*
Y350440D01*
X288370D01*
Y350690D01*
Y350482D01*
X288356Y350537D01*
X288342Y350606D01*
X288328Y350690D01*
X288314Y350787D01*
X288259Y351036D01*
X288176Y351314D01*
X288065Y351619D01*
X287926Y351952D01*
X287746Y352271D01*
Y352285D01*
X287718Y352312D01*
X287691Y352368D01*
X287635Y352423D01*
X287579Y352520D01*
X287496Y352617D01*
X287399Y352742D01*
X287288Y352881D01*
X287164Y353047D01*
X287011Y353214D01*
X286845Y353408D01*
X286650Y353616D01*
X286442Y353824D01*
X286206Y354060D01*
X285957Y354309D01*
X285679Y354573D01*
X285666Y354587D01*
X285624Y354628D01*
X285569Y354684D01*
X285485Y354767D01*
X285374Y354850D01*
X285264Y354961D01*
X285014Y355211D01*
X284764Y355474D01*
X284515Y355738D01*
X284404Y355849D01*
X284293Y355974D01*
X284209Y356071D01*
X284154Y356154D01*
X284140Y356181D01*
X284098Y356251D01*
X284029Y356362D01*
X283960Y356514D01*
X283890Y356681D01*
X283821Y356875D01*
X283780Y357069D01*
X283766Y357277D01*
Y357291D01*
Y357305D01*
Y357374D01*
X283780Y357499D01*
X283807Y357638D01*
X283849Y357790D01*
X283904Y357943D01*
X283988Y358095D01*
X284098Y358234D01*
X284112Y358248D01*
X284154Y358289D01*
X284237Y358345D01*
X284334Y358400D01*
X284473Y358456D01*
X284625Y358511D01*
X284806Y358553D01*
X285014Y358567D01*
X285111D01*
X285222Y358553D01*
X285347Y358525D01*
X285499Y358484D01*
X285652Y358414D01*
X285804Y358331D01*
X285943Y358220D01*
X285957Y358206D01*
X285998Y358151D01*
X286054Y358068D01*
X286110Y357943D01*
X286179Y357790D01*
X286234Y357582D01*
X286290Y357346D01*
X286318Y357069D01*
X288148Y357249D01*
Y357263D01*
X288134Y357319D01*
Y357388D01*
X288106Y357499D01*
X288093Y357624D01*
X288051Y357762D01*
X288009Y357915D01*
X287968Y358095D01*
X287829Y358442D01*
X287663Y358803D01*
X287552Y358983D01*
X287427Y359149D01*
X287288Y359288D01*
X287136Y359427D01*
X287122Y359441D01*
X287094Y359454D01*
X287052Y359482D01*
X286983Y359538D01*
X286900Y359579D01*
X286789Y359635D01*
X286678Y359704D01*
X286539Y359760D01*
X286387Y359829D01*
X286220Y359884D01*
X285860Y359995D01*
X285430Y360065D01*
X285208Y360079D01*
X284972Y360092D01*
X288370D01*
D02*
G37*
G36*
X250270D02*
X246054D01*
Y350440D01*
X250270D01*
Y357665D01*
X250256D01*
X250242Y357679D01*
X250201Y357693D01*
X250145Y357707D01*
X250007Y357776D01*
X249812Y357860D01*
X249577Y357971D01*
X249313Y358123D01*
X249022Y358317D01*
X248717Y358539D01*
X248703Y358553D01*
X248675Y358567D01*
X248633Y358609D01*
X248578Y358664D01*
X248426Y358803D01*
X248259Y358983D01*
X248065Y359205D01*
X247871Y359482D01*
X247691Y359773D01*
X247552Y360092D01*
X250270D01*
D02*
G37*
%LPD*%
G36*
X247912Y357374D02*
X247940Y357346D01*
X247996Y357305D01*
X248079Y357235D01*
X248176Y357152D01*
X248287Y357069D01*
X248426Y356972D01*
X248578Y356861D01*
X248745Y356750D01*
X248925Y356639D01*
X249119Y356514D01*
X249327Y356403D01*
X249771Y356195D01*
X250270Y356001D01*
Y350440D01*
X247899D01*
Y357388D01*
X247912Y357374D01*
D02*
G37*
%LPC*%
G36*
X314678Y291283D02*
X307549D01*
X307480Y291270D01*
X307383Y291256D01*
X307189Y291228D01*
X306939Y291173D01*
X306675Y291089D01*
X306412Y290965D01*
X306135Y290812D01*
X306121D01*
X306107Y290784D01*
X306024Y290729D01*
X305885Y290618D01*
X305732Y290479D01*
X305552Y290299D01*
X305386Y290063D01*
X305219Y289813D01*
X305067Y289508D01*
Y289494D01*
X305053Y289467D01*
X305039Y289425D01*
X305011Y289356D01*
X304984Y289273D01*
X304956Y289175D01*
X304928Y289065D01*
X304900Y288940D01*
X304859Y288787D01*
X304831Y288635D01*
X304776Y288274D01*
X304734Y287872D01*
X304720Y287428D01*
Y287775D01*
Y287428D01*
Y287248D01*
X304734Y287123D01*
X304748Y286971D01*
X304762Y286804D01*
X304789Y286610D01*
X304831Y286402D01*
X304928Y285944D01*
X304997Y285708D01*
X305067Y285487D01*
X305164Y285251D01*
X305275Y285029D01*
X305399Y284821D01*
X305552Y284627D01*
X305566Y284613D01*
X305594Y284585D01*
X305635Y284530D01*
X305705Y284474D01*
X305802Y284391D01*
X305913Y284308D01*
X306038Y284211D01*
X306176Y284114D01*
X306343Y284016D01*
X306523Y283919D01*
X306731Y283822D01*
X306953Y283725D01*
X307189Y283656D01*
X307452Y283573D01*
X307729Y283517D01*
X308021Y283476D01*
X308201Y285362D01*
X308187D01*
X308159Y285376D01*
X308104D01*
X308048Y285389D01*
X307882Y285445D01*
X307674Y285514D01*
X307438Y285597D01*
X307202Y285722D01*
X306994Y285861D01*
X306800Y286041D01*
X306786Y286069D01*
X306731Y286138D01*
X306662Y286249D01*
X306578Y286416D01*
X306495Y286624D01*
X306426Y286859D01*
X306370Y287137D01*
X306357Y287456D01*
Y287608D01*
X306384Y287775D01*
X306412Y287983D01*
X306453Y288205D01*
X306523Y288440D01*
X306620Y288662D01*
X306745Y288857D01*
X306759Y288884D01*
X306814Y288940D01*
X306897Y289009D01*
X307008Y289106D01*
X307147Y289189D01*
X307313Y289273D01*
X307480Y289328D01*
X307674Y289342D01*
X307688D01*
X307729D01*
X307799Y289328D01*
X307882Y289314D01*
X307965Y289286D01*
X308062Y289259D01*
X308159Y289203D01*
X308256Y289134D01*
X308270Y289120D01*
X308298Y289092D01*
X308340Y289051D01*
X308395Y288981D01*
X308465Y288884D01*
X308534Y288759D01*
X308603Y288621D01*
X308673Y288440D01*
Y288427D01*
X308700Y288371D01*
X308728Y288274D01*
X308756Y288205D01*
X308770Y288121D01*
X308797Y288025D01*
X308839Y287913D01*
X308867Y287789D01*
X308908Y287650D01*
X308950Y287484D01*
X308992Y287303D01*
X309047Y287109D01*
X309102Y286887D01*
Y286873D01*
X309116Y286818D01*
X309144Y286735D01*
X309172Y286638D01*
X309213Y286513D01*
X309255Y286360D01*
X309310Y286208D01*
X309366Y286027D01*
X309505Y285667D01*
X309671Y285320D01*
X309754Y285140D01*
X309851Y284987D01*
X309948Y284835D01*
X310046Y284710D01*
X310059Y284696D01*
X310087Y284668D01*
X310129Y284627D01*
X310184Y284571D01*
X310267Y284502D01*
X310364Y284433D01*
X310462Y284349D01*
X310586Y284280D01*
X310878Y284114D01*
X311210Y283975D01*
X311391Y283919D01*
X311571Y283878D01*
X311779Y283850D01*
X311987Y283836D01*
X312001D01*
X312015D01*
X312056D01*
X312112D01*
X312250Y283864D01*
X312431Y283892D01*
X312639Y283933D01*
X312875Y284003D01*
X313124Y284100D01*
X313360Y284238D01*
X313374D01*
X313388Y284252D01*
X313471Y284322D01*
X313582Y284405D01*
X313721Y284543D01*
X313873Y284710D01*
X314040Y284918D01*
X314192Y285154D01*
X314331Y285431D01*
Y285445D01*
X314345Y285473D01*
X314359Y285514D01*
X314386Y285570D01*
X314414Y285653D01*
X314442Y285736D01*
X314470Y285847D01*
X314511Y285972D01*
X314567Y286249D01*
X314622Y286568D01*
X314664Y286929D01*
X314678Y287331D01*
Y287498D01*
X314664Y287622D01*
X314650Y287775D01*
X314636Y287955D01*
X314608Y288135D01*
X314580Y288343D01*
X314483Y288787D01*
X314414Y289009D01*
X314345Y289231D01*
X314248Y289453D01*
X314137Y289661D01*
X314012Y289855D01*
X313873Y290035D01*
X313859Y290049D01*
X313832Y290077D01*
X313790Y290119D01*
X313734Y290174D01*
X313651Y290243D01*
X313554Y290327D01*
X313443Y290410D01*
X313318Y290507D01*
X313166Y290590D01*
X313013Y290673D01*
X312833Y290756D01*
X312639Y290826D01*
X312445Y290895D01*
X312223Y290951D01*
X312001Y290992D01*
X311751Y291006D01*
X311682Y289065D01*
X311696D01*
X311710D01*
X311807Y289037D01*
X311932Y289009D01*
X312084Y288954D01*
X312264Y288884D01*
X312431Y288787D01*
X312597Y288662D01*
X312736Y288524D01*
X312750Y288510D01*
X312791Y288454D01*
X312847Y288357D01*
X312902Y288219D01*
X312958Y288052D01*
X313013Y287844D01*
X313055Y287595D01*
X313069Y287303D01*
Y287165D01*
X313055Y287012D01*
X313027Y286832D01*
X312986Y286624D01*
X312916Y286402D01*
X312833Y286194D01*
X312708Y286000D01*
X312694Y285986D01*
X312667Y285958D01*
X312625Y285903D01*
X312556Y285847D01*
X312472Y285792D01*
X312362Y285736D01*
X312250Y285708D01*
X312112Y285695D01*
X312098D01*
X312056D01*
X311987Y285708D01*
X311918Y285736D01*
X311821Y285764D01*
X311723Y285805D01*
X311626Y285875D01*
X311529Y285972D01*
X311516Y285986D01*
X311474Y286055D01*
X311446Y286097D01*
X311418Y286166D01*
X311377Y286235D01*
X311335Y286332D01*
X311294Y286444D01*
X311238Y286568D01*
X311183Y286721D01*
X311127Y286873D01*
X311072Y287068D01*
X311016Y287276D01*
X310961Y287498D01*
X310891Y287747D01*
Y287761D01*
X310878Y287816D01*
X310864Y287886D01*
X310836Y287983D01*
X310808Y288094D01*
X310767Y288232D01*
X310725Y288385D01*
X310683Y288538D01*
X310572Y288870D01*
X310462Y289217D01*
X310337Y289550D01*
X310267Y289689D01*
X310198Y289827D01*
Y289841D01*
X310184Y289855D01*
X310129Y289938D01*
X310046Y290063D01*
X309935Y290216D01*
X309796Y290382D01*
X309629Y290562D01*
X309435Y290743D01*
X309213Y290895D01*
X309186Y290909D01*
X309102Y290951D01*
X308978Y291020D01*
X308797Y291089D01*
X308575Y291159D01*
X308312Y291228D01*
X308021Y291270D01*
X307688Y291283D01*
X314678D01*
D02*
G37*
G36*
Y282186D02*
X304720D01*
X306190D01*
X306162Y282158D01*
X306135Y282117D01*
X306093Y282075D01*
X306038Y282006D01*
X305982Y281936D01*
X305843Y281742D01*
X305691Y281479D01*
X305511Y281173D01*
X305330Y280827D01*
X305164Y280411D01*
Y280397D01*
X305150Y280355D01*
X305122Y280300D01*
X305094Y280217D01*
X305067Y280106D01*
X305025Y279981D01*
X304984Y279842D01*
X304942Y279690D01*
X304859Y279343D01*
X304789Y278941D01*
X304734Y278525D01*
X304720Y278081D01*
Y278275D01*
Y278081D01*
Y277928D01*
X304734Y277831D01*
Y277693D01*
X304748Y277540D01*
X304776Y277374D01*
X304803Y277179D01*
X304872Y276777D01*
X304984Y276333D01*
X305136Y275876D01*
X305233Y275668D01*
X305344Y275446D01*
X305358Y275432D01*
X305372Y275404D01*
X305413Y275335D01*
X305469Y275266D01*
X305524Y275168D01*
X305608Y275071D01*
X305705Y274947D01*
X305816Y274822D01*
X306065Y274544D01*
X306384Y274267D01*
X306745Y274004D01*
X307161Y273768D01*
X307175D01*
X307216Y273740D01*
X307286Y273712D01*
X307369Y273685D01*
X307480Y273643D01*
X307605Y273587D01*
X307757Y273546D01*
X307924Y273490D01*
X308104Y273435D01*
X308312Y273393D01*
X308742Y273296D01*
X309213Y273241D01*
X309727Y273213D01*
X309879D01*
X309976Y273227D01*
X310115D01*
X310267Y273241D01*
X310434Y273269D01*
X310628Y273296D01*
X311030Y273366D01*
X311488Y273477D01*
X311945Y273629D01*
X312167Y273726D01*
X312389Y273837D01*
X312403Y273851D01*
X312445Y273865D01*
X312500Y273906D01*
X312583Y273948D01*
X312680Y274017D01*
X312791Y274101D01*
X312916Y274198D01*
X313055Y274295D01*
X313194Y274420D01*
X313346Y274558D01*
X313499Y274711D01*
X313651Y274877D01*
X313790Y275058D01*
X313943Y275238D01*
X314192Y275668D01*
Y275682D01*
X314220Y275709D01*
X314234Y275765D01*
X314275Y275834D01*
X314303Y275931D01*
X314345Y276028D01*
X314386Y276167D01*
X314442Y276306D01*
X314483Y276458D01*
X314525Y276639D01*
X314567Y276833D01*
X314608Y277027D01*
X314664Y277471D01*
X314678Y277970D01*
Y277179D01*
Y277970D01*
Y278136D01*
X314664Y278261D01*
X314650Y278414D01*
X314636Y278594D01*
X314622Y278788D01*
X314580Y278996D01*
X314497Y279440D01*
X314359Y279898D01*
X314275Y280133D01*
X314178Y280355D01*
X314067Y280563D01*
X313929Y280757D01*
X313915Y280771D01*
X313901Y280799D01*
X313845Y280854D01*
X313790Y280924D01*
X313721Y281007D01*
X313624Y281090D01*
X313513Y281187D01*
X313388Y281298D01*
X313249Y281409D01*
X313097Y281520D01*
X312930Y281631D01*
X312736Y281728D01*
X312542Y281839D01*
X312334Y281922D01*
X312098Y282006D01*
X311862Y282061D01*
X311502Y280133D01*
X311516D01*
X311529Y280119D01*
X311613Y280092D01*
X311737Y280036D01*
X311904Y279953D01*
X312084Y279856D01*
X312264Y279717D01*
X312445Y279551D01*
X312611Y279357D01*
X312625Y279329D01*
X312680Y279260D01*
X312750Y279135D01*
X312819Y278982D01*
X312902Y278774D01*
X312958Y278538D01*
X313013Y278275D01*
X313027Y277970D01*
Y277845D01*
X313013Y277762D01*
X312999Y277651D01*
X312986Y277526D01*
X312958Y277387D01*
X312930Y277235D01*
X312833Y276916D01*
X312764Y276749D01*
X312680Y276583D01*
X312583Y276417D01*
X312486Y276250D01*
X312348Y276098D01*
X312209Y275945D01*
X312195Y275931D01*
X312167Y275917D01*
X312126Y275876D01*
X312056Y275834D01*
X311973Y275779D01*
X311876Y275709D01*
X311751Y275640D01*
X311613Y275585D01*
X311446Y275515D01*
X311266Y275446D01*
X311072Y275376D01*
X310864Y275321D01*
X310628Y275279D01*
X310364Y275238D01*
X310101Y275224D01*
X309810Y275210D01*
X309796D01*
X309740D01*
X309643D01*
X309532Y275224D01*
X309380Y275238D01*
X309227Y275252D01*
X309033Y275279D01*
X308839Y275307D01*
X308423Y275390D01*
X307993Y275529D01*
X307785Y275612D01*
X307591Y275709D01*
X307397Y275834D01*
X307230Y275959D01*
X307216Y275973D01*
X307189Y276001D01*
X307147Y276042D01*
X307092Y276098D01*
X307036Y276181D01*
X306953Y276264D01*
X306884Y276375D01*
X306800Y276500D01*
X306717Y276639D01*
X306648Y276777D01*
X306509Y277124D01*
X306453Y277318D01*
X306412Y277512D01*
X306384Y277734D01*
X306370Y277956D01*
Y278067D01*
X306384Y278178D01*
X306398Y278344D01*
X306426Y278525D01*
X306467Y278733D01*
X306523Y278955D01*
X306606Y279176D01*
Y279190D01*
X306620Y279204D01*
X306648Y279273D01*
X306703Y279398D01*
X306772Y279537D01*
X306856Y279703D01*
X306953Y279884D01*
X307064Y280064D01*
X307189Y280230D01*
X308423D01*
Y278011D01*
X310046D01*
Y282186D01*
X314678D01*
D02*
G37*
G36*
Y277179D02*
Y273213D01*
D01*
Y277179D01*
D02*
G37*
G36*
X314497Y271909D02*
Y271729D01*
X312875D01*
Y266556D01*
X310753D01*
Y271369D01*
X309130D01*
Y266556D01*
X306523D01*
Y271909D01*
X314497D01*
X304900D01*
Y264615D01*
X314497D01*
Y271909D01*
D02*
G37*
G36*
X314428Y263228D02*
D01*
Y258402D01*
X306523D01*
Y263228D01*
X314428D01*
X304900D01*
Y256460D01*
X314428D01*
Y263228D01*
D02*
G37*
%LPD*%
D11*
X248380Y347591D02*
G03*
X248380Y347591I-1250J0D01*
G01*
X323690Y305040D02*
G03*
X323690Y305040I-1250J0D01*
G01*
X352800Y184010D02*
G03*
X352800Y184010I-1250J0D01*
G01*
X370870Y202500D02*
G03*
X370870Y202500I-1250J0D01*
G01*
X433310Y417830D02*
G03*
X433310Y417830I-1250J0D01*
G01*
D12*
X202819Y362540D02*
G03*
X202819Y362540I-3810J0D01*
G01*
D13*
X225560Y533750D02*
G03*
X225560Y533750I-1000J0D01*
G01*
X189380Y195791D02*
X230880D01*
X189380D02*
Y351191D01*
X230880D01*
Y195791D02*
Y351191D01*
X130130Y206791D02*
Y213191D01*
X189380D01*
X130130Y206791D02*
X189380D01*
X130130Y232191D02*
Y238591D01*
X189380D01*
X130130Y232191D02*
X189380D01*
X130130Y257591D02*
Y263991D01*
X189380D01*
X130130Y257591D02*
X189380D01*
X130130Y282991D02*
Y289391D01*
X189380D01*
X130130Y282991D02*
X189380D01*
X130130Y308391D02*
Y314791D01*
X189380D01*
X130130Y308391D02*
X189380D01*
X130130Y333791D02*
Y340191D01*
X189380D01*
X130130Y333791D02*
X189380D01*
X328940Y303540D02*
Y307290D01*
Y303540D02*
X332690D01*
X358190D02*
X361940D01*
Y307290D01*
Y332790D02*
Y336540D01*
X358190D02*
X361940D01*
X328940Y332790D02*
Y336540D01*
X332690D01*
X349300Y190510D02*
X353050D01*
Y194260D01*
Y219760D02*
Y223510D01*
X349300D02*
X353050D01*
X320050D02*
X323800D01*
X320050Y219760D02*
Y223510D01*
Y190510D02*
X323800D01*
X320050D02*
Y194260D01*
X354340Y581290D02*
X373340D01*
X354340Y566790D02*
X373340D01*
X449251Y178439D02*
Y202561D01*
X432129Y178439D02*
Y202561D01*
X374019Y279071D02*
X398141D01*
X374019Y261949D02*
X398141D01*
X486030Y271890D02*
X502030D01*
X486030Y253890D02*
X502030D01*
X373120Y181500D02*
X380620D01*
X373120D02*
Y194500D01*
X396620Y181500D02*
X404120D01*
Y194500D01*
X405790Y566790D02*
X424790D01*
X405790Y581290D02*
X424790D01*
X492110Y402580D02*
X518810D01*
X492110Y534680D02*
X518810D01*
X492110Y402580D02*
Y534680D01*
X518810Y402580D02*
Y534680D01*
D16*
X266700Y458470D02*
X270510Y454660D01*
X372110Y406400D02*
Y414020D01*
X392430Y464820D02*
Y471170D01*
X369570Y448310D02*
Y453390D01*
X326390Y450850D02*
Y458470D01*
X320040Y490220D02*
X331470Y478790D01*
X288290Y490220D02*
X320040D01*
Y467360D02*
X331470Y478790D01*
X287020D02*
X290830Y482600D01*
X281940Y478790D02*
X289560Y486410D01*
X290830D01*
X281940Y478790D02*
X289560Y471170D01*
X318770D01*
X326390Y478790D01*
X318770Y486410D02*
X326390Y478790D01*
X290830Y486410D02*
X318770D01*
X276860Y478790D02*
X288290Y490220D01*
X276860Y478790D02*
X288290Y467360D01*
X320040D01*
X257810Y462280D02*
X259080Y461010D01*
X257810Y462280D02*
Y464820D01*
X261620Y468630D01*
X290830Y482600D02*
X317500D01*
X292100Y478790D02*
X316230D01*
X287020D02*
X290830Y474980D01*
X317500D01*
X321310Y478790D01*
X317500Y482600D02*
X321310Y478790D01*
X287020Y406400D02*
X320040D01*
X295910Y411480D02*
Y420370D01*
X290830Y421640D02*
Y438150D01*
X312420Y419100D02*
Y422910D01*
X321310Y415290D02*
Y436880D01*
X307340Y430530D02*
Y445770D01*
X316230Y443230D02*
Y461010D01*
X299720Y444500D02*
Y448310D01*
X331470Y417830D02*
Y478790D01*
X320040Y406400D02*
X331470Y417830D01*
X280670Y419100D02*
Y425450D01*
X265430Y467360D02*
X276860Y455930D01*
X259080Y461010D02*
X276860Y443230D01*
X265430Y464820D02*
Y467360D01*
X261620Y461010D02*
X265430Y464820D01*
X259080Y461010D02*
X261620D01*
Y468630D02*
X264160D01*
X265430Y467360D01*
X276860Y416560D02*
X287020Y406400D01*
X276860Y416560D02*
Y443230D01*
X264160Y452120D02*
X267970D01*
X261620Y449580D02*
X264160Y452120D01*
X261620Y445770D02*
X265430D01*
X267970Y448310D01*
Y452120D01*
X283210Y445770D02*
Y461010D01*
X276860Y450850D02*
Y478790D01*
X261620Y445770D02*
Y449580D01*
X400050Y417830D02*
Y478790D01*
X394970Y450850D02*
Y458470D01*
X389890Y415290D02*
Y436880D01*
X364490Y411480D02*
Y420370D01*
X373380Y422910D02*
Y438150D01*
X383540Y443230D02*
Y461010D01*
X364490Y454660D02*
Y458470D01*
X388620Y406400D02*
X400050Y417830D01*
X355600Y406400D02*
X388620D01*
X379730Y414020D02*
Y417830D01*
X359410Y421640D02*
Y438150D01*
X355600Y478790D02*
X359410Y474980D01*
X386080D02*
X389890Y478790D01*
X350520D02*
X358140Y471170D01*
X387350D01*
X345440Y478790D02*
X356870Y467360D01*
X388620D01*
X359410Y474980D02*
X386080D01*
X360680Y478790D02*
X384810D01*
X386080Y482600D02*
X389890Y478790D01*
X355600D02*
X359410Y482600D01*
X386080D01*
X387350Y486410D02*
X394970Y478790D01*
X359410Y486410D02*
X387350D01*
Y471170D02*
X394970Y478790D01*
X345440D02*
X356870Y490220D01*
X350520Y478790D02*
X358140Y486410D01*
X388620Y467360D02*
X400050Y478790D01*
X388620Y490220D02*
X400050Y478790D01*
X356870Y490220D02*
X388620D01*
X358140Y486410D02*
X359410D01*
X349250Y419100D02*
Y425450D01*
X345440Y416560D02*
X355600Y406400D01*
X345440Y416560D02*
Y478790D01*
X351790Y445770D02*
Y461010D01*
X189584Y546063D02*
X189601Y185401D01*
X240030Y133350D02*
X467360D01*
X241300Y596900D02*
X467360Y597171D01*
X519430Y185420D02*
Y544830D01*
D17*
X469837Y305646D02*
X474916D01*
Y302260D01*
Y300567D02*
Y298874D01*
Y299721D01*
X469837D01*
X470684Y300567D01*
X456776Y324273D02*
X457623Y325119D01*
X459315D01*
X460162Y324273D01*
Y320887D01*
X459315Y320041D01*
X457623D01*
X456776Y320887D01*
X451698Y325119D02*
X453391Y324273D01*
X455084Y322580D01*
Y320887D01*
X454237Y320041D01*
X452544D01*
X451698Y320887D01*
Y321734D01*
X452544Y322580D01*
X455084D01*
X364067Y361102D02*
X363221Y361949D01*
Y363642D01*
X364067Y364488D01*
X367453D01*
X368299Y363642D01*
Y361949D01*
X367453Y361102D01*
X368299Y359410D02*
Y357717D01*
Y358563D01*
X363221D01*
X364067Y359410D01*
X367453Y355178D02*
X368299Y354331D01*
Y352639D01*
X367453Y351792D01*
X364067D01*
X363221Y352639D01*
Y354331D01*
X364067Y355178D01*
X364914D01*
X365760Y354331D01*
Y351792D01*
X334432Y288713D02*
X335279Y289559D01*
X336972D01*
X337818Y288713D01*
Y285327D01*
X336972Y284481D01*
X335279D01*
X334432Y285327D01*
X332740Y284481D02*
X331047D01*
X331893D01*
Y289559D01*
X332740Y288713D01*
X328508D02*
X327661Y289559D01*
X325968D01*
X325122Y288713D01*
Y287866D01*
X325968Y287020D01*
X325122Y286174D01*
Y285327D01*
X325968Y284481D01*
X327661D01*
X328508Y285327D01*
Y286174D01*
X327661Y287020D01*
X328508Y287866D01*
Y288713D01*
X327661Y287020D02*
X325968D01*
X359832Y288713D02*
X360679Y289559D01*
X362371D01*
X363218Y288713D01*
Y285327D01*
X362371Y284481D01*
X360679D01*
X359832Y285327D01*
X358140Y284481D02*
X356447D01*
X357293D01*
Y289559D01*
X358140Y288713D01*
X353908Y289559D02*
X350522D01*
Y288713D01*
X353908Y285327D01*
Y284481D01*
X445346Y211243D02*
X446193Y212089D01*
X447886D01*
X448732Y211243D01*
Y207857D01*
X447886Y207011D01*
X446193D01*
X445346Y207857D01*
X440268Y207011D02*
X443654D01*
X440268Y210396D01*
Y211243D01*
X441114Y212089D01*
X442807D01*
X443654Y211243D01*
X202776Y538479D02*
Y537633D01*
X201083Y535940D01*
X199390Y537633D01*
Y538479D01*
X201083Y535940D02*
Y533401D01*
X197697D02*
X196004D01*
X196851D01*
Y538479D01*
X197697Y537633D01*
X317501Y338242D02*
X321733D01*
X322579Y337396D01*
Y335703D01*
X321733Y334856D01*
X317501D01*
X322579Y330624D02*
X317501D01*
X320040Y333164D01*
Y329778D01*
X363219Y187538D02*
X358987D01*
X358141Y188384D01*
Y190077D01*
X358987Y190924D01*
X363219D01*
X362373Y192616D02*
X363219Y193463D01*
Y195156D01*
X362373Y196002D01*
X361526D01*
X360680Y195156D01*
Y194309D01*
Y195156D01*
X359834Y196002D01*
X358987D01*
X358141Y195156D01*
Y193463D01*
X358987Y192616D01*
X420371Y248496D02*
X424603D01*
X425449Y247649D01*
Y245956D01*
X424603Y245110D01*
X420371D01*
X425449Y243417D02*
Y241724D01*
Y242571D01*
X420371D01*
X421217Y243417D01*
X476249Y391582D02*
X471171D01*
Y389043D01*
X472017Y388196D01*
X473710D01*
X474556Y389043D01*
Y391582D01*
Y389889D02*
X476249Y388196D01*
Y383964D02*
X471171D01*
X473710Y386504D01*
Y383118D01*
X476249Y349672D02*
X471171D01*
Y347133D01*
X472017Y346286D01*
X473710D01*
X474556Y347133D01*
Y349672D01*
Y347979D02*
X476249Y346286D01*
X472017Y344594D02*
X471171Y343747D01*
Y342054D01*
X472017Y341208D01*
X472864D01*
X473710Y342054D01*
Y342901D01*
Y342054D01*
X474556Y341208D01*
X475403D01*
X476249Y342054D01*
Y343747D01*
X475403Y344594D01*
X477639Y267122D02*
X472561D01*
Y264583D01*
X473407Y263736D01*
X475100D01*
X475946Y264583D01*
Y267122D01*
Y265429D02*
X477639Y263736D01*
Y258658D02*
Y262044D01*
X474254Y258658D01*
X473407D01*
X472561Y259504D01*
Y261197D01*
X473407Y262044D01*
X400050Y210397D02*
Y213783D01*
X400896Y214629D01*
X402589D01*
X403436Y213783D01*
Y210397D01*
X402589Y209551D01*
X400896D01*
X401743Y211244D02*
X400050Y209551D01*
X400896D02*
X400050Y210397D01*
X398357Y209551D02*
X396664D01*
X397511D01*
Y214629D01*
X398357Y213783D01*
X244262Y195581D02*
Y200659D01*
X241723D01*
X240876Y199813D01*
Y198120D01*
X241723Y197274D01*
X244262D01*
X235798Y195581D02*
X239184D01*
X235798Y198966D01*
Y199813D01*
X236644Y200659D01*
X238337D01*
X239184Y199813D01*
X482621Y530436D02*
Y532129D01*
Y531283D01*
X486853D01*
X487699Y532129D01*
Y532976D01*
X486853Y533822D01*
X487699Y526204D02*
X482621D01*
X485160Y528744D01*
Y525358D01*
X396662Y286173D02*
X397509Y287019D01*
X399202D01*
X400048Y286173D01*
Y282787D01*
X399202Y281941D01*
X397509D01*
X396662Y282787D01*
X394970Y281941D02*
X393277D01*
X394123D01*
Y287019D01*
X394970Y286173D01*
X390738D02*
X389891Y287019D01*
X388198D01*
X387352Y286173D01*
Y285326D01*
X388198Y284480D01*
X389045D01*
X388198D01*
X387352Y283634D01*
Y282787D01*
X388198Y281941D01*
X389891D01*
X390738Y282787D01*
X422682Y588433D02*
X423529Y589279D01*
X425221D01*
X426068Y588433D01*
Y585047D01*
X425221Y584201D01*
X423529D01*
X422682Y585047D01*
X420990Y584201D02*
X419297D01*
X420143D01*
Y589279D01*
X420990Y588433D01*
X416758D02*
X415911Y589279D01*
X414218D01*
X413372Y588433D01*
Y585047D01*
X414218Y584201D01*
X415911D01*
X416758Y585047D01*
Y588433D01*
X349023Y573194D02*
X349869Y572347D01*
Y570654D01*
X349023Y569808D01*
X345637D01*
X344791Y570654D01*
Y572347D01*
X345637Y573194D01*
Y574886D02*
X344791Y575733D01*
Y577426D01*
X345637Y578272D01*
X349023D01*
X349869Y577426D01*
Y575733D01*
X349023Y574886D01*
X348176D01*
X347330Y575733D01*
Y578272D01*
X352636Y532129D02*
X354329D01*
X353483D01*
Y527897D01*
X354329Y527051D01*
X355176D01*
X356022Y527897D01*
X347558Y532129D02*
X350944D01*
Y529590D01*
X349251Y530436D01*
X348404D01*
X347558Y529590D01*
Y527897D01*
X348404Y527051D01*
X350097D01*
X350944Y527897D01*
D82*
X447890Y301910D02*
Y307910D01*
X458890Y301910D02*
Y307910D01*
D83*
X452190Y225470D02*
Y231970D01*
Y245220D02*
Y246970D01*
X429190Y245220D02*
Y246970D01*
Y225470D02*
Y227220D01*
D84*
X211360Y476650D02*
X215360D01*
X211360Y526650D02*
X215360D01*
X229360Y494650D02*
Y508650D01*
X197360Y494650D02*
Y508650D01*
M02*
