G04*
G04 #@! TF.GenerationSoftware,Altium Limited,Altium Designer,24.9.1 (31)*
G04*
G04 Layer_Color=32896*
%FSLAX44Y44*%
%MOMM*%
G71*
G04*
G04 #@! TF.SameCoordinates,573C6FB0-CD79-483D-94B5-B6DABAD4C9EF*
G04*
G04*
G04 #@! TF.FilePolarity,Positive*
G04*
G01*
G75*
%ADD13C,0.2000*%
%ADD86C,0.1000*%
G36*
X367030Y574031D02*
X367205Y574012D01*
X367372Y573994D01*
X367529Y573957D01*
X367677Y573911D01*
X367816Y573864D01*
X367945Y573818D01*
X368065Y573763D01*
X368167Y573717D01*
X368269Y573670D01*
X368343Y573624D01*
X368416Y573578D01*
X368463Y573541D01*
X368509Y573522D01*
X368527Y573504D01*
X368537Y573495D01*
X368666Y573384D01*
X368777Y573273D01*
X368879Y573143D01*
X368980Y573014D01*
X369147Y572755D01*
X369276Y572496D01*
X369332Y572376D01*
X369378Y572265D01*
X369415Y572163D01*
X369443Y572080D01*
X369470Y572006D01*
X369489Y571951D01*
X369498Y571914D01*
Y571904D01*
X368648Y571692D01*
X368611Y571840D01*
X368564Y571978D01*
X368518Y572108D01*
X368472Y572228D01*
X368416Y572339D01*
X368361Y572431D01*
X368296Y572524D01*
X368241Y572607D01*
X368195Y572681D01*
X368139Y572736D01*
X368093Y572792D01*
X368056Y572838D01*
X368019Y572866D01*
X367991Y572894D01*
X367982Y572903D01*
X367973Y572912D01*
X367880Y572986D01*
X367779Y573042D01*
X367575Y573143D01*
X367381Y573217D01*
X367187Y573263D01*
X367020Y573300D01*
X366956Y573310D01*
X366891D01*
X366835Y573319D01*
X366771D01*
X366558Y573310D01*
X366355Y573273D01*
X366170Y573227D01*
X366003Y573171D01*
X365874Y573116D01*
X365818Y573088D01*
X365772Y573069D01*
X365735Y573051D01*
X365708Y573032D01*
X365689Y573023D01*
X365680D01*
X365504Y572894D01*
X365356Y572755D01*
X365227Y572598D01*
X365125Y572450D01*
X365042Y572320D01*
X364986Y572209D01*
X364968Y572163D01*
X364949Y572136D01*
X364940Y572117D01*
Y572108D01*
X364866Y571867D01*
X364811Y571627D01*
X364764Y571387D01*
X364737Y571165D01*
X364727Y571063D01*
X364718Y570970D01*
Y570887D01*
X364709Y570823D01*
Y570767D01*
Y570721D01*
Y570693D01*
Y570684D01*
X364718Y570443D01*
X364737Y570222D01*
X364774Y570018D01*
X364811Y569833D01*
X364838Y569676D01*
X364857Y569611D01*
X364875Y569556D01*
X364885Y569510D01*
X364894Y569482D01*
X364903Y569464D01*
Y569454D01*
X364996Y569242D01*
X365097Y569048D01*
X365208Y568890D01*
X365328Y568752D01*
X365430Y568641D01*
X365513Y568567D01*
X365578Y568521D01*
X365587Y568502D01*
X365597D01*
X365791Y568382D01*
X366003Y568289D01*
X366207Y568225D01*
X366401Y568188D01*
X366577Y568160D01*
X366651Y568151D01*
X366715D01*
X366762Y568141D01*
X366835D01*
X367067Y568151D01*
X367279Y568188D01*
X367455Y568243D01*
X367612Y568299D01*
X367732Y568363D01*
X367825Y568410D01*
X367880Y568447D01*
X367899Y568465D01*
X368047Y568604D01*
X368185Y568761D01*
X368296Y568927D01*
X368389Y569094D01*
X368463Y569242D01*
X368490Y569316D01*
X368509Y569371D01*
X368527Y569417D01*
X368546Y569454D01*
X368555Y569473D01*
Y569482D01*
X369387Y569288D01*
X369332Y569121D01*
X369276Y568974D01*
X369202Y568835D01*
X369138Y568696D01*
X369064Y568576D01*
X368980Y568465D01*
X368907Y568354D01*
X368833Y568262D01*
X368759Y568188D01*
X368694Y568114D01*
X368629Y568049D01*
X368583Y568003D01*
X368537Y567957D01*
X368500Y567929D01*
X368481Y567920D01*
X368472Y567910D01*
X368343Y567827D01*
X368213Y567744D01*
X368084Y567679D01*
X367945Y567624D01*
X367668Y567540D01*
X367418Y567485D01*
X367298Y567457D01*
X367196Y567448D01*
X367094Y567439D01*
X367011Y567430D01*
X366946Y567420D01*
X366854D01*
X366549Y567439D01*
X366253Y567485D01*
X365994Y567540D01*
X365874Y567577D01*
X365763Y567614D01*
X365661Y567651D01*
X365569Y567688D01*
X365495Y567716D01*
X365421Y567744D01*
X365375Y567772D01*
X365338Y567790D01*
X365310Y567799D01*
X365301Y567808D01*
X365051Y567966D01*
X364838Y568151D01*
X364654Y568335D01*
X364496Y568521D01*
X364376Y568687D01*
X364330Y568761D01*
X364293Y568826D01*
X364256Y568872D01*
X364237Y568909D01*
X364228Y568937D01*
X364219Y568946D01*
X364090Y569232D01*
X363997Y569528D01*
X363932Y569824D01*
X363886Y570092D01*
X363868Y570212D01*
X363858Y570333D01*
X363849Y570425D01*
Y570518D01*
X363840Y570582D01*
Y570638D01*
Y570675D01*
Y570684D01*
X363858Y571017D01*
X363895Y571340D01*
X363942Y571627D01*
X363979Y571766D01*
X364006Y571886D01*
X364034Y571997D01*
X364071Y572099D01*
X364099Y572191D01*
X364117Y572265D01*
X364145Y572320D01*
X364154Y572367D01*
X364173Y572394D01*
Y572404D01*
X364311Y572681D01*
X364469Y572931D01*
X364635Y573143D01*
X364718Y573227D01*
X364792Y573310D01*
X364866Y573384D01*
X364940Y573448D01*
X365005Y573504D01*
X365060Y573541D01*
X365097Y573578D01*
X365134Y573605D01*
X365153Y573615D01*
X365162Y573624D01*
X365291Y573698D01*
X365421Y573763D01*
X365698Y573864D01*
X365976Y573938D01*
X366244Y573985D01*
X366373Y574003D01*
X366484Y574022D01*
X366586Y574031D01*
X366669D01*
X366743Y574040D01*
X366845D01*
X367030Y574031D01*
D02*
G37*
G36*
X372392Y574022D02*
X372623Y573985D01*
X372836Y573920D01*
X373012Y573846D01*
X373086Y573818D01*
X373159Y573781D01*
X373215Y573744D01*
X373270Y573717D01*
X373307Y573698D01*
X373335Y573680D01*
X373354Y573661D01*
X373363D01*
X373548Y573504D01*
X373714Y573328D01*
X373844Y573143D01*
X373955Y572968D01*
X374047Y572810D01*
X374084Y572736D01*
X374112Y572681D01*
X374130Y572626D01*
X374149Y572589D01*
X374158Y572570D01*
Y572561D01*
X374204Y572422D01*
X374250Y572265D01*
X374315Y571951D01*
X374361Y571618D01*
X374389Y571303D01*
X374408Y571165D01*
X374417Y571026D01*
Y570906D01*
X374426Y570804D01*
Y570721D01*
Y570656D01*
Y570610D01*
Y570601D01*
Y570388D01*
X374417Y570185D01*
X374398Y570000D01*
X374380Y569824D01*
X374361Y569667D01*
X374343Y569519D01*
X374315Y569380D01*
X374287Y569260D01*
X374260Y569158D01*
X374241Y569066D01*
X374213Y568983D01*
X374195Y568918D01*
X374176Y568872D01*
X374158Y568835D01*
X374149Y568816D01*
Y568807D01*
X374038Y568585D01*
X373918Y568391D01*
X373779Y568225D01*
X373659Y568086D01*
X373539Y567984D01*
X373446Y567910D01*
X373409Y567882D01*
X373381Y567864D01*
X373372Y567845D01*
X373363D01*
X373169Y567735D01*
X372975Y567651D01*
X372780Y567587D01*
X372605Y567550D01*
X372448Y567522D01*
X372383Y567513D01*
X372337D01*
X372290Y567503D01*
X372226D01*
X372068Y567513D01*
X371921Y567531D01*
X371773Y567559D01*
X371643Y567596D01*
X371394Y567698D01*
X371283Y567744D01*
X371190Y567799D01*
X371098Y567864D01*
X371024Y567910D01*
X370950Y567966D01*
X370894Y568012D01*
X370848Y568049D01*
X370820Y568077D01*
X370802Y568095D01*
X370793Y568104D01*
X370691Y568215D01*
X370608Y568345D01*
X370524Y568465D01*
X370460Y568594D01*
X370404Y568733D01*
X370358Y568862D01*
X370293Y569103D01*
X370266Y569223D01*
X370247Y569325D01*
X370238Y569426D01*
X370229Y569510D01*
X370219Y569575D01*
Y569621D01*
Y569658D01*
Y569667D01*
X370229Y569843D01*
X370247Y570000D01*
X370266Y570157D01*
X370303Y570305D01*
X370349Y570434D01*
X370395Y570564D01*
X370441Y570675D01*
X370497Y570776D01*
X370543Y570869D01*
X370589Y570952D01*
X370635Y571017D01*
X370682Y571082D01*
X370719Y571128D01*
X370737Y571155D01*
X370756Y571174D01*
X370765Y571183D01*
X370867Y571285D01*
X370978Y571368D01*
X371088Y571451D01*
X371209Y571516D01*
X371320Y571572D01*
X371431Y571618D01*
X371643Y571682D01*
X371736Y571710D01*
X371828Y571729D01*
X371902Y571738D01*
X371976Y571747D01*
X372032Y571756D01*
X372105D01*
X372281Y571747D01*
X372448Y571719D01*
X372595Y571682D01*
X372734Y571636D01*
X372836Y571599D01*
X372919Y571562D01*
X372975Y571535D01*
X372993Y571525D01*
X373141Y571433D01*
X373270Y571331D01*
X373381Y571229D01*
X373474Y571137D01*
X373539Y571045D01*
X373594Y570980D01*
X373631Y570934D01*
X373640Y570915D01*
Y570989D01*
Y571035D01*
Y571063D01*
Y571072D01*
X373631Y571257D01*
X373622Y571433D01*
X373603Y571590D01*
X373585Y571738D01*
X373557Y571858D01*
X373539Y571951D01*
X373529Y571988D01*
Y572015D01*
X373520Y572024D01*
Y572034D01*
X373474Y572200D01*
X373428Y572348D01*
X373381Y572478D01*
X373335Y572589D01*
X373298Y572672D01*
X373261Y572736D01*
X373243Y572783D01*
X373233Y572792D01*
X373159Y572894D01*
X373086Y572977D01*
X373012Y573051D01*
X372938Y573116D01*
X372882Y573171D01*
X372827Y573208D01*
X372790Y573227D01*
X372780Y573236D01*
X372679Y573291D01*
X372568Y573328D01*
X372466Y573356D01*
X372364Y573374D01*
X372281Y573384D01*
X372216Y573393D01*
X372152D01*
X372004Y573384D01*
X371865Y573356D01*
X371745Y573319D01*
X371643Y573273D01*
X371569Y573236D01*
X371505Y573199D01*
X371468Y573171D01*
X371458Y573162D01*
X371366Y573060D01*
X371292Y572940D01*
X371227Y572810D01*
X371181Y572681D01*
X371144Y572570D01*
X371116Y572468D01*
X371107Y572431D01*
Y572413D01*
X371098Y572394D01*
Y572385D01*
X370340Y572450D01*
X370395Y572718D01*
X370469Y572949D01*
X370561Y573153D01*
X370654Y573319D01*
X370746Y573448D01*
X370793Y573504D01*
X370830Y573550D01*
X370857Y573578D01*
X370885Y573605D01*
X370894Y573615D01*
X370904Y573624D01*
X370996Y573698D01*
X371098Y573763D01*
X371301Y573864D01*
X371505Y573938D01*
X371699Y573985D01*
X371874Y574022D01*
X371948Y574031D01*
X372013D01*
X372059Y574040D01*
X372133D01*
X372392Y574022D01*
D02*
G37*
G36*
X437667Y190482D02*
X437990Y190445D01*
X438277Y190398D01*
X438416Y190361D01*
X438536Y190334D01*
X438647Y190306D01*
X438749Y190269D01*
X438841Y190241D01*
X438915Y190223D01*
X438970Y190195D01*
X439017Y190186D01*
X439044Y190167D01*
X439054D01*
X439331Y190029D01*
X439581Y189871D01*
X439793Y189705D01*
X439877Y189622D01*
X439960Y189548D01*
X440034Y189474D01*
X440098Y189400D01*
X440154Y189335D01*
X440191Y189280D01*
X440228Y189243D01*
X440256Y189206D01*
X440265Y189187D01*
X440274Y189178D01*
X440348Y189049D01*
X440413Y188919D01*
X440514Y188642D01*
X440588Y188364D01*
X440635Y188096D01*
X440653Y187967D01*
X440672Y187856D01*
X440681Y187754D01*
Y187671D01*
X440690Y187597D01*
Y187495D01*
X440681Y187310D01*
X440662Y187135D01*
X440644Y186968D01*
X440607Y186811D01*
X440561Y186663D01*
X440514Y186525D01*
X440468Y186395D01*
X440413Y186275D01*
X440367Y186173D01*
X440320Y186071D01*
X440274Y185998D01*
X440228Y185924D01*
X440191Y185877D01*
X440172Y185831D01*
X440154Y185813D01*
X440145Y185803D01*
X440034Y185674D01*
X439923Y185563D01*
X439793Y185461D01*
X439664Y185360D01*
X439405Y185193D01*
X439146Y185064D01*
X439026Y185008D01*
X438915Y184962D01*
X438813Y184925D01*
X438730Y184897D01*
X438656Y184870D01*
X438601Y184851D01*
X438564Y184842D01*
X438554D01*
X438342Y185692D01*
X438490Y185729D01*
X438628Y185776D01*
X438758Y185822D01*
X438878Y185868D01*
X438989Y185924D01*
X439081Y185979D01*
X439174Y186044D01*
X439257Y186099D01*
X439331Y186145D01*
X439386Y186201D01*
X439442Y186247D01*
X439488Y186284D01*
X439516Y186321D01*
X439544Y186349D01*
X439553Y186358D01*
X439562Y186367D01*
X439636Y186460D01*
X439692Y186562D01*
X439793Y186765D01*
X439867Y186959D01*
X439913Y187153D01*
X439950Y187320D01*
X439960Y187384D01*
Y187449D01*
X439969Y187505D01*
Y187569D01*
X439960Y187782D01*
X439923Y187985D01*
X439877Y188170D01*
X439821Y188337D01*
X439766Y188466D01*
X439738Y188522D01*
X439719Y188568D01*
X439701Y188605D01*
X439682Y188633D01*
X439673Y188651D01*
Y188660D01*
X439544Y188836D01*
X439405Y188984D01*
X439248Y189113D01*
X439100Y189215D01*
X438970Y189298D01*
X438859Y189354D01*
X438813Y189372D01*
X438786Y189391D01*
X438767Y189400D01*
X438758D01*
X438517Y189474D01*
X438277Y189529D01*
X438037Y189576D01*
X437815Y189603D01*
X437713Y189613D01*
X437621Y189622D01*
X437537D01*
X437473Y189631D01*
X437417D01*
X437371D01*
X437343D01*
X437334D01*
X437094Y189622D01*
X436872Y189603D01*
X436668Y189566D01*
X436483Y189529D01*
X436326Y189502D01*
X436261Y189483D01*
X436206Y189465D01*
X436160Y189455D01*
X436132Y189446D01*
X436114Y189437D01*
X436104D01*
X435892Y189344D01*
X435698Y189243D01*
X435540Y189132D01*
X435402Y189012D01*
X435291Y188910D01*
X435217Y188827D01*
X435171Y188762D01*
X435152Y188753D01*
Y188743D01*
X435032Y188549D01*
X434939Y188337D01*
X434875Y188133D01*
X434838Y187939D01*
X434810Y187763D01*
X434801Y187689D01*
Y187625D01*
X434791Y187579D01*
Y187505D01*
X434801Y187273D01*
X434838Y187061D01*
X434893Y186885D01*
X434949Y186728D01*
X435013Y186608D01*
X435060Y186515D01*
X435097Y186460D01*
X435115Y186441D01*
X435254Y186293D01*
X435411Y186155D01*
X435577Y186044D01*
X435744Y185951D01*
X435892Y185877D01*
X435966Y185850D01*
X436021Y185831D01*
X436067Y185813D01*
X436104Y185794D01*
X436123Y185785D01*
X436132D01*
X435938Y184953D01*
X435771Y185008D01*
X435624Y185064D01*
X435485Y185138D01*
X435346Y185202D01*
X435226Y185276D01*
X435115Y185360D01*
X435004Y185434D01*
X434912Y185508D01*
X434838Y185581D01*
X434764Y185646D01*
X434699Y185711D01*
X434653Y185757D01*
X434607Y185803D01*
X434579Y185840D01*
X434570Y185859D01*
X434560Y185868D01*
X434477Y185998D01*
X434394Y186127D01*
X434329Y186256D01*
X434274Y186395D01*
X434190Y186672D01*
X434135Y186922D01*
X434107Y187042D01*
X434098Y187144D01*
X434089Y187246D01*
X434080Y187329D01*
X434070Y187394D01*
Y187486D01*
X434089Y187791D01*
X434135Y188087D01*
X434190Y188346D01*
X434227Y188466D01*
X434264Y188577D01*
X434301Y188679D01*
X434338Y188771D01*
X434366Y188845D01*
X434394Y188919D01*
X434422Y188965D01*
X434440Y189002D01*
X434449Y189030D01*
X434459Y189039D01*
X434616Y189289D01*
X434801Y189502D01*
X434986Y189687D01*
X435171Y189844D01*
X435337Y189964D01*
X435411Y190010D01*
X435476Y190047D01*
X435522Y190084D01*
X435559Y190103D01*
X435587Y190112D01*
X435596Y190121D01*
X435882Y190250D01*
X436178Y190343D01*
X436474Y190408D01*
X436742Y190454D01*
X436862Y190472D01*
X436983Y190482D01*
X437075Y190491D01*
X437168D01*
X437232Y190500D01*
X437288D01*
X437325D01*
X437334D01*
X437667Y190482D01*
D02*
G37*
G36*
X440579Y179988D02*
X439821D01*
Y183141D01*
X439664Y183030D01*
X439599Y182974D01*
X439534Y182928D01*
X439479Y182882D01*
X439442Y182845D01*
X439414Y182817D01*
X439405Y182808D01*
X439359Y182762D01*
X439313Y182706D01*
X439192Y182577D01*
X439054Y182429D01*
X438915Y182271D01*
X438795Y182124D01*
X438739Y182059D01*
X438684Y182003D01*
X438647Y181957D01*
X438619Y181920D01*
X438601Y181902D01*
X438591Y181893D01*
X438462Y181744D01*
X438342Y181597D01*
X438222Y181467D01*
X438120Y181347D01*
X438018Y181236D01*
X437926Y181144D01*
X437842Y181051D01*
X437769Y180977D01*
X437695Y180903D01*
X437639Y180848D01*
X437593Y180802D01*
X437547Y180755D01*
X437491Y180709D01*
X437473Y180690D01*
X437315Y180561D01*
X437177Y180450D01*
X437038Y180358D01*
X436927Y180284D01*
X436825Y180228D01*
X436752Y180191D01*
X436705Y180173D01*
X436687Y180163D01*
X436548Y180108D01*
X436409Y180071D01*
X436280Y180034D01*
X436169Y180016D01*
X436067Y180006D01*
X435993Y179997D01*
X435947D01*
X435929D01*
X435790Y180006D01*
X435661Y180025D01*
X435531Y180043D01*
X435420Y180080D01*
X435198Y180173D01*
X435023Y180265D01*
X434939Y180321D01*
X434875Y180367D01*
X434810Y180413D01*
X434764Y180459D01*
X434727Y180496D01*
X434690Y180515D01*
X434680Y180533D01*
X434671Y180543D01*
X434579Y180644D01*
X434496Y180755D01*
X434431Y180875D01*
X434375Y180996D01*
X434283Y181236D01*
X434218Y181476D01*
X434200Y181578D01*
X434181Y181680D01*
X434172Y181772D01*
X434163Y181846D01*
X434153Y181911D01*
Y182003D01*
X434163Y182170D01*
X434172Y182327D01*
X434200Y182475D01*
X434227Y182614D01*
X434264Y182743D01*
X434301Y182863D01*
X434348Y182974D01*
X434394Y183076D01*
X434440Y183168D01*
X434486Y183242D01*
X434523Y183307D01*
X434560Y183363D01*
X434588Y183409D01*
X434616Y183437D01*
X434625Y183455D01*
X434634Y183464D01*
X434727Y183557D01*
X434828Y183640D01*
X434939Y183723D01*
X435050Y183788D01*
X435272Y183899D01*
X435494Y183973D01*
X435596Y184000D01*
X435698Y184028D01*
X435781Y184047D01*
X435855Y184065D01*
X435919Y184074D01*
X435966D01*
X435993Y184084D01*
X436003D01*
X436086Y183279D01*
X435873Y183261D01*
X435688Y183224D01*
X435522Y183168D01*
X435392Y183104D01*
X435281Y183048D01*
X435207Y182993D01*
X435161Y182956D01*
X435143Y182937D01*
X435032Y182799D01*
X434949Y182651D01*
X434884Y182493D01*
X434847Y182355D01*
X434819Y182225D01*
X434810Y182114D01*
X434801Y182077D01*
Y182022D01*
X434810Y181828D01*
X434847Y181652D01*
X434902Y181504D01*
X434958Y181375D01*
X435023Y181273D01*
X435069Y181208D01*
X435106Y181162D01*
X435124Y181144D01*
X435254Y181033D01*
X435383Y180949D01*
X435513Y180885D01*
X435642Y180848D01*
X435744Y180820D01*
X435836Y180811D01*
X435892Y180802D01*
X435901D01*
X435910D01*
X436077Y180820D01*
X436252Y180857D01*
X436409Y180922D01*
X436557Y180986D01*
X436678Y181060D01*
X436779Y181125D01*
X436816Y181144D01*
X436844Y181162D01*
X436853Y181181D01*
X436862D01*
X436964Y181255D01*
X437066Y181347D01*
X437177Y181449D01*
X437288Y181560D01*
X437510Y181791D01*
X437732Y182022D01*
X437833Y182142D01*
X437926Y182244D01*
X438009Y182346D01*
X438083Y182429D01*
X438138Y182493D01*
X438185Y182549D01*
X438212Y182586D01*
X438222Y182595D01*
X438416Y182826D01*
X438601Y183039D01*
X438767Y183215D01*
X438906Y183353D01*
X439026Y183473D01*
X439109Y183557D01*
X439165Y183603D01*
X439174Y183621D01*
X439183D01*
X439340Y183751D01*
X439488Y183853D01*
X439636Y183945D01*
X439766Y184019D01*
X439877Y184074D01*
X439960Y184111D01*
X440015Y184130D01*
X440024Y184139D01*
X440034D01*
X440135Y184176D01*
X440228Y184195D01*
X440320Y184213D01*
X440404Y184222D01*
X440477Y184232D01*
X440533D01*
X440570D01*
X440579D01*
Y179988D01*
D02*
G37*
G36*
X372988Y277028D02*
X373238Y276982D01*
X373451Y276908D01*
X373635Y276834D01*
X373719Y276788D01*
X373783Y276751D01*
X373848Y276714D01*
X373894Y276677D01*
X373931Y276649D01*
X373959Y276630D01*
X373978Y276621D01*
X373987Y276612D01*
X374162Y276436D01*
X374301Y276242D01*
X374412Y276039D01*
X374505Y275835D01*
X374560Y275660D01*
X374588Y275586D01*
X374606Y275521D01*
X374616Y275466D01*
X374625Y275429D01*
X374634Y275401D01*
Y275392D01*
X373848Y275253D01*
X373811Y275456D01*
X373756Y275632D01*
X373691Y275780D01*
X373626Y275900D01*
X373562Y275993D01*
X373506Y276057D01*
X373469Y276103D01*
X373460Y276113D01*
X373340Y276205D01*
X373210Y276279D01*
X373090Y276325D01*
X372970Y276362D01*
X372859Y276381D01*
X372776Y276399D01*
X372702D01*
X372535Y276390D01*
X372387Y276353D01*
X372258Y276307D01*
X372147Y276261D01*
X372064Y276205D01*
X371999Y276159D01*
X371953Y276122D01*
X371944Y276113D01*
X371842Y276002D01*
X371768Y275882D01*
X371722Y275761D01*
X371685Y275650D01*
X371666Y275549D01*
X371648Y275475D01*
Y275419D01*
Y275410D01*
Y275401D01*
Y275299D01*
X371666Y275207D01*
X371712Y275049D01*
X371777Y274911D01*
X371851Y274791D01*
X371925Y274707D01*
X371990Y274643D01*
X372036Y274606D01*
X372045Y274596D01*
X372055D01*
X372212Y274513D01*
X372360Y274449D01*
X372517Y274402D01*
X372655Y274375D01*
X372776Y274356D01*
X372877Y274338D01*
X372998D01*
X373035Y274347D01*
X373081D01*
X373173Y273653D01*
X373053Y273681D01*
X372942Y273700D01*
X372850Y273718D01*
X372766Y273727D01*
X372702Y273737D01*
X372618D01*
X372424Y273718D01*
X372249Y273681D01*
X372091Y273626D01*
X371962Y273561D01*
X371860Y273496D01*
X371786Y273441D01*
X371740Y273404D01*
X371722Y273385D01*
X371601Y273247D01*
X371509Y273099D01*
X371444Y272951D01*
X371407Y272803D01*
X371380Y272683D01*
X371370Y272581D01*
X371361Y272544D01*
Y272516D01*
Y272498D01*
Y272488D01*
X371380Y272285D01*
X371426Y272100D01*
X371481Y271943D01*
X371555Y271804D01*
X371629Y271693D01*
X371685Y271610D01*
X371731Y271555D01*
X371749Y271536D01*
X371897Y271407D01*
X372055Y271314D01*
X372212Y271250D01*
X372360Y271203D01*
X372489Y271176D01*
X372591Y271166D01*
X372628Y271157D01*
X372683D01*
X372850Y271166D01*
X373007Y271203D01*
X373145Y271250D01*
X373256Y271305D01*
X373349Y271351D01*
X373423Y271397D01*
X373460Y271434D01*
X373478Y271444D01*
X373589Y271573D01*
X373682Y271721D01*
X373765Y271878D01*
X373830Y272045D01*
X373876Y272183D01*
X373894Y272248D01*
X373904Y272304D01*
X373913Y272350D01*
X373922Y272387D01*
X373931Y272405D01*
Y272414D01*
X374717Y272313D01*
X374699Y272165D01*
X374671Y272026D01*
X374588Y271767D01*
X374486Y271545D01*
X374431Y271453D01*
X374375Y271360D01*
X374320Y271277D01*
X374264Y271213D01*
X374218Y271148D01*
X374172Y271102D01*
X374144Y271065D01*
X374116Y271037D01*
X374098Y271018D01*
X374089Y271009D01*
X373978Y270926D01*
X373867Y270843D01*
X373756Y270778D01*
X373635Y270723D01*
X373404Y270630D01*
X373182Y270575D01*
X373081Y270556D01*
X372988Y270538D01*
X372905Y270528D01*
X372831Y270519D01*
X372776Y270510D01*
X372692D01*
X372517Y270519D01*
X372360Y270538D01*
X372202Y270565D01*
X372055Y270602D01*
X371916Y270649D01*
X371796Y270695D01*
X371675Y270750D01*
X371574Y270806D01*
X371472Y270852D01*
X371389Y270907D01*
X371315Y270954D01*
X371259Y271000D01*
X371213Y271037D01*
X371176Y271065D01*
X371158Y271083D01*
X371148Y271092D01*
X371037Y271203D01*
X370945Y271324D01*
X370862Y271444D01*
X370788Y271564D01*
X370732Y271675D01*
X370677Y271795D01*
X370603Y272017D01*
X370584Y272119D01*
X370566Y272211D01*
X370547Y272294D01*
X370538Y272368D01*
X370529Y272424D01*
Y272470D01*
Y272498D01*
Y272507D01*
X370538Y272729D01*
X370575Y272932D01*
X370631Y273108D01*
X370686Y273256D01*
X370742Y273376D01*
X370797Y273468D01*
X370834Y273524D01*
X370843Y273542D01*
X370973Y273681D01*
X371111Y273801D01*
X371259Y273894D01*
X371407Y273968D01*
X371537Y274023D01*
X371638Y274060D01*
X371675Y274069D01*
X371703Y274079D01*
X371722Y274088D01*
X371731D01*
X371574Y274171D01*
X371444Y274254D01*
X371333Y274347D01*
X371241Y274430D01*
X371167Y274504D01*
X371111Y274569D01*
X371084Y274606D01*
X371074Y274624D01*
X371001Y274754D01*
X370945Y274883D01*
X370899Y275012D01*
X370871Y275133D01*
X370853Y275234D01*
X370843Y275308D01*
Y275364D01*
Y275382D01*
X370853Y275539D01*
X370880Y275697D01*
X370917Y275835D01*
X370964Y275956D01*
X371010Y276057D01*
X371047Y276140D01*
X371074Y276187D01*
X371084Y276205D01*
X371176Y276344D01*
X371287Y276464D01*
X371398Y276566D01*
X371509Y276658D01*
X371601Y276723D01*
X371685Y276778D01*
X371740Y276806D01*
X371749Y276815D01*
X371759D01*
X371925Y276889D01*
X372091Y276945D01*
X372258Y276991D01*
X372406Y277019D01*
X372526Y277037D01*
X372628Y277047D01*
X372859D01*
X372988Y277028D01*
D02*
G37*
G36*
X377343Y276889D02*
X377445Y276741D01*
X377565Y276593D01*
X377676Y276464D01*
X377787Y276353D01*
X377870Y276261D01*
X377907Y276233D01*
X377935Y276205D01*
X377944Y276196D01*
X377953Y276187D01*
X378147Y276029D01*
X378342Y275882D01*
X378526Y275752D01*
X378711Y275650D01*
X378869Y275558D01*
X378933Y275521D01*
X378989Y275493D01*
X379035Y275466D01*
X379072Y275456D01*
X379090Y275438D01*
X379100D01*
Y274680D01*
X378961Y274735D01*
X378822Y274800D01*
X378684Y274865D01*
X378554Y274929D01*
X378443Y274985D01*
X378351Y275031D01*
X378295Y275068D01*
X378286Y275077D01*
X378277D01*
X378110Y275179D01*
X377962Y275281D01*
X377833Y275373D01*
X377731Y275456D01*
X377639Y275521D01*
X377583Y275576D01*
X377537Y275613D01*
X377528Y275623D01*
Y270621D01*
X376742D01*
Y277047D01*
X377251D01*
X377343Y276889D01*
D02*
G37*
G36*
X383371Y277111D02*
X383667Y277065D01*
X383926Y277010D01*
X384046Y276973D01*
X384157Y276936D01*
X384259Y276899D01*
X384351Y276862D01*
X384425Y276834D01*
X384499Y276806D01*
X384545Y276778D01*
X384582Y276760D01*
X384610Y276751D01*
X384619Y276741D01*
X384869Y276584D01*
X385082Y276399D01*
X385266Y276214D01*
X385424Y276029D01*
X385544Y275863D01*
X385590Y275789D01*
X385627Y275724D01*
X385664Y275678D01*
X385683Y275641D01*
X385692Y275613D01*
X385701Y275604D01*
X385830Y275318D01*
X385923Y275022D01*
X385988Y274726D01*
X386034Y274458D01*
X386052Y274338D01*
X386062Y274217D01*
X386071Y274125D01*
Y274032D01*
X386080Y273968D01*
Y273912D01*
Y273875D01*
Y273866D01*
X386062Y273533D01*
X386025Y273210D01*
X385978Y272923D01*
X385941Y272784D01*
X385914Y272664D01*
X385886Y272553D01*
X385849Y272451D01*
X385821Y272359D01*
X385803Y272285D01*
X385775Y272230D01*
X385766Y272183D01*
X385747Y272156D01*
Y272146D01*
X385609Y271869D01*
X385451Y271619D01*
X385285Y271407D01*
X385202Y271324D01*
X385128Y271240D01*
X385054Y271166D01*
X384980Y271102D01*
X384915Y271046D01*
X384860Y271009D01*
X384823Y270972D01*
X384786Y270944D01*
X384767Y270935D01*
X384758Y270926D01*
X384629Y270852D01*
X384499Y270787D01*
X384222Y270686D01*
X383944Y270612D01*
X383676Y270565D01*
X383547Y270547D01*
X383436Y270528D01*
X383334Y270519D01*
X383251D01*
X383177Y270510D01*
X383075D01*
X382890Y270519D01*
X382715Y270538D01*
X382548Y270556D01*
X382391Y270593D01*
X382243Y270639D01*
X382104Y270686D01*
X381975Y270732D01*
X381855Y270787D01*
X381753Y270833D01*
X381651Y270880D01*
X381577Y270926D01*
X381504Y270972D01*
X381457Y271009D01*
X381411Y271028D01*
X381393Y271046D01*
X381383Y271055D01*
X381254Y271166D01*
X381143Y271277D01*
X381041Y271407D01*
X380940Y271536D01*
X380773Y271795D01*
X380644Y272054D01*
X380588Y272174D01*
X380542Y272285D01*
X380505Y272387D01*
X380477Y272470D01*
X380450Y272544D01*
X380431Y272599D01*
X380422Y272636D01*
Y272646D01*
X381272Y272858D01*
X381309Y272710D01*
X381356Y272572D01*
X381402Y272442D01*
X381448Y272322D01*
X381504Y272211D01*
X381559Y272119D01*
X381624Y272026D01*
X381679Y271943D01*
X381725Y271869D01*
X381781Y271814D01*
X381827Y271758D01*
X381864Y271712D01*
X381901Y271684D01*
X381929Y271656D01*
X381938Y271647D01*
X381947Y271638D01*
X382040Y271564D01*
X382141Y271508D01*
X382345Y271407D01*
X382539Y271333D01*
X382733Y271287D01*
X382900Y271250D01*
X382964Y271240D01*
X383029D01*
X383085Y271231D01*
X383149D01*
X383362Y271240D01*
X383565Y271277D01*
X383750Y271324D01*
X383917Y271379D01*
X384046Y271434D01*
X384102Y271462D01*
X384148Y271481D01*
X384185Y271499D01*
X384212Y271518D01*
X384231Y271527D01*
X384240D01*
X384416Y271656D01*
X384564Y271795D01*
X384693Y271952D01*
X384795Y272100D01*
X384878Y272230D01*
X384934Y272341D01*
X384952Y272387D01*
X384971Y272414D01*
X384980Y272433D01*
Y272442D01*
X385054Y272683D01*
X385109Y272923D01*
X385156Y273163D01*
X385183Y273385D01*
X385192Y273487D01*
X385202Y273579D01*
Y273663D01*
X385211Y273727D01*
Y273783D01*
Y273829D01*
Y273857D01*
Y273866D01*
X385202Y274106D01*
X385183Y274328D01*
X385146Y274532D01*
X385109Y274717D01*
X385082Y274874D01*
X385063Y274939D01*
X385045Y274994D01*
X385035Y275040D01*
X385026Y275068D01*
X385017Y275086D01*
Y275096D01*
X384924Y275308D01*
X384823Y275502D01*
X384712Y275660D01*
X384592Y275798D01*
X384490Y275909D01*
X384407Y275983D01*
X384342Y276029D01*
X384333Y276048D01*
X384324D01*
X384129Y276168D01*
X383917Y276261D01*
X383713Y276325D01*
X383519Y276362D01*
X383343Y276390D01*
X383270Y276399D01*
X383205D01*
X383158Y276409D01*
X383085D01*
X382853Y276399D01*
X382641Y276362D01*
X382465Y276307D01*
X382308Y276251D01*
X382188Y276187D01*
X382095Y276140D01*
X382040Y276103D01*
X382021Y276085D01*
X381873Y275946D01*
X381735Y275789D01*
X381624Y275623D01*
X381531Y275456D01*
X381457Y275308D01*
X381430Y275234D01*
X381411Y275179D01*
X381393Y275133D01*
X381374Y275096D01*
X381365Y275077D01*
Y275068D01*
X380533Y275262D01*
X380588Y275429D01*
X380644Y275576D01*
X380718Y275715D01*
X380782Y275854D01*
X380856Y275974D01*
X380940Y276085D01*
X381013Y276196D01*
X381087Y276288D01*
X381161Y276362D01*
X381226Y276436D01*
X381291Y276501D01*
X381337Y276547D01*
X381383Y276593D01*
X381420Y276621D01*
X381439Y276630D01*
X381448Y276640D01*
X381577Y276723D01*
X381707Y276806D01*
X381836Y276871D01*
X381975Y276926D01*
X382252Y277010D01*
X382502Y277065D01*
X382622Y277093D01*
X382724Y277102D01*
X382826Y277111D01*
X382909Y277120D01*
X382974Y277130D01*
X383066D01*
X383371Y277111D01*
D02*
G37*
G36*
X498551Y261152D02*
X498422Y260967D01*
X498301Y260801D01*
X498181Y260662D01*
X498079Y260532D01*
X497987Y260440D01*
X497913Y260366D01*
X497867Y260320D01*
X497848Y260301D01*
X497774Y260246D01*
X497691Y260181D01*
X497525Y260079D01*
X497451Y260042D01*
X497395Y260005D01*
X497358Y259987D01*
X497340Y259978D01*
X497506Y259950D01*
X497663Y259922D01*
X497802Y259876D01*
X497941Y259839D01*
X498061Y259793D01*
X498172Y259737D01*
X498274Y259691D01*
X498366Y259645D01*
X498440Y259589D01*
X498514Y259543D01*
X498569Y259506D01*
X498616Y259469D01*
X498653Y259442D01*
X498680Y259414D01*
X498690Y259405D01*
X498699Y259395D01*
X498773Y259303D01*
X498847Y259210D01*
X498958Y259016D01*
X499032Y258822D01*
X499087Y258637D01*
X499124Y258480D01*
X499133Y258415D01*
Y258351D01*
X499143Y258304D01*
Y258267D01*
Y258249D01*
Y258239D01*
X499133Y258045D01*
X499106Y257870D01*
X499059Y257703D01*
X499013Y257565D01*
X498958Y257444D01*
X498921Y257352D01*
X498884Y257297D01*
X498875Y257287D01*
Y257278D01*
X498764Y257130D01*
X498653Y257001D01*
X498532Y256890D01*
X498422Y256807D01*
X498320Y256742D01*
X498237Y256705D01*
X498181Y256677D01*
X498172Y256668D01*
X498163D01*
X498079Y256640D01*
X497978Y256612D01*
X497774Y256566D01*
X497552Y256538D01*
X497349Y256511D01*
X497155Y256501D01*
X497072D01*
X496998Y256492D01*
X494030D01*
Y262890D01*
X494880D01*
Y260052D01*
X495971D01*
X496073Y260061D01*
X496147D01*
X496212Y260070D01*
X496258Y260079D01*
X496295D01*
X496314Y260089D01*
X496323D01*
X496471Y260135D01*
X496535Y260163D01*
X496591Y260190D01*
X496646Y260218D01*
X496683Y260237D01*
X496702Y260246D01*
X496711Y260255D01*
X496785Y260311D01*
X496859Y260375D01*
X496998Y260514D01*
X497062Y260579D01*
X497109Y260634D01*
X497136Y260671D01*
X497146Y260680D01*
X497238Y260810D01*
X497340Y260949D01*
X497441Y261096D01*
X497543Y261235D01*
X497626Y261365D01*
X497691Y261466D01*
X497719Y261503D01*
X497737Y261531D01*
X497756Y261549D01*
Y261559D01*
X498597Y262890D01*
X499651D01*
X498551Y261152D01*
D02*
G37*
G36*
X504283Y262132D02*
X501130D01*
X501241Y261975D01*
X501297Y261910D01*
X501343Y261845D01*
X501389Y261790D01*
X501426Y261753D01*
X501454Y261725D01*
X501463Y261716D01*
X501510Y261670D01*
X501565Y261623D01*
X501694Y261503D01*
X501842Y261365D01*
X502000Y261226D01*
X502147Y261106D01*
X502212Y261050D01*
X502268Y260995D01*
X502314Y260958D01*
X502351Y260930D01*
X502369Y260912D01*
X502379Y260902D01*
X502527Y260773D01*
X502674Y260653D01*
X502804Y260532D01*
X502924Y260431D01*
X503035Y260329D01*
X503128Y260237D01*
X503220Y260153D01*
X503294Y260079D01*
X503368Y260005D01*
X503423Y259950D01*
X503470Y259904D01*
X503516Y259858D01*
X503562Y259802D01*
X503581Y259784D01*
X503710Y259626D01*
X503821Y259488D01*
X503913Y259349D01*
X503987Y259238D01*
X504043Y259136D01*
X504080Y259062D01*
X504098Y259016D01*
X504108Y258998D01*
X504163Y258859D01*
X504200Y258720D01*
X504237Y258591D01*
X504255Y258480D01*
X504265Y258378D01*
X504274Y258304D01*
Y258258D01*
Y258239D01*
X504265Y258101D01*
X504246Y257971D01*
X504228Y257842D01*
X504191Y257731D01*
X504098Y257509D01*
X504006Y257334D01*
X503950Y257250D01*
X503904Y257185D01*
X503858Y257121D01*
X503812Y257075D01*
X503775Y257038D01*
X503756Y257001D01*
X503738Y256991D01*
X503728Y256982D01*
X503627Y256890D01*
X503516Y256807D01*
X503396Y256742D01*
X503275Y256686D01*
X503035Y256594D01*
X502795Y256529D01*
X502693Y256511D01*
X502591Y256492D01*
X502499Y256483D01*
X502425Y256474D01*
X502360Y256464D01*
X502268D01*
X502101Y256474D01*
X501944Y256483D01*
X501796Y256511D01*
X501657Y256538D01*
X501528Y256575D01*
X501408Y256612D01*
X501297Y256658D01*
X501195Y256705D01*
X501103Y256751D01*
X501029Y256797D01*
X500964Y256834D01*
X500909Y256871D01*
X500862Y256899D01*
X500835Y256927D01*
X500816Y256936D01*
X500807Y256945D01*
X500714Y257038D01*
X500631Y257139D01*
X500548Y257250D01*
X500483Y257361D01*
X500372Y257583D01*
X500298Y257805D01*
X500271Y257907D01*
X500243Y258008D01*
X500224Y258092D01*
X500206Y258166D01*
X500197Y258230D01*
Y258277D01*
X500187Y258304D01*
Y258314D01*
X500992Y258397D01*
X501010Y258184D01*
X501047Y257999D01*
X501103Y257833D01*
X501167Y257703D01*
X501223Y257592D01*
X501278Y257518D01*
X501315Y257472D01*
X501334Y257454D01*
X501473Y257343D01*
X501620Y257260D01*
X501778Y257195D01*
X501916Y257158D01*
X502046Y257130D01*
X502157Y257121D01*
X502194Y257112D01*
X502249D01*
X502443Y257121D01*
X502619Y257158D01*
X502767Y257213D01*
X502896Y257269D01*
X502998Y257334D01*
X503063Y257380D01*
X503109Y257417D01*
X503128Y257435D01*
X503238Y257565D01*
X503322Y257694D01*
X503386Y257824D01*
X503423Y257953D01*
X503451Y258055D01*
X503460Y258147D01*
X503470Y258203D01*
Y258212D01*
Y258221D01*
X503451Y258388D01*
X503414Y258563D01*
X503349Y258720D01*
X503285Y258868D01*
X503211Y258988D01*
X503146Y259090D01*
X503128Y259127D01*
X503109Y259155D01*
X503091Y259164D01*
Y259173D01*
X503017Y259275D01*
X502924Y259377D01*
X502822Y259488D01*
X502711Y259599D01*
X502480Y259820D01*
X502249Y260042D01*
X502129Y260144D01*
X502027Y260237D01*
X501926Y260320D01*
X501842Y260394D01*
X501778Y260449D01*
X501722Y260495D01*
X501685Y260523D01*
X501676Y260532D01*
X501445Y260727D01*
X501232Y260912D01*
X501057Y261078D01*
X500918Y261217D01*
X500798Y261337D01*
X500714Y261420D01*
X500668Y261476D01*
X500650Y261485D01*
Y261494D01*
X500520Y261651D01*
X500419Y261799D01*
X500326Y261947D01*
X500252Y262076D01*
X500197Y262187D01*
X500160Y262271D01*
X500141Y262326D01*
X500132Y262335D01*
Y262345D01*
X500095Y262446D01*
X500076Y262539D01*
X500058Y262631D01*
X500049Y262714D01*
X500039Y262788D01*
Y262844D01*
Y262881D01*
Y262890D01*
X504283D01*
Y262132D01*
D02*
G37*
G36*
X418480Y574031D02*
X418655Y574012D01*
X418822Y573994D01*
X418979Y573957D01*
X419127Y573911D01*
X419265Y573864D01*
X419395Y573818D01*
X419515Y573763D01*
X419617Y573717D01*
X419719Y573670D01*
X419792Y573624D01*
X419866Y573578D01*
X419913Y573541D01*
X419959Y573522D01*
X419977Y573504D01*
X419987Y573495D01*
X420116Y573384D01*
X420227Y573273D01*
X420329Y573143D01*
X420430Y573014D01*
X420597Y572755D01*
X420726Y572496D01*
X420782Y572376D01*
X420828Y572265D01*
X420865Y572163D01*
X420893Y572080D01*
X420920Y572006D01*
X420939Y571951D01*
X420948Y571914D01*
Y571904D01*
X420098Y571692D01*
X420061Y571840D01*
X420014Y571978D01*
X419968Y572108D01*
X419922Y572228D01*
X419866Y572339D01*
X419811Y572431D01*
X419746Y572524D01*
X419691Y572607D01*
X419645Y572681D01*
X419589Y572736D01*
X419543Y572792D01*
X419506Y572838D01*
X419469Y572866D01*
X419441Y572894D01*
X419432Y572903D01*
X419423Y572912D01*
X419330Y572986D01*
X419228Y573042D01*
X419025Y573143D01*
X418831Y573217D01*
X418637Y573263D01*
X418470Y573300D01*
X418406Y573310D01*
X418341D01*
X418285Y573319D01*
X418221D01*
X418008Y573310D01*
X417805Y573273D01*
X417620Y573227D01*
X417453Y573171D01*
X417324Y573116D01*
X417268Y573088D01*
X417222Y573069D01*
X417185Y573051D01*
X417157Y573032D01*
X417139Y573023D01*
X417130D01*
X416954Y572894D01*
X416806Y572755D01*
X416677Y572598D01*
X416575Y572450D01*
X416492Y572320D01*
X416436Y572209D01*
X416418Y572163D01*
X416399Y572136D01*
X416390Y572117D01*
Y572108D01*
X416316Y571867D01*
X416261Y571627D01*
X416214Y571387D01*
X416187Y571165D01*
X416177Y571063D01*
X416168Y570970D01*
Y570887D01*
X416159Y570823D01*
Y570767D01*
Y570721D01*
Y570693D01*
Y570684D01*
X416168Y570443D01*
X416187Y570222D01*
X416224Y570018D01*
X416261Y569833D01*
X416288Y569676D01*
X416307Y569611D01*
X416325Y569556D01*
X416335Y569510D01*
X416344Y569482D01*
X416353Y569464D01*
Y569454D01*
X416446Y569242D01*
X416547Y569048D01*
X416658Y568890D01*
X416778Y568752D01*
X416880Y568641D01*
X416963Y568567D01*
X417028Y568521D01*
X417037Y568502D01*
X417047D01*
X417241Y568382D01*
X417453Y568289D01*
X417657Y568225D01*
X417851Y568188D01*
X418027Y568160D01*
X418101Y568151D01*
X418165D01*
X418211Y568141D01*
X418285D01*
X418517Y568151D01*
X418729Y568188D01*
X418905Y568243D01*
X419062Y568299D01*
X419182Y568363D01*
X419275Y568410D01*
X419330Y568447D01*
X419349Y568465D01*
X419497Y568604D01*
X419635Y568761D01*
X419746Y568927D01*
X419839Y569094D01*
X419913Y569242D01*
X419940Y569316D01*
X419959Y569371D01*
X419977Y569417D01*
X419996Y569454D01*
X420005Y569473D01*
Y569482D01*
X420837Y569288D01*
X420782Y569121D01*
X420726Y568974D01*
X420652Y568835D01*
X420588Y568696D01*
X420514Y568576D01*
X420430Y568465D01*
X420356Y568354D01*
X420282Y568262D01*
X420209Y568188D01*
X420144Y568114D01*
X420079Y568049D01*
X420033Y568003D01*
X419987Y567957D01*
X419950Y567929D01*
X419931Y567920D01*
X419922Y567910D01*
X419792Y567827D01*
X419663Y567744D01*
X419534Y567679D01*
X419395Y567624D01*
X419118Y567540D01*
X418868Y567485D01*
X418748Y567457D01*
X418646Y567448D01*
X418544Y567439D01*
X418461Y567430D01*
X418396Y567420D01*
X418304D01*
X417999Y567439D01*
X417703Y567485D01*
X417444Y567540D01*
X417324Y567577D01*
X417213Y567614D01*
X417111Y567651D01*
X417019Y567688D01*
X416945Y567716D01*
X416871Y567744D01*
X416825Y567772D01*
X416788Y567790D01*
X416760Y567799D01*
X416751Y567808D01*
X416501Y567966D01*
X416288Y568151D01*
X416103Y568335D01*
X415946Y568521D01*
X415826Y568687D01*
X415780Y568761D01*
X415743Y568826D01*
X415706Y568872D01*
X415687Y568909D01*
X415678Y568937D01*
X415669Y568946D01*
X415540Y569232D01*
X415447Y569528D01*
X415382Y569824D01*
X415336Y570092D01*
X415318Y570212D01*
X415308Y570333D01*
X415299Y570425D01*
Y570518D01*
X415290Y570582D01*
Y570638D01*
Y570675D01*
Y570684D01*
X415308Y571017D01*
X415345Y571340D01*
X415392Y571627D01*
X415429Y571766D01*
X415456Y571886D01*
X415484Y571997D01*
X415521Y572099D01*
X415549Y572191D01*
X415567Y572265D01*
X415595Y572320D01*
X415604Y572367D01*
X415623Y572394D01*
Y572404D01*
X415761Y572681D01*
X415919Y572931D01*
X416085Y573143D01*
X416168Y573227D01*
X416242Y573310D01*
X416316Y573384D01*
X416390Y573448D01*
X416455Y573504D01*
X416510Y573541D01*
X416547Y573578D01*
X416584Y573605D01*
X416603Y573615D01*
X416612Y573624D01*
X416741Y573698D01*
X416871Y573763D01*
X417148Y573864D01*
X417426Y573938D01*
X417694Y573985D01*
X417823Y574003D01*
X417934Y574022D01*
X418036Y574031D01*
X418119D01*
X418193Y574040D01*
X418295D01*
X418480Y574031D01*
D02*
G37*
G36*
X424628Y567503D02*
X424119D01*
X424027Y567661D01*
X423925Y567808D01*
X423805Y567957D01*
X423694Y568086D01*
X423583Y568197D01*
X423500Y568289D01*
X423463Y568317D01*
X423435Y568345D01*
X423426Y568354D01*
X423417Y568363D01*
X423223Y568521D01*
X423028Y568668D01*
X422844Y568798D01*
X422659Y568899D01*
X422501Y568992D01*
X422437Y569029D01*
X422381Y569057D01*
X422335Y569084D01*
X422298Y569094D01*
X422280Y569112D01*
X422270D01*
Y569870D01*
X422409Y569815D01*
X422548Y569750D01*
X422686Y569685D01*
X422816Y569621D01*
X422927Y569565D01*
X423019Y569519D01*
X423075Y569482D01*
X423084Y569473D01*
X423093D01*
X423260Y569371D01*
X423408Y569269D01*
X423537Y569177D01*
X423639Y569094D01*
X423731Y569029D01*
X423787Y568974D01*
X423833Y568937D01*
X423842Y568927D01*
Y573929D01*
X424628D01*
Y567503D01*
D02*
G37*
G36*
X428983Y574022D02*
X429214Y573985D01*
X429408Y573920D01*
X429574Y573855D01*
X429713Y573790D01*
X429759Y573754D01*
X429805Y573726D01*
X429842Y573707D01*
X429870Y573689D01*
X429879Y573670D01*
X429889D01*
X430055Y573513D01*
X430194Y573347D01*
X430314Y573162D01*
X430406Y572995D01*
X430480Y572838D01*
X430517Y572773D01*
X430536Y572709D01*
X430554Y572663D01*
X430573Y572626D01*
X430582Y572607D01*
Y572598D01*
X430628Y572459D01*
X430665Y572320D01*
X430721Y572024D01*
X430767Y571719D01*
X430795Y571424D01*
X430804Y571294D01*
X430813Y571174D01*
Y571063D01*
X430822Y570961D01*
Y570887D01*
Y570823D01*
Y570786D01*
Y570776D01*
Y570601D01*
X430813Y570434D01*
Y570286D01*
X430804Y570138D01*
X430785Y570009D01*
X430776Y569880D01*
X430767Y569769D01*
X430748Y569667D01*
X430739Y569575D01*
X430721Y569491D01*
X430712Y569426D01*
X430702Y569371D01*
X430693Y569325D01*
X430684Y569297D01*
X430675Y569279D01*
Y569269D01*
X430619Y569066D01*
X430554Y568881D01*
X430480Y568724D01*
X430425Y568585D01*
X430360Y568465D01*
X430323Y568382D01*
X430286Y568335D01*
X430277Y568317D01*
X430175Y568178D01*
X430074Y568058D01*
X429963Y567957D01*
X429861Y567864D01*
X429768Y567799D01*
X429695Y567753D01*
X429648Y567725D01*
X429639Y567716D01*
X429630D01*
X429482Y567642D01*
X429325Y567596D01*
X429177Y567559D01*
X429038Y567531D01*
X428918Y567513D01*
X428816Y567503D01*
X428733D01*
X428483Y567522D01*
X428252Y567559D01*
X428058Y567624D01*
X427892Y567688D01*
X427753Y567762D01*
X427697Y567790D01*
X427651Y567827D01*
X427614Y567845D01*
X427587Y567864D01*
X427577Y567882D01*
X427568D01*
X427402Y568030D01*
X427263Y568206D01*
X427143Y568382D01*
X427050Y568548D01*
X426976Y568705D01*
X426939Y568770D01*
X426921Y568835D01*
X426902Y568881D01*
X426884Y568918D01*
X426875Y568937D01*
Y568946D01*
X426838Y569084D01*
X426801Y569223D01*
X426745Y569528D01*
X426699Y569833D01*
X426671Y570120D01*
X426662Y570259D01*
X426653Y570379D01*
Y570490D01*
X426643Y570592D01*
Y570665D01*
Y570730D01*
Y570767D01*
Y570776D01*
X426653Y571100D01*
X426671Y571405D01*
X426699Y571682D01*
X426745Y571941D01*
X426791Y572182D01*
X426847Y572394D01*
X426902Y572589D01*
X426958Y572755D01*
X427013Y572903D01*
X427078Y573032D01*
X427124Y573143D01*
X427170Y573227D01*
X427217Y573300D01*
X427244Y573347D01*
X427263Y573374D01*
X427272Y573384D01*
X427374Y573495D01*
X427485Y573596D01*
X427605Y573689D01*
X427725Y573763D01*
X427845Y573827D01*
X427966Y573883D01*
X428086Y573920D01*
X428197Y573957D01*
X428308Y573985D01*
X428409Y574003D01*
X428502Y574022D01*
X428576Y574031D01*
X428641Y574040D01*
X428733D01*
X428983Y574022D01*
D02*
G37*
G36*
X510727Y476516D02*
X514869D01*
Y475878D01*
X510727Y472948D01*
X510006D01*
Y475731D01*
X508471D01*
Y476516D01*
X510006D01*
Y477385D01*
X510727D01*
Y476516D01*
D02*
G37*
G36*
X514869Y471302D02*
X510459D01*
X510264D01*
X510098Y471283D01*
X509959Y471274D01*
X509848Y471256D01*
X509765Y471237D01*
X509701Y471228D01*
X509664Y471209D01*
X509654D01*
X509562Y471172D01*
X509488Y471126D01*
X509423Y471071D01*
X509358Y471025D01*
X509321Y470969D01*
X509284Y470932D01*
X509266Y470904D01*
X509257Y470895D01*
X509210Y470803D01*
X509174Y470710D01*
X509155Y470618D01*
X509137Y470534D01*
X509127Y470451D01*
X509118Y470396D01*
Y470340D01*
X509127Y470192D01*
X509164Y470054D01*
X509201Y469943D01*
X509257Y469841D01*
X509303Y469767D01*
X509349Y469712D01*
X509377Y469675D01*
X509386Y469665D01*
X509442Y469619D01*
X509506Y469582D01*
X509654Y469527D01*
X509821Y469471D01*
X509987Y469444D01*
X510144Y469416D01*
X510209D01*
X510264Y469407D01*
X510320Y469397D01*
X510357D01*
X510375D01*
X510385D01*
X510274Y468630D01*
X510098D01*
X509941Y468639D01*
X509784Y468667D01*
X509645Y468685D01*
X509515Y468722D01*
X509405Y468759D01*
X509294Y468796D01*
X509201Y468833D01*
X509118Y468880D01*
X509044Y468917D01*
X508979Y468953D01*
X508933Y468990D01*
X508896Y469018D01*
X508859Y469037D01*
X508850Y469046D01*
X508841Y469055D01*
X508757Y469148D01*
X508683Y469240D01*
X508619Y469342D01*
X508563Y469453D01*
X508480Y469665D01*
X508425Y469869D01*
X508388Y470063D01*
X508378Y470137D01*
X508369Y470211D01*
X508360Y470266D01*
Y470350D01*
X508369Y470553D01*
X508397Y470738D01*
X508434Y470904D01*
X508480Y471052D01*
X508517Y471172D01*
X508554Y471256D01*
X508582Y471311D01*
X508591Y471330D01*
X508683Y471478D01*
X508794Y471607D01*
X508905Y471709D01*
X509007Y471801D01*
X509109Y471866D01*
X509183Y471912D01*
X509238Y471940D01*
X509247Y471949D01*
X509257D01*
X509442Y472014D01*
X509636Y472069D01*
X509848Y472106D01*
X510052Y472125D01*
X510228Y472143D01*
X510301D01*
X510375Y472152D01*
X510431D01*
X510468D01*
X510496D01*
X510505D01*
X514869D01*
Y471302D01*
D02*
G37*
%LPC*%
G36*
X372355Y571063D02*
X372300D01*
X372105Y571045D01*
X371930Y571007D01*
X371773Y570943D01*
X371634Y570869D01*
X371532Y570804D01*
X371449Y570739D01*
X371403Y570702D01*
X371384Y570684D01*
X371264Y570536D01*
X371172Y570370D01*
X371116Y570203D01*
X371070Y570046D01*
X371042Y569907D01*
X371033Y569852D01*
Y569796D01*
X371024Y569750D01*
Y569722D01*
Y569704D01*
Y569695D01*
X371042Y569454D01*
X371079Y569232D01*
X371144Y569038D01*
X371218Y568881D01*
X371283Y568752D01*
X371347Y568659D01*
X371366Y568631D01*
X371384Y568604D01*
X371403Y568594D01*
Y568585D01*
X371477Y568511D01*
X371551Y568437D01*
X371708Y568335D01*
X371865Y568252D01*
X372013Y568206D01*
X372133Y568169D01*
X372235Y568160D01*
X372272Y568151D01*
X372420D01*
X372512Y568169D01*
X372679Y568215D01*
X372827Y568280D01*
X372956Y568345D01*
X373058Y568419D01*
X373132Y568484D01*
X373178Y568530D01*
X373196Y568539D01*
Y568548D01*
X373317Y568705D01*
X373409Y568881D01*
X373474Y569066D01*
X373511Y569242D01*
X373539Y569389D01*
X373548Y569454D01*
Y569519D01*
X373557Y569565D01*
Y569602D01*
Y569621D01*
Y569630D01*
X373539Y569870D01*
X373502Y570083D01*
X373446Y570259D01*
X373381Y570407D01*
X373307Y570527D01*
X373252Y570610D01*
X373215Y570665D01*
X373196Y570684D01*
X373058Y570813D01*
X372910Y570906D01*
X372762Y570970D01*
X372614Y571017D01*
X372494Y571045D01*
X372392Y571054D01*
X372355Y571063D01*
D02*
G37*
G36*
X496785Y259321D02*
X494880D01*
Y257204D01*
X496896D01*
X497146Y257213D01*
X497358Y257250D01*
X497543Y257297D01*
X497682Y257352D01*
X497802Y257407D01*
X497876Y257454D01*
X497922Y257491D01*
X497941Y257500D01*
X498052Y257620D01*
X498135Y257740D01*
X498190Y257870D01*
X498237Y257981D01*
X498255Y258092D01*
X498264Y258175D01*
X498274Y258230D01*
Y258239D01*
Y258249D01*
X498264Y258360D01*
X498246Y258471D01*
X498218Y258563D01*
X498190Y258646D01*
X498153Y258720D01*
X498126Y258776D01*
X498107Y258813D01*
X498098Y258822D01*
X498033Y258915D01*
X497950Y258998D01*
X497867Y259062D01*
X497784Y259118D01*
X497710Y259155D01*
X497654Y259183D01*
X497617Y259201D01*
X497599Y259210D01*
X497469Y259247D01*
X497321Y259275D01*
X497173Y259293D01*
X497025Y259303D01*
X496896Y259312D01*
X496785Y259321D01*
D02*
G37*
G36*
X428788Y573393D02*
X428733D01*
X428631Y573384D01*
X428539Y573374D01*
X428363Y573310D01*
X428206Y573227D01*
X428067Y573134D01*
X427966Y573042D01*
X427882Y572958D01*
X427836Y572894D01*
X427818Y572884D01*
Y572875D01*
X427753Y572764D01*
X427697Y572635D01*
X427642Y572487D01*
X427605Y572330D01*
X427568Y572163D01*
X427540Y571988D01*
X427494Y571627D01*
X427476Y571461D01*
X427466Y571303D01*
X427457Y571155D01*
Y571035D01*
X427448Y570924D01*
Y570841D01*
Y570795D01*
Y570776D01*
X427457Y570490D01*
X427466Y570231D01*
X427485Y569991D01*
X427513Y569769D01*
X427540Y569575D01*
X427577Y569399D01*
X427614Y569242D01*
X427651Y569103D01*
X427688Y568983D01*
X427716Y568881D01*
X427753Y568798D01*
X427781Y568724D01*
X427808Y568678D01*
X427827Y568641D01*
X427845Y568622D01*
Y568613D01*
X427910Y568530D01*
X427975Y568456D01*
X428049Y568400D01*
X428123Y568345D01*
X428271Y568262D01*
X428409Y568206D01*
X428530Y568178D01*
X428631Y568160D01*
X428668Y568151D01*
X428724D01*
X428825Y568160D01*
X428927Y568169D01*
X429020Y568197D01*
X429103Y568234D01*
X429260Y568317D01*
X429399Y568410D01*
X429500Y568511D01*
X429584Y568594D01*
X429611Y568631D01*
X429630Y568659D01*
X429648Y568668D01*
Y568678D01*
X429713Y568789D01*
X429768Y568918D01*
X429824Y569066D01*
X429861Y569223D01*
X429898Y569389D01*
X429926Y569565D01*
X429972Y569916D01*
X429990Y570092D01*
X430000Y570249D01*
X430009Y570397D01*
Y570518D01*
X430018Y570628D01*
Y570712D01*
Y570758D01*
Y570767D01*
Y570776D01*
Y571063D01*
X430000Y571322D01*
X429981Y571553D01*
X429963Y571775D01*
X429935Y571960D01*
X429898Y572136D01*
X429861Y572283D01*
X429833Y572422D01*
X429796Y572533D01*
X429759Y572626D01*
X429731Y572709D01*
X429695Y572773D01*
X429676Y572820D01*
X429658Y572847D01*
X429639Y572866D01*
Y572875D01*
X429565Y572968D01*
X429491Y573042D01*
X429417Y573116D01*
X429343Y573171D01*
X429186Y573263D01*
X429047Y573328D01*
X428918Y573365D01*
X428825Y573384D01*
X428788Y573393D01*
D02*
G37*
G36*
X513593Y475731D02*
X510727D01*
Y473715D01*
X513593Y475731D01*
D02*
G37*
%LPD*%
D13*
X352340Y567540D02*
Y580540D01*
X375340D01*
Y567540D02*
Y580540D01*
X352340Y567540D02*
X375340D01*
X433629Y205061D02*
X447751D01*
Y175939D02*
Y205061D01*
X433629Y175939D02*
Y205061D01*
Y175939D02*
X447751D01*
X400641Y263449D02*
Y277571D01*
X371519Y263449D02*
X400641D01*
X371519D02*
Y277571D01*
X400641D01*
X481780Y256890D02*
Y268890D01*
X506280D01*
X481780Y256890D02*
X506280D01*
Y268890D01*
X403790Y567540D02*
X426790D01*
Y580540D01*
X403790D02*
X426790D01*
X403790Y567540D02*
Y580540D01*
X580210Y401580D02*
Y535680D01*
X436510Y401580D02*
X580210D01*
X436510Y535680D02*
X580210D01*
X436510Y401580D02*
Y535680D01*
D86*
X446140Y293910D02*
X460640D01*
X446140Y315910D02*
X460640D01*
Y293910D02*
Y315910D01*
X446140Y293910D02*
Y315910D01*
M02*
