G04*
G04 #@! TF.GenerationSoftware,Altium Limited,Altium Designer,24.9.1 (31)*
G04*
G04 Layer_Color=32768*
%FSLAX44Y44*%
%MOMM*%
G71*
G04*
G04 #@! TF.SameCoordinates,573C6FB0-CD79-483D-94B5-B6DABAD4C9EF*
G04*
G04*
G04 #@! TF.FilePolarity,Positive*
G04*
G01*
G75*
%ADD82C,0.1500*%
G36*
X423661Y182963D02*
X423705D01*
X423811Y182952D01*
X423927Y182935D01*
X424049Y182907D01*
X424182Y182874D01*
X424309Y182830D01*
X424314D01*
X424325Y182824D01*
X424342Y182819D01*
X424364Y182808D01*
X424425Y182774D01*
X424503Y182736D01*
X424586Y182680D01*
X424674Y182614D01*
X424757Y182542D01*
X424835Y182453D01*
X424846Y182442D01*
X424868Y182409D01*
X424901Y182359D01*
X424946Y182287D01*
X424990Y182199D01*
X425040Y182088D01*
X425090Y181966D01*
X425128Y181828D01*
X424669Y181706D01*
Y181711D01*
X424663Y181717D01*
X424658Y181733D01*
X424652Y181756D01*
X424636Y181805D01*
X424613Y181872D01*
X424580Y181949D01*
X424542Y182021D01*
X424503Y182099D01*
X424453Y182165D01*
X424447Y182171D01*
X424431Y182193D01*
X424398Y182221D01*
X424359Y182259D01*
X424309Y182304D01*
X424243Y182348D01*
X424170Y182392D01*
X424087Y182431D01*
X424076Y182437D01*
X424049Y182448D01*
X423999Y182464D01*
X423932Y182486D01*
X423855Y182503D01*
X423766Y182520D01*
X423667Y182531D01*
X423561Y182536D01*
X423501D01*
X423473Y182531D01*
X423440D01*
X423357Y182525D01*
X423262Y182509D01*
X423157Y182492D01*
X423058Y182464D01*
X422958Y182425D01*
X422947Y182420D01*
X422914Y182409D01*
X422869Y182381D01*
X422814Y182354D01*
X422747Y182309D01*
X422676Y182265D01*
X422609Y182210D01*
X422548Y182149D01*
X422543Y182143D01*
X422520Y182121D01*
X422493Y182082D01*
X422459Y182038D01*
X422421Y181983D01*
X422382Y181916D01*
X422343Y181844D01*
X422304Y181767D01*
Y181761D01*
X422299Y181750D01*
X422293Y181733D01*
X422282Y181706D01*
X422271Y181672D01*
X422260Y181634D01*
X422244Y181589D01*
X422233Y181540D01*
X422205Y181423D01*
X422183Y181290D01*
X422166Y181152D01*
X422160Y180997D01*
Y180991D01*
Y180975D01*
Y180947D01*
X422166Y180914D01*
Y180870D01*
X422172Y180814D01*
X422177Y180759D01*
X422183Y180698D01*
X422205Y180560D01*
X422233Y180415D01*
X422277Y180272D01*
X422332Y180133D01*
Y180128D01*
X422343Y180117D01*
X422349Y180100D01*
X422365Y180078D01*
X422404Y180017D01*
X422465Y179939D01*
X422537Y179856D01*
X422626Y179773D01*
X422731Y179696D01*
X422847Y179624D01*
X422853D01*
X422864Y179618D01*
X422880Y179607D01*
X422908Y179596D01*
X422936Y179585D01*
X422975Y179574D01*
X423063Y179541D01*
X423174Y179513D01*
X423296Y179485D01*
X423428Y179463D01*
X423567Y179458D01*
X423622D01*
X423656Y179463D01*
X423689D01*
X423772Y179474D01*
X423871Y179485D01*
X423977Y179507D01*
X424093Y179541D01*
X424209Y179579D01*
X424215D01*
X424226Y179585D01*
X424237Y179590D01*
X424259Y179602D01*
X424320Y179629D01*
X424386Y179662D01*
X424464Y179701D01*
X424547Y179746D01*
X424625Y179795D01*
X424691Y179851D01*
Y180571D01*
X423561D01*
Y181025D01*
X425189D01*
Y179602D01*
X425184Y179596D01*
X425173Y179590D01*
X425151Y179574D01*
X425123Y179552D01*
X425090Y179530D01*
X425051Y179502D01*
X425001Y179469D01*
X424951Y179436D01*
X424835Y179363D01*
X424702Y179286D01*
X424564Y179214D01*
X424414Y179153D01*
X424409D01*
X424398Y179147D01*
X424375Y179142D01*
X424348Y179131D01*
X424309Y179120D01*
X424265Y179103D01*
X424215Y179092D01*
X424165Y179081D01*
X424043Y179053D01*
X423905Y179026D01*
X423755Y179009D01*
X423600Y179004D01*
X423545D01*
X423506Y179009D01*
X423456D01*
X423395Y179015D01*
X423329Y179026D01*
X423257Y179031D01*
X423096Y179065D01*
X422925Y179103D01*
X422747Y179164D01*
X422659Y179197D01*
X422570Y179242D01*
X422565Y179247D01*
X422548Y179253D01*
X422526Y179269D01*
X422493Y179286D01*
X422454Y179314D01*
X422415Y179341D01*
X422310Y179419D01*
X422199Y179519D01*
X422083Y179640D01*
X421972Y179779D01*
X421873Y179939D01*
Y179945D01*
X421861Y179961D01*
X421850Y179984D01*
X421834Y180022D01*
X421817Y180061D01*
X421801Y180117D01*
X421778Y180172D01*
X421756Y180238D01*
X421734Y180310D01*
X421712Y180393D01*
X421695Y180476D01*
X421679Y180565D01*
X421651Y180759D01*
X421640Y180964D01*
Y180969D01*
Y180991D01*
Y181019D01*
X421646Y181058D01*
Y181108D01*
X421651Y181169D01*
X421662Y181229D01*
X421668Y181301D01*
X421684Y181379D01*
X421695Y181462D01*
X421740Y181639D01*
X421795Y181822D01*
X421873Y182005D01*
X421878Y182010D01*
X421884Y182027D01*
X421895Y182049D01*
X421917Y182082D01*
X421939Y182127D01*
X421967Y182171D01*
X422044Y182276D01*
X422138Y182398D01*
X422255Y182514D01*
X422388Y182630D01*
X422465Y182680D01*
X422543Y182730D01*
X422548Y182736D01*
X422565Y182741D01*
X422587Y182752D01*
X422620Y182769D01*
X422664Y182785D01*
X422714Y182808D01*
X422770Y182830D01*
X422836Y182852D01*
X422908Y182874D01*
X422985Y182891D01*
X423069Y182913D01*
X423157Y182929D01*
X423351Y182957D01*
X423451Y182968D01*
X423628D01*
X423661Y182963D01*
D02*
G37*
G36*
X428949Y179070D02*
X428423D01*
X426419Y182077D01*
Y179070D01*
X425931D01*
Y182902D01*
X426452D01*
X428462Y179890D01*
Y182902D01*
X428949D01*
Y179070D01*
D02*
G37*
G36*
X431374Y182896D02*
X431485Y182891D01*
X431596Y182880D01*
X431707Y182863D01*
X431801Y182846D01*
X431806D01*
X431817Y182841D01*
X431834D01*
X431856Y182830D01*
X431917Y182813D01*
X431995Y182785D01*
X432083Y182747D01*
X432177Y182697D01*
X432271Y182642D01*
X432360Y182570D01*
X432366Y182564D01*
X432371Y182558D01*
X432388Y182542D01*
X432410Y182525D01*
X432465Y182470D01*
X432532Y182392D01*
X432604Y182298D01*
X432681Y182187D01*
X432753Y182060D01*
X432814Y181916D01*
Y181911D01*
X432820Y181900D01*
X432831Y181877D01*
X432836Y181844D01*
X432853Y181805D01*
X432864Y181761D01*
X432875Y181711D01*
X432892Y181650D01*
X432908Y181589D01*
X432919Y181517D01*
X432947Y181362D01*
X432964Y181191D01*
X432969Y181003D01*
Y180997D01*
Y180986D01*
Y180958D01*
Y180931D01*
X432964Y180892D01*
Y180847D01*
X432958Y180742D01*
X432941Y180620D01*
X432925Y180493D01*
X432897Y180360D01*
X432864Y180227D01*
Y180222D01*
X432858Y180211D01*
X432853Y180194D01*
X432847Y180172D01*
X432825Y180111D01*
X432792Y180033D01*
X432759Y179945D01*
X432714Y179856D01*
X432659Y179762D01*
X432604Y179674D01*
X432598Y179662D01*
X432576Y179635D01*
X432543Y179596D01*
X432498Y179546D01*
X432449Y179491D01*
X432388Y179436D01*
X432327Y179375D01*
X432255Y179325D01*
X432244Y179319D01*
X432222Y179303D01*
X432183Y179280D01*
X432127Y179253D01*
X432061Y179219D01*
X431983Y179192D01*
X431895Y179159D01*
X431795Y179131D01*
X431784D01*
X431768Y179125D01*
X431751Y179120D01*
X431696Y179114D01*
X431618Y179103D01*
X431529Y179092D01*
X431424Y179081D01*
X431308Y179076D01*
X431181Y179070D01*
X429802D01*
Y182902D01*
X431275D01*
X431374Y182896D01*
D02*
G37*
G36*
X278125Y135885D02*
Y135862D01*
Y135829D01*
X278119Y135785D01*
X278113Y135735D01*
X278102Y135680D01*
X278091Y135624D01*
X278069Y135563D01*
Y135558D01*
X278064Y135552D01*
X278053Y135519D01*
X278030Y135469D01*
X277997Y135403D01*
X277953Y135325D01*
X277897Y135237D01*
X277836Y135148D01*
X277759Y135054D01*
Y135048D01*
X277748Y135043D01*
X277720Y135010D01*
X277670Y134960D01*
X277598Y134888D01*
X277515Y134805D01*
X277410Y134705D01*
X277283Y134594D01*
X277144Y134478D01*
X277139Y134473D01*
X277117Y134456D01*
X277083Y134428D01*
X277045Y134395D01*
X276995Y134351D01*
X276934Y134301D01*
X276873Y134246D01*
X276801Y134185D01*
X276663Y134052D01*
X276524Y133919D01*
X276458Y133852D01*
X276397Y133786D01*
X276341Y133725D01*
X276297Y133664D01*
Y133659D01*
X276286Y133653D01*
X276275Y133636D01*
X276264Y133614D01*
X276225Y133553D01*
X276181Y133481D01*
X276142Y133393D01*
X276103Y133299D01*
X276081Y133193D01*
X276070Y133094D01*
Y133088D01*
Y133083D01*
X276076Y133049D01*
X276081Y132994D01*
X276098Y132933D01*
X276120Y132856D01*
X276159Y132778D01*
X276209Y132701D01*
X276275Y132623D01*
X276286Y132612D01*
X276314Y132590D01*
X276353Y132562D01*
X276413Y132523D01*
X276491Y132490D01*
X276580Y132457D01*
X276685Y132435D01*
X276801Y132429D01*
X276834D01*
X276856Y132435D01*
X276923Y132440D01*
X277000Y132457D01*
X277083Y132479D01*
X277178Y132518D01*
X277266Y132568D01*
X277349Y132634D01*
X277360Y132645D01*
X277383Y132673D01*
X277416Y132717D01*
X277449Y132784D01*
X277488Y132861D01*
X277521Y132961D01*
X277543Y133072D01*
X277554Y133199D01*
X278036Y133149D01*
Y133144D01*
X278030Y133127D01*
Y133099D01*
X278025Y133061D01*
X278014Y133016D01*
X278003Y132966D01*
X277986Y132905D01*
X277969Y132844D01*
X277925Y132712D01*
X277859Y132579D01*
X277820Y132512D01*
X277770Y132446D01*
X277720Y132385D01*
X277665Y132330D01*
X277659Y132324D01*
X277648Y132318D01*
X277632Y132302D01*
X277604Y132285D01*
X277571Y132263D01*
X277532Y132241D01*
X277488Y132213D01*
X277432Y132186D01*
X277371Y132158D01*
X277305Y132130D01*
X277233Y132108D01*
X277155Y132086D01*
X277072Y132069D01*
X276984Y132053D01*
X276890Y132047D01*
X276790Y132042D01*
X276735D01*
X276696Y132047D01*
X276652Y132053D01*
X276596Y132058D01*
X276535Y132069D01*
X276474Y132080D01*
X276330Y132119D01*
X276186Y132175D01*
X276115Y132208D01*
X276042Y132247D01*
X275976Y132296D01*
X275915Y132352D01*
X275910Y132357D01*
X275898Y132363D01*
X275887Y132385D01*
X275865Y132407D01*
X275838Y132435D01*
X275810Y132473D01*
X275782Y132512D01*
X275749Y132562D01*
X275694Y132667D01*
X275638Y132800D01*
X275616Y132867D01*
X275605Y132944D01*
X275594Y133022D01*
X275588Y133105D01*
Y133116D01*
Y133144D01*
X275594Y133188D01*
X275599Y133249D01*
X275611Y133315D01*
X275633Y133393D01*
X275655Y133476D01*
X275688Y133559D01*
X275694Y133570D01*
X275705Y133598D01*
X275727Y133642D01*
X275760Y133703D01*
X275804Y133769D01*
X275860Y133852D01*
X275926Y133935D01*
X276004Y134030D01*
X276015Y134041D01*
X276042Y134074D01*
X276070Y134101D01*
X276098Y134129D01*
X276131Y134162D01*
X276175Y134207D01*
X276220Y134251D01*
X276275Y134301D01*
X276330Y134356D01*
X276397Y134417D01*
X276469Y134478D01*
X276546Y134550D01*
X276635Y134622D01*
X276724Y134699D01*
X276729Y134705D01*
X276740Y134716D01*
X276762Y134733D01*
X276790Y134755D01*
X276823Y134788D01*
X276862Y134821D01*
X276951Y134893D01*
X277045Y134976D01*
X277133Y135059D01*
X277211Y135131D01*
X277244Y135159D01*
X277272Y135187D01*
X277277Y135192D01*
X277294Y135209D01*
X277316Y135231D01*
X277344Y135264D01*
X277371Y135303D01*
X277405Y135342D01*
X277471Y135436D01*
X275583D01*
Y135890D01*
X278125D01*
Y135885D01*
D02*
G37*
G36*
X383116Y179070D02*
X382590D01*
X380586Y182077D01*
Y179070D01*
X380099D01*
Y182902D01*
X380619D01*
X382629Y179890D01*
Y182902D01*
X383116D01*
Y179070D01*
D02*
G37*
G36*
X376660D02*
X376128D01*
X374645Y182902D01*
X375198D01*
X376195Y180117D01*
Y180111D01*
X376200Y180100D01*
X376206Y180083D01*
X376217Y180061D01*
X376223Y180028D01*
X376234Y179995D01*
X376261Y179912D01*
X376295Y179818D01*
X376328Y179712D01*
X376394Y179491D01*
Y179496D01*
X376400Y179507D01*
X376405Y179524D01*
X376411Y179546D01*
X376427Y179607D01*
X376455Y179690D01*
X376483Y179784D01*
X376516Y179890D01*
X376555Y180000D01*
X376599Y180117D01*
X377640Y182902D01*
X378155D01*
X376660Y179070D01*
D02*
G37*
G36*
X379207D02*
X378698D01*
Y182902D01*
X379207D01*
Y179070D01*
D02*
G37*
G36*
X302402Y163830D02*
X301931D01*
Y166826D01*
X301926Y166820D01*
X301898Y166798D01*
X301865Y166765D01*
X301810Y166726D01*
X301749Y166676D01*
X301671Y166621D01*
X301583Y166560D01*
X301483Y166499D01*
X301477D01*
X301472Y166493D01*
X301439Y166471D01*
X301383Y166444D01*
X301317Y166410D01*
X301239Y166372D01*
X301156Y166333D01*
X301073Y166294D01*
X300990Y166261D01*
Y166715D01*
X300996D01*
X301007Y166726D01*
X301029Y166731D01*
X301056Y166748D01*
X301090Y166765D01*
X301128Y166787D01*
X301223Y166842D01*
X301333Y166903D01*
X301444Y166981D01*
X301560Y167069D01*
X301677Y167163D01*
X301682Y167169D01*
X301688Y167174D01*
X301704Y167191D01*
X301726Y167208D01*
X301776Y167263D01*
X301843Y167330D01*
X301909Y167407D01*
X301981Y167496D01*
X302042Y167584D01*
X302097Y167678D01*
X302402D01*
Y163830D01*
D02*
G37*
%LPC*%
G36*
X431197Y182448D02*
X430311D01*
Y179524D01*
X431219D01*
X431258Y179530D01*
X431341Y179535D01*
X431435Y179541D01*
X431535Y179552D01*
X431635Y179568D01*
X431718Y179590D01*
X431729Y179596D01*
X431757Y179602D01*
X431795Y179618D01*
X431845Y179640D01*
X431900Y179674D01*
X431956Y179707D01*
X432011Y179746D01*
X432066Y179790D01*
X432072Y179801D01*
X432094Y179823D01*
X432127Y179862D01*
X432166Y179917D01*
X432211Y179989D01*
X432260Y180072D01*
X432305Y180166D01*
X432343Y180272D01*
Y180277D01*
X432349Y180288D01*
X432355Y180305D01*
X432360Y180327D01*
X432366Y180355D01*
X432377Y180393D01*
X432388Y180432D01*
X432399Y180476D01*
X432415Y180587D01*
X432432Y180714D01*
X432443Y180858D01*
X432449Y181014D01*
Y181019D01*
Y181041D01*
Y181069D01*
X432443Y181113D01*
Y181163D01*
X432438Y181218D01*
X432432Y181285D01*
X432426Y181351D01*
X432399Y181501D01*
X432366Y181656D01*
X432316Y181800D01*
X432282Y181872D01*
X432249Y181933D01*
Y181938D01*
X432238Y181949D01*
X432227Y181966D01*
X432216Y181988D01*
X432172Y182043D01*
X432116Y182110D01*
X432044Y182182D01*
X431961Y182254D01*
X431867Y182315D01*
X431768Y182365D01*
X431757Y182370D01*
X431729Y182376D01*
X431679Y182392D01*
X431607Y182409D01*
X431518Y182420D01*
X431408Y182437D01*
X431341Y182442D01*
X431269D01*
X431197Y182448D01*
D02*
G37*
%LPD*%
D82*
X202632Y245388D02*
X217628D01*
Y237890D01*
X215128Y235391D01*
X210130D01*
X207631Y237890D01*
Y245388D01*
X202632Y230393D02*
Y225394D01*
Y227894D01*
X217628D01*
X215128Y230393D01*
M02*
